<svg xmlns="http://www.w3.org/2000/svg" viewBox="0 0 388.76 291.89"><defs><style>.cls-1,.cls-3{fill:#e76650;}.cls-1{opacity:0.3;}.cls-2{fill:#3c2a34;}.cls-4{fill:#fbe4d3;}.cls-5{fill:#efcac4;}.cls-6{fill:#fffaef;}.cls-7{fill:#707173;}.cls-8{fill:#fab217;}.cls-9{fill:#f8e2d2;}.cls-10{fill:#e20944;}.cls-11{fill:#fff9ef;}.cls-12{font-size:32.28px;fill:#fff;font-family:BebasNeueBold, BebasNeueBold;}.cls-13{letter-spacing:0em;}.cls-14{letter-spacing:-0.01em;}</style></defs><title>Asset 1</title><g id="Layer_2" data-name="Layer 2"><g id="OBJECT"><ellipse class="cls-1" cx="189.26" cy="282.3" rx="156.84" ry="9.6"/><path class="cls-2" d="M168.46,37.89,144.76,0s-18.52,4-17.62,41.46Z"/><path class="cls-3" d="M158.84,40l-15-29.19S130,19.38,130.78,41.15Z"/><path class="cls-4" d="M151.42,35.39s-.94-11.48-11.49-13.61l4.06,7.6s-2.29-1.41-6.71-.79c0,0,5.12,4.05,5.48,8.43a7.07,7.07,0,0,0-2.3-7.62s4.24,1.22,5.12,2.81c0,0,0-4.77-2.82-7.6C142.76,24.61,148.41,27.26,151.42,35.39Z"/><path class="cls-2" d="M223.87,37.89,247.57,0s18.52,4,17.62,41.46Z"/><path class="cls-3" d="M233.49,40l15-29.19s13.83,8.58,13.09,30.35Z"/><path class="cls-4" d="M240.91,35.39s.94-11.48,11.49-13.61l-4.06,7.6s2.3-1.41,6.71-.79c0,0-5.12,4.05-5.48,8.43a7.07,7.07,0,0,1,2.3-7.62s-4.24,1.22-5.12,2.81c0,0,0-4.77,2.82-7.6C249.57,24.61,243.92,27.26,240.91,35.39Z"/><path class="cls-4" d="M127.36,41.46s-46.82,67.77-37.9,86.17S195.84,237,195.84,237s107.8-105.42,107.8-127.92-38.45-67.65-38.45-67.65S189.84,26,127.36,41.46Z"/><path class="cls-4" d="M97.73,283.43S35.26,229.77,96.6,94.28c21.71-48,188.26-35.59,199.36-9.35,55.3,130.84,7.68,198.5,7.68,198.5Z"/><path class="cls-5" d="M96.59,94.3S80.12,306.11,322.69,204.94c0,0,2.8,45.07-19.05,78.49H89.46S40.92,206.33,96.59,94.3Z"/><polygon class="cls-2" points="195.47 71.39 195.47 114.56 186.36 131.99 198.16 117.09 208.78 131.99 199.78 112.97 198.16 69.86 195.47 71.39"/><path class="cls-6" d="M265.59,185.13s5.86,38.94-10,51.9a96.1,96.1,0,0,0,0-21.36s-9.86,29.92-39.77,35c0,0,20.78,6.29,37.47-24.88,0,0,1.26,14.49,0,19.21C253.31,245,277.24,230.16,265.59,185.13Z"/><path class="cls-6" d="M255,120.2s4.1,39.16-12.31,51.39a95.9,95.9,0,0,0,1-21.33s-11.2,29.44-41.31,33.12c0,0,20.48,7.23,38.55-23.16,0,0,.61,14.53-.86,19.19C240,179.41,264.57,165.7,255,120.2Z"/><path class="cls-6" d="M121.64,185.13s-5.86,38.94,10,51.9a95.4,95.4,0,0,1,0-21.36s9.86,29.92,39.77,35c0,0-20.78,6.29-37.47-24.88,0,0-1.26,14.49,0,19.21C133.92,245,110,230.16,121.64,185.13Z"/><path class="cls-6" d="M104.65,122.72s-24.8,37.9-18,57.92a135.71,135.71,0,0,1,10.89-22.12s-6.91,35.09,15.82,52.75c0,0-20.79-2.12-19-41.36,0,0-8.45,14.48-9.79,19.9C84.54,189.81,71.84,164.52,104.65,122.72Z"/><path class="cls-6" d="M141.16,138.77s15.17,33.06,46.6,46l-18.32-23S196,180,214.76,171.14c0,0-15.73,12.27-34.1-1l10.93,18.75S154.43,180,141.16,138.77Z"/><path class="cls-5" d="M94.17,283.34s13.41-72.1-27.83-86.37C35.14,186.18,20,149.12,49.87,126.45c0,0-65.32,7.25-34.08,87.18L2.73,197S-24.67,286.73,94.17,283.34Z"/><path class="cls-6" d="M26.71,167s-5.86,38.93,10,51.9a96.13,96.13,0,0,1,0-21.36s9.86,29.92,39.77,35c0,0-20.78,6.3-37.47-24.87,0,0-1.26,14.48,0,19.2C39,226.82,15.06,212,26.71,167Z"/><path class="cls-2" d="M225.39,108.37s-17.3-43-31.53-39.35c-13.51,3.43-26.92,40.71-26.92,40.71s13.53-46.81,29.87-45.84S225.39,108.37,225.39,108.37Z"/><polygon class="cls-2" points="187.26 43.8 186.58 62.71 133.42 62.71 184.22 59.98 187.26 43.8"/><polygon class="cls-2" points="205.07 43.8 205.75 62.71 258.91 62.71 208.11 59.98 205.07 43.8"/><path class="cls-3" d="M187.23,68.56s5.41,14.24,9.68,13.65c5.4-.75,9.11-13.36,9.11-13.36S197.57,56.67,187.23,68.56Z"/><path class="cls-4" d="M195.37,79.09s-.4-8.33-3.78-8.33A18.39,18.39,0,0,1,195.37,79.09Z"/><path class="cls-4" d="M197.57,79.09s.39-8.33,3.78-8.33A18.39,18.39,0,0,0,197.57,79.09Z"/><path class="cls-7" d="M130.68,65.41h50.81s-6.13,42.29-25.41,36.69S130.68,65.41,130.68,65.41Z"/><path class="cls-8" d="M130.68,65.53h50.81s-6.13,31.36-25.41,26.63S130.68,65.53,130.68,65.53Z"/><path class="cls-2" d="M143.27,65.53h31s-3.4,16-15.52,16.27C146.07,82.1,143.27,65.53,143.27,65.53Z"/><path class="cls-4" d="M174.92,71.09a2.62,2.62,0,1,1-2.62-2.62A2.61,2.61,0,0,1,174.92,71.09Z"/><path class="cls-7" d="M261.65,65.41H210.84s6.88,42,26.15,36.36S261.65,65.41,261.65,65.41Z"/><path class="cls-8" d="M261.65,65.53H210.84S217,96.89,236.25,92.16,261.65,65.53,261.65,65.53Z"/><path class="cls-2" d="M249.06,65.53H218s3.4,16,15.52,16.27C246.26,82.1,249.06,65.53,249.06,65.53Z"/><path class="cls-4" d="M243,71.09a2.62,2.62,0,1,0,2.62-2.62A2.62,2.62,0,0,0,243,71.09Z"/><path class="cls-9" d="M366,146.32s-6.12,51.94-55,54.31l-2-80.43s18.91,41.88,37.14,3.9C346.1,124.1,365.74,132.86,366,146.32Z"/><polygon class="cls-2" points="342.58 104.47 346.1 172.12 338.4 172.12 336.04 104.47 342.58 104.47"/><path class="cls-9" d="M346,121.34s-21.54.88-18.11,17.6S343,171.68,356,163.67,372.62,123.72,346,121.34Z"/><polygon class="cls-10" points="316.82 109.75 292.85 68.22 316.82 26.69 364.78 26.69 388.76 68.22 364.78 109.75 316.82 109.75"/><path class="cls-10" d="M312.92,41.74a52.16,52.16,0,0,1,1-10.06L292.82,68.22l24,41.53h47.95L375,92.09a51.45,51.45,0,0,1-62-50.35Z"/><path class="cls-11" d="M362.62,105.39H319L297.14,68.22,319,31.05h43.64l21.85,37.17Zm-42.11-2.67H361.1l20.28-34.5L361.1,33.71H320.51L300.23,68.22Z"/><text class="cls-12" transform="translate(309.81 78.88)">e<tspan class="cls-13" x="16.17" y="0">r</tspan><tspan class="cls-14" x="26.86" y="0">r</tspan><tspan x="37.09" y="0">or</tspan></text><path class="cls-6" d="M90.81,65.53S121.9,96,191.73,90.34C191.73,90.34,125.92,101.84,90.81,65.53Z"/><path class="cls-6" d="M79.54,81.46s43.11,28.27,111.65,10.9C191.19,92.36,119,113,79.54,81.46Z"/><path class="cls-6" d="M90.81,104.24s40.59,21,100.95-10C191.76,94.28,134.15,130.18,90.81,104.24Z"/><path class="cls-6" d="M301.52,65.53S270.43,96,200.6,90.34C200.6,90.34,266.41,101.84,301.52,65.53Z"/><path class="cls-6" d="M312.79,81.46s-43.11,28.27-111.65,10.9C201.14,92.36,273.29,113,312.79,81.46Z"/><path class="cls-6" d="M301.52,104.24s-40.59,21-100.95-10C200.57,94.28,258.18,130.18,301.52,104.24Z"/><path class="cls-6" d="M293.1,134.76s23,32,14.82,50.73a95.36,95.36,0,0,0-9.75-19s4.9,31.11-19.42,49.25c0,0,21.37-3.89,22-39.24,0,0,7.73,12.31,8.77,17.09C309.5,193.59,324,169.49,293.1,134.76Z"/></g></g></svg>