<svg id="OBJECTS" xmlns="http://www.w3.org/2000/svg" viewBox="0 0 283.34 283.34"><defs><style>.cls-1{fill:#feea84;}.cls-2{fill:#e5ce70;}.cls-3{fill:#c9b45c;}.cls-4{fill:#717fbf;}.cls-5{fill:#b9d7fe;}.cls-10,.cls-11,.cls-12,.cls-6{fill:none;}.cls-10,.cls-11,.cls-6{stroke:#717fbf;stroke-linecap:round;}.cls-6{stroke-linejoin:round;}.cls-11,.cls-6{stroke-width:2px;}.cls-7{fill:#fff;}.cls-8{fill:#e3eaff;}.cls-9{fill:#394060;}.cls-10,.cls-11{stroke-miterlimit:10;}.cls-10{stroke-width:1.89px;}</style></defs><title>404-b</title><circle class="cls-1" cx="141.67" cy="141.67" r="141.67"/><ellipse class="cls-2" cx="157.67" cy="226.79" rx="71.8" ry="28.09"/><ellipse class="cls-3" cx="153.31" cy="216.91" rx="57.6" ry="22.73"/><path class="cls-4" d="M254.78,123.17h4.12a56.66,56.66,0,0,1,56.66,56.66h0v80a41.32,41.32,0,0,1-41.33,41.33H239.45a41.32,41.32,0,0,1-41.33-41.33h0v-80a56.66,56.66,0,0,1,56.66-56.66Z" transform="translate(-108.34 -69.09)"/><path class="cls-5" d="M168.61,297.91l-4.41-3.39c10.32-13.42,14.64-32,12.84-55.37-.71-9.23-2.23-18.6-3.71-27.66-1.69-10.36-3.43-21.09-4-31.81-1.3-24.38,4.48-44.62,16.74-58.51,10.58-12,26.8-19.74,43.38-20.69a54.13,54.13,0,0,1,29,6c9.27,5.06,16,13.15,18.58,22.19l-5.36,1.5c-2.13-7.61-7.92-14.46-15.89-18.8-7.31-4-16.56-5.88-26.05-5.34-15.13.87-29.91,7.9-39.53,18.81C176,141,174,163.42,174.88,179.39c.56,10.42,2.28,21,4,31.21,1.49,9.17,3,18.66,3.76,28.12C184.5,263.46,179.8,283.37,168.61,297.91Z" transform="translate(-108.34 -69.09)"/><line class="cls-6" x1="53.49" y1="223" x2="45.64" y2="220.51"/><line class="cls-6" x1="52.1" y1="227.12" x2="43.65" y2="229.55"/><line class="cls-6" x1="54.98" y1="230.35" x2="52.3" y2="237.5"/><line class="cls-6" x1="60.25" y1="232.34" x2="63.43" y2="239"/><line class="cls-6" x1="64.23" y1="228.34" x2="72.77" y2="229.45"/><path class="cls-5" d="M224.76,268.55V181a57.48,57.48,0,0,1,47.5-56.42,56.66,56.66,0,0,0-6.25-.37h0a55.3,55.3,0,0,0-55.14,55.14v84.29A40.37,40.37,0,0,0,243,303,41.81,41.81,0,0,1,224.76,268.55Z" transform="translate(-108.34 -69.09)"/><path class="cls-7" d="M286.79,128.3a64.08,64.08,0,0,1,18.72,45.25V271.9a46.65,46.65,0,0,1-10.37,29.33,40.37,40.37,0,0,0,26-37.61V179.33A55.29,55.29,0,0,0,286.79,128.3Z" transform="translate(-108.34 -69.09)"/><path class="cls-8" d="M305.51,173.55a64.08,64.08,0,0,0-18.72-45.25,54.54,54.54,0,0,0-14.53-3.74A57.49,57.49,0,0,0,224.76,181v87.57A41.84,41.84,0,0,0,243,303a39.92,39.92,0,0,0,8.08.82h29.84a39.88,39.88,0,0,0,14.21-2.61,46.65,46.65,0,0,0,10.37-29.33Z" transform="translate(-108.34 -69.09)"/><path class="cls-9" d="M258.58,208.94a2.69,2.69,0,1,1-2.7-2.68h0a2.68,2.68,0,0,1,2.69,2.67Z" transform="translate(-108.34 -69.09)"/><path class="cls-9" d="M300.69,208.94a2.69,2.69,0,1,1-2.7-2.68h0a2.68,2.68,0,0,1,2.69,2.67Z" transform="translate(-108.34 -69.09)"/><path class="cls-9" d="M256.78,224.45a23.05,23.05,0,0,1,8.75-7.22,26,26,0,0,1,11.29-2.58,25.68,25.68,0,0,1,11.29,2.58,22.81,22.81,0,0,1,8.75,7.22,38.27,38.27,0,0,0-9.64-5.06,32,32,0,0,0-20.8,0A38.27,38.27,0,0,0,256.78,224.45Z" transform="translate(-108.34 -69.09)"/><path class="cls-9" d="M303.59,204.51a3,3,0,0,1-2.22.85,4.05,4.05,0,0,1-2.3-.78,4.14,4.14,0,0,1-1.44-2,3,3,0,0,1,.16-2.37c.61.58,1.06,1,1.51,1.36l1.24,1a14.81,14.81,0,0,0,1.3.9C302.32,203.78,302.85,204.1,303.59,204.51Z" transform="translate(-108.34 -69.09)"/><path class="cls-9" d="M249.49,206c.73-.4,1.27-.71,1.75-1s.89-.6,1.3-.9a14.7,14.7,0,0,0,1.24-1c.43-.39.9-.79,1.51-1.36a3,3,0,0,1,.15,2.37,4,4,0,0,1-1.44,2,4,4,0,0,1-2.29.79A3,3,0,0,1,249.49,206Z" transform="translate(-108.34 -69.09)"/><path class="cls-10" d="M217,241s-28,19.85,61,16.39" transform="translate(-108.34 -69.09)"/><path class="cls-11" d="M321.15,239.81S347,257,284.57,257" transform="translate(-108.34 -69.09)"/><path class="cls-11" d="M256.19,304.21s10.19-136.57,16.92,5.69" transform="translate(-108.34 -69.09)"/><path class="cls-11" d="M282.8,304.17s10.2-136.07,16.93,6.19" transform="translate(-108.34 -69.09)"/><path class="cls-9" d="M289.88,257c0,1.79-2.11,3.24-4.7,3.24s-4.7-1.45-4.7-3.24,2.1-3.23,4.7-3.23S289.88,255.16,289.88,257Z" transform="translate(-108.34 -69.09)"/><ellipse class="cls-9" cx="167.44" cy="188.37" rx="4.7" ry="3.24"/><path class="cls-9" d="M283.78,316.06c-.71,1.64-4.36,1.63-8.14,0s-6.28-4.32-5.57-5.95,4.37-1.64,8.15,0S284.5,314.42,283.78,316.06Z" transform="translate(-108.34 -69.09)"/><path class="cls-9" d="M310.08,315.06c-.71,1.64-4.36,1.63-8.15,0s-6.27-4.32-5.56-6,4.36-1.63,8.15,0S310.79,313.42,310.08,315.06Z" transform="translate(-108.34 -69.09)"/><path class="cls-4" d="M210.87,191.17a163.35,163.35,0,0,1,27.2-6.92c4.62-.82,9.28-1.41,14-1.91s9.36-.72,14.06-.86a153.74,153.74,0,0,1,28.11,1.83,119.62,119.62,0,0,1,13.76,3,101.1,101.1,0,0,1,13.2,4.82c-4.5-1.28-9-2.5-13.55-3.38-1.13-.26-2.28-.43-3.42-.65s-2.27-.43-3.42-.58l-3.44-.51-3.45-.42c-4.6-.48-9.21-.92-13.84-1s-9.26-.26-13.88-.11a271,271,0,0,0-27.74,2.08C229.2,187.72,220,189.21,210.87,191.17Z" transform="translate(-108.34 -69.09)"/><line class="cls-11" x1="166.04" y1="113.83" x2="166.04" y2="56.64"/><path class="cls-4" d="M273.26,171.66h0a5.54,5.54,0,0,1-5.52-5.52V139.72a5.53,5.53,0,0,1,5.52-5.52h0a5.54,5.54,0,0,1,5.52,5.52v26.42A5.54,5.54,0,0,1,273.26,171.66Z" transform="translate(-108.34 -69.09)"/><path class="cls-4" d="M274.52,134.35v37.16a5.54,5.54,0,0,0,4.26-5.37V139.72A5.54,5.54,0,0,0,274.52,134.35Z" transform="translate(-108.34 -69.09)"/><path class="cls-4" d="M273.26,171.66h0a5.54,5.54,0,0,1-5.52-5.52V139.72a5.53,5.53,0,0,1,5.52-5.52h0a5.54,5.54,0,0,1,5.52,5.52v26.42A5.54,5.54,0,0,1,273.26,171.66Z" transform="translate(-108.34 -69.09)"/><path class="cls-5" d="M275.38,170.75h0a5.54,5.54,0,0,1-5.52-5.52V138.81a5.54,5.54,0,0,1,5.52-5.52h0a5.54,5.54,0,0,1,5.52,5.52v26.42A5.53,5.53,0,0,1,275.38,170.75Z" transform="translate(-108.34 -69.09)"/><path class="cls-7" d="M276.64,133.44V170.6a5.54,5.54,0,0,0,4.26-5.37V138.81A5.54,5.54,0,0,0,276.64,133.44Z" transform="translate(-108.34 -69.09)"/><path class="cls-12" d="M275.38,170.75h0a5.54,5.54,0,0,1-5.52-5.52V138.81a5.54,5.54,0,0,1,5.52-5.52h0a5.54,5.54,0,0,1,5.52,5.52v26.42A5.53,5.53,0,0,1,275.38,170.75Z" transform="translate(-108.34 -69.09)"/><line class="cls-11" x1="193.66" y1="51.92" x2="193.66" y2="89.67"/><line class="cls-11" x1="186.62" y1="54.88" x2="186.62" y2="76.55"/><line class="cls-11" x1="200.69" y1="63.41" x2="200.69" y2="87.28"/></svg>