<svg id="Images" xmlns="http://www.w3.org/2000/svg" width="748.719" height="666.19" viewBox="0 0 748.719 666.19">
  <metadata><?xpacket begin="﻿" id="W5M0MpCehiHzreSzNTczkc9d"?>
<x:xmpmeta xmlns:x="adobe:ns:meta/" x:xmptk="Adobe XMP Core 5.6-c142 79.160924, 2017/07/13-01:06:39        ">
   <rdf:RDF xmlns:rdf="http://www.w3.org/1999/02/22-rdf-syntax-ns#">
      <rdf:Description rdf:about=""/>
   </rdf:RDF>
</x:xmpmeta>
                                                                                                    
                                                                                                    
                                                                                                    
                                                                                                    
                                                                                                    
                                                                                                    
                                                                                                    
                                                                                                    
                                                                                                    
                                                                                                    
                                                                                                    
                                                                                                    
                                                                                                    
                                                                                                    
                                                                                                    
                                                                                                    
                                                                                                    
                                                                                                    
                                                                                                    
                                                                                                    
                           
<?xpacket end="w"?></metadata>
<defs>
    <style>
      .cls-1, .cls-4 {
        fill: none;
        stroke: #f9f4f5;
      }

      .cls-1 {
        stroke-width: 8.28px;
      }

      .cls-1, .cls-2, .cls-3, .cls-4 {
        fill-rule: evenodd;
      }

      .cls-2 {
        fill: #efefef;
      }

      .cls-3 {
        fill: #f1e2e5;
      }

      .cls-4 {
        stroke-width: 1px;
      }
    </style>
  </defs>
  <path id="Shape_" data-name="Shape " class="cls-1" d="M755,1515s241,18,116,233" transform="translate(-225.281 -1431.81)"/>
  <path class="cls-2" d="M584,1509c36.962,76.94,211.416,9.57,256.441,77.91C938.931,1736.39,763.082,1771.34,828,1825c135.977,112.38,112.782,250.89-238,237-431.889-17.11-253.423-127.97-304-256-31.044-78.59-69.7-60.35,35.8-241.17C386.221,1454.42,512.145,1359.42,584,1509Z" transform="translate(-225.281 -1431.81)"/>
  <path id="Shape_603_copy" data-name="Shape 603 copy" class="cls-3" d="M634.328,1894.87c47.179-22.66,5.87-129.61,47.771-157.21,91.656-60.39,113.089,47.42,145.987,7.62,68.909-83.36,153.838-69.14,145.319,145.91-10.488,264.78-78.466,155.37-156.969,186.37-48.186,19.04-37,42.74-147.874-21.94C600.863,2016.12,542.609,1938.92,634.328,1894.87Z" transform="translate(-225.281 -1431.81)"/>
  <path id="Shape_2" data-name="Shape " class="cls-4" d="M288,1562s-108.334,119.66-37.036,201.26c-0.02,1.78,51.365,99.08,1.036,157.74" transform="translate(-225.281 -1431.81)"/>
</svg>
