<svg id="OBJECTS" xmlns="http://www.w3.org/2000/svg" viewBox="0 0 144.56 128.36"><defs><style>.cls-1{fill:#ba0245;}.cls-2{fill:#8ac6e0;}.cls-3{fill:#ff1d79;}.cls-4{fill:#e20944;}</style></defs><title>bannerStyle-3</title><path class="cls-1" d="M651.11,283.67c-.45-20.66-16.37-44.6-42.33-60.29s-54.56-18.67-73.06-9.46L530.85,211l-11,18.13.08,0c-11.66,22.94,5.14,57,38.65,77.2s71.43,19.32,86.32-1.66l.08,0,11-18.13ZM572.74,283c-19.54-11.81-30.48-29.5-24.42-39.52s26.8-8.55,46.34,3.26,30.48,29.5,24.42,39.52S592.28,294.81,572.74,283Z" transform="translate(-516.28 -192.65)"/><path class="cls-2" d="M616.77,290.08l2.31-3.82a11.47,11.47,0,0,1-3.1,3.34Z" transform="translate(-516.28 -192.65)"/><path class="cls-2" d="M548.32,243.48,546,247.31l.8.48A11.45,11.45,0,0,1,548.32,243.48Z" transform="translate(-516.28 -192.65)"/><path class="cls-3" d="M594.66,246.74c19.54,11.81,30.48,29.5,24.42,39.52L639.77,252a93.12,93.12,0,0,0-13.46-15.51L589,214a92.64,92.64,0,0,0-20-4.71l-20.68,34.22C554.37,233.47,575.12,234.93,594.66,246.74Z" transform="translate(-516.28 -192.65)"/><path class="cls-4" d="M618.5,207.3c-34.56-20.88-73.8-19.24-87.65,3.68s2.93,58.42,37.49,79.31,73.79,19.24,87.64-3.68S653.05,228.19,618.5,207.3Zm-36,59.63C562.91,255.12,552,237.42,558,227.41s26.8-8.56,46.35,3.25,30.47,29.51,24.42,39.52S602,278.74,582.46,266.93Z" transform="translate(-516.28 -192.65)"/></svg>