<svg id="OBJECTS" xmlns="http://www.w3.org/2000/svg" xmlns:xlink="http://www.w3.org/1999/xlink" viewBox="0 0 392.63 234.83"><defs><style>.cls-1{fill:none;}.cls-2{fill:#f2f1f7;}.cls-3{fill:#fff;}.cls-4{fill:#d2cbe3;}.cls-5{fill:#48373a;}.cls-6{fill:url(#Degradado_sin_nombre_36);}.cls-7{fill:#ff6396;}.cls-8{fill:#edeef0;}.cls-9{fill:#565656;}.cls-10{fill:url(#Degradado_sin_nombre_34);}.cls-11{fill:#777;}.cls-12{fill:#e20944;}.cls-13{fill:#9dae00;}.cls-14{fill:#ffc233;}.cls-15{fill:#efa739;}.cls-16{fill:#eae9ff;}.cls-17{fill:#f4591c;}.cls-18{fill:#232323;}.cls-19{fill:#282828;}.cls-20{fill:#ff6822;}.cls-21{fill:#ffd7c2;}.cls-22{fill:#ffdcca;}.cls-23{isolation:isolate;}.cls-24{fill:#ed3a83;}.cls-25{fill:#ce0645;}.cls-26{fill:#111;}</style><linearGradient id="Degradado_sin_nombre_36" x1="26.6" y1="109.88" x2="350.24" y2="109.88" gradientUnits="userSpaceOnUse"><stop offset="0" stop-color="#ece4ff"/><stop offset="0.04" stop-color="#efe8ff"/><stop offset="0.24" stop-color="#f8f5ff"/><stop offset="0.49" stop-color="#fdfdff"/><stop offset="1" stop-color="#fff"/></linearGradient><linearGradient id="Degradado_sin_nombre_34" x1="52.84" y1="315.89" x2="648.84" y2="224.39" gradientUnits="userSpaceOnUse"><stop offset="0" stop-color="#fff"/><stop offset="0.41" stop-color="#fdfcff"/><stop offset="0.75" stop-color="#f5f1ff"/><stop offset="1" stop-color="#ece4ff"/></linearGradient></defs><title>banner-6</title><path class="cls-1" d="M61.4,310.17c-.07-.2-.1-.39-.15-.59C61.3,309.78,61.33,310,61.4,310.17Z" transform="translate(-60.94 -176.09)"/><path class="cls-1" d="M67,312.57c0,.06.09.13.14.18h0C67.11,312.7,67.07,312.63,67,312.57Z" transform="translate(-60.94 -176.09)"/><path class="cls-1" d="M61.08,308.9c0-.2,0-.4-.06-.6C61,308.5,61,308.7,61.08,308.9Z" transform="translate(-60.94 -176.09)"/><path class="cls-1" d="M61.93,311.42c-.1-.19-.17-.38-.25-.57C61.76,311,61.83,311.23,61.93,311.42Z" transform="translate(-60.94 -176.09)"/><path class="cls-1" d="M429.42,271.37l.26-.17c.35-.21.71-.43,1-.66h0C430.31,270.82,429.88,271.1,429.42,271.37Z" transform="translate(-60.94 -176.09)"/><path class="cls-1" d="M62.67,312.64c-.13-.18-.22-.36-.33-.54C62.45,312.28,62.54,312.46,62.67,312.64Z" transform="translate(-60.94 -176.09)"/><path class="cls-1" d="M432.21,269.28l0,0c.18-.18.37-.35.54-.53h0C432.6,268.91,432.4,269.09,432.21,269.28Z" transform="translate(-60.94 -176.09)"/><path class="cls-1" d="M431.1,270.23l.06-.05c.23-.17.46-.35.67-.53h0C431.61,269.85,431.35,270,431.1,270.23Z" transform="translate(-60.94 -176.09)"/><path class="cls-1" d="M437.27,268.62c-.16.22-.35.44-.53.66C436.92,269.06,437.11,268.84,437.27,268.62Z" transform="translate(-60.94 -176.09)"/><path class="cls-1" d="M438,267.4c-.12.23-.27.45-.4.67C437.73,267.85,437.88,267.63,438,267.4Z" transform="translate(-60.94 -176.09)"/><path class="cls-1" d="M438.83,264.9c0,.23-.11.45-.17.68C438.72,265.35,438.79,265.13,438.83,264.9Z" transform="translate(-60.94 -176.09)"/><path class="cls-1" d="M438.52,266.16c-.08.23-.19.45-.28.67C438.33,266.61,438.44,266.39,438.52,266.16Z" transform="translate(-60.94 -176.09)"/><path class="cls-1" d="M436.33,269.8c-.21.22-.45.44-.68.67C435.88,270.24,436.12,270,436.33,269.8Z" transform="translate(-60.94 -176.09)"/><path class="cls-1" d="M64.79,315c-.17-.15-.31-.3-.47-.45C64.48,314.66,64.62,314.81,64.79,315Z" transform="translate(-60.94 -176.09)"/><path class="cls-1" d="M63.62,313.82c-.15-.16-.27-.33-.41-.5C63.35,313.49,63.47,313.66,63.62,313.82Z" transform="translate(-60.94 -176.09)"/><path class="cls-1" d="M433.11,268.3l0,0c.14-.18.29-.35.42-.53h0C433.42,267.94,433.26,268.12,433.11,268.3Z" transform="translate(-60.94 -176.09)"/><path class="cls-1" d="M434.9,271.15l.28-.23-.28.22Z" transform="translate(-60.94 -176.09)"/><path class="cls-1" d="M360.6,231.35h0a.75.75,0,0,0-.28-.24h0A.92.92,0,0,1,360.6,231.35Z" transform="translate(-60.94 -176.09)"/><path class="cls-1" d="M341.64,221.76h0s0,.07,0,.1,0,0,0-.05S341.63,221.78,341.64,221.76Z" transform="translate(-60.94 -176.09)"/><path class="cls-2" d="M332.7,214.74c.11,0,.21,0,.32,0C332.91,214.7,332.81,214.73,332.7,214.74Z" transform="translate(-60.94 -176.09)"/><path class="cls-2" d="M335.23,215.57h0a.7.7,0,0,0-.14-.16h0A.7.7,0,0,1,335.23,215.57Z" transform="translate(-60.94 -176.09)"/><path class="cls-2" d="M335,215.32a1.46,1.46,0,0,0-.24-.17h0A1.52,1.52,0,0,1,335,215.32Z" transform="translate(-60.94 -176.09)"/><path class="cls-2" d="M330.82,215.56h0a.47.47,0,0,0-.05.1h0Z" transform="translate(-60.94 -176.09)"/><path class="cls-2" d="M330.69,215.81h0s0,.08,0,.12h0S330.68,215.85,330.69,215.81Z" transform="translate(-60.94 -176.09)"/><path class="cls-2" d="M331,215.32h0s0,.06-.07.08l0,0Z" transform="translate(-60.94 -176.09)"/><path class="cls-2" d="M331.76,214.94c.13,0,.23-.11.36-.14C332,214.83,331.89,214.9,331.76,214.94Z" transform="translate(-60.94 -176.09)"/><path class="cls-2" d="M335.41,216.08c0-.05,0-.1,0-.14h0S335.41,216,335.41,216.08Z" transform="translate(-60.94 -176.09)"/><path class="cls-2" d="M335.37,215.82s-.06-.1-.08-.16h0C335.31,215.72,335.35,215.77,335.37,215.82Z" transform="translate(-60.94 -176.09)"/><path d="M330.77,215.65h0a1.09,1.09,0,0,0-.08.15h0C330.71,215.76,330.74,215.71,330.77,215.65Z" transform="translate(-60.94 -176.09)"/><path d="M330.78,216.52l.05.08h0Z" transform="translate(-60.94 -176.09)"/><path d="M330.67,216.23v0Z" transform="translate(-60.94 -176.09)"/><path d="M330.67,215.92h0a.77.77,0,0,0,0,.15h0A1,1,0,0,1,330.67,215.92Z" transform="translate(-60.94 -176.09)"/><path d="M331,215.37l0,0-.14.16h0A1,1,0,0,1,331,215.37Z" transform="translate(-60.94 -176.09)"/><path d="M331.34,215.11a3.71,3.71,0,0,1,3.37,0,.18.18,0,0,1,.07,0h0l-.06,0a3.46,3.46,0,0,0-1.69-.41c-.11,0-.21,0-.32,0a3.8,3.8,0,0,0-.58.06c-.13,0-.23.1-.36.14a2.63,2.63,0,0,0-.42.17,1.86,1.86,0,0,0-.31.21h0A1.86,1.86,0,0,1,331.34,215.11Z" transform="translate(-60.94 -176.09)"/><path d="M331,216.76l0,0,.05.06h0Z" transform="translate(-60.94 -176.09)"/><path d="M335.09,215.41l0,0a.12.12,0,0,1,0,0Z" transform="translate(-60.94 -176.09)"/><path d="M335.29,215.67h0a.47.47,0,0,0-.06-.09h0A.33.33,0,0,1,335.29,215.67Z" transform="translate(-60.94 -176.09)"/><polygon points="274.44 39.85 274.44 39.84 274.44 39.85 274.44 39.85"/><path class="cls-3" d="M335.14,214.86a4.66,4.66,0,0,0-4.24,0c-1.17.67-1.16,1.77,0,2.45a4.22,4.22,0,0,0,2,.5,4.31,4.31,0,0,0,2.26-.5A1.29,1.29,0,0,0,335.14,214.86Zm-3.79,2.2h0a2.44,2.44,0,0,1-.31-.22l-.05-.06a1.29,1.29,0,0,1-.16-.18l-.05-.08a1,1,0,0,1-.1-.27v0a.57.57,0,0,1,0-.3s0-.08,0-.12a1.09,1.09,0,0,1,.08-.15.47.47,0,0,1,.05-.1l.14-.16s0-.05.07-.08a1.86,1.86,0,0,1,.31-.21,2.63,2.63,0,0,1,.42-.17c.13,0,.23-.11.36-.14a3.8,3.8,0,0,1,.58-.06c.11,0,.21,0,.32,0a3.46,3.46,0,0,1,1.69.41l.06,0a1.46,1.46,0,0,1,.24.17s0,0,0,0l0,0a.7.7,0,0,1,.14.16.47.47,0,0,1,.06.09c0,.06.06.11.08.16a.41.41,0,0,1,0,.11h0s0,.09,0,.14a.47.47,0,0,1,0,.17.34.34,0,0,1,0,.1,1.36,1.36,0,0,1-.65.71A3.71,3.71,0,0,1,331.35,217.06Z" transform="translate(-60.94 -176.09)"/><path d="M332.89,217.81a3.87,3.87,0,0,1-.48,0A3.87,3.87,0,0,0,332.89,217.81Z" transform="translate(-60.94 -176.09)"/><path class="cls-2" d="M357.6,222.17s0,0,0-.07h0s0,.05,0,.08Z" transform="translate(-60.94 -176.09)"/><path class="cls-2" d="M360.07,222.37Z" transform="translate(-60.94 -176.09)"/><path class="cls-2" d="M360,222.17h0a.32.32,0,0,0,0-.09h0A.32.32,0,0,1,360,222.17Z" transform="translate(-60.94 -176.09)"/><path d="M357.59,222.55h0a.38.38,0,0,0,0,.1h0A.38.38,0,0,1,357.59,222.55Z" transform="translate(-60.94 -176.09)"/><path d="M357.6,222.17h0a.52.52,0,0,0-.06.19h0A.4.4,0,0,1,357.6,222.17Z" transform="translate(-60.94 -176.09)"/><path d="M357.53,222.37Z" transform="translate(-60.94 -176.09)"/><path d="M357.9,221.85a2,2,0,0,1,1.8,0,1.05,1.05,0,0,1,.27.23h0a1.05,1.05,0,0,0-.27-.23,2,2,0,0,0-1.8,0,.77.77,0,0,0-.28.25h0A.77.77,0,0,1,357.9,221.85Z" transform="translate(-60.94 -176.09)"/><path d="M360.07,222.37h0a.37.37,0,0,0-.07-.2h0A.37.37,0,0,1,360.07,222.37Z" transform="translate(-60.94 -176.09)"/><path class="cls-2" d="M341.62,221.81s0,0,0,.05a.61.61,0,0,0-.05.18h0A.51.51,0,0,1,341.62,221.81Z" transform="translate(-60.94 -176.09)"/><path class="cls-2" d="M341.92,221.52a2,2,0,0,1,1.78,0l16.62,9.6h0l-16.62-9.6a2,2,0,0,0-1.78,0,.75.75,0,0,0-.28.24h0A.75.75,0,0,1,341.92,221.52Z" transform="translate(-60.94 -176.09)"/><path class="cls-4" d="M360,222.17a.32.32,0,0,0,0-.09,1.05,1.05,0,0,0-.27-.23,2,2,0,0,0-1.8,0,.77.77,0,0,0-.28.25s0,0,0,.07a.4.4,0,0,0-.07.2h0a.43.43,0,0,0,.06.18h0a.38.38,0,0,0,0,.1h0a1,1,0,0,0,.28.24,2,2,0,0,0,1.8,0,.62.62,0,0,0,.37-.52A.37.37,0,0,0,360,222.17Z" transform="translate(-60.94 -176.09)"/><path class="cls-2" d="M360.64,231.45s0-.07,0-.1h0S360.62,231.42,360.64,231.45Z" transform="translate(-60.94 -176.09)"/><path class="cls-2" d="M432.78,268.72h0c.13-.14.23-.29.35-.44l0,0C433,268.44,432.9,268.58,432.78,268.72Z" transform="translate(-60.94 -176.09)"/><path class="cls-2" d="M431.83,269.65h0c.15-.13.27-.27.41-.4l0,0C432.08,269.4,432,269.53,431.83,269.65Z" transform="translate(-60.94 -176.09)"/><path class="cls-2" d="M433.55,267.75h0a4.48,4.48,0,0,0,.28-.47v0C433.73,267.45,433.65,267.6,433.55,267.75Z" transform="translate(-60.94 -176.09)"/><path class="cls-2" d="M434.28,271.64l.62-.49h0Z" transform="translate(-60.94 -176.09)"/><path class="cls-2" d="M430.71,270.54h0l.45-.36-.06.05C431,270.33,430.85,270.44,430.71,270.54Z" transform="translate(-60.94 -176.09)"/><polygon class="cls-2" points="368.87 102.41 368.88 98.33 371.31 96.92 368.88 98.33 368.87 102.41"/><path class="cls-2" d="M433.82,272c-.49.35-1,.68-1.56,1C432.81,272.68,433.33,272.35,433.82,272Z" transform="translate(-60.94 -176.09)"/><path class="cls-2" d="M434.15,266.75c.08-.16.13-.32.2-.48h0c-.07.15-.12.31-.2.47Z" transform="translate(-60.94 -176.09)"/><path class="cls-2" d="M434.58,265.72v0Z" transform="translate(-60.94 -176.09)"/><path class="cls-2" d="M427,272.78l-4.23,2.46h0l4.23-2.46,2.43-1.41.26-.17-.26.17Z" transform="translate(-60.94 -176.09)"/><polygon class="cls-2" points="350.24 99.61 350.24 99.61 205.62 16.11 205.62 16.11 350.24 99.61"/><polygon class="cls-2" points="92.41 81.91 26.6 120.15 26.6 120.15 92.41 81.91"/><polygon class="cls-3" points="95.5 165.54 95.5 165.54 95.5 165.54 95.5 165.54 95.5 165.54"/><path class="cls-2" d="M138.9,341.35l.2-.16Z" transform="translate(-60.94 -176.09)"/><path class="cls-2" d="M156.45,341.63a8.77,8.77,0,0,0-1.3-.91,8.77,8.77,0,0,1,1.3.91Z" transform="translate(-60.94 -176.09)"/><polygon class="cls-2" points="76.53 166.71 76.53 166.71 76.53 166.71 76.53 166.71 76.53 166.71"/><path class="cls-2" d="M137.92,342.24s0,.05-.07.07S137.89,342.26,137.92,342.24Z" transform="translate(-60.94 -176.09)"/><path class="cls-2" d="M137.13,343.36l0,.12,0-.12Z" transform="translate(-60.94 -176.09)"/><polygon class="cls-2" points="76.53 166.71 76.53 166.71 76.53 166.71 76.53 166.71"/><path class="cls-2" d="M157.09,342.24h0a2.94,2.94,0,0,0-.31-.3,3.31,3.31,0,0,1,.27.26Z" transform="translate(-60.94 -176.09)"/><path class="cls-2" d="M157.28,342.47c-.05-.06-.09-.12-.14-.17l.06.07Z" transform="translate(-60.94 -176.09)"/><path class="cls-2" d="M156.54,341.7l-.09-.07h0Z" transform="translate(-60.94 -176.09)"/><path class="cls-5" d="M137.47,342.79h0a7.42,7.42,0,0,1,2.37-2.07,16.86,16.86,0,0,1,15.31,0,8,8,0,0,1,1.9,1.48,3.31,3.31,0,0,0-.27-.26l-.24-.24-.09-.07h0a8.77,8.77,0,0,0-1.3-.91,16.86,16.86,0,0,0-15.31,0c-.26.15-.51.31-.74.47l-.2.16a6.54,6.54,0,0,0-1,.89s0,.05-.07.07Z" transform="translate(-60.94 -176.09)"/><path class="cls-5" d="M157.2,342.37l-.06-.07,0-.06h0Z" transform="translate(-60.94 -176.09)"/><polygon class="cls-5" points="76.53 166.71 76.53 166.71 76.53 166.71 76.53 166.71 76.53 166.71"/><path class="cls-5" d="M137.34,343c-.07.12-.15.23-.21.35h0C137.19,343.24,137.27,343.13,137.34,343Z" transform="translate(-60.94 -176.09)"/><polygon class="cls-2" points="6.22 136.67 6.23 136.68 6.22 136.67 6.22 136.67"/><path class="cls-2" d="M66.16,316c-.16-.11-.3-.24-.46-.36C65.86,315.8,66,315.93,66.16,316Z" transform="translate(-60.94 -176.09)"/><path class="cls-3" d="M157.09,342.24l0,0a8,8,0,0,0-1.9-1.48,16.86,16.86,0,0,0-15.31,0,7.42,7.42,0,0,0-2.37,2.07h0c-.05.07-.08.15-.13.22s-.15.23-.21.35l0,.12c-1,2.11-.06,4.45,2.81,6.11a16.86,16.86,0,0,0,15.31,0c3.32-1.93,4-4.79,2.08-7.12l-.08-.1Z" transform="translate(-60.94 -176.09)"/><polygon class="cls-6" points="171.22 203.64 350.24 99.61 205.62 16.11 92.41 81.91 26.6 120.15 171.22 203.64"/><polygon class="cls-7" points="171.22 203.64 205.23 183.88 60.15 100.65 26.6 120.15 171.22 203.64"/><path class="cls-2" d="M229.94,387.29l-4,2.34c-5.44,3.16-13.4,4-20.18,2.48,6.78,1.5,14.74.68,20.18-2.48l4-2.34,4.23-2.45h0Z" transform="translate(-60.94 -176.09)"/><polygon class="cls-8" points="171.82 216.92 171.83 212.84 171.83 212.84 171.82 216.92"/><path class="cls-9" d="M61.08,308.9a5.63,5.63,0,0,0,.17.68c0,.2.08.39.15.59a6.5,6.5,0,0,0,.28.68c.08.19.15.38.25.57s.27.45.41.68.2.36.33.54.36.45.54.68.26.34.41.5.46.46.7.69.3.3.47.45.6.48.91.72c.16.12.3.25.46.36q.75.52,1.59,1l128.54,74.21a30.82,30.82,0,0,0,11.87,3.65,38.86,38.86,0,0,0,13-.73,27.66,27.66,0,0,0,7.57-2.92l4-2.34h0l4.23-2.46L425.6,276.88l4.23-2.46,2.43-1.41c.55-.33,1.07-.66,1.56-1,.17-.12.3-.24.46-.36l.62-.5.28-.22c.17-.14.31-.3.47-.45s.47-.45.68-.67.27-.35.41-.52.37-.44.53-.66.22-.37.33-.55.28-.44.4-.67.16-.38.24-.57.2-.44.28-.67.09-.39.14-.58.13-.45.17-.68,0-.4.05-.59c.31-3.64-1.91-7.34-6.72-10.12L303.62,180c-9-5.19-23.54-5.19-32.48,0l-2.43,1.42-4.23,2.46L75.89,293.45l-4.23,2.46-4,2.34c-4.46,2.59-6.68,6-6.67,9.37,0,.23,0,.45.05.68S61,308.7,61.08,308.9Zm9.4-9,4-2.34h0l4.23-2.46L267.32,185.5h0l4.23-2.46,2.43-1.41c7.37-4.29,19.4-4.29,26.82,0l128.53,74.21c4.64,2.67,6.39,6.4,5.26,9.86v0h0c-.06.19-.15.37-.23.56h0c-.07.15-.12.31-.2.47h0c-.09.18-.22.37-.33.55v0a4.48,4.48,0,0,1-.28.47c-.13.18-.28.35-.42.53s-.22.3-.35.44-.36.35-.54.53-.26.27-.41.4-.44.36-.67.53l-.45.36c-.32.23-.68.45-1,.66l-.26.17L427,272.78l-4.23,2.46h0L234.17,384.84h0l-4.23,2.45-4,2.34c-5.44,3.16-13.4,4-20.18,2.48a23.17,23.17,0,0,1-6.64-2.48L70.57,315.42a14,14,0,0,1-3.4-2.66h0c0-.05-.09-.12-.14-.18C63.44,308.46,64.58,303.32,70.48,299.89Z" transform="translate(-60.94 -176.09)"/><path class="cls-10" d="M67,312.57c0,.06.09.13.14.18h0a14,14,0,0,0,3.4,2.66L199.1,389.63a23.17,23.17,0,0,0,6.64,2.48c6.78,1.5,14.74.68,20.18-2.48l4-2.34,4.23-2.45,188.59-109.6,4.23-2.46,2.43-1.41c.46-.27.89-.55,1.29-.83.14-.1.26-.21.39-.31s.51-.38.73-.58.25-.25.38-.37.39-.37.57-.56.22-.28.33-.42.31-.36.44-.55.18-.3.27-.45.24-.37.33-.55.13-.32.2-.47.17-.37.23-.56v0c1.13-3.46-.62-7.19-5.26-9.86L300.8,181.63c-7.42-4.29-19.45-4.29-26.82,0L271.55,183l-4.23,2.46h0L78.73,295.09l-4.23,2.46h0l-4,2.34C64.58,303.32,63.44,308.46,67,312.57ZM138.53,340c4.93-2.86,12.95-2.86,17.92,0s5,7.52.05,10.38-12.94,2.86-17.9,0S133.6,342.83,138.53,340ZM335.15,217.31a4.31,4.31,0,0,1-2.26.5,4.22,4.22,0,0,1-2-.5c-1.18-.68-1.19-1.78,0-2.45a4.66,4.66,0,0,1,4.24,0A1.29,1.29,0,0,1,335.15,217.31Zm22.51,4.41a2.46,2.46,0,0,1,2.27,0,.69.69,0,0,1,0,1.31,2.5,2.5,0,0,1-2.26,0C357,222.66,357,222.08,357.66,221.72Zm2.67,10.43a2,2,0,0,1-1.79,0l-16.62-9.6a.62.62,0,0,1-.37-.51h0a.61.61,0,0,1,.05-.18s0-.07,0-.1a.75.75,0,0,1,.28-.24,2,2,0,0,1,1.78,0l16.62,9.6a.75.75,0,0,1,.28.24s0,.07,0,.1C360.75,231.69,360.66,232,360.33,232.15ZM153.35,258,266.56,192.2h0l144.62,83.5h0l-179,104L87.55,296.23h0Z" transform="translate(-60.94 -176.09)"/><path class="cls-4" d="M334.72,217.06a1.36,1.36,0,0,0,.65-.71.34.34,0,0,0,0-.1.47.47,0,0,0,0-.17c0-.05,0-.1,0-.14h0a.41.41,0,0,0,0-.11s-.06-.1-.08-.15a.33.33,0,0,0-.06-.1.7.7,0,0,0-.14-.16.12.12,0,0,0,0,0s0,0,0,0a1.52,1.52,0,0,0-.23-.16.18.18,0,0,0-.07,0,3.71,3.71,0,0,0-3.37,0,1.86,1.86,0,0,0-.31.21l0,.05a1,1,0,0,0-.17.19l-.05.09c0,.06-.06.11-.08.16s0,.08,0,.11a1,1,0,0,0,0,.16h0a.77.77,0,0,0,0,.15h0v0a1,1,0,0,0,.1.27l.05.08h0a1.29,1.29,0,0,0,.16.18l0,0,.08.08h0a2.44,2.44,0,0,0,.31.22h0A3.71,3.71,0,0,0,334.72,217.06Z" transform="translate(-60.94 -176.09)"/><path class="cls-3" d="M357.67,223a2.5,2.5,0,0,0,2.26,0,.69.69,0,0,0,0-1.31,2.46,2.46,0,0,0-2.27,0C357,222.08,357,222.66,357.67,223Zm-.05-.93a.77.77,0,0,1,.28-.25,2,2,0,0,1,1.8,0,1.05,1.05,0,0,1,.27.23.32.32,0,0,1,0,.09.37.37,0,0,1,.07.2h0a.62.62,0,0,1-.37.52,2,2,0,0,1-1.8,0,1,1,0,0,1-.28-.24.38.38,0,0,1,0-.1.43.43,0,0,1-.06-.18h0a.52.52,0,0,1,.06-.19S357.6,222.12,357.62,222.1Z" transform="translate(-60.94 -176.09)"/><path class="cls-4" d="M360.64,231.45s0-.07,0-.1a.92.92,0,0,0-.27-.24h0l-16.62-9.6a2,2,0,0,0-1.78,0,.75.75,0,0,0-.28.24s0,0,0,.05a.51.51,0,0,0-.07.23h0a.62.62,0,0,0,.37.51l16.62,9.6a2,2,0,0,0,1.79,0C360.66,232,360.75,231.69,360.64,231.45Z" transform="translate(-60.94 -176.09)"/><path class="cls-11" d="M156.5,350.34c4.93-2.86,4.91-7.51-.05-10.38s-13-2.86-17.92,0-4.9,7.51.07,10.38S151.58,353.2,156.5,350.34Zm-18.58-8.1a6.54,6.54,0,0,1,1-.89l.2-.16c.23-.16.48-.32.74-.47a16.86,16.86,0,0,1,15.31,0,8.77,8.77,0,0,1,1.3.91h0l.09.07.24.24a2.94,2.94,0,0,1,.31.3l0,.06c.05.05.09.11.14.17,1.92,2.33,1.24,5.19-2.08,7.12a16.86,16.86,0,0,1-15.31,0c-2.87-1.66-3.8-4-2.81-6.11l0-.12c.06-.12.14-.23.21-.35s.08-.15.13-.22h0l.38-.48S137.89,342.26,137.92,342.24Z" transform="translate(-60.94 -176.09)"/><path class="cls-11" d="M438.88,264.31c0,.19,0,.39-.05.59s-.11.45-.17.68-.08.39-.14.58-.19.45-.28.67-.15.39-.24.57-.27.45-.4.67-.21.37-.33.55-.35.44-.53.66-.26.35-.41.52-.45.44-.68.67-.3.31-.47.45l-.28.23-.62.49c-.16.12-.29.24-.46.36-.49.35-1,.68-1.56,1l-2.43,1.41-4.23,2.46L237,386.47l-4.23,2.46-4,2.34a27.66,27.66,0,0,1-7.57,2.92,38.86,38.86,0,0,1-13,.73,30.82,30.82,0,0,1-11.87-3.65L67.75,317.06q-.84-.49-1.59-1c-.16-.11-.3-.24-.46-.36-.31-.24-.63-.47-.91-.72s-.31-.3-.47-.45-.49-.45-.7-.69-.27-.33-.41-.5-.38-.45-.54-.68-.22-.36-.33-.54-.3-.45-.41-.68-.17-.38-.25-.57a6.5,6.5,0,0,1-.28-.68c-.07-.2-.1-.39-.15-.59a5.63,5.63,0,0,1-.17-.68c0-.2,0-.4-.06-.6s-.05-.45-.05-.68v0l0,8.16c0,3.42,2.26,6.85,6.79,9.47l128.53,74.21c9,5.19,23.53,5.19,32.47,0l4-2.34h0l4.23-2.46L425.57,285l4.23-2.46h0l2.43-1.41c4.45-2.59,6.67-6,6.68-9.35l0-8.15C438.93,263.88,438.9,264.09,438.88,264.31Z" transform="translate(-60.94 -176.09)"/><path class="cls-12" d="M233.66,341.31l4.22,2.43,4.77-10.28c1.84-3.8.12-7.76-4.64-10.59a1.75,1.75,0,0,0-.27-.16c-4.7-2.72-11.38-3.78-17.86-2.86a13.47,13.47,0,0,1-7.86-1.1l-.42-.23c-1.89-1.09-2.81-2.58-2.51-4.14.44-2.36-.93-4.7-3.78-6.41l-.25-.14a20.2,20.2,0,0,0-10.68-2.27l-.78,0a12.7,12.7,0,0,1-6.79-1.44,7.65,7.65,0,0,1-.67-.43c-1.83-1.32-2.41-3-1.58-4.61l5.15-10c1.38-2.67.27-5.51-3-7.59l-.53-.32A20.73,20.73,0,0,0,174,279l-37.41,4-4,.39,4.47,2.56,37.85-4.1a13.13,13.13,0,0,1,7.76,1.4l.33.2c2.05,1.32,2.75,3.12,1.88,4.82l-5.15,10c-1.29,2.51-.36,5.22,2.49,7.26a9.88,9.88,0,0,0,1,.64A20.24,20.24,0,0,0,194,308.48l.78,0a12.9,12.9,0,0,1,6.82,1.46l.12.07c1.82,1.09,2.69,2.58,2.41,4.08-.47,2.41,1,4.81,4,6.51.21.12.42.24.65.35a21.54,21.54,0,0,0,12.36,1.75,21,21,0,0,1,13.13,2.09l.2.12c3.49,2.09,4.76,5,3.41,7.78Z" transform="translate(-60.94 -176.09)"/><polygon class="cls-13" points="154.2 61.1 150.44 58.93 146.69 61.1 150.46 63.28 154.2 61.1"/><polygon class="cls-12" points="155.9 62.08 152.16 64.26 182.43 81.73 186.17 79.56 155.9 62.08"/><polygon class="cls-14" points="145.62 65.58 141.86 63.4 138.12 65.58 141.88 67.75 145.62 65.58"/><polygon class="cls-15" points="147.32 66.56 143.58 68.73 173.85 86.21 177.59 84.03 147.32 66.56"/><polygon class="cls-13" points="136.56 70.54 132.79 68.37 129.05 70.54 132.82 72.72 136.56 70.54"/><polygon class="cls-12" points="138.26 71.52 134.51 73.69 164.79 91.17 168.53 89 138.26 71.52"/><polygon class="cls-15" points="128.45 75.4 124.69 73.23 120.94 75.4 124.71 77.58 128.45 75.4"/><polygon class="cls-15" points="130.15 76.38 126.4 78.56 156.68 96.04 160.42 93.86 130.15 76.38"/><polygon class="cls-13" points="199.48 87.95 195.71 85.77 191.97 87.95 195.73 90.12 199.48 87.95"/><polygon class="cls-12" points="201.17 88.93 197.43 91.1 227.71 108.58 231.45 106.41 201.17 88.93"/><polygon class="cls-15" points="190.9 92.42 187.13 90.25 183.39 92.42 187.16 94.6 190.9 92.42"/><polygon class="cls-15" points="192.6 93.4 188.85 95.58 219.13 113.06 222.87 110.88 192.6 93.4"/><polygon class="cls-13" points="181.84 97.39 178.07 95.21 174.33 97.39 178.09 99.56 181.84 97.39"/><polygon class="cls-12" points="183.53 98.37 179.79 100.54 210.06 118.02 213.81 115.84 183.53 98.37"/><polygon class="cls-15" points="173.72 102.25 169.96 100.08 166.22 102.25 169.98 104.42 173.72 102.25"/><polygon class="cls-15" points="175.42 103.23 171.68 105.4 201.95 122.88 205.7 120.71 175.42 103.23"/><polygon class="cls-13" points="245.55 112.87 241.79 110.7 238.05 112.87 241.81 115.05 245.55 112.87"/><polygon class="cls-12" points="247.25 113.85 243.51 116.03 273.78 133.51 277.52 131.33 247.25 113.85"/><polygon class="cls-15" points="236.97 117.35 233.21 115.17 229.47 117.35 233.23 119.52 236.97 117.35"/><polygon class="cls-15" points="238.67 118.33 234.93 120.5 265.2 137.98 268.95 135.81 238.67 118.33"/><polygon class="cls-13" points="227.91 122.31 224.15 120.14 220.4 122.31 224.17 124.49 227.91 122.31"/><polygon class="cls-12" points="229.61 123.29 225.87 125.47 256.14 142.94 259.88 140.77 229.61 123.29"/><polygon class="cls-15" points="219.8 127.17 216.04 125 212.29 127.17 216.06 129.35 219.8 127.17"/><polygon class="cls-15" points="221.5 128.15 217.75 130.33 248.03 147.81 251.77 145.63 221.5 128.15"/><path class="cls-1" d="M276.32,228.78v0a8.06,8.06,0,0,0,.06-1v-.1a9.24,9.24,0,0,0-.1-.92l0-.18c-.07-.28-.14-.55-.23-.83,0-.09-.08-.17-.11-.25a6.12,6.12,0,0,0-.33-.75c-.06-.11-.13-.22-.2-.33s-.25-.43-.41-.64a4,4,0,0,0-.32-.4c-.14-.19-.28-.37-.45-.56s-.31-.3-.47-.46-.29-.3-.47-.45-.45-.36-.69-.54l-.42-.33a14.08,14.08,0,0,0-1.28-.81l-.17-.1c-7.36-4.14-19.08-4.11-26.31.1s-7.25,11.1.08,15.34,19.2,4.24,26.5,0l.31-.21C274.3,233.48,276,231.16,276.32,228.78Z" transform="translate(-60.94 -176.09)"/><path class="cls-15" d="M275.23,238l.32-.2-4.29-2.48-.31.21c-7.3,4.24-19.15,4.24-26.5,0s-7.38-11.11-.08-15.34,18.95-4.24,26.31-.1l4.25-2.47c-9.72-5.5-25.26-5.47-34.84.1h0c-9.64,5.6-9.59,14.68.11,20.28h0c9.7,5.6,25.38,5.6,35,0Z" transform="translate(-60.94 -176.09)"/><path class="cls-12" d="M270.85,220.21a14.08,14.08,0,0,1,1.28.81l.42.33c.24.18.48.36.69.54s.32.3.47.45.33.31.47.46.31.37.45.56a4,4,0,0,1,.32.4c.16.21.28.43.41.64s.14.22.2.33a6.12,6.12,0,0,1,.33.75c0,.08.08.16.11.25.09.28.16.55.23.83l0,.18a9.24,9.24,0,0,1,.1.92v.1a8.06,8.06,0,0,1-.06,1v0c-.33,2.38-2,4.7-5.06,6.56l4.29,2.48c9.3-5.62,9.14-14.55-.45-20.08l-.17-.1-4.25,2.47Z" transform="translate(-60.94 -176.09)"/><path class="cls-1" d="M370,277.51v0a6.45,6.45,0,0,0,.06-1v-.1a7,7,0,0,0-.1-.92l0-.18a8.56,8.56,0,0,0-.23-.83c0-.09-.08-.17-.11-.25a8,8,0,0,0-.32-.75,3.62,3.62,0,0,1-.2-.33c-.14-.21-.26-.43-.41-.64s-.22-.27-.32-.4l-.45-.56c-.14-.15-.32-.3-.48-.46s-.29-.3-.46-.45l-.69-.54c-.15-.1-.27-.22-.43-.33a13.88,13.88,0,0,0-1.27-.81l-.18-.1c-7.36-4.14-19.08-4.11-26.31.1s-7.25,11.1.09,15.34,19.19,4.24,26.49,0c.11-.06.2-.14.32-.2C368,282.21,369.68,279.89,370,277.51Z" transform="translate(-60.94 -176.09)"/><path class="cls-15" d="M368.92,286.75l.33-.2L365,284.08c-.12.06-.21.14-.32.2-7.3,4.24-19.15,4.24-26.49,0s-7.38-11.1-.09-15.34,18.95-4.24,26.31-.1l4.25-2.47c-9.71-5.5-25.26-5.47-34.84.1h0c-9.64,5.6-9.59,14.68.11,20.28h0c9.7,5.6,25.38,5.6,35,0Z" transform="translate(-60.94 -176.09)"/><path class="cls-12" d="M364.55,268.94a13.88,13.88,0,0,1,1.27.81c.16.11.28.23.43.33l.69.54c.17.15.31.3.46.45s.34.31.48.46l.45.56c.1.13.22.26.32.4s.27.43.41.64a3.62,3.62,0,0,0,.2.33,8,8,0,0,1,.32.75c0,.08.08.16.11.25a8.56,8.56,0,0,1,.23.83l0,.18a7,7,0,0,1,.1.92v.1a6.45,6.45,0,0,1-.06,1v0c-.33,2.38-2,4.7-5.05,6.57l4.29,2.47c9.29-5.62,9.14-14.55-.45-20.08l-.18-.1-4.25,2.47Z" transform="translate(-60.94 -176.09)"/><path class="cls-1" d="M290.41,244.87c-7.3,4.24-7.25,11.11.08,15.34l0,0h0a27.09,27.09,0,0,0,13.24,3.16h.06c.58,0,1.15,0,1.73-.05h.12c.56,0,1.11-.08,1.66-.14l.32-.05c.48-.05,1-.11,1.43-.2.16,0,.29-.06.45-.09l1.26-.25.57-.16c.37-.09.73-.18,1.09-.29l.81-.28c.26-.09.53-.17.79-.27s.64-.27,1-.41l.55-.23q.72-.34,1.41-.75a3.45,3.45,0,0,0,.32-.2c3-1.86,4.72-4.19,5.05-6.57v0a6.37,6.37,0,0,0,.05-1v-.1a4.8,4.8,0,0,0-.1-.92l0-.17a7.79,7.79,0,0,0-.22-.83c0-.09-.08-.17-.11-.26a6.12,6.12,0,0,0-.33-.75c-.06-.1-.14-.21-.2-.32a6.42,6.42,0,0,0-.41-.65,4,4,0,0,0-.32-.4,5.7,5.7,0,0,0-.45-.55c-.14-.16-.32-.31-.47-.47s-.29-.3-.47-.44-.45-.37-.69-.55-.26-.22-.42-.32a14.11,14.11,0,0,0-1.28-.82l-.18-.1C309.36,240.64,297.64,240.67,290.41,244.87Z" transform="translate(-60.94 -176.09)"/><path class="cls-15" d="M290.49,260.21c-7.33-4.23-7.38-11.1-.08-15.34s18.95-4.23,26.3-.1L321,242.3h0c-9.7-5.6-25.38-5.6-35,0h0c-9.64,5.6-9.59,14.68.11,20.28l.21.12,4.25-2.47Z" transform="translate(-60.94 -176.09)"/><path class="cls-12" d="M321.41,262.38c9.3-5.61,9.15-14.55-.44-20.08h0l-4.26,2.47.18.1a14.11,14.11,0,0,1,1.28.82c.16.1.28.22.42.32s.48.36.69.55.31.29.47.44.33.31.47.47a5.7,5.7,0,0,1,.45.55,4,4,0,0,1,.32.4,6.42,6.42,0,0,1,.41.65c.06.11.14.22.2.32a6.12,6.12,0,0,1,.33.75c0,.09.08.17.11.26a7.79,7.79,0,0,1,.22.83l0,.17a4.8,4.8,0,0,1,.1.92v.1a6.37,6.37,0,0,1-.05,1v0c-.33,2.38-2,4.71-5.05,6.57a3.45,3.45,0,0,1-.32.2q-.69.41-1.41.75l-.55.23c-.32.14-.63.29-1,.41s-.53.18-.79.27l-.81.28c-.36.11-.72.2-1.09.29l-.57.16-1.26.25c-.16,0-.29.07-.45.09-.47.09-.95.15-1.43.2l-.32.05c-.55.06-1.1.11-1.66.14h-.12c-.58,0-1.15.05-1.73.05h-.06a27.09,27.09,0,0,1-13.24-3.16h0l-4.25,2.47c9.72,5.48,25.24,5.45,34.82-.12h0Z" transform="translate(-60.94 -176.09)"/><ellipse class="cls-16" cx="367.37" cy="216.75" rx="25.26" ry="11.68"/><path class="cls-17" d="M421,282.81s-.73,18-1.67,19.69c-2.18,4-7.91,10.23-8.07,11-.46,2.29,1.59,4.76,3.73,4.5,1.37-.16,11.68-6.4,11.68-6.4C427.22,308.18,421.18,282.67,421,282.81Z" transform="translate(-60.94 -176.09)"/><path d="M434.25,389c-1.85,1.51-5.3.73-5.43.87A69.37,69.37,0,0,1,422.7,395c-1.15.91-2.95,2.12-2.62,3.86.58,3.12,5.57,2.16,7.46,1.21s3.42-2.54,5.2-3.64c1.27-.79,2.52-1.2,2.72-2.81C435.58,392.65,434.58,389,434.25,389Z" transform="translate(-60.94 -176.09)"/><path class="cls-18" d="M435.43,393c-.24,1.54-1.47,2-2.74,2.75-1.81,1.12-3.4,2.75-5.28,3.7s-6.09,1.76-7.31-.47c.67,3,5.57,2.06,7.44,1.12s3.42-2.54,5.2-3.64c1.27-.79,2.52-1.2,2.72-2.81A2.55,2.55,0,0,0,435.43,393Z" transform="translate(-60.94 -176.09)"/><path class="cls-3" d="M426.76,395.18a3.55,3.55,0,0,0-2.46-1.42.63.63,0,0,0-.68.53,4.63,4.63,0,0,1,2.64,1.39C426.56,396,427.06,395.53,426.76,395.18Z" transform="translate(-60.94 -176.09)"/><path class="cls-3" d="M428.17,394.07a3.56,3.56,0,0,0-2.47-1.41.61.61,0,0,0-.67.52,4.65,4.65,0,0,1,2.63,1.4C428,394.93,428.46,394.42,428.17,394.07Z" transform="translate(-60.94 -176.09)"/><path class="cls-3" d="M429.56,393a3.55,3.55,0,0,0-2.47-1.42.62.62,0,0,0-.67.53,4.7,4.7,0,0,1,2.64,1.39C429.35,393.82,429.86,393.31,429.56,393Z" transform="translate(-60.94 -176.09)"/><path d="M440.94,370c-.71,2.27-4,3.53-4.05,3.72a66,66,0,0,1-2.29,7.62c-.46,1.39-1.29,3.4-.05,4.67,2.2,2.28,5.84-1.28,6.88-3.11s1.45-4,2.33-5.91c.62-1.36,1.44-2.39.72-3.84C444,372.22,441.19,369.74,440.94,370Z" transform="translate(-60.94 -176.09)"/><path class="cls-18" d="M444.1,372.57c.65,1.42-.15,2.45-.77,3.8-.89,1.94-1.32,4.18-2.37,6s-4.09,4.82-6.34,3.64c2.21,2.14,5.78-1.36,6.81-3.17s1.45-4,2.33-5.91c.62-1.36,1.44-2.39.72-3.84A3.45,3.45,0,0,0,444.1,372.57Z" transform="translate(-60.94 -176.09)"/><path class="cls-3" d="M438.09,379.2a3.55,3.55,0,0,0-2.84.18.61.61,0,0,0-.27.81,4.67,4.67,0,0,1,3-.29C438.39,380,438.53,379.33,438.09,379.2Z" transform="translate(-60.94 -176.09)"/><path class="cls-3" d="M438.65,377.5a3.55,3.55,0,0,0-2.84.18.62.62,0,0,0-.27.81,4.67,4.67,0,0,1,3-.29C439,378.33,439.09,377.63,438.65,377.5Z" transform="translate(-60.94 -176.09)"/><path class="cls-3" d="M439.19,375.8a3.53,3.53,0,0,0-2.83.18.62.62,0,0,0-.28.81,4.68,4.68,0,0,1,3-.29C439.49,376.63,439.63,375.93,439.19,375.8Z" transform="translate(-60.94 -176.09)"/><path d="M442.78,371c-.54-1.57-3.08-12.84-18.36-28.22,0,0,5.38-12.9,6.73-17.9.38-1.39,2.34-9.32,2.45-12-2.59.27-10.61-2.19-12.45-3.37-1.33,4.74-7.1,32.52-5.72,37.52,10.57,15,20.38,27.64,20.92,28.14C436.65,375.34,442.15,372.92,442.78,371Z" transform="translate(-60.94 -176.09)"/><path class="cls-19" d="M444.55,321.94c-.07-3.69-1.18-7.24-1.48-10.91A51.71,51.71,0,0,1,429.78,314c-.21,4.27.53,13.13.53,13.13-1.25,4-5.43,21.73-4,26.83,1.58,14.73,1.82,35.41,2.38,35.89,1.86,1.57,5,.61,5.92-.27,0,0,5.06-21.75.69-39.91,0,0,6.76-13.83,8.11-18.83A31.56,31.56,0,0,0,444.55,321.94Z" transform="translate(-60.94 -176.09)"/><path class="cls-20" d="M446.05,283.35a11.21,11.21,0,0,0-3.18-6.38c-1.94-1.93-4.55-2.83-7.12-3.57a15.24,15.24,0,0,0-8.12-.24c-3.47.9-6.15,3.36-6.55,7-.12.09-.21,30.37-.21,30.37,1.72,3.09,11.71,7.64,22.78,1.32-.42-1.67-1.42-4.48-2.12-6.37a5.85,5.85,0,0,1,0-4C443.06,297.2,446.52,286.92,446.05,283.35Z" transform="translate(-60.94 -176.09)"/><path class="cls-17" d="M446,282.85a11,11,0,0,0-2.9-5.6c-3.82,4.77-3,20.71-2.61,22.18L425.19,308c-.31.17.93,3.71,2.55,3.56,1.41-.12,15.72-6.49,16.32-7.23C444.85,303.34,446.7,286.09,446,282.85Z" transform="translate(-60.94 -176.09)"/><path d="M426.47,268.9a7,7,0,0,0,3.53,5.52l.05,0c0-.12.09-.23.13-.35.76-2.6-3.83-6-3.81-6C426.41,268.4,426.45,268.65,426.47,268.9Z" transform="translate(-60.94 -176.09)"/><path class="cls-21" d="M429.65,272.57s0,4.77,0,4.82c0,2.42,4.87,1.65,8-2.41v-7.65C437.69,267,429.65,272.19,429.65,272.57Z" transform="translate(-60.94 -176.09)"/><path class="cls-22" d="M439.1,253.55a7.39,7.39,0,0,0-5.41-1.56,9.75,9.75,0,0,0-5.05,2.35,11.21,11.21,0,0,0-3.14,4.31,10.58,10.58,0,0,0-.55,5.29c.81,6.86,4.36,9.44,5.5,9.89a7.42,7.42,0,0,0,6-3.11,20.65,20.65,0,0,1,3.85-4.48c.12-.1.23-.21.33-.31C443,263.42,443.68,257.55,439.1,253.55Z" transform="translate(-60.94 -176.09)"/><path d="M452.82,254.67a9.17,9.17,0,0,0-6.22-5.26,7.87,7.87,0,0,0-7.55,1.89,11.61,11.61,0,0,0-9.37.6c-4.53,2.41-6.51,8.4-4.67,12.51-.83-4.33,3.19-4.66,5.56-5.26a.6.6,0,0,0,0,.23c.74,3.24,3.47,5,6.19,6.57a.32.32,0,0,0,.09,0c.23-.94,1.65-1.63,2.19-.54s-.55,1.74-1.41,2c-.15.12-1.28,4.56.05,6.41,0,0,3.39-.68,4.48-2.43.92,3.35,4.18,5.52,7.58,6.46C442,268.72,455.33,261.36,452.82,254.67Z" transform="translate(-60.94 -176.09)"/><path class="cls-22" d="M425.92,307.75a18.17,18.17,0,0,1-5.51,1.88c-1.36.07-2.18,1.93-3.64,2a.56.56,0,0,0-.42.94c.54.59,2.12.22,3.25-.95a.14.14,0,0,0,0,.09,1.16,1.16,0,0,0,.54,1l.24.09a.5.5,0,0,0,.06.26,1.08,1.08,0,0,0,.77.64h0a1,1,0,0,0,1.07.79,1.29,1.29,0,0,0,.84-.33,5.55,5.55,0,0,0,2.6-1.9,13.13,13.13,0,0,0,1.58-1.84C427.79,309.51,427.28,306.79,425.92,307.75Z" transform="translate(-60.94 -176.09)"/><g class="cls-23"><polygon class="cls-12" points="336.71 146.94 354.29 136.72 366.9 144.01 349.33 154.22 336.71 146.94"/></g><path class="cls-22" d="M413,313.56a7.71,7.71,0,0,0-3.12,1,7.25,7.25,0,0,1-1.1.81c-.18.09-.35.2-.53.28a1.61,1.61,0,0,0-.7.47,1.76,1.76,0,0,0-.32,1,4.52,4.52,0,0,0-.06,1.27c.16.63.81.59,1.16.15a1.44,1.44,0,0,0,.29-.77,1.69,1.69,0,0,1,.74-1.35l4.2-2.6A.5.5,0,0,0,413,313.56Z" transform="translate(-60.94 -176.09)"/><ellipse class="cls-16" cx="286.55" cy="223.15" rx="25.26" ry="11.68"/><path class="cls-24" d="M356.56,302.5s11.6,6,11.83,7.16c.47,2.28-1.58,4.76-3.73,4.5-1.36-.17-11.67-6.4-11.67-6.4C352.46,304.32,356.4,302.36,356.56,302.5Z" transform="translate(-60.94 -176.09)"/><path d="M343.26,395.05c1.85,1.51,5.3.73,5.43.87a69.37,69.37,0,0,0,6.12,5.09c1.15.9,2.95,2.12,2.62,3.86-.58,3.12-5.57,2.16-7.45,1.21s-3.43-2.54-5.21-3.64c-1.27-.79-2.52-1.2-2.72-2.81C341.93,398.66,342.93,395,343.26,395.05Z" transform="translate(-60.94 -176.09)"/><path class="cls-18" d="M342.08,399c.24,1.54,1.48,2,2.74,2.75,1.81,1.12,3.4,2.75,5.29,3.7s6.08,1.76,7.3-.47c-.67,3-5.57,2.06-7.43,1.12s-3.43-2.54-5.21-3.64c-1.27-.79-2.52-1.2-2.72-2.81A2.55,2.55,0,0,1,342.08,399Z" transform="translate(-60.94 -176.09)"/><path class="cls-3" d="M350.75,401.19a3.55,3.55,0,0,1,2.46-1.42.63.63,0,0,1,.68.53,4.66,4.66,0,0,0-2.64,1.39C351,402.05,350.45,401.54,350.75,401.19Z" transform="translate(-60.94 -176.09)"/><path class="cls-3" d="M349.34,400.08a3.56,3.56,0,0,1,2.47-1.41.61.61,0,0,1,.67.52,4.65,4.65,0,0,0-2.63,1.4C349.55,400.94,349.05,400.43,349.34,400.08Z" transform="translate(-60.94 -176.09)"/><path class="cls-3" d="M348,399a3.55,3.55,0,0,1,2.47-1.42.62.62,0,0,1,.67.53,4.7,4.7,0,0,0-2.64,1.39C348.16,399.82,347.65,399.32,348,399Z" transform="translate(-60.94 -176.09)"/><path d="M336.57,376c.71,2.27,4,3.53,4.05,3.72a66,66,0,0,0,2.29,7.62c.46,1.39,1.29,3.4,0,4.67-2.2,2.28-5.84-1.28-6.88-3.11s-1.45-4-2.33-5.91c-.62-1.36-1.44-2.39-.72-3.84C333.47,378.23,336.32,375.74,336.57,376Z" transform="translate(-60.94 -176.09)"/><path class="cls-18" d="M333.41,378.58c-.64,1.42.15,2.45.77,3.8.89,1.94,1.32,4.17,2.37,6s4.1,4.82,6.34,3.64c-2.21,2.14-5.78-1.36-6.81-3.17s-1.45-4-2.33-5.91c-.62-1.36-1.44-2.39-.72-3.84A3,3,0,0,1,333.41,378.58Z" transform="translate(-60.94 -176.09)"/><path class="cls-3" d="M339.42,385.21a3.55,3.55,0,0,1,2.84.18.61.61,0,0,1,.27.81,4.6,4.6,0,0,0-3-.29C339.12,386,339,385.34,339.42,385.21Z" transform="translate(-60.94 -176.09)"/><path class="cls-3" d="M338.86,383.51a3.55,3.55,0,0,1,2.84.18.61.61,0,0,1,.27.81,4.67,4.67,0,0,0-3-.29C338.56,384.34,338.42,383.64,338.86,383.51Z" transform="translate(-60.94 -176.09)"/><path class="cls-3" d="M338.32,381.81a3.56,3.56,0,0,1,2.84.18.62.62,0,0,1,.27.81,4.68,4.68,0,0,0-3-.29C338,382.64,337.88,381.94,338.32,381.81Z" transform="translate(-60.94 -176.09)"/><path d="M334.73,377c.54-1.57,3.08-12.84,18.36-28.22,0,0-5.38-12.9-6.73-17.9-.38-1.39-2.34-9.32-2.45-12,2.59.27,10.61-2.19,12.45-3.37,1.33,4.74,7.1,32.52,5.72,37.52-10.56,15-20.38,27.64-20.92,28.14C340.86,381.35,335.36,378.93,334.73,377Z" transform="translate(-60.94 -176.09)"/><path class="cls-19" d="M333,328c.07-3.7,1.18-7.25,1.48-10.91A52.32,52.32,0,0,0,347.73,320c.21,4.27-.53,13.13-.53,13.13,1.25,4,5.44,21.73,4,26.83-1.58,14.73-1.82,35.41-2.38,35.89-1.86,1.57-5,.61-5.92-.27,0,0-5.06-21.75-.69-39.91,0,0-6.76-13.83-8.11-18.83A31.56,31.56,0,0,1,333,328Z" transform="translate(-60.94 -176.09)"/><path class="cls-7" d="M331.46,289.35a11.21,11.21,0,0,1,3.18-6.37c1.94-1.93,4.55-2.83,7.12-3.58a15.34,15.34,0,0,1,8.12-.23c3.47.9,6.15,3.36,6.55,7,.12.09.21,30.37.21,30.37-1.71,3.09-11.71,7.63-22.78,1.32.42-1.67,1.42-4.49,2.12-6.38a5.77,5.77,0,0,0,0-3.95C334.45,303.21,331,292.92,331.46,289.35Z" transform="translate(-60.94 -176.09)"/><path d="M351.14,274.16c-1.25,6.76,5.15,9.75,2.35,15.8a9.74,9.74,0,0,0-3.39-6.52c-1.14-1-2.33-1.83-2.77-3.34C346.58,277.51,351.16,274.1,351.14,274.16Z" transform="translate(-60.94 -176.09)"/><path class="cls-21" d="M347.86,278.58s0,4.77,0,4.82c0,2.42-4.87,1.65-8-2.41v-7.65C339.82,273,347.86,278.2,347.86,278.58Z" transform="translate(-60.94 -176.09)"/><path class="cls-22" d="M338.41,259.56a7.35,7.35,0,0,1,5.41-1.56,9.67,9.67,0,0,1,5.05,2.35,11.21,11.21,0,0,1,3.14,4.31,10.58,10.58,0,0,1,.55,5.29c-.81,6.86-4.36,9.44-5.5,9.89a7.42,7.42,0,0,1-6-3.11,20.65,20.65,0,0,0-3.85-4.48c-.12-.1-.23-.21-.33-.31C334.52,269.43,333.83,263.56,338.41,259.56Z" transform="translate(-60.94 -176.09)"/><path class="cls-22" d="M365.51,312.18a4.47,4.47,0,0,1,1.58-1.93l0,0c.57.16,1.12.33,1.13.32,3.56,1.22,3.82,1.63,5.72,4.42v0a12.49,12.49,0,0,0,.77,1.13c.4.44-.34,1-.74.56l-.09-.12c.45.67-.34,1.19-.94.53.18.43-.4.69-.81,0a4.79,4.79,0,0,0-1.43-1.66l-.69-.31s.73.81.71,1.24-.47.73-.71.31c-.08-.13-.16-.25-.25-.37a4.68,4.68,0,0,0-1-.75,3.27,3.27,0,0,1-1.14-.89A13.56,13.56,0,0,0,365.51,312.18Z" transform="translate(-60.94 -176.09)"/><path class="cls-22" d="M362,304.71a2.15,2.15,0,0,0-.79-1.24.51.51,0,0,0-.84.49,4.31,4.31,0,0,1,0,1.6c0,.22-.38.58-.47.85a6,6,0,0,0-.2,1,7.81,7.81,0,0,1-.16,1.08,3.09,3.09,0,0,0-.24,1,.7.7,0,0,0,.39.57,8.58,8.58,0,0,1,1,.69.83.83,0,0,0,.57.14,3.73,3.73,0,0,0,2.25-.79,18.29,18.29,0,0,1,1.21-1.43,2.25,2.25,0,0,1,1.85-.63A3.51,3.51,0,0,0,362,304.71Z" transform="translate(-60.94 -176.09)"/><path class="cls-24" d="M331.46,289.35a11.13,11.13,0,0,1,2.36-5.44c4.41,4.32,4.53,12.13,5.53,19.44,4.78,3.83,15.17,5.19,19.91,3.8a4.21,4.21,0,0,1,2.26,4.54c-4.88,3.62-19.28,1.83-26.51-4.19-.23-.19-.53-.26-.62-.54C332.84,302.3,331,292.75,331.46,289.35Z" transform="translate(-60.94 -176.09)"/><path d="M330.64,283.12c.76-1.36,1.73-1.79,2.35-3.28s.34-3.86.43-5.55c.29-5-.91-10.79,2.52-15.13,2.65-3.35,8.41-3.11,11.89-1.25,4.53,2.41,6.51,8.4,4.67,12.51.83-4.33-3.19-4.67-5.56-5.26a.88.88,0,0,1,0,.23c-.75,3.24-3.48,5-6.2,6.57a.32.32,0,0,1-.09,0c-.23-.94-1.65-1.63-2.19-.54s.55,1.74,1.41,2c.15.12,1.28,8.79-.05,10.64-1.54,2.15-4.33.23-5.59.75-1.59.48-2.4,3.06-2.69,4C330.47,287.16,329.63,284.91,330.64,283.12Z" transform="translate(-60.94 -176.09)"/><path class="cls-25" d="M98.88,275a10.83,10.83,0,0,0-2.29-5.29c-4.28,4.2-4.37,15.28-5.34,22.38-3.18,3.33-9.11,6.15-10.91,7a.8.8,0,0,0-.43.86,9.23,9.23,0,0,0,1.55,3.53c4.22-1.82,8.79-2.1,14.07-7.11.21-.2.51-.25.6-.52C97.64,291.31,99.32,278.34,98.88,275Z" transform="translate(-60.94 -176.09)"/><path d="M82.61,357.17c-1.8,1.46-5.15.7-5.28.84A65.35,65.35,0,0,1,71.39,363c-1.12.89-2.87,2.06-2.55,3.76.56,3,5.42,2.1,7.25,1.17s3.32-2.46,5-3.54c1.24-.76,2.45-1.16,2.64-2.72C83.9,360.68,82.93,357.13,82.61,357.17Z" transform="translate(-60.94 -176.09)"/><path class="cls-26" d="M83.76,361c-.24,1.49-1.44,1.9-2.66,2.66-1.76,1.1-3.31,2.68-5.14,3.6s-5.91,1.71-7.1-.46c.65,2.92,5.41,2,7.23,1.09s3.32-2.46,5-3.54c1.24-.76,2.45-1.16,2.64-2.72A2.81,2.81,0,0,0,83.76,361Z" transform="translate(-60.94 -176.09)"/><path class="cls-3" d="M75.34,363.13a3.5,3.5,0,0,0-2.4-1.38.6.6,0,0,0-.65.51,4.59,4.59,0,0,1,2.56,1.36C75.13,364,75.62,363.47,75.34,363.13Z" transform="translate(-60.94 -176.09)"/><path class="cls-3" d="M76.7,362.06a3.41,3.41,0,0,0-2.4-1.38.59.59,0,0,0-.65.51,4.53,4.53,0,0,1,2.56,1.36C76.5,362.89,77,362.4,76.7,362.06Z" transform="translate(-60.94 -176.09)"/><path class="cls-3" d="M78.05,361a3.43,3.43,0,0,0-2.39-1.37.6.6,0,0,0-.66.51,4.51,4.51,0,0,1,2.56,1.35C77.85,361.81,78.34,361.31,78.05,361Z" transform="translate(-60.94 -176.09)"/><path d="M107,305.22a26.22,26.22,0,0,1-14.1-2c.08,1.49.16,2.83.16,2.83-5.74,4.05-17.26,10.88-18,15.59.75,14.89,1.63,35.84,2.18,36.3,1.81,1.53,4.9.6,5.75-.26,0,0,3.26-12.33,2.2-30.83,0,0,20.08-8.89,21.39-13.76.76-2.79.61-3.15.55-6.05C107.06,306.4,107,305.81,107,305.22Z" transform="translate(-60.94 -176.09)"/><path d="M90.67,362.2c-1.8,1.46-5.15.71-5.28.84A63.74,63.74,0,0,1,79.45,368c-1.12.89-2.87,2.07-2.55,3.76.56,3,5.41,2.1,7.24,1.17s3.33-2.46,5.06-3.54c1.24-.76,2.45-1.16,2.64-2.72C92,365.71,91,362.16,90.67,362.2Z" transform="translate(-60.94 -176.09)"/><path class="cls-26" d="M91.82,366c-.24,1.49-1.44,1.91-2.66,2.67-1.76,1.09-3.31,2.67-5.14,3.59s-5.91,1.71-7.1-.45c.65,2.92,5.41,2,7.22,1.08s3.33-2.46,5.06-3.54c1.24-.76,2.45-1.16,2.64-2.72A2.81,2.81,0,0,0,91.82,366Z" transform="translate(-60.94 -176.09)"/><path class="cls-3" d="M83.4,368.16a3.45,3.45,0,0,0-2.4-1.37.59.59,0,0,0-.65.51,4.52,4.52,0,0,1,2.55,1.35C83.19,369,83.68,368.5,83.4,368.16Z" transform="translate(-60.94 -176.09)"/><path class="cls-3" d="M84.76,367.09a3.45,3.45,0,0,0-2.4-1.38.6.6,0,0,0-.65.51,4.59,4.59,0,0,1,2.56,1.36C84.56,367.92,85,367.43,84.76,367.09Z" transform="translate(-60.94 -176.09)"/><path class="cls-3" d="M86.11,366a3.43,3.43,0,0,0-2.39-1.37.59.59,0,0,0-.66.51,4.51,4.51,0,0,1,2.56,1.35C85.91,366.84,86.4,366.34,86.11,366Z" transform="translate(-60.94 -176.09)"/><path class="cls-26" d="M112.91,303.68c-4,1.85-7.63,2.09-12.12,1.62,0,2,.28,5.74.28,5.74-5.74,4-17.26,10.89-18,15.6.75,14.88,1.63,35.83,2.18,36.29,1.81,1.53,4.9.6,5.75-.26,0,0,3.26-12.33,2.2-30.83,0-.35,17.21-8.82,19.39-11.06,2.34-2.41,2.61-5.57,2.55-8.75A21.43,21.43,0,0,0,112.91,303.68Z" transform="translate(-60.94 -176.09)"/><path class="cls-12" d="M116.59,277.8a10.9,10.9,0,0,0-3.09-6.19c-1.89-1.87-4.42-2.75-6.92-3.47a11.29,11.29,0,0,0-7.48,0c-3.69,1.38-4.56,4.93-5,8.5-.11.09-2,27.58-2,27.58,1.66,3,11.38,7.42,22.13,1.29-.41-1.63-1.38-4.36-2.06-6.2a5.63,5.63,0,0,1,0-3.84C113.69,291.26,117.05,281.27,116.59,277.8Z" transform="translate(-60.94 -176.09)"/><path class="cls-25" d="M116.59,277.8a10.83,10.83,0,0,0-2.29-5.29c-4.28,4.2-4.37,15.28-5.34,22.38a75.3,75.3,0,0,1-10.27,8.29,9,9,0,0,0,1.64,4.15c4.23-1.82,7.63-3.19,12.91-8.2.21-.2.51-.25.6-.52C115.35,294.08,117,281.11,116.59,277.8Z" transform="translate(-60.94 -176.09)"/><path d="M97.66,265.58a3.83,3.83,0,0,0,.27,1.24,4.2,4.2,0,0,0,3.19,2.12,3.43,3.43,0,0,0,.08-.56,4.47,4.47,0,0,0-1.11-2.82,11.8,11.8,0,0,0-2.53-2.46l-.09-.06A13.21,13.21,0,0,1,97.66,265.58Z" transform="translate(-60.94 -176.09)"/><path class="cls-21" d="M100.65,267.34s0,4.63,0,4.68c0,2.35,4.73,1.6,7.79-2.34v-7.44C108.47,261.93,100.65,267,100.65,267.34Z" transform="translate(-60.94 -176.09)"/><path class="cls-22" d="M109.83,248.85a7.16,7.16,0,0,0-5.25-1.51,9.42,9.42,0,0,0-4.9,2.28,11,11,0,0,0-3.06,4.19,10.33,10.33,0,0,0-.53,5.14c.78,6.66,4.23,9.17,5.34,9.61a7.18,7.18,0,0,0,5.79-3,20.45,20.45,0,0,1,3.74-4.35,3.18,3.18,0,0,0,.33-.3C113.62,258.45,114.29,252.74,109.83,248.85Z" transform="translate(-60.94 -176.09)"/><path d="M117.75,267a9.51,9.51,0,0,0,.65-2.76c.23-2.95-.64-5.88-1.46-8.67-1-3.23-2.49-6.54-5.53-8.27a11.34,11.34,0,0,0-10.72-.06c-4.41,2.35-6.33,8.17-4.54,12.16-.81-4.21,3.1-4.54,5.4-5.11a.81.81,0,0,0,0,.22c.73,3.15,3.39,4.87,6,6.38l.11,0c.28-.88,1.6-1.48,2.1-.46s-.53,1.7-1.36,1.93c-.24.07-.51,1.07-.58,1.26a11.54,11.54,0,0,0-.66,3.06,6.31,6.31,0,0,0,1.95,5.29c2.3,1.85,5.16-.15,6.77-1.95A9.85,9.85,0,0,0,117.75,267Z" transform="translate(-60.94 -176.09)"/><polygon class="cls-12" points="15.35 109.54 21.73 131.34 35.72 136.92 30.61 115.69 15.35 109.54"/><path class="cls-22" d="M100,304.25c-.2-.74-.74-.56-1.35-.37a3.5,3.5,0,0,1-2.07.18,6.64,6.64,0,0,1-1.48-1,1.88,1.88,0,0,0-.93-.27c0,.19.31,1.3.31,1.3s-3.06,0-3.37,0a.52.52,0,0,0-.49.85,1.2,1.2,0,0,1-.2,0c-.63-.14-.9.83-.27,1,.17,0,.34.05.51.08-.41.15-.51.83,0,.93l.15,0a.5.5,0,0,0,.23,0h.1a.54.54,0,0,0,.46.65c1.49.19,3.7.79,5-.44a8.45,8.45,0,0,0,2.71-.73C100.26,306,100.28,305.14,100,304.25Z" transform="translate(-60.94 -176.09)"/><path class="cls-22" d="M84.73,302.47h-.21a.52.52,0,0,0-.29-.94c-.32,0-3.48-.65-3.48-.65l-.38-1.3c0-.07-.54.26-.56.27a2.11,2.11,0,0,0-1,1.58,3.36,3.36,0,0,0,.9,2.43,3.14,3.14,0,0,0,2.14.93l1.08.07a.55.55,0,0,0,.59-.54h.1a.48.48,0,0,0,.23,0h.16c.53,0,.57-.67.21-.91.17,0,.34,0,.52,0C85.43,303.47,85.37,302.47,84.73,302.47Z" transform="translate(-60.94 -176.09)"/><ellipse class="cls-16" cx="24.3" cy="221.46" rx="18.63" ry="8.62"/></svg>