<svg xmlns="http://www.w3.org/2000/svg" xmlns:xlink="http://www.w3.org/1999/xlink" viewBox="0 0 1503 621.5"><defs><style>.cls-1{isolation:isolate;}.cls-2{fill:#ff8d68;fill-opacity:0;stroke:#d785f4;stroke-linejoin:round;stroke-width:3px;}.cls-3{fill:#ff87b3;}.cls-4{mix-blend-mode:color-dodge;}.cls-5{fill:url(#linear-gradient);}.cls-6{fill:url(#linear-gradient-2);}.cls-7{fill:url(#linear-gradient-3);}</style><linearGradient id="linear-gradient" y1="23" x2="46" y2="23" gradientUnits="userSpaceOnUse"><stop offset="0" stop-color="#fff" stop-opacity="0"/><stop offset="0.06" stop-color="#fffcfd" stop-opacity="0.02"/><stop offset="0.14" stop-color="#fef3f7" stop-opacity="0.09"/><stop offset="0.24" stop-color="#fce4ed" stop-opacity="0.2"/><stop offset="0.33" stop-color="#fad0df" stop-opacity="0.35"/><stop offset="0.44" stop-color="#f7b5ce" stop-opacity="0.55"/><stop offset="0.55" stop-color="#f496b9" stop-opacity="0.79"/><stop offset="0.61" stop-color="#f280aa" stop-opacity="0.95"/><stop offset="1" stop-color="#ff87b3"/></linearGradient><linearGradient id="linear-gradient-2" x1="1457" y1="598.5" x2="1503" y2="598.5" xlink:href="#linear-gradient"/><linearGradient id="linear-gradient-3" x1="672" y1="420.5" x2="718" y2="420.5" xlink:href="#linear-gradient"/></defs><title>bannerBg-5</title><g class="cls-1"><g id="Background"><circle id="Ellipse_27_copy" data-name="Ellipse 27 copy" class="cls-2" cx="1377.56" cy="47.09" r="5.94"/><circle class="cls-3" cx="890.96" cy="293.08" r="18.26"/><g class="cls-4"><path class="cls-5" d="M23,46A23,23,0,1,1,46,23,23,23,0,0,1,23,46ZM23,2.38A20.62,20.62,0,1,0,43.62,23,20.64,20.64,0,0,0,23,2.38Z"/></g><g class="cls-4"><path class="cls-6" d="M1480,621.5a23,23,0,1,1,23-23A23,23,0,0,1,1480,621.5Zm0-43.62a20.62,20.62,0,1,0,20.62,20.62A20.64,20.64,0,0,0,1480,577.88Z"/></g><g class="cls-4"><path class="cls-7" d="M695,443.5a23,23,0,1,1,23-23A23,23,0,0,1,695,443.5Zm0-43.62a20.62,20.62,0,1,0,20.62,20.62A20.64,20.64,0,0,0,695,399.88Z"/></g></g></g></svg>