<svg id="OBJECTS" xmlns="http://www.w3.org/2000/svg" viewBox="0 0 466.07 383.04"><defs><style>.cls-1{fill:#dadaf2;}.cls-18,.cls-2{fill:#aeaecc;}.cls-3{fill:#e9e9fe;}.cls-4{fill:#f7f8ff;}.cls-5{fill:#d7dcff;}.cls-6{fill:#2b284f;}.cls-7{fill:#fff;}.cls-8{fill:#484777;}.cls-10,.cls-12,.cls-13,.cls-14,.cls-15,.cls-9{fill:none;}.cls-9{stroke:#d7dcff;}.cls-12,.cls-13,.cls-14,.cls-9{stroke-miterlimit:10;}.cls-10{stroke:#ff7936;}.cls-10,.cls-15{stroke-linecap:round;stroke-linejoin:round;}.cls-11{fill:#ef6d21;}.cls-12,.cls-13,.cls-14,.cls-15{stroke:#ef6d21;}.cls-13{stroke-dasharray:7.62 7.62;}.cls-14{stroke-dasharray:8.14 8.14;}.cls-16{fill:#efa739;}.cls-17{fill:#ea911c;}.cls-18{opacity:0.61;}.cls-19{fill:#ff6396;}.cls-20{fill:#79aaff;}.cls-21{fill:#ffb6d6;}.cls-22{fill:#e23976;}.cls-23{fill:#d85082;}.cls-24{fill:#eaecfb;}.cls-25{fill:#e20944;}.cls-26{fill:#eea739;}</style></defs><title>banner-1</title><polygon class="cls-1" points="250.84 358.72 373.84 327.38 441.66 347.29 325.67 383.04 250.84 358.72"/><polygon class="cls-2" points="322.95 348.37 378.08 334.33 408.47 343.25 356.49 359.27 322.95 348.37"/><polygon class="cls-3" points="178.81 357.55 301.81 326.21 369.63 346.12 253.64 381.87 178.81 357.55"/><polygon class="cls-1" points="253.22 349.31 308.35 335.26 338.74 344.18 286.76 360.21 253.22 349.31"/><path class="cls-4" d="M309,426s-39.29,7.71-42.8-30.17,54-30.17,35.08-68.05-61.73-26-60.33-87,70.86-57.53,82.08-34.38,50.51,34.38,84.19,18.24,82.08-48.41,120.67-38.59,50.51,27.37,48.4,56.13S563,302.51,588.25,322.86s47.71,67.35,0,94c0,0-15.43,9-25.26,9.76Z" transform="translate(-232.18 -117.78)"/><rect class="cls-5" x="75.45" y="117.38" width="258.22" height="191.06"/><rect class="cls-6" x="75.45" y="117.38" width="258.22" height="10.19"/><rect class="cls-6" x="75.45" y="127.57" width="9.12" height="180.88"/><rect class="cls-6" x="323.1" y="127.57" width="10.57" height="180.88"/><path d="M315.52,240.22a2.49,2.49,0,1,1-2.49-2.48A2.49,2.49,0,0,1,315.52,240.22Z" transform="translate(-232.18 -117.78)"/><path d="M323.06,240.22a2.49,2.49,0,1,1-2.49-2.48A2.49,2.49,0,0,1,323.06,240.22Z" transform="translate(-232.18 -117.78)"/><path d="M330.63,240.22a2.49,2.49,0,1,1-2.48-2.48A2.49,2.49,0,0,1,330.63,240.22Z" transform="translate(-232.18 -117.78)"/><rect class="cls-7" x="123.4" y="161.6" width="159.49" height="104.77"/><rect class="cls-8" x="84.57" y="127.57" width="238.53" height="8.99"/><path class="cls-6" d="M350.4,199.57h7.06s-.88,7.26,5.69,8.73l-8,20.89-10-20.4S351,207,350.4,199.57Z" transform="translate(-232.18 -117.78)"/><rect class="cls-6" x="118.22" y="76.3" width="7.06" height="3.33"/><line class="cls-9" x1="122.93" y1="111.41" x2="122.34" y2="90.71"/><circle class="cls-5" cx="122.36" cy="89.87" r="1.32"/><polyline class="cls-10" points="75.78 105.72 122.93 111.41 176.28 92.38"/><circle class="cls-11" cx="75.17" cy="105.72" r="0.88"/><circle class="cls-11" cx="176.77" cy="92.07" r="0.88"/><path class="cls-12" d="M565.84,366.59a34.94,34.94,0,0,0,3.85-1.09" transform="translate(-232.18 -117.78)"/><path class="cls-13" d="M576.69,362.52A39.7,39.7,0,0,0,593.39,347c8.89-15.91,7-31.58-4.67-41.52-7-5.9-10.59-10.33-12-14.26" transform="translate(-232.18 -117.78)"/><path class="cls-12" d="M576,287.44a12.52,12.52,0,0,1,.58-3.95" transform="translate(-232.18 -117.78)"/><path class="cls-12" d="M307.63,291.29a32.08,32.08,0,0,0-4-.6" transform="translate(-232.18 -117.78)"/><path class="cls-14" d="M295.54,290.7a35.18,35.18,0,0,0-16.44,5.73c-13.1,8.89-18.24,29.94,0,49.11,13,13.69,20.56,20.23,24.83,26.08" transform="translate(-232.18 -117.78)"/><path class="cls-12" d="M306.09,375.06a23,23,0,0,1,1.54,3.69" transform="translate(-232.18 -117.78)"/><path class="cls-15" d="M350.33,449.79s8-1.28,10.76-8.29,3.28-9.36,3.28-14.74,3-8.42,5.84-9.58" transform="translate(-232.18 -117.78)"/><path class="cls-11" d="M358.23,445.66s-6.61-4.53-4.53-8.18S360.93,440.25,358.23,445.66Z" transform="translate(-232.18 -117.78)"/><path class="cls-11" d="M362.85,437.23s3.22-7.34,7.2-6S368.67,438.87,362.85,437.23Z" transform="translate(-232.18 -117.78)"/><path class="cls-11" d="M364.24,429.91s-7.77-2-7.08-6.12S364.9,423.9,364.24,429.91Z" transform="translate(-232.18 -117.78)"/><path class="cls-11" d="M369.45,417.5s2.23-7.69,6.35-6.86S375.43,418.37,369.45,417.5Z" transform="translate(-232.18 -117.78)"/><path class="cls-15" d="M580.5,433.68s8-1.28,10.76-8.29,3.27-9.36,3.27-14.73,3-8.42,5.85-9.59" transform="translate(-232.18 -117.78)"/><path class="cls-11" d="M588.4,429.55s-6.61-4.53-4.53-8.18S591.09,424.15,588.4,429.55Z" transform="translate(-232.18 -117.78)"/><path class="cls-11" d="M593,421.12s3.21-7.33,7.19-6S598.83,422.77,593,421.12Z" transform="translate(-232.18 -117.78)"/><path class="cls-11" d="M594.41,413.8s-7.77-2-7.08-6.12S595.07,407.79,594.41,413.8Z" transform="translate(-232.18 -117.78)"/><path class="cls-11" d="M599.62,401.39s2.23-7.69,6.35-6.86S605.59,402.26,599.62,401.39Z" transform="translate(-232.18 -117.78)"/><ellipse class="cls-16" cx="70.73" cy="332.22" rx="19.88" ry="3.04"/><ellipse class="cls-16" cx="110.49" cy="332.22" rx="19.88" ry="3.04"/><path class="cls-16" d="M361.43,440.66c.4,1.63-7.93,5-18.6,7.63s-19.64,3.35-20,1.71,7.94-5,18.61-7.62S361,439,361.43,440.66Z" transform="translate(-232.18 -117.78)"/><path class="cls-16" d="M358.64,432.82c.73,1.51-6.71,6.58-16.61,11.33s-18.51,7.37-19.24,5.85,6.71-6.59,16.61-11.33S357.91,431.3,358.64,432.82Z" transform="translate(-232.18 -117.78)"/><path class="cls-16" d="M353.76,425.07c1.05,1.31-5,7.95-13.58,14.84s-16.33,11.4-17.39,10.09,5-7.95,13.58-14.83S352.71,423.76,353.76,425.07Z" transform="translate(-232.18 -117.78)"/><path class="cls-16" d="M347.32,418.72c1.32,1-3.1,8.88-9.87,17.52S324.11,451,322.79,450s3.1-8.88,9.87-17.52S346,417.68,347.32,418.72Z" transform="translate(-232.18 -117.78)"/><path class="cls-16" d="M339,413.7c1.53.68-.85,9.36-5.32,19.39s-9.34,17.6-10.88,16.91.85-9.36,5.33-19.39S337.46,413,339,413.7Z" transform="translate(-232.18 -117.78)"/><path class="cls-16" d="M329.76,410.86c1.66.3,1.44,9.3-.49,20.11s-4.82,19.33-6.48,19-1.43-9.29.5-20.1S328.11,410.57,329.76,410.86Z" transform="translate(-232.18 -117.78)"/><path class="cls-16" d="M319.8,410.36c1.67-.13,3.7,8.65,4.53,19.59s.14,19.93-1.54,20.05-3.7-8.64-4.53-19.59S318.13,410.49,319.8,410.36Z" transform="translate(-232.18 -117.78)"/><ellipse class="cls-16" cx="316.8" cy="431.05" rx="3.04" ry="19.88" transform="translate(-347.46 -2.12) rotate(-17.56)"/><path class="cls-16" d="M300.24,417.26c1.38-.95,7.55,5.61,13.78,14.65s10.15,17.14,8.77,18.09-7.55-5.6-13.78-14.64S298.86,418.22,300.24,417.26Z" transform="translate(-232.18 -117.78)"/><path class="cls-16" d="M292.29,424.51c1.08-1.29,8.78,3.37,17.2,10.41s14.38,13.8,13.3,15.08-8.78-3.37-17.2-10.41S291.21,425.8,292.29,424.51Z" transform="translate(-232.18 -117.78)"/><path class="cls-16" d="M286.74,433.25c.71-1.52,9.35,1,19.31,5.62s17.45,9.61,16.74,11.13-9.35-1-19.31-5.62S286,434.77,286.74,433.25Z" transform="translate(-232.18 -117.78)"/><path class="cls-16" d="M284,441.46c.36-1.64,9.34-1,20.06,1.3s19.12,5.6,18.76,7.24-9.34,1.06-20.06-1.3S283.6,443.1,284,441.46Z" transform="translate(-232.18 -117.78)"/><path class="cls-17" d="M582.41,446.22c0,1.68-8.9,3-19.88,3s-19.88-1.36-19.88-3,8.9-3,19.88-3S582.41,444.54,582.41,446.22Z" transform="translate(-232.18 -117.78)"/><path class="cls-17" d="M622.16,446.22c0,1.68-8.9,3-19.88,3s-19.87-1.36-19.87-3,8.9-3,19.87-3S622.16,444.54,622.16,446.22Z" transform="translate(-232.18 -117.78)"/><path class="cls-17" d="M621.05,436.88c.39,1.63-7.94,5-18.61,7.62s-19.64,3.35-20,1.72,7.93-5.05,18.6-7.63S620.65,435.24,621.05,436.88Z" transform="translate(-232.18 -117.78)"/><path class="cls-17" d="M618.25,429c.73,1.52-6.71,6.59-16.61,11.34s-18.51,7.36-19.23,5.85,6.71-6.59,16.61-11.34S617.53,427.52,618.25,429Z" transform="translate(-232.18 -117.78)"/><ellipse class="cls-17" cx="597.89" cy="433.75" rx="19.88" ry="3.04" transform="matrix(0.78, -0.63, 0.63, 0.78, -372.02, 353.07)"/><ellipse class="cls-17" cx="594.67" cy="430.58" rx="19.88" ry="3.04" transform="translate(-343.26 515.14) rotate(-51.91)"/><path class="cls-17" d="M598.61,409.91c1.53.69-.85,9.37-5.33,19.4s-9.34,17.59-10.87,16.91.85-9.37,5.32-19.39S597.07,409.23,598.61,409.91Z" transform="translate(-232.18 -117.78)"/><path class="cls-17" d="M589.38,407.08c1.65.29,1.43,9.29-.5,20.1s-4.82,19.33-6.47,19-1.44-9.3.49-20.1S587.72,406.79,589.38,407.08Z" transform="translate(-232.18 -117.78)"/><path class="cls-17" d="M579.41,406.58c1.68-.13,3.71,8.64,4.53,19.59s.14,19.92-1.53,20.05-3.71-8.65-4.53-19.59S577.74,406.7,579.41,406.58Z" transform="translate(-232.18 -117.78)"/><path class="cls-17" d="M570.41,408.32c1.6-.51,5.59,7.56,8.9,18s4.7,19.36,3.1,19.87-5.59-7.57-8.9-18S568.81,408.82,570.41,408.32Z" transform="translate(-232.18 -117.78)"/><ellipse class="cls-17" cx="571.13" cy="429.85" rx="3.04" ry="19.88" transform="translate(-375.23 282.03) rotate(-34.56)"/><path class="cls-17" d="M551.9,420.72c1.08-1.28,8.78,3.38,17.2,10.42s14.38,13.79,13.31,15.08-8.78-3.38-17.21-10.42S550.83,422,551.9,420.72Z" transform="translate(-232.18 -117.78)"/><path class="cls-17" d="M546.35,429.47c.71-1.53,9.35,1,19.31,5.62s17.45,9.61,16.75,11.13-9.36-1-19.31-5.62S545.65,431,546.35,429.47Z" transform="translate(-232.18 -117.78)"/><path class="cls-17" d="M543.58,437.68c.36-1.64,9.34-1.06,20.07,1.3s19.12,5.6,18.76,7.24-9.35,1.06-20.07-1.3S543.22,439.32,543.58,437.68Z" transform="translate(-232.18 -117.78)"/><path class="cls-17" d="M332.21,454.52s-11.41-1.17-16.53-6.55-3.3-7.72,0-8.42,5.53.7,2.77-4.67-3.79-8,0-8.19,5.67,2.81,7.3.94-.23-9.59,5.62-12.4,9.54,2.11,5.82,8.65-1.38,8.19,3.06,7.49,7.93,2.8,5.72,4.91-9.46,3.74-6.89,5.14,8.82,1.64,7.57,4.45S334.46,453.58,332.21,454.52Z" transform="translate(-232.18 -117.78)"/><path class="cls-15" d="M329.65,430.43s-2.43,13.66,2.56,24.09" transform="translate(-232.18 -117.78)"/><path class="cls-1" d="M371.44,360.29s1.45-17.32,7.68-23.78,13.72-2.16,17.15,3.64,9.29-19.46,20.55-28.81,18.43,1.09,23.42,14.42,19.26,9.9,26.16-2.26,8.76-20.27,19.67-19,9.36,55.81,9.36,55.81Z" transform="translate(-232.18 -117.78)"/><path class="cls-15" d="M380.63,360.29s1.45-17.32,7.68-23.78,13.72-2.16,17.15,3.64,9.29-19.46,20.55-28.81,18.43,1.09,23.41,14.42,19.27,9.9,26.16-2.26,8.77-20.27,19.68-19,9.35,55.81,9.35,55.81" transform="translate(-232.18 -117.78)"/><ellipse class="cls-18" cx="197.15" cy="361.6" rx="42.07" ry="5"/><path class="cls-19" d="M412.55,383.43s.93-3.43,7.62-5.07c5.4-1.33,17.32-4,17.32-4l18.09-20.57,3.43,2.65s-12.16,17-14.5,21-5.46,7.8-5.93,10.14-2.65,20.26-2.65,20.26-9.35,3-18.08,1.25c0,0-1.72-15-2.34-18.24,0,0-3.43,5-5,6.08s-23.23.62-23.23.62-1.24-2.49,0-3.43c0,0,15.9-1.87,18.09-2.33S412.55,383.43,412.55,383.43Z" transform="translate(-232.18 -117.78)"/><path class="cls-6" d="M425.64,352.56s-8.1-2.49-11.53,6.47-2.5,14.11-4.21,17.07c0,0,6.39,3.43,16.52,1.87s11.07-3.59,11.07-3.59S438.27,354.43,425.64,352.56Z" transform="translate(-232.18 -117.78)"/><path class="cls-16" d="M440.3,423.65c-.94-3.43-4.37-15.75-4.37-15.75s-9.35,3-18.08,1.25c0,0-3,18.86-3.74,28.53s-2.65,14.81-3.43,19.33-1.09,14.81-1.09,14.81,3.27,1.09,5.14,0c0,0,4.37-13.4,5.15-16.83s.15-7.18,1.71-11.07,7-19.8,7-19.8,7,19.17,7,22.76,8.58,23.85,8.58,23.85a6.09,6.09,0,0,0,4.52-.78s-2.34-14-3.9-21.67S441.23,427.08,440.3,423.65Z" transform="translate(-232.18 -117.78)"/><path class="cls-20" d="M409.59,471.82s-2.4,6.55-.59,6.84a36.34,36.34,0,0,0,6.78,0c1.11-.11-1-6.84-1-6.84C412.86,472.91,409.59,471.82,409.59,471.82Z" transform="translate(-232.18 -117.78)"/><path class="cls-20" d="M448.72,470a6.09,6.09,0,0,1-4.52.78s-2,7.64-.21,7.93a36.34,36.34,0,0,0,6.78,0C451.88,478.55,448.72,470,448.72,470Z" transform="translate(-232.18 -117.78)"/><path class="cls-21" d="M387.29,394.18s-2-1.28-3-2-2.86-1.82-3.51-1.58.3,1,.88,1.76l.59.81a13.22,13.22,0,0,1-2.69-.06c-1.7-.17-3.22-.64-3.45-.29s.58.93,1.93,1.34,1.63.82.76,1.11-3.45.12-3.69.53.18.88,1.76.88,2.16.23,2.1.47-2.1,1.63-2.16,2,1,.18,3.21-.87c0,0,1.23-.47.53.52s-1.23,2.57.35,1.41,2.11-1.93,2.69-2.23a19.9,19.9,0,0,1,3.72-.37S386.05,395.12,387.29,394.18Z" transform="translate(-232.18 -117.78)"/><path class="cls-21" d="M463.15,350.67c2-1.27,2.78-2.11,2.45-2.25s-2.6.84-2.83.77-.12-.7.73-2,.66-1.93.19-2-1.69,2.24-2.41,2.83-.91.12-.53-1.24.31-2.36-.11-2.35-.84,1.55-1.59,3.08a13.81,13.81,0,0,1-1.39,2.3l-.37-.92c-.37-.93-.48-2.11-1-1.69s-.6,2.59-.53,3.81c0,.81,0,2.14.06,2.94l3,2.33a17.23,17.23,0,0,1,2.18-2.77c.56-.34,1.49-.38,3.32-1.09s.21-1.11-1-1S463.15,350.67,463.15,350.67Z" transform="translate(-232.18 -117.78)"/><polygon class="cls-22" points="183.33 273.13 182.73 268.98 182.25 274.65 183.33 273.13"/><path class="cls-11" d="M415.51,447.15c1-5.26,3-11.34,3.73-21.13.49-6.25,1-12.66,1.29-16.49a24.34,24.34,0,0,1-2.68-.38s-3,18.86-3.74,28.53-2.65,14.81-3.43,19.33-1.09,14.81-1.09,14.81a11.47,11.47,0,0,0,2.42.47C412.72,466.66,414.69,451.42,415.51,447.15Z" transform="translate(-232.18 -117.78)"/><path class="cls-11" d="M439.61,451.18c-2.95-10.12-5.7-16.54-6.86-20.09a23.61,23.61,0,0,0-4.16-7s7,19.17,7,22.76,8.58,23.85,8.58,23.85a5.4,5.4,0,0,0,1.52.13C444.47,467,441.8,458.68,439.61,451.18Z" transform="translate(-232.18 -117.78)"/><rect class="cls-17" x="585.15" y="250.2" width="10.73" height="4.37" transform="translate(91.65 -449.6) rotate(42.32)"/><path class="cls-6" d="M591,255.74l-4-3.61-10,11,.95.87a2.67,2.67,0,0,0-2.31,4.6,2.67,2.67,0,0,0,4.37-2.73l.95.87Z" transform="translate(-232.18 -117.78)"/><path class="cls-17" d="M590.74,249.63s1.56-5.7,4.14-6.17,4.61,2.32,3.43,4.2-5.07,4.25-5.07,4.25Z" transform="translate(-232.18 -117.78)"/><path class="cls-1" d="M628.62,291.6v-4.68h-2.71a10,10,0,0,0-1.17-2.86l1.91-1.91-3.31-3.31-1.88,1.89a10.16,10.16,0,0,0-2.89-1.23v-2.63h-4.68v2.57a9.71,9.71,0,0,0-3,1.2l-1.79-1.8-3.31,3.31,1.76,1.76a10,10,0,0,0-1.26,3h-2.47v4.68h2.46a10.22,10.22,0,0,0,1.26,3l-1.75,1.75,3.31,3.31,1.78-1.78a10,10,0,0,0,3,1.21v2.55h4.68v-2.61a9.85,9.85,0,0,0,2.9-1.24l1.87,1.87,3.31-3.31-1.91-1.9a10.22,10.22,0,0,0,1.18-2.87Zm-12.39,2.26a4.6,4.6,0,1,1,4.6-4.6A4.6,4.6,0,0,1,616.23,293.86Z" transform="translate(-232.18 -117.78)"/><path class="cls-1" d="M257,308.69V304h-2.71a10,10,0,0,0-1.18-2.86l1.91-1.92-3.31-3.3-1.88,1.88a10,10,0,0,0-2.89-1.23V294h-4.67v2.57a10,10,0,0,0-3,1.2l-1.8-1.79-3.3,3.3,1.76,1.76a10,10,0,0,0-1.27,3h-2.47v4.67h2.46a9.88,9.88,0,0,0,1.27,3l-1.75,1.76,3.3,3.3,1.78-1.78a9.85,9.85,0,0,0,3,1.21v2.55h4.67v-2.61a9.85,9.85,0,0,0,2.9-1.24l1.87,1.87,3.31-3.3-1.9-1.91a9.91,9.91,0,0,0,1.17-2.87ZM244.57,311a4.6,4.6,0,1,1,4.6-4.6A4.59,4.59,0,0,1,244.57,311Z" transform="translate(-232.18 -117.78)"/><path class="cls-1" d="M394.4,198.56v-3.68h-2.13a7.81,7.81,0,0,0-.93-2.25l1.51-1.5-2.6-2.6L388.76,190a7.52,7.52,0,0,0-2.27-1V187h-3.68v2a7.87,7.87,0,0,0-2.34.94l-1.41-1.4-2.61,2.6,1.39,1.38a7.66,7.66,0,0,0-1,2.37H374.9v3.68h1.94a7.84,7.84,0,0,0,1,2.38l-1.38,1.38,2.61,2.6,1.4-1.4a8,8,0,0,0,2.35.95v2h3.68v-2.05a7.84,7.84,0,0,0,2.28-1l1.48,1.47,2.6-2.6-1.5-1.5a7.73,7.73,0,0,0,.92-2.26Zm-9.75,1.78a3.62,3.62,0,1,1,3.62-3.62A3.62,3.62,0,0,1,384.65,200.34Z" transform="translate(-232.18 -117.78)"/><circle class="cls-1" cx="388.01" cy="306.15" r="9.66" transform="translate(-335.02 246.25) rotate(-45)"/><circle class="cls-15" cx="393.24" cy="306.15" r="9.66" transform="translate(-333.48 249.95) rotate(-45)"/><path class="cls-16" d="M525.12,451.18s-2.44-3.25,1.63-7.32c0,0-2.35-13.77,11.69-15.62,0,0,2.65-9.28,10.6-10.34a14.51,14.51,0,0,1,16.16,10.87,14.19,14.19,0,0,1,11.66,1.59c5.56,3.71,5,11.39,5,11.39s6.1,2.17,3.71,9.43Z" transform="translate(-232.18 -117.78)"/><path class="cls-11" d="M539,440.11a13.61,13.61,0,0,1,7.33-7.72c-.76-7.66,2.35-12.12,5.37-14.61a15.75,15.75,0,0,0-2.64.12c-7.95,1.06-10.6,10.34-10.6,10.34-14,1.85-11.69,15.62-11.69,15.62-4.07,4.07-1.63,7.32-1.63,7.32H542C538.86,448.21,537.53,444,539,440.11Z" transform="translate(-232.18 -117.78)"/><rect class="cls-3" x="243.4" y="395.96" width="9.35" height="73.18" transform="translate(-258.87 -101.34) rotate(-3.6)"/><rect class="cls-16" x="240.98" y="392.06" width="9.35" height="3.98" transform="translate(-256.46 -101.57) rotate(-3.6)"/><path class="cls-3" d="M244.95,384.59h.7a4.33,4.33,0,0,1,4.33,4.33v3.15a0,0,0,0,1,0,0h-9.35a0,0,0,0,1,0,0v-3.15A4.33,4.33,0,0,1,244.95,384.59Z" transform="translate(-256.1 -101.6) rotate(-3.6)"/><polygon class="cls-18" points="16.14 351.42 11.54 278.38 8.93 278.55 13.53 351.58 22.87 350.99 22.87 350.99 16.14 351.42"/><polygon class="cls-11" points="11.54 278.38 11.29 274.42 8.68 274.58 8.93 278.55 18.27 277.96 18.27 277.96 11.54 278.38"/><path class="cls-18" d="M243.31,388.74a4,4,0,0,1,3.24-4.16,5.17,5.17,0,0,0-.79,0l-1.4.09a4,4,0,0,0-3.72,4.22l.22,3.5,2.66-.17Z" transform="translate(-232.18 -117.78)"/><rect class="cls-3" x="270.7" y="403.7" width="9.35" height="73.18" transform="translate(205.26 815.88) rotate(-166.16)"/><polygon class="cls-16" points="56.49 288.1 55.25 273.56 47.41 285.86 56.49 288.1"/><polygon class="cls-23" points="36.72 358.59 38.98 359.15 38.98 359.15 36.72 358.59"/><polygon class="cls-18" points="51.62 286.9 53.63 287.39 47.41 285.86 29.9 356.91 34.11 357.95 51.62 286.9"/><polygon class="cls-11" points="51.62 286.9 55.25 273.56 47.41 285.86 51.62 286.9"/><rect class="cls-3" x="22.87" y="209.89" width="16.39" height="148.14"/><rect class="cls-18" x="22.87" y="209.89" width="6.3" height="148.14"/><path class="cls-16" d="M241.14,481.78s19.88,5.85,45.13,0l6.78-63.6H233.89Z" transform="translate(-232.18 -117.78)"/><path class="cls-11" d="M243.64,436.4A97.25,97.25,0,0,1,238,418.18h-4.07l7.25,63.6s19.88,5.85,45.13,0C258.5,474.91,250.75,453.43,243.64,436.4Z" transform="translate(-232.18 -117.78)"/><g id="Layer_2" data-name="Layer 2"><circle id="Ellipse_copy_4" data-name="Ellipse copy 4" class="cls-24" cx="450.15" cy="17.87" r="15.92"/><circle id="Ellipse_copy_5" data-name="Ellipse copy 5" class="cls-25" cx="154.79" cy="51.99" r="7.15"/><circle id="Ellipse_copy_3" data-name="Ellipse copy 3" class="cls-24" cx="282.49" cy="39.32" r="10.72"/><circle id="Ellipse_copy_2" data-name="Ellipse copy 2" class="cls-25" cx="351.37" cy="58.81" r="17.87"/><circle id="Ellipse_" data-name="Ellipse " class="cls-26" cx="194.43" cy="7.15" r="7.15"/></g></svg>