<svg id="Images" xmlns="http://www.w3.org/2000/svg" viewBox="0 0 656.05 709.92"><defs><style>.cls-1{fill:#ff88b3;}.cls-2{fill:#e8dde7;}.cls-3{fill:#ff87b3;}</style></defs><title>banner-5</title><path class="cls-1" d="M586.8,226.6c37.11,38.07,77.17,85,67.9,137.36-8.09,45.62-52.46,80-55.07,126.23-1.59,28.13,13,55.55,10.08,83.58-4.08,39.76-41,67.41-76.61,85.53-54.29,27.63-113.86,45.42-174.65,49.38-69.25,4.5-141.61-10.11-197.26-51.56S69.68,544.8,80.41,476.24c9.58-61.26,52.65-111.66,73.73-170,17.16-47.49,19.29-98.85,27.89-148.61S207.67,56.44,246.46,24.12c50.35-41.95,114-25.83,158,15.49C467.72,99,526.23,164.46,586.8,226.6Z" transform="translate(0 0.46)"/><path class="cls-2" d="M142.4,81.61A853.4,853.4,0,0,1,235,57.73c16.13-3.19,32.48-5.89,48.85-8,2.05-.27,4.1-.52,6.14-.77l6.15-.71q6.13-.69,12.27-1.25,12.27-1.12,24.46-1.78c65.05-3.15,125.71,5.54,171.62,38.45,46.13,30.6,81.21,83.37,104.91,136,11.83,26.43,20.23,53.2,24.53,78.73a228.16,228.16,0,0,1,3.32,37.17c0,1.5,0,3,0,4.46s-.08,2.94-.14,4.4q-.19,4.38-.58,8.64a159.1,159.1,0,0,1-2.39,16.56c-7.2,45.19-31.82,73.47-54.53,100.47-23.37,26.48-44.8,51.55-60.33,78.36-16.1,26.44-26,54.62-39.29,78.86-13.71,24-30.84,44-72.44,49.27a141.82,141.82,0,0,1-15.62,2.22c-2.74.24-5.55.43-8.42.55l-2.16.09-2.18.06c-1.46,0-2.94,0-4.43.06a302.68,302.68,0,0,1-38.18-2.48c-26.81-3.33-55.77-9.93-84.3-19.09-57.1-18.16-110.38-48.37-145.94-77.91C70.09,550.27,49.58,522.59,45,503.7a40.83,40.83,0,0,1-1.25-7.19,32.05,32.05,0,0,1-.11-3.37c0-.56,0-1.1.06-1.65s.08-1.08.14-1.62c.11-1.08.28-2.14.49-3.2s.46-2.11.75-3.17a57.42,57.42,0,0,1,2.2-6.35c3.47-8.55,9.06-17.88,14.23-29.64,12.35-20.32,15.85-50.29,4.88-78.17-9.78-28.62-35.27-52.43-52.15-80.56C-3,261.59-7.4,218.37,17,174.7,40.12,130.53,86.49,102,142.4,81.61Z" transform="translate(0 0.46)"/><circle class="cls-3" cx="36.73" cy="398.08" r="18.27" transform="translate(-11.68 1.71) rotate(-1.68)"/></svg>