<svg id="Layer_1" data-name="Layer 1" xmlns="http://www.w3.org/2000/svg" xmlns:xlink="http://www.w3.org/1999/xlink" viewBox="0 0 677.7 468.04"><defs><style>.cls-1{fill:url(#linear-gradient);}.cls-2{fill:url(#linear-gradient-2);}.cls-3{fill:url(#linear-gradient-3);}.cls-4{fill:url(#linear-gradient-4);}.cls-5{fill:#d1d1d1;}.cls-6{fill:#a3a3a3;}.cls-7{fill:#8e8e8e;}.cls-8{fill:#fff;}.cls-9{fill:url(#linear-gradient-5);}.cls-10{fill:#e20944;}.cls-11{fill:#7c7c7c;}.cls-12{fill:#fed2f5;}.cls-13{fill:url(#linear-gradient-6);}.cls-14{fill:url(#linear-gradient-7);}.cls-15{fill:url(#linear-gradient-8);}.cls-16{fill:url(#linear-gradient-9);}.cls-17{fill:url(#linear-gradient-10);}.cls-18{fill:url(#linear-gradient-11);}.cls-19{fill:url(#linear-gradient-12);}.cls-20{fill:url(#linear-gradient-13);}.cls-21{fill:url(#linear-gradient-14);}.cls-22{fill:url(#linear-gradient-15);}.cls-23{fill:url(#linear-gradient-16);}.cls-24{fill:url(#linear-gradient-17);}.cls-25{fill:url(#linear-gradient-18);}.cls-26{fill:url(#linear-gradient-19);}.cls-27{fill:url(#linear-gradient-20);}.cls-28{fill:url(#linear-gradient-21);}.cls-29{fill:#a0a0a0;}.cls-30{fill:url(#linear-gradient-22);}.cls-31{fill:url(#linear-gradient-23);}.cls-32{fill:url(#linear-gradient-24);}.cls-33{fill:url(#linear-gradient-25);}.cls-34{fill:url(#linear-gradient-26);}.cls-35{fill:url(#linear-gradient-27);}.cls-36{fill:url(#linear-gradient-28);}.cls-37{fill:#f2b5de;}.cls-38{fill:url(#linear-gradient-29);}.cls-39{fill:#666;}.cls-40{fill:url(#linear-gradient-30);}</style><linearGradient id="linear-gradient" x1="973.99" y1="427.85" x2="973.99" y2="670.48" gradientTransform="matrix(-1, 0, 0, 1, 1991.5, 0)" gradientUnits="userSpaceOnUse"><stop offset="0.02" stop-color="#a0a0a0"/><stop offset="1" stop-color="#4f4f4f"/></linearGradient><linearGradient id="linear-gradient-2" x1="1049" y1="424.09" x2="1049" y2="672.33" xlink:href="#linear-gradient"/><linearGradient id="linear-gradient-3" x1="1157.39" y1="424.09" x2="1157.39" y2="663.77" xlink:href="#linear-gradient"/><linearGradient id="linear-gradient-4" x1="1232.41" y1="430.41" x2="1232.41" y2="657.9" xlink:href="#linear-gradient"/><linearGradient id="linear-gradient-5" x1="901.82" y1="379.81" x2="1007.25" y2="436.43" gradientTransform="matrix(1, 0, 0, -1, 47.5, 835)" gradientUnits="userSpaceOnUse"><stop offset="0.02" stop-color="#a40944"/><stop offset="1" stop-color="#e20944"/></linearGradient><linearGradient id="linear-gradient-6" x1="1213.6" y1="376.25" x2="1213.6" y2="541.32" gradientTransform="matrix(-1, 0, 0, 1, 1991.5, 0)" xlink:href="#linear-gradient-5"/><linearGradient id="linear-gradient-7" x1="1169.71" y1="371.48" x2="1070.78" y2="470.4" gradientTransform="matrix(-1, 0, 0, 1, 1991.5, 0)" xlink:href="#linear-gradient-5"/><linearGradient id="linear-gradient-8" x1="1210.5" y1="598.43" x2="1210.5" y2="580.13" gradientTransform="matrix(1, 0, 0, -1, -429.5, 1179)" xlink:href="#linear-gradient"/><linearGradient id="linear-gradient-9" x1="1210.5" y1="648" x2="1210.5" y2="598.85" gradientTransform="matrix(1, 0, 0, -1, -429.5, 1246)" xlink:href="#linear-gradient"/><linearGradient id="linear-gradient-10" x1="1210.5" y1="666" x2="1210.5" y2="647.98" gradientTransform="matrix(1, 0, 0, -1, -429.5, 1314)" xlink:href="#linear-gradient"/><linearGradient id="linear-gradient-11" x1="1210.5" y1="673.81" x2="1210.5" y2="699.9" gradientTransform="matrix(1, 0, 0, -1, -429.5, 1375)" xlink:href="#linear-gradient"/><linearGradient id="linear-gradient-12" x1="1210.5" y1="704.29" x2="1210.5" y2="719.94" gradientTransform="matrix(-1, 0, 0, 1, 1334.6, -251.96)" xlink:href="#linear-gradient"/><linearGradient id="linear-gradient-13" x1="1210.49" y1="695.78" x2="1210.49" y2="708.95" xlink:href="#linear-gradient"/><linearGradient id="linear-gradient-14" x1="1211.19" y1="653.15" x2="1211.19" y2="672.57" xlink:href="#linear-gradient"/><linearGradient id="linear-gradient-15" x1="1284.5" y1="702.29" x2="1284.5" y2="717.94" gradientTransform="matrix(-1, 0, 0, 1, 1334.6, -251.96)" xlink:href="#linear-gradient"/><linearGradient id="linear-gradient-16" x1="1284.31" y1="693.78" x2="1284.31" y2="706.95" xlink:href="#linear-gradient"/><linearGradient id="linear-gradient-17" x1="1138.5" y1="701.29" x2="1138.5" y2="716.94" gradientTransform="matrix(-1, 0, 0, 1, 1334.6, -251.96)" xlink:href="#linear-gradient"/><linearGradient id="linear-gradient-18" x1="1138.49" y1="692.78" x2="1138.49" y2="705.95" xlink:href="#linear-gradient"/><linearGradient id="linear-gradient-19" x1="1221.52" y1="393.6" x2="1221.52" y2="576.66" xlink:href="#linear-gradient"/><linearGradient id="linear-gradient-20" x1="738.08" y1="561.87" x2="748.33" y2="561.87" gradientTransform="matrix(-1, 0, 0, 1, 1334.6, -251.96)" xlink:href="#linear-gradient"/><linearGradient id="linear-gradient-21" x1="675" y1="634.43" x2="812.27" y2="634.43" xlink:href="#linear-gradient"/><linearGradient id="linear-gradient-22" x1="3997.07" y1="662.75" x2="4019.81" y2="662.75" gradientTransform="matrix(-1, 0, 0, 1, 4665.2, -251.96)" xlink:href="#linear-gradient"/><linearGradient id="linear-gradient-23" x1="797.24" y1="660.48" x2="819.98" y2="660.48" gradientTransform="matrix(-1, 0, 0, 1, 1334.6, -251.96)" xlink:href="#linear-gradient"/><linearGradient id="linear-gradient-24" x1="711.33" y1="418.67" x2="756.29" y2="563.25" gradientTransform="matrix(-1, 0, 0, 1, 1991.5, 0)" gradientUnits="userSpaceOnUse"><stop offset="0.02" stop-opacity="0.5"/><stop offset="1" stop-color="#fff" stop-opacity="0"/></linearGradient><linearGradient id="linear-gradient-25" x1="743.8" y1="509.98" x2="743.8" y2="509.98" gradientTransform="matrix(-1, 0, 0, 1, 1334.6, -251.96)" gradientUnits="userSpaceOnUse"><stop offset="0.02" stop-color="#8d6cd4"/><stop offset="1" stop-color="#afa4f3"/></linearGradient><linearGradient id="linear-gradient-26" x1="711.99" y1="461.09" x2="830.96" y2="518.65" xlink:href="#linear-gradient-24"/><linearGradient id="linear-gradient-27" x1="814.38" y1="447.65" x2="854.65" y2="447.65" gradientTransform="matrix(-1, 0, 0, 1, 1991.5, 0)" xlink:href="#linear-gradient-5"/><linearGradient id="linear-gradient-28" x1="787.78" y1="444.74" x2="710.64" y2="369.9" gradientTransform="matrix(-1, 0, 0, 1, 1991.5, 0)" xlink:href="#linear-gradient-5"/><linearGradient id="linear-gradient-29" x1="723.35" y1="467.6" x2="723.35" y2="340.14" gradientTransform="matrix(-1, 0, 0, 1, 1991.5, 0)" xlink:href="#linear-gradient-5"/><linearGradient id="linear-gradient-30" x1="-2523.11" y1="87.33" x2="-2624.68" y2="177.76" gradientTransform="translate(3760.63 -244.76) rotate(-11.79)" xlink:href="#linear-gradient-5"/></defs><title>banner-4</title><rect x="692.5" y="424" width="391" height="12" transform="translate(1119.1 608.04) rotate(-180)"/><path class="cls-1" d="M1031.91,664.67h0a4.66,4.66,0,0,0,4.66-4.56L1016.7,435H998.45l28.81,225.11A4.66,4.66,0,0,0,1031.91,664.67Z" transform="translate(-656.9 -251.96)"/><path class="cls-2" d="M928.09,664.67h0a4.67,4.67,0,0,1-4.66-4.56L943.3,435h18.25l-28.8,225.11A4.66,4.66,0,0,1,928.09,664.67Z" transform="translate(-656.9 -251.96)"/><path class="cls-3" d="M848.51,664.67h0a4.66,4.66,0,0,0,4.65-4.56L833.3,435H815.05l28.8,225.11A4.66,4.66,0,0,0,848.51,664.67Z" transform="translate(-656.9 -251.96)"/><path class="cls-4" d="M744.69,664.41h0a4.65,4.65,0,0,1-4.66-4.56L759.9,434.74h18.25L749.34,659.85A4.65,4.65,0,0,1,744.69,664.41Z" transform="translate(-656.9 -251.96)"/><path class="cls-5" d="M793.5,297h146a0,0,0,0,1,0,0v78.49A7.51,7.51,0,0,1,932,383H801a7.51,7.51,0,0,1-7.51-7.51V297a0,0,0,0,1,0,0Z" transform="translate(1076.1 428.04) rotate(-180)"/><path d="M931.5,297H935a7.52,7.52,0,0,1,7.52,7.52V383h-3V304.48A7.75,7.75,0,0,0,931.5,297Z" transform="translate(-656.9 -251.96)"/><path d="M801.06,383H931.94a7.56,7.56,0,0,1,7.56,7.56V401a0,0,0,0,1,0,0h-146a0,0,0,0,1,0,0V390.56a7.56,7.56,0,0,1,7.56-7.56Z" transform="translate(1076.1 532.04) rotate(-180)"/><path d="M939.5,393.42V383h3v10.48A7.52,7.52,0,0,1,935,401H931.5A7.8,7.8,0,0,0,939.5,393.42Z" transform="translate(-656.9 -251.96)"/><rect class="cls-6" x="851.5" y="401" width="33" height="23" transform="translate(1079.1 573.04) rotate(-180)"/><circle class="cls-6" cx="210.6" cy="140.04" r="3"/><rect class="cls-7" x="977.5" y="393" width="98" height="18" rx="4.86" ry="4.86" transform="translate(1396.1 552.04) rotate(-180)"/><rect class="cls-8" x="996.5" y="400" width="42" height="5" transform="translate(1378.1 553.04) rotate(-180)"/><rect class="cls-9" x="970.5" y="411" width="98" height="13" rx="3.23" ry="3.23" transform="translate(1382.1 583.04) rotate(-180)"/><rect class="cls-8" x="987.5" y="416" width="42" height="3" transform="translate(1360.1 583.04) rotate(-180)"/><rect class="cls-8" x="1054.5" y="411" width="2" height="13" transform="translate(1454.1 583.04) rotate(-180)"/><rect class="cls-8" x="1057.5" y="393" width="2" height="18" transform="translate(1460.1 552.04) rotate(-180)"/><rect class="cls-8" x="1062.5" y="411" width="2" height="13" transform="translate(1470.1 583.04) rotate(-180)"/><rect class="cls-8" x="1064.5" y="393" width="2" height="18" transform="translate(1474.1 552.04) rotate(-180)"/><path class="cls-10" d="M956.86,414.78a7.76,7.76,0,0,1-7.75-7.45,7.81,7.81,0,0,1,7.45-8.11,7.77,7.77,0,0,1,8.1,7.44h0a7.82,7.82,0,0,1-7.45,8.11Zm0-12.57h-.21a4.82,4.82,0,0,0-4.59,5,4.79,4.79,0,0,0,5,4.57,4.81,4.81,0,0,0,4.58-5h0a4.78,4.78,0,0,0-4.76-4.57Z" transform="translate(-656.9 -251.96)"/><path class="cls-10" d="M940.89,397h5.22a9.39,9.39,0,0,1,9.39,9.39V423a0,0,0,0,1,0,0h-24a0,0,0,0,1,0,0V406.39A9.39,9.39,0,0,1,940.89,397Z" transform="translate(1230.1 568.04) rotate(-180)"/><polygon points="213.08 320.45 199.61 430.12 184.22 428.19 176.52 320.45 213.08 320.45"/><path d="M916.73,684.56S897.25,531.05,859.82,535.4c-27,3.13-76.11,8.45-80.81-23.49,0,0,19.29,9.78,19.29-25.85,0,0,104.85,16.93,111.64,42.38S933.7,684.56,933.7,684.56Z" transform="translate(-656.9 -251.96)"/><path class="cls-11" d="M933.5,681s3.43,7.15,24.07,13.67c4.84,1.53,1.19,4.68,0,5.13-10.3,3.82-40.25,2.89-43.91,0s-.08-18.8,3.24-18.8Z" transform="translate(-656.9 -251.96)"/><path class="cls-11" d="M856.62,680.27s3.43,7.15,24.07,13.67c4.84,1.53,1.19,4.69,0,5.13-10.3,3.82-40.25,2.89-43.91,0s-.08-18.8,3.24-18.8Z" transform="translate(-656.9 -251.96)"/><path class="cls-12" d="M786.55,350c1.92,13.9,13.59,28,15.77,22s1.68-12.72,17.35-18.72c8.47-4.4,12.67-13.06,12.59-26.07a7.77,7.77,0,0,0-.07-1.41c.35-1.27,0-3.06-1.74-5.89,0,0-11.08-9.32-30.22-2.69C781.16,323.47,786.55,350,786.55,350Z" transform="translate(-656.9 -251.96)"/><path class="cls-13" d="M758,534c23.57,14.62,49.81,15.45,65,9.23,0,0-25-45.13-25.41-66.11V477c0-.66,0-1.33.05-2,1.16-21.41,25-59.69,28.5-70.67,3.62-11.34-34.46-39.11-34.46-39.11-13.1,15.06-48.13,9.71-48.13,9.71s-.23,35,.58,53.9c.44,10.36-1.71,22.93-4.77,34.19,0,0,0,.06,0,.08-.83,3.2-1.77,6.23-2.72,9.17a.32.32,0,0,0,0,.09,132.48,132.48,0,0,1-5.33,14C725.37,499,734.41,519.39,758,534Z" transform="translate(-656.9 -251.96)"/><path d="M741.07,445.11c10.18,8.11,21.84,48.14,28.87,24.55s-23-50.56-.84-58.31c18.51-6.44,34.3-9,22.79-45.51,0-.18-.14-.36-.16-.54a102.36,102.36,0,0,1,13.63-10.77c14.27-9.43,32.39-26.81,23.45-45.59-22.4-47.32-60.9-8.59-65,6.12-2.16,7.84-1.57,23.39,2.34,35.88-.32.51-.73,1-1,1.55-24.35,5.27-34.69,13.55-31.21,24.86,5.31,17,14.78,26.21,6.37,31.69C725.5,418.72,730.79,437,741.07,445.11Z" transform="translate(-656.9 -251.96)"/><path d="M736.46,472.27l.07.09a11.79,11.79,0,0,0,1.61,2c1.48.74,48.72,32.17,59.39,2.78V477c0-.66,0-1.33.05-2-4.72,2-31.76,11.84-55-9-1.24-1-2.3-2-3.33-2.93l-.07-.06C738.37,466.27,737.43,469.41,736.46,472.27Z" transform="translate(-656.9 -251.96)"/><path class="cls-12" d="M970.26,419.14a33,33,0,0,0-25.44,0c-14.42,6-14.16,10.88-14.16,10.88l4.87,7.3s8.34-.67,19.27-7.22S970.51,422.3,970.26,419.14Z" transform="translate(-656.9 -251.96)"/><path class="cls-14" d="M802.74,386.7c9.35-9.53,9.61-2.82,26.15,13s40.75,51.23,105,25l5.73,13.15s-47.88,28.07-91,12C830.37,443,788,401.7,802.74,386.7Z" transform="translate(-656.9 -251.96)"/><path class="cls-15" d="M747.5,581h67a17,17,0,0,1,17,17v0a0,0,0,0,1,0,0h-101a0,0,0,0,1,0,0v0A17,17,0,0,1,747.5,581Z" transform="translate(905.1 927.04) rotate(-180)"/><rect class="cls-16" x="770.5" y="598" width="21" height="50" transform="translate(905.1 994.04) rotate(-180)"/><rect class="cls-17" x="766.5" y="648" width="29" height="18" transform="translate(905.1 1062.04) rotate(-180)"/><rect class="cls-18" x="773.5" y="675" width="15" height="25" transform="translate(905.1 1123.04) rotate(-180)"/><circle class="cls-19" cx="124.1" cy="460.54" r="7.5"/><path class="cls-20" d="M767.42,709c0-4.82,6.08-12.62,13.59-12.62s13.59,7.8,13.59,12.62Z" transform="translate(-656.9 -251.96)"/><path class="cls-21" d="M707.38,699a5,5,0,0,0,5.11-5v-6.77A12.46,12.46,0,0,1,725.13,675H835.49a12.45,12.45,0,0,1,12.63,12.23V694a5.12,5.12,0,0,0,10.24,0v-6.77c0-12.21-10.26-22.14-22.87-22.14H725.13c-12.61,0-22.87,9.93-22.87,22.14V694A5,5,0,0,0,707.38,699Z" transform="translate(-656.9 -251.96)"/><circle class="cls-22" cx="50.1" cy="458.54" r="7.5"/><path class="cls-23" d="M693.6,707c0-4.82,6.08-12.62,13.59-12.62s13.58,7.8,13.58,12.62Z" transform="translate(-656.9 -251.96)"/><circle class="cls-24" cx="196.1" cy="457.54" r="7.5"/><path class="cls-25" d="M839.42,706c0-4.82,6.08-12.62,13.59-12.62s13.59,7.8,13.59,12.62Z" transform="translate(-656.9 -251.96)"/><path class="cls-26" d="M866,581h-152s-30.72-1.65-38.8-37.87S642.29,390,668.8,390h97c9.84,0,11.32,0,12.93,37.87s-44.62,100.26,27.49,108.67c25.74,3,51.86-6.68,66.28,1.65C881.75,543.53,893.37,578.84,866,581Z" transform="translate(-656.9 -251.96)"/><rect class="cls-27" x="586.27" y="254" width="10.25" height="111.82"/><path class="cls-28" d="M1182.56,657a3.33,3.33,0,0,0,3.33-3.33v-4.42a30.69,30.69,0,0,1,30.66-30.66h62.63a30.7,30.7,0,0,1,30.66,30.66v4.42a3.33,3.33,0,1,0,6.66,0v-4.42a37.37,37.37,0,0,0-37.32-37.32h-62.63a37.36,37.36,0,0,0-37.32,37.32v4.42A3.33,3.33,0,0,0,1182.56,657Z" transform="translate(-656.9 -251.96)"/><path class="cls-29" d="M1174.87,505V506h2.88c9.11,0,38.36.05,65.42,0h7c9,0,17.44,0,24.58-.07,6.83,0,12.43-.09,16.06-.16,10.49-.17,16.75-1.91,20.64-4.86.13-.09.26-.2.38-.3a3.65,3.65,0,0,0,.36-.31c.27-.23.52-.47.76-.71s.24-.24.35-.37a18.42,18.42,0,0,0,4.35-8.94s0,0,0,0h0a27.73,27.73,0,0,0,.45-3c.1-1,.17-1.94.22-2.92.06-1.18.08-2.37.07-3.58,0-.5,0-1,0-1.5-.48-19.09-8.23-40.56-10.22-54.92a64.07,64.07,0,0,1-.62-9.13V415c.15-31,22.48-52.2,22.09-70.7V344a20.41,20.41,0,0,0-3.18-10.41c-.18-.28-.36-.56-.56-.83s-.26-.38-.39-.56h0c-.09-.14-.19-.26-.29-.39h0l-.4-.52a26,26,0,0,0-1.84-2.05l-.42-.42-.49-.45-.46-.41a29.63,29.63,0,0,0-4.25-3.09c-.32-.19-.63-.37-1-.54s-.69-.39-1-.56c-.57-.3-1.13-.57-1.67-.82-.86-.4-1.67-.73-2.41-1a2.16,2.16,0,0,0-.25-.1c-5.54-2.46-54.09-30.37-66.64-1-9,21.07,9.69,99.85,10.64,103.84h0s0,0,0,0l0,.11c.7,16.91-4.56,31.48-15.2,39.34C1225.31,475,1174.87,505,1174.87,505Z" transform="translate(-656.9 -251.96)"/><path d="M1174.28,505.19V510h122.07c12.35,0,18.44-3,22.09-6.87a17.42,17.42,0,0,0,4.15-7.79v0c0-.16.06-.31.1-.47s0-.27.07-.41c.06-.31.1-.6.14-.89s.1-.74.14-1.07c0-.13,0-.26,0-.38.19-1.88.28-3.79.29-5.74,0-.5,0-1,0-1.5-.27-19.27-8.21-41.13-10.22-55.69a65.52,65.52,0,0,1-.62-8.37v-.13c-.22-30.95,21.87-52.21,22.09-70.69v-.23a20.42,20.42,0,0,0-3.18-11.17,25.29,25.29,0,0,0-6.17-6.71h0c-.16-.13-.31-.25-.47-.36l.4.56c.19.27.37.55.55.84a.78.78,0,0,1,.11.2h0a20.24,20.24,0,0,1,3.06,11v.23c-.22,18.48-22.31,39.74-22.09,70.7v.13a67.52,67.52,0,0,0,.62,8.36c2,14.56,10,36.42,10.22,55.69,0,.5,0,1,0,1.5,0,1,0,1.89-.07,2.81s-.12,2-.22,2.92a26.66,26.66,0,0,1-.45,3h0s0,0,0,0a5.3,5.3,0,0,1-.13.62v0a18.25,18.25,0,0,1-4.22,8.31c-.11.13-.23.25-.35.37s-.49.48-.75.71l-.37.31c-.12.1-.25.21-.38.3-3.86,3-10,4.92-20.53,5.1-3.59.06-9.11.1-15.87.12-6.33,0-13.74,0-21.68,0H1242.4c-23.91,0-50.23-.1-65.42-.15h-2.7Z" transform="translate(-656.9 -251.96)"/><circle class="cls-30" cx="656.77" cy="410.79" r="11.37"/><circle class="cls-31" cx="525.99" cy="408.52" r="11.37"/><path class="cls-32" d="M1255.08,424.7h0s0,0,0,0l0,.11,44.35,46.3.14.15,17.33,18.1.63.66.14.13,4.88,5.1c0-.16.06-.31.1-.47s0-.27.07-.41c.06-.31.1-.6.14-.89s.1-.74.14-1.07c0-.13,0-.26,0-.38.19-1.88.28-3.79.29-5.74,0-.5,0-1,0-1.5-.27-19.27-8.21-41.13-10.22-55.69a65.52,65.52,0,0,1-.62-8.37v-.13c-.22-30.95,21.87-52.21,22.09-70.69v-.23a20.42,20.42,0,0,0-3.18-11.17,25.38,25.38,0,0,0-3-3.85c-.6-.58-1.2-1.12-1.82-1.62h0c-.34-.3-.7-.57-1.06-.83h0c-.09-.14-.19-.26-.29-.39h0l-.4-.52a26,26,0,0,0-1.84-2.05l-.42-.42-.49-.45-.46-.41a29.63,29.63,0,0,0-4.25-3.09c-.32-.19-.63-.37-1-.54s-.69-.39-1-.56c-.57-.3-1.13-.57-1.67-.82-.86-.4-1.67-.73-2.41-1a2.16,2.16,0,0,0-.25-.1c-5.54-2.46-54.09-30.37-66.64-1C1235.43,341.93,1254.13,420.71,1255.08,424.7Z" transform="translate(-656.9 -251.96)"/><line class="cls-33" x1="595.93" y1="258.03" x2="585.68" y2="258.03"/><path class="cls-34" d="M1168.83,500.83v4.79H1290.9c12.35,0,18.44-3,22.09-6.87a17.42,17.42,0,0,0,4.15-7.79v0l-4.88-5.1h0l-.77-.8-61.84-64.65,0,.11c.7,16.91-4.56,31.48-15.2,39.33-14.61,10.8-65,40.84-65,40.84v.17Z" transform="translate(-656.9 -251.96)"/><path class="cls-11" d="M1006.41,568.47c0-.46-28.2-9.62-34.22-3.89s27.69,19.9,32.68,21.3l-1.06,1.89,10.65,6,5.61-10S1006.32,575.65,1006.41,568.47Z" transform="translate(-656.9 -251.96)"/><path d="M1130,480.65c-7.71-2.35-19.73-3.79-31.31,7.72s-92.07,79.78-92.07,79.78-2.43,3.65-.27,6.56c4,5.36,13.59,9.29,13.59,9.29s40.71-25.34,47.43-29.58,38.35-20.53,54.48-42Z" transform="translate(-656.9 -251.96)"/><path class="cls-35" d="M1136.92,452c2.19-4.44,11.3-8.61,17.25-9.7a27.25,27.25,0,0,1,13.65.82c3.55,1.07,8.65,3.15,8.65,3.15l.65,6.17s-11,.79-14.27-.68a14.46,14.46,0,0,0-10.11-1.34c-5.26,1-13,2.84-14.4,3S1136.7,452.48,1136.92,452Z" transform="translate(-656.9 -251.96)"/><path class="cls-36" d="M1174.7,443.19s53-23.47,57.22-31.2,27.83-72.46,49.25-65.92-4.26,72.05-38.12,90.09c-15,8-65.63,17.75-65.63,17.75Z" transform="translate(-656.9 -251.96)"/><path class="cls-37" d="M1288.85,347.58c-3.35.64-12.19,1.45-12.19,1.45-.86-.68,5.19-18-2.1-31.73,0,0,21.29,6.64,26.22-17.32,0,0,.54,31.17,2.16,34.06Z" transform="translate(-656.9 -251.96)"/><path class="cls-12" d="M1266.32,304.23s5.06,17.25,16.82,16.56,18-17.08,17.86-23.52-5.07-20.6-8-23.34-24.38-2.92-26.69,1.63S1264.6,301.31,1266.32,304.23Z" transform="translate(-656.9 -251.96)"/><path d="M1299.26,299.43c-4.74-1.22-6.51-13.55-7.49-18.09s-5.75-5.15-11.39-2.38-9.22-.88-11.83-1.89-3.47,7.44-3.47,7.44c-4.45-1-7.81-18.77-6.94-24.95s10-3,12-1.51,1.63-4.16,1.63-4.16c6.83-6.3,20.07,4.66,22,6.18s1.41-2,3.36-2,8.24,7.75,9.44,16c2,13.79-5.72,37.36-6,35.68s-.22-9.75-.22-9.75l-1.2-.55" transform="translate(-656.9 -251.96)"/><path class="cls-12" d="M1299.26,291.87s2.92-4,6.36-2.58-2.41,14.25-3.61,14.51-2.75-2-2.75-2Z" transform="translate(-656.9 -251.96)"/><path class="cls-11" d="M1076.14,606.53c-.21-.38-28.22,4-30.57,11.62s32.63,3.67,37.48,2.49v2.08h11.75v-11S1079.45,612.61,1076.14,606.53Z" transform="translate(-656.9 -251.96)"/><path d="M1221,448.59s-72.84,13-96.21,20.65c-7.38,2.43-17.64,8-20.38,23.44s-28.27,113.85-28.27,113.85.11,4.22,3.42,5.32c6.1,2,15.24.76,15.24.76s18.62-43.5,21.56-50.56,18.81-37.43,19.6-63.29c0,0,108-3.14,113.65-4.9s25.67-6.67,27.24-27.24S1221,448.59,1221,448.59Z" transform="translate(-656.9 -251.96)"/><path class="cls-38" d="M1207.55,457.55c9.17.35,23.93,12.57,27.83,14.43s13.08,0,18.17,4.08S1260,493.7,1260,493.7s7.46-.67,12-11.2,23.43-47.86,41.42-66.86,15.7-40,14.43-54.48-19.35-30.55-19.35-30.55l.38-8c-11-7.12-34.75,11.85-35.26,14.9-.48,2.85,1.79,8.29,2.09,9l0,.09c-6.11-.51-21.21,28.68-29.87,44.13s-6.79,41.4-15.78,40.22S1207.55,457.55,1207.55,457.55Z" transform="translate(-656.9 -251.96)"/><path class="cls-39" d="M1153.72,421.4l-48.94,19.8,71.29,40.94,40.63-24.94a2.13,2.13,0,0,0,.06-3.71L1159,421.8A6,6,0,0,0,1153.72,421.4Z" transform="translate(-656.9 -251.96)"/><path class="cls-12" d="M1169.51,454.07c2.19-4.43,11.3-8.61,17.24-9.69a27.24,27.24,0,0,1,13.65.82c3.55,1.07,8.66,3.15,8.66,3.15l.65,6.17s-11,.79-14.27-.68a14.48,14.48,0,0,0-10.12-1.34c-5.25,1-13,2.83-14.39,3S1169.29,454.52,1169.51,454.07Z" transform="translate(-656.9 -251.96)"/><path class="cls-40" d="M1207.29,445.22s53-23.46,57.21-31.2,27.84-72.46,49.25-65.92-4.25,72-38.11,90.1c-15,8-65.64,17.75-65.64,17.75Z" transform="translate(-656.9 -251.96)"/><polygon class="cls-11" points="447.88 189.24 519.17 230.18 510.56 176.91 439.27 135.97 447.88 189.24"/><ellipse class="cls-8" cx="1131.39" cy="433.4" rx="4.28" ry="5.91" transform="translate(-725.15 350.94) rotate(-29)"/></svg>