<svg id="Layer_1" data-name="Layer 1" xmlns="http://www.w3.org/2000/svg" xmlns:xlink="http://www.w3.org/1999/xlink" viewBox="0 0 695.31 465.23"><defs><style>.cls-1{fill:#411914;}.cls-2{fill:#f8f7ff;}.cls-3{fill:#ff5342;}.cls-4{fill:#ffb890;}.cls-17,.cls-20,.cls-22,.cls-26,.cls-30,.cls-5,.cls-9{fill:none;}.cls-20,.cls-5{stroke:#ec8a63;}.cls-17,.cls-20,.cls-22,.cls-26,.cls-30,.cls-5{stroke-linecap:round;stroke-linejoin:round;}.cls-5{stroke-width:1.44px;}.cls-21,.cls-6{fill:#fff;}.cls-7{fill:#ffa829;}.cls-8{fill:#e5e5e5;}.cls-9{stroke:#e01a0b;stroke-miterlimit:10;}.cls-10{fill:#101010;}.cls-11{fill:#ec8a63;}.cls-12{clip-path:url(#clip-path);}.cls-13{fill:#ff76c5;}.cls-14{fill:#f4f6fc;}.cls-15,.cls-32{font-size:29.69px;font-family:MicrosoftTaiLe-Bold, Microsoft Tai Le;font-weight:700;}.cls-15{letter-spacing:-0.02em;}.cls-16{fill:#bf5180;}.cls-17{stroke:#a0386a;stroke-width:2.21px;}.cls-18{fill:#ff8b9b;}.cls-19{fill:#a7366b;}.cls-20{stroke-width:1.44px;}.cls-21{opacity:0.26;}.cls-22{stroke:#fff;stroke-width:1.37px;}.cls-23{fill:#ffae43;}.cls-24{fill:#d25f3b;}.cls-25{fill:#e57e5b;}.cls-26{stroke:#d25f3b;stroke-width:1.43px;}.cls-27{fill:#ff6822;}.cls-28{fill:#ff0244;}.cls-29{fill:#eae9ff;}.cls-30{stroke:#eae9ff;stroke-width:1.99px;}.cls-31{fill:#c7c7ff;}.cls-32{letter-spacing:-0.03em;}</style><clipPath id="clip-path" transform="translate(0.31 0.23)"><path id="_Clipping_Path_" data-name="&lt;Clipping Path&gt;" class="cls-1" d="M173,136.69l-18.39-1.84s-1,8.58,8.74,9.35S173,136.69,173,136.69Z"/></clipPath></defs><title>banner-3</title><ellipse class="cls-2" cx="328.81" cy="353.73" rx="319.5" ry="111.5"/><path class="cls-3" d="M183.17,211.58s23.28,19.61-8.54,122.11l-32,3.87Z" transform="translate(0.31 0.23)"/><path class="cls-4" d="M250.86,291.34s-10.31-9.58,1.35-22.94l17.56-20.91a4,4,0,0,1,6,0h0a4,4,0,0,1,.62,4.47l-6,12.78,31.22-17.18a4.38,4.38,0,0,1,6.32,2.1h0a4.36,4.36,0,0,1-1.65,5.3L286,267.86l.26,1.19,22.87-10.36a4.22,4.22,0,0,1,5.57,3.38h0a4.21,4.21,0,0,1-2.77,4.56l-22.22,11.5.17,1.5,21.28-6.87c1.91-.39,7.28.88,7.6,2.8h0c.31,1.79-4.35,3.51-6.12,3.92l-22.17,8.75.11,1.39L311,283.9a3,3,0,0,1,3.13,3.54h0a3,3,0,0,1-2.73,2.52l-23.29,7.47s-21.75,12.07-30.3,3.33Z" transform="translate(0.31 0.23)"/><path class="cls-5" d="M270.43,264.71s5.39,12.14-3.45,21.69" transform="translate(0.31 0.23)"/><polygon class="cls-4" points="219.58 290.59 254.61 279.49 267.29 301.28 227.61 318.12 219.58 290.59"/><polygon class="cls-6" points="232.44 283.79 247.09 279.49 259.77 304.3 241.68 312.15 232.44 283.79"/><path class="cls-3" d="M151.16,304.83l72.73-25.78a13.64,13.64,0,0,1,16.89,7.5l8.31,19.18a13.64,13.64,0,0,1-6.59,17.71l-68.57,34.77a25.62,25.62,0,0,1-33.37-10.36h0C132.91,334.48,136.94,310.77,151.16,304.83Z" transform="translate(0.31 0.23)"/><path class="cls-3" d="M60.43,384.29s50.2,40.27,98,5.37l2.67-99.22,6.72-67.39-9.39-15.75-28-7.19L97,203.43l-4.39,59.21Z" transform="translate(0.31 0.23)"/><path class="cls-4" d="M114.61,209.64s23.81,26.54,46.46,5L150,183.8l-37.77-1.3Z" transform="translate(0.31 0.23)"/><path class="cls-7" d="M158.46,223.3s-9.61,117.93-4.52,186a3.23,3.23,0,0,0,5.74,1.76h0A43.92,43.92,0,0,0,166,390.73l5.88-105.86L188.11,229a17,17,0,0,0-4.88-17.33,90.8,90.8,0,0,0-24.76-15.74Z" transform="translate(0.31 0.23)"/><path class="cls-6" d="M151.57,195.9a91,91,0,0,1,6.08,35.53s19.24-23.42-4.11-54.51Z" transform="translate(0.31 0.23)"/><polygon class="cls-8" points="116.27 170.8 126.4 171.72 122.33 181.27 108.83 184 106.5 181.72 116.27 170.8"/><path class="cls-6" d="M116,170.56s-5.77,4.59.18,20.16c3.2,8.39,7.46,14.78,8.23,25.09.4,5.5-2.93,18.71-2.93,18.71L92.64,189.05S104.08,169.24,116,170.56Z" transform="translate(0.31 0.23)"/><path class="cls-7" d="M121.43,234.52s7.46,92.25-30.63,173.75a9.64,9.64,0,0,1-11.19,5.26c-10-2.63-29-10.4-46.67-40.14L41.84,222a18.22,18.22,0,0,1,8.65-14.44,169.27,169.27,0,0,1,42.15-18.53S115.79,202.38,121.43,234.52Z" transform="translate(0.31 0.23)"/><path class="cls-3" d="M50.4,207.64s40.44,37.89,10.25,115.53l-5.08,27.45a28.16,28.16,0,0,1-34.31,22.26h0A28.14,28.14,0,0,1,0,341.29C6.45,299.24,22.25,219.11,50.4,207.64Z" transform="translate(0.31 0.23)"/><path class="cls-4" d="M129.41,330.39s-6.92-12.26,8.23-21.45l23.07-14.61a4,4,0,0,1,5.77,1.8h0a4,4,0,0,1-.76,4.45l-9.6,10.36,35-6.91a4.37,4.37,0,0,1,5.38,3.91h0a4.37,4.37,0,0,1-3.17,4.55l-23.25,6.18-.11,1.22,24.93-2.95a4.21,4.21,0,0,1,4.28,4.9h0a4.22,4.22,0,0,1-4,3.52l-24.66,4.22-.3,1.49,22.36-.1a3.43,3.43,0,0,1,3.05,3.9h0a3.44,3.44,0,0,1-3.68,2.95l-23.77,1.62-.32,1.35,21.11.71a3,3,0,0,1,1.91,4.32h0a3,3,0,0,1-3.37,1.58l-24.45.06s-24.39,4.91-29.88-6Z" transform="translate(0.31 0.23)"/><polygon class="cls-4" points="95.1 321.76 136.66 320.15 142.14 344.75 97.76 351.5 95.1 321.76"/><polygon class="cls-6" points="112.49 316.96 130.57 315.95 135.33 347.54 115.51 350.14 112.49 316.96"/><path class="cls-3" d="M23.57,315.79,108,311.68a11.39,11.39,0,0,1,11.92,10.7l1.46,24.46a11.4,11.4,0,0,1-9.34,11.89L31.94,373.21A25.62,25.62,0,0,1,2.33,354.67h0C-1.65,339.78,8.32,317.89,23.57,315.79Z" transform="translate(0.31 0.23)"/><line class="cls-9" x1="64.32" y1="314.05" x2="35.45" y2="315.46"/><path class="cls-10" d="M182.08,91.45s1.71,6.49-3.71,15.61L173.55,90Z" transform="translate(0.31 0.23)"/><circle class="cls-11" cx="175.32" cy="126.64" r="10.73" transform="translate(7.8 263.28) rotate(-74.94)"/><polygon class="cls-4" points="156.05 152.86 151.89 196.13 114.17 182.84 124.46 123.72 156.05 152.86"/><path class="cls-11" d="M153.92,171.49s-18.4-.78-19.41-25.77l20.87,11.06Z" transform="translate(0.31 0.23)"/><path class="cls-4" d="M179.24,92.76s5.74,36.37,0,50.3-17.82,22.1-36.14,17.14c0,0-21.45-2.62-24.55-35C113.92,76.55,158.68,65.53,179.24,92.76Z" transform="translate(0.31 0.23)"/><path class="cls-10" d="M174.32,120.1a2.46,2.46,0,1,0,2-2.86A2.45,2.45,0,0,0,174.32,120.1Z" transform="translate(0.31 0.23)"/><path class="cls-10" d="M153.58,119a2.46,2.46,0,1,0,2-2.87A2.46,2.46,0,0,0,153.58,119Z" transform="translate(0.31 0.23)"/><polyline class="cls-5" points="170.08 121.98 172.16 130.44 168.16 131.22"/><path class="cls-10" d="M161.07,103.78h0a3.38,3.38,0,0,1-3,4,38.74,38.74,0,0,0-11.35,2.59,3,3,0,0,1-3.85-1.43h0a3.07,3.07,0,0,1,1.21-3.79A19.36,19.36,0,0,1,157.79,101,3.46,3.46,0,0,1,161.07,103.78Z" transform="translate(0.31 0.23)"/><path class="cls-10" d="M170.89,104.6h0c-.27,1.94.64,3.84,2,4.1a19.64,19.64,0,0,1,7.47,3c1,.68,2.09.16,2.56-1.25h0a4.06,4.06,0,0,0-.75-3.81c-1.65-1.94-4.27-4.82-9-4.68C172,102,171.11,103,170.89,104.6Z" transform="translate(0.31 0.23)"/><path id="_Clipping_Path_2" data-name="&lt;Clipping Path&gt;" class="cls-1" d="M173,136.69l-18.39-1.84s-1,8.58,8.74,9.35S173,136.69,173,136.69Z" transform="translate(0.31 0.23)"/><g class="cls-12"><polygon class="cls-6" points="174.25 139.9 152.56 137.81 153.48 132.34 178.32 132.68 174.25 139.9"/><circle class="cls-13" cx="158.79" cy="145.51" r="6.13" transform="translate(-44.46 216.08) rotate(-61.56)"/></g><path class="cls-10" d="M126.11,125.59s10.53-.66,7.8-27.58a35.32,35.32,0,0,1,25.58-3.89C174,97.49,193.83,95.66,194.34,80c.66-20.35-32-26.6-54.89-12.64C118.67,80,91.38,86.2,112.47,126Z" transform="translate(0.31 0.23)"/><polygon class="cls-10" points="114.93 128.97 119.45 148.57 125.55 132.84 114.93 128.97"/><circle class="cls-4" cx="117.46" cy="124.19" r="13.03" transform="translate(-23.61 220.51) rotate(-80.79)"/><path class="cls-5" d="M111.88,120s9.72-2,11.5,8.62" transform="translate(0.31 0.23)"/><rect class="cls-14" x="2.13" width="109.18" height="75.03" rx="31.07" ry="31.07"/><polygon class="cls-14" points="69.05 65.66 85.98 86.69 84.18 60.05 69.05 65.66"/><text class="cls-15" transform="translate(18.44 46.61)">Hallo!</text><path class="cls-6" d="M457.77,404.1c-1.91,2.39-86.7,36-127-8.9l-1.62-186.95L359,172.79l36.64.35L453.38,278.5Z" transform="translate(0.31 0.23)"/><path class="cls-16" d="M321.45,194.8s-33.61,17.7-19.13,140.14l-18.56,53.11H332L342,266.82Z" transform="translate(0.31 0.23)"/><path class="cls-16" d="M348.12,228.09l-2.58,165.59c-9.33,11.5-21.4,10.42-21.4,10.42s-11.23-202.8-4.05-208.28c15.33-11.69,38.91-23,38.91-23Z" transform="translate(0.31 0.23)"/><line class="cls-17" x1="323.44" y1="388.29" x2="317.32" y2="251.44"/><path class="cls-18" d="M355.05,195.82l-6.93,32.27-19.63,16.59a4.43,4.43,0,0,1-7.25-4l2.16-16.89a37,37,0,0,1,5.76-15.59l20.74-35.46Z" transform="translate(0.31 0.23)"/><path class="cls-19" d="M306.35,69.44a.7.7,0,0,0-.38,0c-1.1.31-6.48,2.2-5.09,8.59,1.55,7.12,24.66,21.59,40.47,12.6l-5.79-15.56Z" transform="translate(0.31 0.23)"/><path class="cls-11" d="M335.37,128.65a10.75,10.75,0,1,1-8.12-12.86A10.75,10.75,0,0,1,335.37,128.65Z" transform="translate(0.31 0.23)"/><path class="cls-4" d="M345.54,153.3l9.51,42.52,27.87-10.42a10.46,10.46,0,0,0,6.35-12.85l-15.91-52.14Z" transform="translate(0.31 0.23)"/><path class="cls-11" d="M349,168.66s18.42-2,16.83-23.68l-19.38,12.41Z" transform="translate(0.31 0.23)"/><path class="cls-4" d="M322.37,92.5s-5.76,36.45,0,50.41,17.86,22.15,36.22,17.17c0,0,21.49-2.62,24.6-35C387.83,76.26,343,65.21,322.37,92.5Z" transform="translate(0.31 0.23)"/><path class="cls-10" d="M372.51,118.36s-3.75-5.94,0-22-39.84-15.68-50.18-3.81c0,0,6.95-18,33-18.93s47.15,15.67,38.15,44.79l-6.4,10.19Z" transform="translate(0.31 0.23)"/><path class="cls-10" d="M370.86,109.64s2,21.24-16.11,25c-11.55,2.4-23.25-6.09-34.15,1.51,0,0,4.28,32.1,37.2,24.36a27.93,27.93,0,0,0,11.88-6.13c6.69-5.8,16.27-17.62,10.58-34.65Z" transform="translate(0.31 0.23)"/><circle class="cls-4" cx="387.13" cy="126.28" r="13.05" transform="translate(-19.1 103.34) rotate(-14.8)"/><path class="cls-20" d="M392.73,122.05s-9.75-2-11.53,8.64" transform="translate(0.31 0.23)"/><path class="cls-10" d="M327.3,119.9a2.46,2.46,0,1,1-2-2.87A2.46,2.46,0,0,1,327.3,119.9Z" transform="translate(0.31 0.23)"/><path class="cls-10" d="M348.08,118.82a2.46,2.46,0,1,1-2-2.87A2.46,2.46,0,0,1,348.08,118.82Z" transform="translate(0.31 0.23)"/><polyline class="cls-20" points="333.1 122.14 329.09 128.78 333.1 130.88"/><path class="cls-10" d="M340.4,103.41h0a3.39,3.39,0,0,0,3.48,3.63,38.72,38.72,0,0,1,11.6,1.27,3,3,0,0,0,3.66-1.87h0a3.09,3.09,0,0,0-1.64-3.64,19.43,19.43,0,0,0-14.15-2.53A3.47,3.47,0,0,0,340.4,103.41Z" transform="translate(0.31 0.23)"/><path class="cls-10" d="M330.78,104.17h0c-.07,2-1.27,3.68-2.58,3.71a19.24,19.24,0,0,0-7.73,1.78c-1,.51-2.05-.19-2.26-1.66h0a4.17,4.17,0,0,1,1.37-3.64c1.93-1.65,4.95-4,9.51-3.13C330.11,101.43,330.83,102.59,330.78,104.17Z" transform="translate(0.31 0.23)"/><path class="cls-21" d="M336.91,117.48a12.74,12.74,0,1,0,12.59-13.16A12.88,12.88,0,0,0,336.91,117.48Z" transform="translate(0.31 0.23)"/><path class="cls-21" d="M307.4,117.72c.08,6.9,5,12.45,11.07,12.38s10.85-5.73,10.78-12.64-5-12.44-11.07-12.38S307.32,110.81,307.4,117.72Z" transform="translate(0.31 0.23)"/><path class="cls-22" d="M336.91,117.48a12.74,12.74,0,1,0,12.59-13.16A12.88,12.88,0,0,0,336.91,117.48Z" transform="translate(0.31 0.23)"/><path class="cls-22" d="M307.4,117.72c.08,6.9,5,12.45,11.07,12.38s10.85-5.73,10.78-12.64-5-12.44-11.07-12.38S307.32,110.81,307.4,117.72Z" transform="translate(0.31 0.23)"/><path class="cls-22" d="M336.91,117.48s-3.87-3.22-7.66,0" transform="translate(0.31 0.23)"/><line class="cls-22" x1="362.71" y1="117.42" x2="375.61" y2="119.32"/><path class="cls-6" d="M330.61,137.58l11.39.19s0,3.51-5.78,3.46S330.61,137.58,330.61,137.58Z" transform="translate(0.31 0.23)"/><path class="cls-16" d="M386.4,69.09a5.26,5.26,0,1,1-4.38-6A5.27,5.27,0,0,1,386.4,69.09Z" transform="translate(0.31 0.23)"/><path class="cls-18" d="M373.59,64.33c19.05,7.66,28.75,28.17,21.77,45.89L330.93,74.27C340.49,62.48,357.78,58,373.59,64.33Z" transform="translate(0.31 0.23)"/><path class="cls-16" d="M372.34,97.38S355.8,75.48,332,73.05L306.3,69.43S326.14,76.75,334,85.17,362.8,99.81,372.34,97.38Z" transform="translate(0.31 0.23)"/><path class="cls-4" d="M355.05,195.82l-2.17,10.11s18.27,11.79,32.64-7.34l3.75-26Z" transform="translate(0.31 0.23)"/><path class="cls-16" d="M381.2,228.64s-2,147.88,15.18,161.72c31.81,25.59,80.73,21.54,80.73,21.54s-10.68-79.18-24.37-173.69l2.63-53.16s-26.83-14.69-59.73-11.91Z" transform="translate(0.31 0.23)"/><path class="cls-18" d="M389.27,172.55s-15.2,33.38-8.07,56.09c2.05,6.52,21.44,16.91,21.44,16.91A7.78,7.78,0,0,0,415.71,239l-7-59.78c-1.13-9.67-10.23-16.73-19.76-14.71-.66.14-1.33.31-2,.5Z" transform="translate(0.31 0.23)"/><path class="cls-16" d="M452.57,183.8s-40.44,37.89-10.25,115.53l5.07,27.45A28.17,28.17,0,0,0,481.71,349h0c14.21-3.43,25.59-17.14,23.38-31.59C498.65,275.4,489.65,198.35,452.57,183.8Z" transform="translate(0.31 0.23)"/><line class="cls-17" x1="428.07" y1="244.8" x2="443.55" y2="304.52"/><polygon class="cls-4" points="406.96 317.98 356.85 337.24 355.75 352.85 415.9 349.64 406.96 317.98"/><path class="cls-4" d="M364.63,337.67a40.31,40.31,0,0,0-30.95-7l-16.69-6a5.8,5.8,0,0,0-6.88,2.29h0a4.93,4.93,0,0,0,2,6.92l9.23,5.12h-3.76a28,28,0,0,1-16.43-5.29L287.85,324a5.68,5.68,0,0,0-5.34-.67h0a4.71,4.71,0,0,0-1.73,7.92l15.68,14.81a31.52,31.52,0,0,0,23.21,8.34l46.63-2.36Z" transform="translate(0.31 0.23)"/><polygon class="cls-6" points="387.89 318.64 369.31 323.02 374.6 353.86 395.42 350.45 387.89 318.64"/><path class="cls-16" d="M472,291.41l-79.89,21.07a11.13,11.13,0,0,0-8,13.48L390,349.18a11.15,11.15,0,0,0,12.22,8.33l79.5-8.47c13.06-1.51,22.14-14.52,21.55-27.65h0C502.58,306.34,486.84,288.88,472,291.41Z" transform="translate(0.31 0.23)"/><path class="cls-17" d="M461.06,294.3l-69.18,18.24a10.79,10.79,0,0,0-8,9.79v.13" transform="translate(0.31 0.23)"/><path class="cls-17" d="M467.2,350.59,400.85,358a10.07,10.07,0,0,1-10.35-6h0" transform="translate(0.31 0.23)"/><rect class="cls-14" x="202.12" y="141.1" width="91.81" height="67.29" rx="31.73" ry="31.73"/><polygon class="cls-14" points="296.82 148.79 266.88 157 276.76 169.58 296.82 148.79"/><text class="cls-15" transform="translate(216.27 184.33)">Ciao</text><circle class="cls-10" cx="633.92" cy="91.39" r="31.58" transform="translate(121.36 475.25) rotate(-45)"/><circle class="cls-23" cx="608.96" cy="107.42" r="21.87" transform="translate(-9.03 116.38) rotate(-10.81)"/><circle class="cls-24" cx="552.9" cy="139.49" r="10.9"/><polygon class="cls-25" points="576.05 164.8 577.11 208.94 611.49 204.93 604.97 140.04 576.05 164.8"/><path class="cls-24" d="M576.14,181s18,2.54,19.63-18.57l-19.89,8.77Z" transform="translate(0.31 0.23)"/><path class="cls-25" d="M555.3,100.35a15.92,15.92,0,0,0-5.2,9.11c-2.09,10.43-6.18,32.12-2.49,43.19,4.8,14.4,16.49,23.5,35.38,19.91,0,0,21.9-1,27.3-33.18C618,93.74,578.85,80.45,555.3,100.35Z" transform="translate(0.31 0.23)"/><path class="cls-10" d="M554.08,132.7a2.49,2.49,0,1,1-1.78-3A2.48,2.48,0,0,1,554.08,132.7Z" transform="translate(0.31 0.23)"/><path class="cls-10" d="M575.16,133.13a2.49,2.49,0,1,1-1.77-3A2.49,2.49,0,0,1,575.16,133.13Z" transform="translate(0.31 0.23)"/><polyline class="cls-26" points="558.62 137.42 556.16 143.36 560.15 144.44"/><path class="cls-10" d="M568.66,113.76h0a2.9,2.9,0,0,0,2.34,3.6,32.93,32.93,0,0,1,9.53,2.91,2.53,2.53,0,0,0,3.37-1h0a2.65,2.65,0,0,0-.8-3.32,16.61,16.61,0,0,0-11.47-4.38A3,3,0,0,0,568.66,113.76Z" transform="translate(0.31 0.23)"/><path class="cls-10" d="M556.43,113.58h0c.11,1.67-.78,3.23-1.92,3.37a17,17,0,0,0-6.56,2.14c-.87.52-1.8,0-2.11-1.23h0a3.49,3.49,0,0,1,.87-3.21c1.53-1.55,3.94-3.84,8-3.43C555.61,111.31,556.34,112.24,556.43,113.58Z" transform="translate(0.31 0.23)"/><path class="cls-6" d="M555.94,149.35l13.95-1.13s.7,5.4-6.4,6S555.94,149.35,555.94,149.35Z" transform="translate(0.31 0.23)"/><path class="cls-10" d="M602,136s-11.44-10.11-9.16-29.8a190.5,190.5,0,0,1-42.47,1.74s5.14-27.21,49-19.91c45.54,7.58,24.38,57.81,7.45,73.23Z" transform="translate(0.31 0.23)"/><path class="cls-25" d="M624,144.85a13.23,13.23,0,1,1-8.83-16.5A13.23,13.23,0,0,1,624,144.85Z" transform="translate(0.31 0.23)"/><path class="cls-26" d="M617.34,137.15s-9.7-2.79-12.28,7.88" transform="translate(0.31 0.23)"/><rect class="cls-27" x="570.75" y="312.08" width="68.14" height="9.57"/><path class="cls-28" d="M570.44,321.42s-28.76,18.71-39.76,81.91c0,0,59.69,35.45,152.69.65,0,0-16.44-52.76-44.79-82.56Z" transform="translate(0.31 0.23)"/><polygon class="cls-25" points="535.42 320.7 554.48 259.05 525.29 260.28 516.19 294.76 535.42 320.7"/><path class="cls-29" d="M554.16,207.39s-27,1.32-40.18,57.77l43.86,20.18Z" transform="translate(0.31 0.23)"/><path class="cls-25" d="M476,240.3l-11.93,5.23,43.05,77A15,15,0,0,0,530,328h0a15,15,0,0,0,3-20.52Z" transform="translate(0.31 0.23)"/><path class="cls-25" d="M476,240.3l-.19-8.7a29,29,0,0,0-3.41-13l-3.76-7.06a3.08,3.08,0,0,0-4.59-1h0a3.93,3.93,0,0,0-1.38,4.18l2.3,8.18-23.65-23.37a2.37,2.37,0,0,0-3.56.17l-.6.75a2.38,2.38,0,0,0,0,3l13.57,14.27-17.85-14.24a2.38,2.38,0,0,0-3.54.39l-.41.58a2.39,2.39,0,0,0,.35,3.14L447.45,223l-16.75-9.61a2.37,2.37,0,0,0-3.48,1.27l-.1.29a2.38,2.38,0,0,0,.85,2.69l16.39,11.92-10.83-5.92a2.38,2.38,0,0,0-3.52,2h0a2.38,2.38,0,0,0,1.05,2.09l37.43,25.22Z" transform="translate(0.31 0.23)"/><path class="cls-26" d="M465,222.91s-3.64,5.49-.9,13.26" transform="translate(0.31 0.23)"/><path class="cls-29" d="M554.16,207.39s-24.94,58.49-7.42,76.82l23.7,27.64h68.14s22.89-27.81,22.27-65-30-41.11-30-41.11l-71.46.82Z" transform="translate(0.31 0.23)"/><path class="cls-30" d="M546.12,232.74s-10.9,28.23-3,45.81" transform="translate(0.31 0.23)"/><path class="cls-31" d="M559.37,206.56s23.73-5.6,29.21-5.6c0,0,15.2-1.16,42.25,4.78a478.34,478.34,0,0,0-50.53,47.8Z" transform="translate(0.31 0.23)"/><polygon class="cls-25" points="644.87 264.78 653.54 413.03 674.22 407.34 677.12 274.45 644.87 264.78"/><path class="cls-29" d="M630.83,205.74s34.1.93,41.73,13.81S695,274,695,274l-53,8.63Z" transform="translate(0.31 0.23)"/><polyline class="cls-30" points="644.87 282.44 634.98 283.95 631.15 253.14"/><rect class="cls-14" x="429" width="120.92" height="75.03" rx="31.07" ry="31.07"/><polygon class="cls-14" points="507.65 65.66 524.59 86.69 522.78 60.05 507.65 65.66"/><text class="cls-32" transform="translate(449.69 46.6)">Salut!</text></svg>