<svg xmlns="http://www.w3.org/2000/svg" xmlns:xlink="http://www.w3.org/1999/xlink" viewBox="0 0 930.59 840.04"><defs><style>.cls-1,.cls-43,.cls-45{fill:none;}.cls-2{fill:url(#linear-gradient);}.cls-3{clip-path:url(#clip-path);}.cls-4{clip-path:url(#clip-path-2);}.cls-5{clip-path:url(#clip-path-3);}.cls-6{fill:url(#linear-gradient-218);}.cls-7{fill:#fff;}.cls-8{fill:#777;}.cls-9{fill:#efa739;}.cls-10{fill:#ff6396;}.cls-11{fill:#49d2ff;}.cls-12{fill:#ff5474;}.cls-13{fill:url(#linear-gradient-219);}.cls-14{fill:url(#linear-gradient-220);}.cls-15{fill:url(#linear-gradient-221);}.cls-16{fill:#4dd3ff;}.cls-17{fill:#6adaff;}.cls-18{fill:#8be2ff;}.cls-19{fill:#ff4480;}.cls-20{fill:url(#linear-gradient-222);}.cls-21{fill:url(#linear-gradient-223);}.cls-22{fill:url(#linear-gradient-224);}.cls-23{fill:url(#linear-gradient-225);}.cls-24{fill:url(#linear-gradient-226);}.cls-25{fill:url(#linear-gradient-227);}.cls-26{fill:url(#linear-gradient-228);}.cls-27{fill:url(#linear-gradient-229);}.cls-28{fill:url(#linear-gradient-230);}.cls-29{fill:url(#linear-gradient-231);}.cls-30{fill:url(#linear-gradient-232);}.cls-31{fill:url(#linear-gradient-233);}.cls-32{fill:#ce7811;}.cls-33{fill:#ffc8ab;}.cls-34{fill:#e59328;}.cls-35{fill:#cc0644;}.cls-36{fill:#e20944;}.cls-37{fill:#ecedef;}.cls-38{fill:#ffb48c;}.cls-39{fill:#76a9da;}.cls-40{fill:#6648d9;}.cls-41{fill:#1c3577;}.cls-42{fill:#d9d8e1;}.cls-43,.cls-45{stroke:#162a63;stroke-miterlimit:10;}.cls-43{stroke-width:0.37px;}.cls-44{fill:#c90945;}.cls-45{stroke-width:0.38px;}.cls-46{fill:url(#linear-gradient-234);}.cls-47{fill:#ffb300;}.cls-48{fill:#dbeaff;}.cls-49{fill:#5f90b3;}.cls-50{fill:#6598be;}.cls-51{fill:#f2fbff;}.cls-52{fill:url(#linear-gradient-235);}.cls-53{fill:#ddf3ff;}.cls-54{fill:#f7f7f9;}.cls-55{fill:url(#linear-gradient-236);}.cls-56{fill:url(#linear-gradient-237);}</style><linearGradient id="linear-gradient" x1="1295.25" y1="-8.44" x2="-147.24" y2="819.46" gradientUnits="userSpaceOnUse"><stop offset="0" stop-color="#ff098f"/><stop offset="0.36" stop-color="#e01462"/><stop offset="0.66" stop-color="#c91c42"/><stop offset="0.83" stop-color="#c11f36"/></linearGradient><clipPath id="clip-path" transform="translate(230.09 146.04)"><polygon class="cls-1" points="308.57 159.95 329.96 147.52 345.33 156.4 323.93 168.83 308.57 159.95"/></clipPath><clipPath id="clip-path-2" transform="translate(230.09 146.04)"><path class="cls-1" d="M88.73,392.21l.09,24.62c.15-1.67.24-3.34.24-5L89,387.19A48.6,48.6,0,0,1,88.73,392.21Z"/></clipPath><clipPath id="clip-path-3" transform="translate(230.09 146.04)"><path class="cls-1" d="M37.05,455.25v24.62c1.64-.87,3.24-1.75,4.81-2.67,27.08-15.62,44.58-36.82,46.89-60.37l-.08-24.62c-2.3,23.54-19.8,44.75-46.87,60.38C40.29,453.5,38.69,454.39,37.05,455.25Z"/></clipPath><linearGradient id="linear-gradient-218" x1="6784.6" y1="633" x2="6785.91" y2="633" gradientTransform="translate(6873.1 768.04) rotate(180)" gradientUnits="userSpaceOnUse"><stop offset="0" stop-color="#f6f6f8"/><stop offset="0.15" stop-color="#f2f1f4"/><stop offset="1" stop-color="#d9d8e1"/></linearGradient><linearGradient id="linear-gradient-219" x1="759.78" y1="447.01" x2="761.53" y2="447.01" gradientTransform="matrix(1, 0, 0, -1, 230.09, 769.04)" xlink:href="#linear-gradient-218"/><linearGradient id="linear-gradient-220" x1="6245.23" y1="550.56" x2="6826.39" y2="62.47" gradientTransform="translate(7392.03 768.04) rotate(180)" gradientUnits="userSpaceOnUse"><stop offset="0" stop-color="#49d2ff"/><stop offset="0.12" stop-color="#3cbdff"/><stop offset="0.45" stop-color="#1c89ff"/><stop offset="0.7" stop-color="#0869ff"/><stop offset="0.83" stop-color="#005dff"/></linearGradient><linearGradient id="linear-gradient-221" x1="6390.23" y1="723.21" x2="6971.39" y2="235.11" xlink:href="#linear-gradient-220"/><linearGradient id="linear-gradient-222" x1="173.66" y1="525.88" x2="489.72" y2="530.41" gradientTransform="matrix(1, 0, 0, -1, 230.09, 769.04)" gradientUnits="userSpaceOnUse"><stop offset="0" stop-color="#e20944"/><stop offset="0.05" stop-color="#df0945"/><stop offset="0.55" stop-color="#bf0953"/><stop offset="0.83" stop-color="#b30958"/></linearGradient><linearGradient id="linear-gradient-223" x1="110.28" y1="150.52" x2="448.22" y2="667.24" xlink:href="#linear-gradient-222"/><linearGradient id="linear-gradient-224" x1="257.05" y1="306.45" x2="347.93" y2="306.45" xlink:href="#linear-gradient-222"/><linearGradient id="linear-gradient-225" x1="253.02" y1="377.25" x2="643.27" y2="386.31" xlink:href="#linear-gradient-222"/><linearGradient id="linear-gradient-226" x1="239.37" y1="61.21" x2="373.14" y2="368.98" xlink:href="#linear-gradient-222"/><linearGradient id="linear-gradient-227" x1="350.22" y1="9.55" x2="433.7" y2="398.79" xlink:href="#linear-gradient-222"/><linearGradient id="linear-gradient-228" x1="344.93" y1="227.25" x2="678.35" y2="234.79" gradientTransform="matrix(1, 0, 0, -1, 230.09, 769.04)" gradientUnits="userSpaceOnUse"><stop offset="0" stop-color="#ff005b"/><stop offset="0.3" stop-color="#df045a"/><stop offset="0.64" stop-color="#bf0858"/><stop offset="0.83" stop-color="#b30958"/></linearGradient><linearGradient id="linear-gradient-229" x1="336.33" y1="46.65" x2="527.17" y2="247.3" xlink:href="#linear-gradient-228"/><linearGradient id="linear-gradient-230" x1="428.05" y1="-21.91" x2="575.16" y2="322.82" xlink:href="#linear-gradient-228"/><linearGradient id="linear-gradient-231" x1="444.2" y1="78.11" x2="741.91" y2="82.13" xlink:href="#linear-gradient-228"/><linearGradient id="linear-gradient-232" x1="417.53" y1="-21.68" x2="603.52" y2="52.71" xlink:href="#linear-gradient-228"/><linearGradient id="linear-gradient-233" x1="530.41" y1="-67.03" x2="630.99" y2="103.95" xlink:href="#linear-gradient-228"/><linearGradient id="linear-gradient-234" x1="-116.95" y1="150.07" x2="-273.58" y2="239.97" gradientTransform="matrix(1, 0, 0, -1, 1, 622)" xlink:href="#linear-gradient"/><linearGradient id="linear-gradient-235" x1="-70.44" y1="186.99" x2="37.12" y2="186.99" gradientTransform="matrix(1, 0, 0, -1, 230.09, 769.04)" gradientUnits="userSpaceOnUse"><stop offset="0.16" stop-color="#f8f8fa"/><stop offset="1" stop-color="#d9d8e1"/></linearGradient><linearGradient id="linear-gradient-236" x1="-279.83" y1="238.12" x2="-11.09" y2="291.21" gradientTransform="matrix(1, 0, 0, -1, 1, 622)" xlink:href="#linear-gradient"/><linearGradient id="linear-gradient-237" x1="-215.31" y1="145.15" x2="-46.56" y2="269.23" gradientTransform="matrix(1, 0, 0, -1, 230.09, 769.04)" xlink:href="#linear-gradient"/></defs><title>banner-2</title><g id="Layer_2" data-name="Layer 2"><polygon class="cls-2" points="343.03 1.66 135.71 121.36 136.12 268.43 343.45 148.72 343.03 1.66"/><polygon class="cls-2" points="343.03 1.66 135.71 121.36 135.71 141.46 343.09 21.73 343.03 1.66"/><polygon class="cls-2" points="132.85 119.69 133.26 266.76 136.12 268.43 135.71 121.36 132.85 119.69"/><polygon class="cls-2" points="343.03 1.66 340.17 0 132.85 119.69 135.71 121.36 343.03 1.66"/><polygon class="cls-2" points="251.56 88.86 302.72 136.05 309.19 118.58 315.2 126.98 322.92 87.92 343.45 148.72 136.12 268.43 160.51 151.4 181.83 197.44 199.11 167.18 211.61 171.81 251.56 88.86"/><polygon class="cls-2" points="271.23 178.18 311.19 139.79 343.45 148.72 136.12 268.43 202.62 161.53 271.23 178.18"/><polygon class="cls-2" points="329.73 40.56 329.74 42.92 314.28 51.99 314.27 49.63 329.73 40.56"/><polygon class="cls-2" points="329.73 45.21 329.74 47.57 314.28 56.65 314.27 54.3 329.73 45.21"/><polygon class="cls-2" points="329.73 49.88 329.74 52.23 314.28 61.32 314.27 58.96 329.73 49.88"/><polygon class="cls-2" points="329.73 54.54 329.74 56.9 314.28 65.98 314.27 63.63 329.73 54.54"/><polygon class="cls-2" points="329.73 59.21 329.74 61.56 314.28 70.63 314.27 68.29 329.73 59.21"/><path class="cls-2" d="M102.87-128.45h0a6.53,6.53,0,0,1-3,5.15c-1.64,1-3,.19-3-1.7a6.52,6.52,0,0,1,3-5.14h0C101.53-131.09,102.87-130.33,102.87-128.45Z" transform="translate(230.09 146.04)"/><path class="cls-2" d="M92.39-122.21h0a6.61,6.61,0,0,1-3,5.15c-1.64.94-3,.17-3-1.71h0a6.47,6.47,0,0,1,3-5.13h0C91.05-124.85,92.39-124.1,92.39-122.21Z" transform="translate(230.09 146.04)"/><path class="cls-2" d="M75.44-112.25a6.47,6.47,0,0,1,3-5.13h0c1.66-1,3-.2,3,1.7h0a6.58,6.58,0,0,1-3,5.14C76.76-109.6,75.44-110.36,75.44-112.25Z" transform="translate(230.09 146.04)"/><g id="illustration_" data-name="illustration "><polygon class="cls-2" points="649.63 143.74 926.76 303.74 926.2 500.31 649.07 340.3 649.63 143.74"/><polygon class="cls-2" points="649.63 143.74 926.76 303.74 926.76 330.59 649.57 170.54 649.63 143.74"/><polygon class="cls-2" points="930.59 301.5 930.03 498.08 926.2 500.31 926.76 303.74 930.59 301.5"/><polygon class="cls-2" points="649.63 143.74 653.47 141.51 930.59 301.5 926.76 303.74 649.63 143.74"/><polygon class="cls-2" points="864.64 428.04 864.6 443.92 850.77 435.94 850.81 420.05 864.64 428.04"/><polygon class="cls-2" points="864.69 407.9 864.65 423.78 850.82 415.79 850.88 399.91 864.69 407.9"/><polygon class="cls-2" points="864.75 387.75 864.71 403.63 850.88 395.65 850.93 379.77 864.75 387.75"/><polygon class="cls-2" points="864.82 367.61 864.76 383.49 850.94 375.5 850.98 359.63 864.82 367.61"/><polygon class="cls-2" points="864.87 347.47 864.82 363.36 851 355.37 851.04 339.5 864.87 347.47"/><polygon class="cls-2" points="864.92 327.63 864.88 343.5 851.05 335.53 851.09 319.65 864.92 327.63"/><polygon class="cls-2" points="864.98 307.48 864.94 323.37 851.11 315.39 851.15 299.51 864.98 307.48"/><polygon class="cls-2" points="886.29 440.83 886.24 456.73 872.42 448.74 872.46 432.85 886.29 440.83"/><polygon class="cls-2" points="886.35 420.69 886.31 436.57 872.48 428.6 872.52 412.71 886.35 420.69"/><polygon class="cls-2" points="886.4 400.55 886.36 416.44 872.53 408.45 872.57 392.58 886.4 400.55"/><polygon class="cls-2" points="886.46 380.42 886.42 396.28 872.59 388.31 872.64 372.43 886.46 380.42"/><polygon class="cls-2" points="886.53 360.28 886.47 376.15 872.65 368.17 872.7 352.29 886.53 360.28"/><polygon class="cls-2" points="886.58 340.13 886.53 356.01 872.71 348.03 872.75 332.15 886.58 340.13"/><polygon class="cls-2" points="886.64 319.99 886.58 335.87 872.76 327.88 872.8 312.01 886.64 319.99"/><polygon class="cls-2" points="907.95 453.33 907.89 469.21 894.08 461.24 894.13 445.36 907.95 453.33"/><polygon class="cls-2" points="908 433.19 907.95 449.08 894.13 441.1 894.19 425.22 908 433.19"/><polygon class="cls-2" points="908.06 413.06 908.02 428.93 894.2 420.95 894.24 405.08 908.06 413.06"/><polygon class="cls-2" points="908.11 392.92 908.07 408.79 894.26 400.81 894.3 384.93 908.11 392.92"/><polygon class="cls-2" points="908.17 372.77 908.13 388.65 894.31 380.68 894.35 364.79 908.17 372.77"/><polygon class="cls-2" points="908.22 352.63 908.18 368.51 894.37 360.54 894.42 344.65 908.22 352.63"/><polygon class="cls-2" points="908.29 332.49 908.24 348.38 894.42 340.39 894.48 324.52 908.29 332.49"/><polygon class="cls-2" points="679.36 317.94 679.32 333.82 665.49 325.84 665.54 309.96 679.36 317.94"/><polygon class="cls-2" points="679.42 297.8 679.38 313.68 665.56 305.7 665.6 289.81 679.42 297.8"/><polygon class="cls-2" points="679.49 277.66 679.43 293.53 665.61 285.55 665.65 269.67 679.49 277.66"/><polygon class="cls-2" points="679.54 257.51 679.49 273.39 665.67 265.42 665.71 249.53 679.54 257.51"/><polygon class="cls-2" points="679.6 237.37 679.55 253.25 665.72 245.26 665.76 229.4 679.6 237.37"/><polygon class="cls-2" points="679.65 217.53 679.61 233.4 665.78 225.43 665.82 209.54 679.65 217.53"/><polygon class="cls-2" points="679.7 197.4 679.66 213.27 665.83 205.29 665.89 189.41 679.7 197.4"/><polygon class="cls-2" points="701.02 330.74 700.98 346.62 687.15 338.63 687.19 322.75 701.02 330.74"/><polygon class="cls-2" points="701.07 310.59 701.03 326.49 687.2 318.5 687.26 302.61 701.07 310.59"/><polygon class="cls-2" points="701.13 290.45 701.09 306.33 687.27 298.35 687.31 282.48 701.13 290.45"/><polygon class="cls-2" points="701.18 270.31 701.14 286.2 687.32 278.21 687.37 262.34 701.18 270.31"/><polygon class="cls-2" points="701.25 250.18 701.2 266.05 687.38 258.07 687.42 242.19 701.25 250.18"/><polygon class="cls-2" points="701.31 230.04 701.26 245.91 687.43 237.93 687.48 222.05 701.31 230.04"/><polygon class="cls-2" points="701.36 209.89 701.32 225.77 687.49 217.79 687.53 201.91 701.36 209.89"/><polygon class="cls-2" points="722.67 343.23 722.62 359.13 708.82 351.14 708.86 335.25 722.67 343.23"/><polygon class="cls-2" points="722.73 323.09 722.69 338.99 708.87 331 708.91 315.12 722.73 323.09"/><polygon class="cls-2" points="722.78 302.96 722.74 318.84 708.93 310.86 708.97 294.98 722.78 302.96"/><polygon class="cls-2" points="722.84 282.82 722.8 298.69 708.98 290.71 709.02 274.84 722.84 282.82"/><polygon class="cls-2" points="722.89 262.68 722.85 278.55 709.03 270.57 709.08 254.7 722.89 262.68"/><polygon class="cls-2" points="722.96 242.54 722.91 258.41 709.09 250.44 709.14 234.55 722.96 242.54"/><polygon class="cls-2" points="723.02 222.39 722.96 238.27 709.16 230.3 709.2 214.41 723.02 222.39"/><path class="cls-2" d="M523,145c0,23.25,16.42,51.72,36.65,63.43h0l.17.1c20.19,11.53,36.59,2.11,36.65-21.12S580.11,135.67,559.82,124h0l-.35-.2C539.37,112.39,523.05,121.8,523,145Zm13.29,7.66c0-14.79,10.46-20.81,23.32-13.53l.23.12h0c13,7.48,23.44,25.62,23.38,40.51s-10.5,20.85-23.4,13.49h-.1c-13-7.55-23.48-25.69-23.43-40.59Z" transform="translate(230.09 146.04)"/><path class="cls-2" d="M559.51,123.78l.35.19h0l.42.28v15.28l-.46-.29h0l-.23-.12c-12.86-7.28-23.26-1.26-23.32,13.53s10.31,32.83,23.16,40.35v15.34C539.22,196.55,522.93,168.27,523,145S539.37,112.39,559.51,123.78Z" transform="translate(230.09 146.04)"/><path class="cls-2" d="M536.27,152.65v.48L523,145h0c.07-23.19,16.42-32.6,36.53-21.2l.35.19h0l.41.27v15.23l-.45-.29h0l-.23-.12C546.73,131.84,536.32,137.86,536.27,152.65Z" transform="translate(230.09 146.04)"/><polygon class="cls-2" points="794.1 373.64 794.1 377.51 819.56 392.48 819.57 388.61 794.1 373.64"/><path class="cls-2" d="M592.77,244.5c-.93-.54-1.7-.11-1.7,1a3.75,3.75,0,0,0,1.68,2.9h0c.93.55,1.69.1,1.69-1A3.69,3.69,0,0,0,592.77,244.5Z" transform="translate(230.09 146.04)"/><polygon class="cls-2" points="756.52 352.12 756.51 356 781.98 370.96 781.99 367.09 756.52 352.12"/><path class="cls-2" d="M555.17,223c-.91-.52-1.68-.11-1.69,1a3.73,3.73,0,0,0,1.68,2.9h0c.94.53,1.7.08,1.7-1A3.69,3.69,0,0,0,555.17,223Z" transform="translate(230.09 146.04)"/><polygon class="cls-2" points="794.1 383.31 794.1 387.19 819.56 402.15 819.57 398.28 794.1 383.31"/><path class="cls-2" d="M592.77,254.17c-.93-.52-1.7-.11-1.7,1a3.74,3.74,0,0,0,1.68,2.9h0c.93.55,1.69.1,1.69-1A3.71,3.71,0,0,0,592.77,254.17Z" transform="translate(230.09 146.04)"/><polygon class="cls-2" points="756.52 361.8 756.51 365.67 781.98 380.63 781.99 376.76 756.52 361.8"/><path class="cls-2" d="M555.17,232.66c-.91-.53-1.68-.12-1.69,1a3.78,3.78,0,0,0,1.68,2.92h0c.94.53,1.7.08,1.7-1A3.67,3.67,0,0,0,555.17,232.66Z" transform="translate(230.09 146.04)"/><polygon class="cls-2" points="794.1 392.99 794.1 396.86 819.56 411.82 819.57 407.95 794.1 392.99"/><path class="cls-2" d="M592.77,263.86c-.93-.54-1.7-.13-1.7.95a3.79,3.79,0,0,0,1.68,2.92h0c.93.53,1.69.08,1.69-1A3.63,3.63,0,0,0,592.77,263.86Z" transform="translate(230.09 146.04)"/><polygon class="cls-2" points="756.52 371.48 756.51 375.35 781.98 390.31 781.99 386.43 756.52 371.48"/><path class="cls-2" d="M555.17,242.34c-.91-.54-1.68-.13-1.69.95a3.76,3.76,0,0,0,1.68,2.92h0c.94.53,1.7.09,1.7-1A3.67,3.67,0,0,0,555.17,242.34Z" transform="translate(230.09 146.04)"/><path class="cls-2" d="M641.8,139.13h0a10.77,10.77,0,0,0,4.9,8.48c2.73,1.56,4.91.3,4.92-2.8a10.82,10.82,0,0,0-4.9-8.47h0C644,134.78,641.81,136,641.8,139.13Z" transform="translate(230.09 146.04)"/><path class="cls-2" d="M659,149.4h0a10.74,10.74,0,0,0,4.9,8.47c2.74,1.58,4.9.3,4.91-2.8h0a10.75,10.75,0,0,0-4.88-8.44h0C661.29,145.05,659.09,146.29,659,149.4Z" transform="translate(230.09 146.04)"/><path class="cls-2" d="M687,165.81a10.73,10.73,0,0,0-4.88-8.44h0c-2.74-1.58-4.91-.33-4.93,2.73h0a10.79,10.79,0,0,0,4.9,8.49c2.74,1.55,4.9.3,4.91-2.82Z" transform="translate(230.09 146.04)"/><polygon class="cls-2" points="397.2 241.95 487.14 294.23 577.67 241.95 487.73 189.69 397.2 241.95"/><polygon class="cls-2" points="397.2 241.95 397.54 630.97 487.49 683.23 487.14 294.23 397.2 241.95"/><polygon class="cls-2" points="487.14 294.23 487.49 683.23 578.02 630.97 577.67 241.95 487.14 294.23"/><polygon class="cls-2" points="487.16 389.61 577.1 441.87 667.64 389.61 577.69 337.33 487.16 389.61"/><polygon class="cls-2" points="487.44 389.61 487.78 683.32 577.73 735.59 577.37 441.87 487.44 389.61"/><polygon class="cls-2" points="577.1 441.87 577.46 735.59 667.98 683.32 667.64 389.61 577.1 441.87"/><polygon class="cls-2" points="577.04 539.7 666.98 591.97 757.5 539.7 667.57 487.44 577.04 539.7"/><polygon class="cls-2" points="577.04 539.7 577.39 735.53 667.34 787.81 666.98 591.97 577.04 539.7"/><polygon class="cls-2" points="666.98 591.97 667.34 787.81 757.86 735.53 757.5 539.7 666.98 591.97"/><polygon class="cls-2" points="666.98 689.8 756.92 742.07 847.44 689.8 757.5 637.54 666.98 689.8"/><polygon class="cls-2" points="666.98 689.8 667.32 787.77 757.27 840.04 756.92 742.07 666.98 689.8"/><polygon class="cls-2" points="756.92 742.07 757.27 840.04 847.8 787.77 847.44 689.8 756.92 742.07"/><path class="cls-2" d="M563.39,543.05v-1a5.57,5.57,0,0,0,1.1-1.37s-2.48-35.8-2.63-35.91c-.5-4.65-1.64-9.28-6.46-11.08a14.79,14.79,0,0,0-9.74,0,20.16,20.16,0,0,0-9,4.53,14.08,14.08,0,0,0-4,8.05c-.59,4.53,3.79,17.54,5.73,23.05a7.28,7.28,0,0,1,0,5c-.88,2.39-3.76,13.68-3.82,16.54-.08,4.1.28,8.21,3.33,11.39,2.83,2.92,25.48,14.63,25.61,14.64,9.82-.74,22.45-9.82,23.25-11.63a12.42,12.42,0,0,1,.1-1.93C585.87,557.19,570.86,548.33,563.39,543.05Z" transform="translate(230.09 146.04)"/><path class="cls-2" d="M578.54,608.5a4.34,4.34,0,0,0,3.38.64c1.53,1.55,4.32,2.86,6,4.2.93.74,2.39,1.72,2.13,3.15-.48,2.53-4.53,1.75-6.06,1s-2.74-2.05-4.24-3c-1-.64-2-1-2.2-2.28A8.61,8.61,0,0,1,578.54,608.5Z" transform="translate(230.09 146.04)"/><path class="cls-2" d="M577.58,611.7c.19,1.24,1.2,1.58,2.23,2.23,1.48.91,2.74,2.23,4.3,3s4.95,1.37,5.93-.39c-.53,2.45-4.52,1.69-6,.91s-2.74-2.05-4.24-3c-1-.64-2-1-2.2-2.28A1.81,1.81,0,0,1,577.58,611.7Z" transform="translate(230.09 146.04)"/><path class="cls-2" d="M584.59,613.49a2.89,2.89,0,0,1,2-1.15.49.49,0,0,1,.54.42A3.84,3.84,0,0,0,585,613.9C584.76,614.19,584.35,613.78,584.59,613.49Z" transform="translate(230.09 146.04)"/><path class="cls-2" d="M583.35,612.71a2.89,2.89,0,0,1,2-1.15.49.49,0,0,1,.54.43,3.83,3.83,0,0,0-2.15,1.13C583.53,613.41,583.12,613,583.35,612.71Z" transform="translate(230.09 146.04)"/><path class="cls-2" d="M582,611.82a2.93,2.93,0,0,1,2-1.15.51.51,0,0,1,.55.43,3.79,3.79,0,0,0-2.15,1.13C582.14,612.52,581.73,612.11,582,611.82Z" transform="translate(230.09 146.04)"/><path class="cls-2" d="M568.06,614.72a4.25,4.25,0,0,0,3.36.64c1.54,1.55,4.33,2.86,6,4.2.95.74,2.41,1.73,2.15,3.15-.48,2.53-4.54,1.75-6.07,1s-2.74-2-4.23-2.95c-1-.65-2-1-2.22-2.29A9,9,0,0,1,568.06,614.72Z" transform="translate(230.09 146.04)"/><path class="cls-2" d="M567.1,617.92c.19,1.25,1.21,1.59,2.23,2.23,1.47.92,2.74,2.23,4.3,3s4.94,1.37,5.93-.38c-.53,2.45-4.52,1.68-6,.9s-2.74-2-4.23-2.95c-1-.65-2-1-2.22-2.29A2.27,2.27,0,0,1,567.1,617.92Z" transform="translate(230.09 146.04)"/><path class="cls-2" d="M574.11,619.71a2.84,2.84,0,0,1,2-1.14.48.48,0,0,1,.55.4v0a3.67,3.67,0,0,0-2.13,1.14C574.27,620.41,573.86,620,574.11,619.71Z" transform="translate(230.09 146.04)"/><path class="cls-2" d="M572.83,618.93a2.88,2.88,0,0,1,2-1.14.48.48,0,0,1,.55.42,3.75,3.75,0,0,0-2.15,1.14C573.05,619.63,572.64,619.22,572.83,618.93Z" transform="translate(230.09 146.04)"/><path class="cls-2" d="M571.47,618.05a2.82,2.82,0,0,1,2-1.15.5.5,0,0,1,.55.42,3.85,3.85,0,0,0-2.13,1.14C571.64,618.76,571.23,618.33,571.47,618.05Z" transform="translate(230.09 146.04)"/><path class="cls-2" d="M568.11,615.17a143.51,143.51,0,0,1-2.54-38.3v-.33c-.12-1.48-.12-1.48-7.94-5.61-5.74-3-16.41-8.69-18-10.29-2.28-2.36-2.73-5.57-2.64-9.66a21.7,21.7,0,0,1,1.79-7.77,28.11,28.11,0,0,0,9.78,1.64c.7,0,1.37,0,2.18-.06-.11,2.31-.25,4.7-.25,4.7l-.08,1.37,1.1.78c1.36,1,2.94,2,4.65,3.17,6.32,4.25,16.81,11.3,17.78,15.34l-.6,12.31c-.64,13.22-1.37,29.13-1.9,33C570.55,615.9,568.5,615.86,568.11,615.17Z" transform="translate(230.09 146.04)"/><path class="cls-2" d="M578.66,608.82a145.37,145.37,0,0,1-2.6-38.55,2.65,2.65,0,0,0-2-2.6c-19.49-9-25.5-14.33-26-16.07a14.42,14.42,0,0,1-.67-5.76v-1.19h2.2a36.69,36.69,0,0,0,11.3-1.75l-.08,1.27,1.09.78c1.37.94,2.95,2,4.66,3.16,6.3,4.26,16.81,11.31,17.78,15.35l-.59,12.07c-.64,13.29-1.37,29.6-1.94,33.51A3.25,3.25,0,0,1,578.66,608.82Z" transform="translate(230.09 146.04)"/><path class="cls-2" d="M555.75,502.7a14.15,14.15,0,0,1,3-6.84c5.58,5.48,5.69,19.9,7,29.16,4.11,4.32,11.86,8,14.2,9.07a1,1,0,0,1,.56,1.11,12,12,0,0,1-2,4.59c-5.47-2.38-11.45-2.73-18.33-9.26-.27-.26-.67-.33-.78-.68C557.36,523.9,555.19,507,555.75,502.7Z" transform="translate(230.09 146.04)"/><path class="cls-2" d="M563.39,543.05v-1a5.57,5.57,0,0,0,1.1-1.37s-2.48-35.8-2.63-35.91c-.5-4.65-1.64-9.28-6.46-11.08a14.79,14.79,0,0,0-9.74,0,20.16,20.16,0,0,0-9,4.53,14.08,14.08,0,0,0-4,8.05c-.59,4.53,3.79,17.54,5.73,23.05a7.28,7.28,0,0,1,0,5c-.88,2.39-3.76,13.68-3.82,16.54-.08,4.1.28,8.21,3.33,11.39,2.83,2.92,25.48,14.63,25.61,14.64-.07-6.66,6.55-11.42,12.24-13.8,2.82-1.18,6.51-2.11,9.21-.14a6.14,6.14,0,0,1,1.79,2.31,12.42,12.42,0,0,1,.1-1.93C585.87,557.19,570.86,548.33,563.39,543.05Z" transform="translate(230.09 146.04)"/><path class="cls-2" d="M532.68,506.3a14.11,14.11,0,0,1,3-6.84c5.59,5.47,5.69,19.89,7,29.16A96.81,96.81,0,0,0,556,539.4a11.6,11.6,0,0,1-2.13,5.47c-5.47-2.38-9.93-4.11-16.81-10.69-.28-.26-.67-.32-.78-.68C534.3,527.51,532.12,510.68,532.68,506.3Z" transform="translate(230.09 146.04)"/><polygon class="cls-2" points="815.25 662.53 806.95 690.92 788.74 698.2 795.39 670.55 815.25 662.53"/><path class="cls-2" d="M554.24,540.78c.28-1,1-.74,1.77-.49a4.63,4.63,0,0,0,2.73.23,8,8,0,0,0,1.93-1.3,2.39,2.39,0,0,1,1.22-.34c0,.24-.41,1.68-.41,1.68h4.39a.67.67,0,0,1,.8.5.68.68,0,0,1-.16.61h.26c.82-.19,1.17,1.06.36,1.26l-.67.09c.53.21.67,1.08,0,1.22h-.21a.45.45,0,0,1-.28,0h-.13a.71.71,0,0,1-.58.84h0c-2,.24-4.81,1-6.58-.59a10.84,10.84,0,0,1-3.61-1C554,543,553.93,541.91,554.24,540.78Z" transform="translate(230.09 146.04)"/><path class="cls-2" d="M574.2,538.44h.28a.67.67,0,0,1,.38-1.22c.42,0,4.53-.86,4.53-.86l.49-1.68c0-.1.71.32.74.35a2.74,2.74,0,0,1,1.23,2.05,4.35,4.35,0,0,1-1.18,3.18,4.08,4.08,0,0,1-2.73,1.2l-1.37.1a.74.74,0,0,1-.77-.69v0h-.23a.76.76,0,0,1-.3,0h-.21c-.69,0-.75-.88-.28-1.19h-.67C573.27,539.74,573.34,538.44,574.2,538.44Z" transform="translate(230.09 146.04)"/><path class="cls-2" d="M562.41,505.21a4.47,4.47,0,0,1-.48-2.85h0a6.58,6.58,0,0,0-.48-3.25c-.68-1.81-1.93-3.27-2.73-5a12.82,12.82,0,0,1-.87-8.12h0a14.66,14.66,0,0,0-3.4,3.27A5.74,5.74,0,0,0,553,492.9V493c-.88.56-1.71.9-1.77,2.35-.08,2.29,2.26,3.41,3,5.31a17.08,17.08,0,0,1,.71,5.17,17.29,17.29,0,0,0,2.22,7.94,6.18,6.18,0,0,0,4.55,2.73c1.85.15,4.11-.65,4.57-2.64.59-2.36-1.19-4.43-2.39-6.26C563.48,506.77,562.89,506,562.41,505.21Z" transform="translate(230.09 146.04)"/><path class="cls-2" d="M553.43,492.68v6.08c0,3.07-6.15,2.1-10.13-3v-9.67C543.27,485.63,553.43,492.2,553.43,492.68Z" transform="translate(230.09 146.04)"/><path class="cls-2" d="M541.48,468.6a9.37,9.37,0,0,1,6.84-2,12.38,12.38,0,0,1,6.39,3,14.15,14.15,0,0,1,4,5.47,13.42,13.42,0,0,1,.7,6.7c-1,8.68-5.48,11.93-7,12.51a9.38,9.38,0,0,1-7.54-3.94,26.09,26.09,0,0,0-4.88-5.65,4,4,0,0,1-.42-.4C536.55,481.1,535.68,473.66,541.48,468.6Z" transform="translate(230.09 146.04)"/><path class="cls-2" d="M553.39,466.51a14.74,14.74,0,0,0-13.95.09,13.75,13.75,0,0,0-5.27,5.78,22.17,22.17,0,0,0-1.53,3.7c-.83,2.49-1.19,5.06-1.87,7.58a28,28,0,0,1-3.36,7.87c-1.36,2.23-3.07,4.57-3.21,7.32A8.16,8.16,0,0,0,526,504a5.25,5.25,0,0,1,1,5.23c-.67,1.68-1.88,3.08-2.54,4.79a10.7,10.7,0,0,0-.59,5.79,9.35,9.35,0,0,0,5.25,6.84,4.84,4.84,0,0,0,2.37.46,5.46,5.46,0,0,0,3-1.57c-1.08-6.23-3.36-21.75,1.65-21.7,3.17,0,4.56,6.38,4.67,8.21.28,4.38-3.47,12.58,1.47,14.9a6.07,6.07,0,0,0,7-1.62c1.76-2.73.77-6.13-1-8.49s-4.1-3.64-3.35-7.19c.37-1.87,1.2-3.62,1.56-5.47a8,8,0,0,0-.22-4.39,16.29,16.29,0,0,0-2.19-3.15,9.51,9.51,0,0,0,.89-4.76,14.67,14.67,0,0,0-.86-4c-.1-.26-.44-1.56-.75-1.64-1.09-.31-2.39-1.3-1.78-2.52s2.38-.54,2.73.59l.15.07c3.44-2,6.84-4.21,7.84-8.32a.66.66,0,0,0,0-.28c3,.73,8.09,1.16,7,6.64C561.64,477.15,559.15,469.64,553.39,466.51Z" transform="translate(230.09 146.04)"/><path class="cls-2" d="M370.94,253.57c12.62-7.35,12.57-19.25-.15-26.58s-33.25-7.34-45.87,0h0c-12.63,7.33-12.55,19.22.15,26.55s33.24,7.36,45.87,0Z" transform="translate(230.09 146.04)"/><path class="cls-2" d="M337,111s-.89,21.89-2,24c-2.65,4.86-9.57,12.47-9.82,13.42-.56,2.74,1.93,5.8,4.54,5.47,1.66-.19,14.22-7.78,14.22-7.78C344.56,141.89,337.2,110.83,337,111Z" transform="translate(230.09 146.04)"/><path class="cls-2" d="M363.08,217.51c-1.36,2.32-4,2.27-4.1,2.46-1.27,2.74-8.21,11.82-7.16,13.56,1.84,3.09,6.85.12,8.42-1.65s2.65-4,4.1-5.92c1-1.37,2.22-2.26,1.79-4.1C365.92,220.83,363.41,217.33,363.08,217.51Z" transform="translate(230.09 146.04)"/><path class="cls-2" d="M365.89,221.23c.34,1.74-.81,2.67-1.85,4-1.49,1.9-2.56,4.25-4.18,6s-5.81,4.25-8,2.35c1.89,2.94,6.74,0,8.36-1.73s2.65-4,4.1-5.92c1-1.37,2.22-2.26,1.79-4.1A3.41,3.41,0,0,0,365.89,221.23Z" transform="translate(230.09 146.04)"/><path class="cls-2" d="M357.78,227.49a4,4,0,0,0-3.19-.53.69.69,0,0,0-.51.82,5.3,5.3,0,0,1,3.35.45C357.89,228.53,358.23,227.79,357.78,227.49Z" transform="translate(230.09 146.04)"/><path class="cls-2" d="M358.93,225.72a3.94,3.94,0,0,0-3.18-.55.71.71,0,0,0-.52.82,5.38,5.38,0,0,1,3.37.45C359.05,226.7,359.42,226,358.93,225.72Z" transform="translate(230.09 146.04)"/><path class="cls-2" d="M360.05,224a4.05,4.05,0,0,0-3.18-.54.7.7,0,0,0-.52.82,5.38,5.38,0,0,1,3.37.45C360.17,225,360.5,224.21,360.05,224Z" transform="translate(230.09 146.04)"/><path class="cls-2" d="M359,220c-2.86-3.59-13.17-15.47-24-30.73a4.59,4.59,0,0,1-.87-2.58c-.13-7.57,4.1-30.22,6.45-39.79a55,55,0,0,0,10.83,3c-.65,3.75-8.21,36.28-7.08,37.42,7.62,7.67,14,19.9,18.81,30.25C363,218.16,361.44,219.57,359,220Z" transform="translate(230.09 146.04)"/><path class="cls-2" d="M354.42,238.44c-2.09,1.71-4.55.75-4.7.9-2.14,2.15-11.77,8.28-11.4,10.25.67,3.55,6.34,2.46,8.48,1.37s3.89-2.89,5.91-4.11c1.37-.89,2.86-1.37,3.08-3.19C355.93,242.54,354.79,238.44,354.42,238.44Z" transform="translate(230.09 146.04)"/><path class="cls-2" d="M355.76,243c-.27,1.73-1.66,2.21-3.1,3.1-2.07,1.29-3.87,3.13-6,4.22s-6.91,2-8.3-.54c.75,3.41,6.33,2.34,8.45,1.27s3.89-2.88,5.91-4.1c1.37-.89,2.86-1.37,3.08-3.19A2.43,2.43,0,0,0,355.76,243Z" transform="translate(230.09 146.04)"/><path class="cls-2" d="M346,246.09a4,4,0,0,0-2.8-1.62.72.72,0,0,0-.77.6,5.23,5.23,0,0,1,3,1.59C345.74,247.06,346.31,246.48,346,246.09Z" transform="translate(230.09 146.04)"/><path class="cls-2" d="M347.69,244.76a4,4,0,0,0-2.73-1.6.71.71,0,0,0-.77.59,5.26,5.26,0,0,1,2.91,1.53C347.46,245.74,348,245.17,347.69,244.76Z" transform="translate(230.09 146.04)"/><path class="cls-2" d="M349.35,243.51a4,4,0,0,0-2.74-1.61.7.7,0,0,0-.76.6,5.26,5.26,0,0,1,3,1.59C349.12,244.48,349.69,243.91,349.35,243.51Z" transform="translate(230.09 146.04)"/><path class="cls-2" d="M349.72,239.4c.5-7.73-4.6-44.12-4.6-44.12-1.37-5.13,5.38-23.78,7.22-29.66l.16-.46v-.47c0-.09-.69-8.21-.69-13.55a64.12,64.12,0,0,0,11.78-2.56c.16,1,.34,2,.52,3a47,47,0,0,1,.9,7.1,36.35,36.35,0,0,1-1.37,10.1c-.61,2.29-2.73,7.9-9.27,21.6-.63,1.37-.82,1.71-.6,2.57,4.57,19,1.52,41.25.52,46.05A4.5,4.5,0,0,1,349.72,239.4Z" transform="translate(230.09 146.04)"/><path class="cls-2" d="M367.49,111.65a13.76,13.76,0,0,0-3.87-7.76,19.4,19.4,0,0,0-8.68-4.35,18.76,18.76,0,0,0-9.89-.29,10,10,0,0,0-8,8.57c-.14.11-6.84,70.2-6.84,70.2,2.09,3.77,24.28,9.2,37.76,1.51-.51-2,1.36-23.89-6-40.91a6.62,6.62,0,0,1,0-4.8C363.85,128.51,368.05,116,367.49,111.65Z" transform="translate(230.09 146.04)"/><path class="cls-2" d="M367.53,110.81a12.41,12.41,0,0,0-3.65-6.65c-4.65,5.8-3.59,25.29-3.11,27.08L342.1,141.62c-.39.21,1.12,4.52,3.09,4.34,1.71-.17,19.15-7.91,19.88-8.81C366,136,368.26,114.78,367.53,110.81Z" transform="translate(230.09 146.04)"/><path class="cls-2" d="M343.66,94.07A8.57,8.57,0,0,0,348,100.8h0c0-.15.11-.29.15-.44.93-3.16-4.65-7.31-4.63-7.24A4,4,0,0,1,343.66,94.07Z" transform="translate(230.09 146.04)"/><path class="cls-2" d="M347.52,98.54v5.86c0,2.95,5.92,2,9.75-2.93V92.15C357.31,91.77,347.52,98.08,347.52,98.54Z" transform="translate(230.09 146.04)"/><path class="cls-2" d="M359,75.38a9,9,0,0,0-6.58-1.9,11.8,11.8,0,0,0-6.14,2.86,13.65,13.65,0,0,0-3.83,5.25A12.85,12.85,0,0,0,341.8,88c1,8.35,5.31,11.48,6.7,12a9,9,0,0,0,7.25-3.79,25.25,25.25,0,0,1,4.68-5.47l.41-.37C363.75,87.4,364.6,80.25,359,75.38Z" transform="translate(230.09 146.04)"/><path class="cls-2" d="M367.63,93.75a9,9,0,0,0,.35-2c.14-5.76-.61-12-5.1-16.07a13.52,13.52,0,0,0-15.35-2.32c-5.47,2.94-7.94,10.23-5.69,15.24-1-5.28,3.88-5.69,6.77-6.42a.71.71,0,0,0,0,.29c.9,3.94,4.23,6.1,7.54,8h.11c.28-1.15,2-2,2.65-.65s-.66,2.12-1.71,2.42c-.63.59-.11,2.86-.07,3.61A13.09,13.09,0,0,1,352.91,106a19.93,19.93,0,0,0-3.18,3.74,5.93,5.93,0,0,0,.56,6.93c2.14,2.43,6.51,3.67,9.29,1.65,1.94-1.37,2-3.53,2.55-5.67,1.21-4.81,4.37-4.81,4.77-3.94a4.54,4.54,0,0,1,.88-2.73C370.83,101.45,370.57,97.61,367.63,93.75Z" transform="translate(230.09 146.04)"/><path class="cls-2" d="M343,141.31a21.78,21.78,0,0,1-6.7,2.28c-1.66.1-2.66,2.35-4.44,2.46a.69.69,0,0,0-.5,1.15c.66.71,2.57.28,3.95-1.15v.1a1.38,1.38,0,0,0,.66,1.22.92.92,0,0,0,.29.11.72.72,0,0,0,.08.32,1.26,1.26,0,0,0,.93.77h0a1.25,1.25,0,0,0,1.37,1,1.59,1.59,0,0,0,1-.38,7.08,7.08,0,0,0,3.18-2.32,17,17,0,0,0,1.91-2.24C345.26,143.51,344.63,140.2,343,141.31Z" transform="translate(230.09 146.04)"/><polygon class="cls-2" points="538.66 305.99 560.05 293.56 575.42 302.44 554.02 314.87 538.66 305.99"/><g class="cls-3"><polyline class="cls-2" points="575.42 302.44 560.05 293.56 538.66 305.99 554.02 314.87 575.42 302.44"/></g><path class="cls-2" d="M330.26,153.7h0v-.08h0a.24.24,0,0,0,0-.12h0v-.11h0a.17.17,0,0,0,0-.1h0v-.1h0v-.08h-.06l-.1-.08h0l-.18-.11h0a3.88,3.88,0,0,0-3.45,0,1.07,1.07,0,0,0-.67,1.35,1.1,1.1,0,0,0,.67.68,3.94,3.94,0,0,0,3.48,0h0A1.39,1.39,0,0,0,330.26,153.7Z" transform="translate(230.09 146.04)"/><path class="cls-2" d="M330.39,155l-.8-.45h0a3.92,3.92,0,0,1-3.47,0,1.08,1.08,0,0,1-.68-1.35,1.09,1.09,0,0,1,.68-.68,3.88,3.88,0,0,1,3.45,0l.79-.45a5.57,5.57,0,0,0-5,0,1.54,1.54,0,0,0-1,2,1.56,1.56,0,0,0,1,1,5.59,5.59,0,0,0,5,0Z" transform="translate(230.09 146.04)"/><path class="cls-2" d="M331,154.47l-.06.08Z" transform="translate(230.09 146.04)"/><path class="cls-2" d="M330.81,154.7l-.08.08Z" transform="translate(230.09 146.04)"/><path class="cls-2" d="M330.93,154.59h0Z" transform="translate(230.09 146.04)"/><path class="cls-2" d="M331.13,154.34v0Z" transform="translate(230.09 146.04)"/><path class="cls-2" d="M330.54,155l-.11.07Z" transform="translate(230.09 146.04)"/><path class="cls-2" d="M330.69,154.81l-.11.08Z" transform="translate(230.09 146.04)"/><path class="cls-2" d="M331.21,154.22Z" transform="translate(230.09 146.04)"/><path class="cls-2" d="M329.54,152.57l.18.1h0l.09.09h.07v.08h0v.09h0a.17.17,0,0,1,0,.1h0a.21.21,0,0,0,0,.11h0a.24.24,0,0,1,0,.12h0v.13h0a1.38,1.38,0,0,1-.67.86l.79.45h0l.11-.07h0l.11-.08h0l.09-.08h.08l.07-.09h0v-.13h0l.06-.13h0V154h0v-.1h0v-.09h0v-.22h0v-.08h0a.14.14,0,0,0,0-.09h0v-.08h0v-.08h0v-.08h0v-.07h-.15l-.12-.08h0l-.79.45Z" transform="translate(230.09 146.04)"/><path class="cls-2" d="M336.91,157.2h0a.29.29,0,0,0,0-.13h0v-.13h0a.2.2,0,0,0,0-.11h0v-.09h0v-.08h0l-.07-.07h0l-.09-.07h0l-.17-.11h0a3.79,3.79,0,0,0-3.44,0,1.06,1.06,0,0,0,0,2,3.86,3.86,0,0,0,3.47,0h0A1.25,1.25,0,0,0,336.91,157.2Z" transform="translate(230.09 146.04)"/><path class="cls-2" d="M337.05,158.52l-.79-.46h0a3.88,3.88,0,0,1-3.48,0c-1-.56-1-1.46,0-2a3.81,3.81,0,0,1,3.45,0l.79-.46a5.63,5.63,0,0,0-5,0,1.55,1.55,0,0,0-1,2,1.58,1.58,0,0,0,1,1A5.63,5.63,0,0,0,337.05,158.52Z" transform="translate(230.09 146.04)"/><path class="cls-2" d="M337.69,158v0Z" transform="translate(230.09 146.04)"/><path class="cls-2" d="M337.53,158.2l-.1.08Z" transform="translate(230.09 146.04)"/><path class="cls-2" d="M337.6,158.09l-.09.08Z" transform="translate(230.09 146.04)"/><path class="cls-2" d="M337.79,157.85Z" transform="translate(230.09 146.04)"/><path class="cls-2" d="M337.2,158.42l-.11.07Z" transform="translate(230.09 146.04)"/><path class="cls-2" d="M337.34,158.31l-.1.08Z" transform="translate(230.09 146.04)"/><path class="cls-2" d="M337.87,157.72v0Z" transform="translate(230.09 146.04)"/><path class="cls-2" d="M336.16,156.08l.16.11h0l.1.07h0l.07.07h0v.08h0v.1h0a.17.17,0,0,1,0,.1h0v.13h0v.13h0a1.27,1.27,0,0,1-.66.87l.8.45h0l.11-.07h0l.09-.08h0l.1-.08h0l.08-.09h0v-.08h0v-.19h0v-.11h0v-.1h0v-.09h0v-.1h0v-.08h0V157h0V157h0v-.07h0v-.07h0l-.14-.08h0l-.79.46Z" transform="translate(230.09 146.04)"/><polygon class="cls-2" points="546.1 306.7 545.2 306.17 544.29 306.7 545.2 307.22 546.1 306.7"/><polygon class="cls-2" points="546.51 306.94 545.61 307.46 552.9 311.67 553.8 311.14 546.51 306.94"/><polygon class="cls-2" points="546.92 304.16 546.1 303.68 545.29 304.16 546.11 304.64 546.92 304.16"/><polygon class="cls-2" points="547.29 304.38 546.48 304.84 556.78 310.75 557.59 310.29 547.29 304.38"/><polygon class="cls-2" points="548.37 303.26 547.55 302.78 546.74 303.26 547.55 303.72 548.37 303.26"/><polygon class="cls-2" points="548.74 303.46 547.92 303.94 558.22 309.85 559.04 309.37 548.74 303.46"/><polygon class="cls-2" points="549.81 302.41 548.99 301.93 548.18 302.41 549 302.87 549.81 302.41"/><polygon class="cls-2" points="550.18 302.61 549.37 303.09 559.67 309 560.48 308.52 550.18 302.61"/><path class="cls-2" d="M327.2,148.43a9.43,9.43,0,0,0-3.79,1.25,8.32,8.32,0,0,1-1.37,1c-.22.11-.41.25-.64.35a1.71,1.71,0,0,0-1.23,1.75,4.7,4.7,0,0,0-.07,1.54c.18.78,1,.71,1.37.18a1.51,1.51,0,0,0,.35-.93,2.08,2.08,0,0,1,.91-1.64l5.11-3.18A.63.63,0,0,0,327.2,148.43Z" transform="translate(230.09 146.04)"/><path class="cls-2" d="M460.9,410.29c12.63-7.33,12.57-19.23-.15-26.58s-33.24-7.33-45.87,0h0c-12.63,7.35-12.55,19.24.15,26.56s33.24,7.36,45.87,0Z" transform="translate(230.09 146.04)"/><path class="cls-2" d="M466.5,303.13a5.7,5.7,0,0,1,2.23-2.31h0c.71.26,1.36.55,1.36.53,4.45,1.93,4.74,2.49,6.84,6.28h0a16.81,16.81,0,0,0,.87,1.54c.35.48-.55,1.24-1,.64l-.11-.16c.5.91-.56,1.49-1.26.58.18.58-.6.85-1.05,0a6.24,6.24,0,0,0-1.67-2.27l-.85-.48s.85,1.13.78,1.67-.69.89-.95.33c-.08-.18-.19-.34-.27-.51a6.81,6.81,0,0,0-1.27-1.06,4.46,4.46,0,0,1-1.37-1.26A18.13,18.13,0,0,0,466.5,303.13Z" transform="translate(230.09 146.04)"/><path class="cls-2" d="M422.48,389.51c2.28.59,17.41-4.59,18.62-1.37,1.06,2.81-2.8,5.41-4.87,5.91-4.51,1.1-7.85,3.34-9.65,3.73-1.37.28-3.1.46-4.18-.59C421.12,395.9,421.23,391.19,422.48,389.51Z" transform="translate(230.09 146.04)"/><path class="cls-2" d="M426.58,397c1.8-.38,5.14-2.62,9.65-3.72,1.73-.42,4.71-2.31,5-4.57.41,2.59-3.08,4.89-5,5.35-4.51,1.09-7.85,3.34-9.65,3.72-1.37.29-3.1.47-4.18-.59a2.54,2.54,0,0,1-.59-1.08A5.37,5.37,0,0,0,426.58,397Z" transform="translate(230.09 146.04)"/><path class="cls-2" d="M436.26,387.05a4.29,4.29,0,0,1,2.18,2.56c.11.5-.67.72-.78.22a3.48,3.48,0,0,0-2.55-2.49A1.06,1.06,0,0,1,436.26,387.05Z" transform="translate(230.09 146.04)"/><path class="cls-2" d="M434.2,387.35a4.45,4.45,0,0,1,2.21,2.6c.1.51-.67.73-.78.22a3.45,3.45,0,0,0-2.54-2.49A1,1,0,0,1,434.2,387.35Z" transform="translate(230.09 146.04)"/><path class="cls-2" d="M432.16,387.75a4.25,4.25,0,0,1,2.23,2.54c.11.51-.67.73-.78.22a3.5,3.5,0,0,0-2.55-2.49A1,1,0,0,1,432.16,387.75Z" transform="translate(230.09 146.04)"/><path class="cls-2" d="M426,390.29a4.44,4.44,0,0,0,2.83-.91C429,384,430,359.58,433.35,345c1.57-6.84,3.65-23.79,3.68-39.23H422.35c.16,1.37.35,2.74.55,4.26,1.36,10.15,2.85,21.66-.26,34.83-2.56,10.82-.62,38.22-.13,44.6A9.11,9.11,0,0,0,426,390.29Z" transform="translate(230.09 146.04)"/><path class="cls-2" d="M439.59,387.62" transform="translate(230.09 146.04)"/><path class="cls-2" d="M438,398.24c2.27.59,17.4-4.6,18.62-1.37,1.06,2.81-2.81,5.41-4.88,5.91-4.51,1.1-7.85,3.34-9.65,3.72-1.37.29-3.1.48-4.18-.58C436.66,404.63,436.77,399.87,438,398.24Z" transform="translate(230.09 146.04)"/><path class="cls-2" d="M442.12,405.71c1.8-.38,5.14-2.63,9.65-3.72,1.73-.43,4.71-2.31,5-4.57.41,2.59-3.08,4.88-5,5.35-4.51,1.09-7.85,3.34-9.65,3.72-1.37.29-3.1.48-4.18-.59a2.47,2.47,0,0,1-.58-1.08A5.34,5.34,0,0,0,442.12,405.71Z" transform="translate(230.09 146.04)"/><path class="cls-2" d="M451.8,395.76a4.32,4.32,0,0,1,2.18,2.56c.11.51-.67.73-.78.22a3.45,3.45,0,0,0-2.55-2.49A1.08,1.08,0,0,1,451.8,395.76Z" transform="translate(230.09 146.04)"/><path class="cls-2" d="M449.71,396.08a4.43,4.43,0,0,1,2.22,2.6c.09.5-.68.72-.78.22a3.48,3.48,0,0,0-2.55-2.49A1,1,0,0,1,449.71,396.08Z" transform="translate(230.09 146.04)"/><path class="cls-2" d="M447.7,396.48a4.2,4.2,0,0,1,2.23,2.58c.11.51-.67.73-.78.22a3.5,3.5,0,0,0-2.55-2.49A1,1,0,0,1,447.7,396.48Z" transform="translate(230.09 146.04)"/><path class="cls-2" d="M441.5,399.29a4.44,4.44,0,0,0,2.83-.91c.18-5.34,1.14-29.8,4.53-44.36,2.18-9.27,4.82-35,3.16-51.65-4.1,1-10.94,2.73-14.86,3.38a110.1,110.1,0,0,0,1.24,13.32c1.36,10.15,2.87,21.66-.25,34.83-2.57,10.82-.62,38.23-.12,44.6.64.79,2.14.79,3.47.79Z" transform="translate(230.09 146.04)"/><path class="cls-2" d="M455,396.67" transform="translate(230.09 146.04)"/><path class="cls-2" d="M469.71,299.89c-.66-.44-4.1-3.76-6.84-6.62a24.48,24.48,0,0,1-7.17-14.79c-.76-7.51.12-15.28-3.17-21-5.24-9.17-14.44-18.29-26-16.24a7.44,7.44,0,0,0-3.54,1.49,9.8,9.8,0,0,0-3.24,6.53,49.08,49.08,0,0,0,1.5,18.33c2,7.54,3,14.06.56,21.6-1.87,5.86-6.63,29.85-5.22,36,0,0,20.26,11.2,40.27,1.66-.75-11-6-43.77-6.15-45.8-1.51,2.27-.92,11-.28,12.74,1.6,4.24,17,12,17,12A5.27,5.27,0,0,0,469.71,299.89Z" transform="translate(230.09 146.04)"/><path class="cls-2" d="M440.84,218.46a10.48,10.48,0,0,0-7.88-1.08,13.78,13.78,0,0,0-8.85,7.58,12.42,12.42,0,0,0,.08,11.07c-.06.12,6.45,14.6,7.84,16.27a50,50,0,0,0,9.58-2.34c-.67-1.92-1.27-5.86-.42-7.69a6.51,6.51,0,0,0,4.44-.54c3.16-1.94,2.81-8,2.51-11.14A15.91,15.91,0,0,0,440.84,218.46Z" transform="translate(230.09 146.04)"/><path class="cls-2" d="M446.48,217.82A15.11,15.11,0,0,0,442,215.5a18,18,0,0,0-11.07,0,16.83,16.83,0,0,0-10.26,9.19c-2,4.86.57,9.92-2.09,14.57a14.34,14.34,0,0,0-.44,13.8,1.07,1.07,0,0,1-.1,1.14,8.69,8.69,0,0,0,1.56,11.6,8.59,8.59,0,0,0,3.89,1.68l.23.1c1.08,6.66,8.5,8.62,14.21,6.5a8.06,8.06,0,0,0,5.33-6.41c.49-3,.41-6.08,1.2-9,.64-2.37,3-5,5.66-4.72a5.06,5.06,0,0,0,.95-3.19c-.1-3.38-2.63-5.73-5.23-7.52a18.18,18.18,0,0,1-3.31-3.85,4.1,4.1,0,0,0-2.15-1.5,2.6,2.6,0,0,1-2-1.82,1.05,1.05,0,0,1,1.71-1.08c.49.43.9.89,1.1,1.08.41.42,1-.17.87-.65-.31-.82-.69-1.65-.92-2.5a2.46,2.46,0,0,1,.68-2.65,1.11,1.11,0,0,1,.47-.24,28.19,28.19,0,0,0,6.65-2C450.43,227.14,449.57,220.2,446.48,217.82Z" transform="translate(230.09 146.04)"/><path class="cls-2" d="M280.41,111c12.63-7.33,12.56-19.23-.15-26.58s-33.24-7.33-45.87,0h0c-12.63,7.35-12.54,19.23.15,26.55s33.25,7.36,45.89,0Z" transform="translate(230.09 146.04)"/><path class="cls-2" d="M265.57-97a5.65,5.65,0,0,0,3.13-.82h0c.12-.77.22-1.51.23-1.52.5-4.89.14-5.47-2.13-9.18h0c-.33-.49-.64-1-.92-1.52-.31-.71-1.36-.14-1.06.56,0,.07.06.12.09.18-.54-.9-1.6-.23-1.15.82-.41-.44-1,.11-.46,1a6.08,6.08,0,0,1,1.17,2.6v1s-.56-1.3-1.08-1.51-1.12.17-.75.67c.12.17.21.33.32.5a6.16,6.16,0,0,1,.3,1.65,4.54,4.54,0,0,0,.39,1.82A17.53,17.53,0,0,1,265.57-97Z" transform="translate(230.09 146.04)"/><path class="cls-2" d="M270.12-99.31c2.18,10.63,6.05,34.67,5.37,35.05a12.77,12.77,0,0,1-9.43,1.47c-.52-.11-2.23-24.63-2-35.71A8.42,8.42,0,0,1,270.12-99.31Z" transform="translate(230.09 146.04)"/><path class="cls-2" d="M231.22,3A5.78,5.78,0,0,0,229,.64h0c-.73.28-1.37.55-1.44.54-4.5,2-4.8,2.53-7,6.36h0c-.27.53-.57,1-.89,1.56s.55,1.26,1,.64l.09-.16c-.52.91.58,1.5,1.29.6-.19.57.59.85,1,0a5.94,5.94,0,0,1,1.7-2.3l.85-.48s-.87,1.12-.78,1.67.68.9.94.34a5.29,5.29,0,0,1,.29-.52,5.92,5.92,0,0,1,1.28-1.06,4.34,4.34,0,0,0,1.37-1.29A18.41,18.41,0,0,1,231.22,3Z" transform="translate(230.09 146.04)"/><path class="cls-2" d="M275.69,90.28c-2.3.59-17.58-4.65-18.81-1.37-1.07,2.85,2.83,5.47,4.93,6,4.55,1.11,7.92,3.38,9.75,3.76,1.37.29,3.13.48,4.21-.6C277.09,96.72,277,92,275.69,90.28Z" transform="translate(230.09 146.04)"/><path class="cls-2" d="M271.56,97.83c-1.83-.4-5.2-2.67-9.75-3.76-1.75-.43-4.76-2.34-5.08-4.63-.4,2.62,3.13,4.94,5.08,5.41,4.55,1.11,7.92,3.38,9.75,3.76,1.37.29,3.13.48,4.21-.6a2.59,2.59,0,0,0,.61-1.08A5.51,5.51,0,0,1,271.56,97.83Z" transform="translate(230.09 146.04)"/><path class="cls-2" d="M261.77,87.77a4.41,4.41,0,0,0-2.19,2.6c-.11.51.67.73.78.22a3.48,3.48,0,0,1,2.57-2.51A1,1,0,0,0,261.77,87.77Z" transform="translate(230.09 146.04)"/><path class="cls-2" d="M263.86,88.09a4.44,4.44,0,0,0-2.23,2.63c-.11.52.67.73.78.21A3.53,3.53,0,0,1,265,88.42,1,1,0,0,0,263.86,88.09Z" transform="translate(230.09 146.04)"/><path class="cls-2" d="M265.92,88.49a4.22,4.22,0,0,0-2.25,2.62c-.11.51.68.73.78.21A3.51,3.51,0,0,1,267,88.81,1,1,0,0,0,265.92,88.49Z" transform="translate(230.09 146.04)"/><path class="cls-2" d="M272.16,91a4.53,4.53,0,0,1-2.86-.92c-.17-5.4-1.15-30.1-4.58-44.82-1.6-6.84-3.69-24-3.72-39.67h14.86L275.3,9.9c-1.37,10.26-2.89,21.89.26,35.2,2.6,10.95.63,38.64.12,45.08A9.32,9.32,0,0,1,272.16,91Z" transform="translate(230.09 146.04)"/><path class="cls-2" d="M258.41,88.38" transform="translate(230.09 146.04)"/><path class="cls-2" d="M260,99.1c-2.3.59-17.58-4.65-18.81-1.37-1.07,2.85,2.83,5.48,4.92,6,4.56,1.11,7.92,3.38,9.76,3.76,1.36.29,3.13.48,4.21-.6C261.38,105.55,261.26,100.78,260,99.1Z" transform="translate(230.09 146.04)"/><path class="cls-2" d="M255.86,106.64c-1.84-.38-5.2-2.65-9.76-3.76-1.75-.43-4.76-2.34-5.07-4.61-.4,2.61,3.12,4.92,5.07,5.47,4.56,1.11,7.92,3.38,9.76,3.76,1.36.29,3.13.48,4.21-.6a2.68,2.68,0,0,0,.6-1.08A5.47,5.47,0,0,1,255.86,106.64Z" transform="translate(230.09 146.04)"/><path class="cls-2" d="M246.06,96.6a4.35,4.35,0,0,0-2.19,2.6c-.11.5.67.72.78.22a3.51,3.51,0,0,1,2.57-2.52A1.06,1.06,0,0,0,246.06,96.6Z" transform="translate(230.09 146.04)"/><path class="cls-2" d="M248.15,96.9a4.56,4.56,0,0,0-2.23,2.64c-.11.51.67.72.78.22a3.51,3.51,0,0,1,2.58-2.52A1.07,1.07,0,0,0,248.15,96.9Z" transform="translate(230.09 146.04)"/><path class="cls-2" d="M250.22,97.31A4.24,4.24,0,0,0,248,99.92c-.11.52.67.74.78.22a3.56,3.56,0,0,1,2.57-2.52A1,1,0,0,0,250.22,97.31Z" transform="translate(230.09 146.04)"/><path class="cls-2" d="M256.54,100.16a4.55,4.55,0,0,1-2.86-.94c-.18-5.39-1.15-30.09-4.57-44.8-2.19-9.38-4.87-35.34-3.2-52.22,4.1,1.06,11.14,2.74,15,3.41a108.61,108.61,0,0,1-1.25,13.47c-1.36,10.26-2.9,21.89.26,35.2,2.59,11,.62,38.64.11,45.07-.64.81-2.16.81-3.51.81Z" transform="translate(230.09 146.04)"/><path class="cls-2" d="M242.79,97.53" transform="translate(230.09 146.04)"/><path class="cls-2" d="M228-.3c.66-.44,4.11-3.8,7-6.69a24.73,24.73,0,0,0,7.25-14.95c.77-7.58-.12-15.42,3.2-21.25,5.29-9.28,14.58-18.5,26.25-16.42a7.52,7.52,0,0,1,3.59,1.52,9.85,9.85,0,0,1,3.27,6.58A49.93,49.93,0,0,1,277-33c-2,7.62-3,14.21-.57,21.88,1.89,5.93,6.7,30.17,5.28,36.38,0,0-20.52,11.33-40.7,1.68.76-11.15,6-44.21,6.22-46.28,1.51,2.29.93,11.14.28,12.88C245.87-2.16,230.29,5.7,230.29,5.7A5.37,5.37,0,0,1,228-.3Z" transform="translate(230.09 146.04)"/><path class="cls-2" d="M257.14-82.58a10.64,10.64,0,0,1,8-1.09A13.89,13.89,0,0,1,274.05-76,12.61,12.61,0,0,1,274-64.83c0,.12-6.51,14.75-7.92,16.41a48.85,48.85,0,0,1-9.7-2.35c.68-1.94,1.28-5.92.42-7.77a6.47,6.47,0,0,1-4.47-.55c-3.2-1.95-2.85-8.12-2.55-11.26A16.14,16.14,0,0,1,257.14-82.58Z" transform="translate(230.09 146.04)"/><path class="cls-2" d="M251.45-83.22A15.21,15.21,0,0,1,256-85.59a18.24,18.24,0,0,1,11.18,0,17,17,0,0,1,10.35,9.38c2.07,4.89-.56,10,2.14,14.7a14.62,14.62,0,0,1,.42,13.94,1.07,1.07,0,0,0,.11,1.14,8.44,8.44,0,0,1-1.84,11.79,8.43,8.43,0,0,1-3.74,1.53,1.12,1.12,0,0,0-.25.11c-1.08,6.72-8.58,8.7-14.36,6.56a8.12,8.12,0,0,1-5.38-6.46c-.51-3-.41-6.16-1.22-9.13-.65-2.38-3-5-5.72-4.76a5,5,0,0,1-.93-3.19c.09-3.42,2.64-5.8,5.27-7.62a17.67,17.67,0,0,0,3.44-3.88A4.1,4.1,0,0,1,257.61-63a2.62,2.62,0,0,0,1.94-1.84,1.06,1.06,0,0,0-.75-1.31,1.06,1.06,0,0,0-1,.23c-.49.43-.91.89-1.11,1.08-.42.42-1-.17-.87-.66.3-.82.68-1.67.93-2.52a2.47,2.47,0,0,0-.7-2.73,1,1,0,0,0-.46-.25,28.45,28.45,0,0,1-6.74-2C247.46-73.81,248.32-80.82,251.45-83.22Z" transform="translate(230.09 146.04)"/></g><path class="cls-2" d="M-179.13,454.74h0V430.18c-29.5-15.82-48.59-38.07-50.76-62.93-.12-1.53-.2-3.06-.2-4.61v49.2c0,1.54.08,3.08.2,4.6,2.17,24.85,21.26,47.08,50.76,62.93Z" transform="translate(230.09 146.04)"/><polygon class="cls-2" points="42.25 470.6 42.31 495.15 159.43 563.23 159.65 538.25 42.25 470.6"/><path class="cls-2" d="M-183.25,321.78q-2.34,1.38-4.6,2.74l117.41,67.65L47,324.39C17.9,306.1-23.79,294.65-70.18,294.65-114.27,294.69-154.25,305.05-183.25,321.78Z" transform="translate(230.09 146.04)"/><polygon class="cls-2" points="159.65 538.25 159.72 562.82 318.89 562.82 318.82 538.25 159.65 538.25"/><g class="cls-4"><path class="cls-2" d="M88.73,392.21l.09,24.62c.15-1.67.24-3.34.24-5L89,387.19a49.19,49.19,0,0,1-.26,5" transform="translate(230.09 146.04)"/></g><path class="cls-2" d="M47,324.43C73.18,340.92,89.13,363,89,387.19a49.19,49.19,0,0,1-.26,5C86.44,415.75,68.94,437,41.86,452.59q-2.36,1.37-4.81,2.66l-107.49-63Z" transform="translate(230.09 146.04)"/><polygon class="cls-2" points="159.65 538.25 159.72 562.82 267.21 625.86 267.14 601.3 159.65 538.25"/><g class="cls-5"><path class="cls-2" d="M37.05,455.25v24.62c1.64-.87,3.24-1.75,4.81-2.67,27.08-15.62,44.58-36.82,46.89-60.37l-.08-24.62c-2.3,23.54-19.8,44.75-46.87,60.38-1.58.91-3.18,1.8-4.82,2.66" transform="translate(230.09 146.04)"/></g><path class="cls-2" d="M-70.44,392.21l-108.7,62.52c28.38,15.24,66.39,24.55,108.21,24.55S8.8,470,37.34,454.84Z" transform="translate(230.09 146.04)"/><path class="cls-2" d="M37.34,454.84C8.8,470-29.22,479.28-70.93,479.28s-79.83-9.31-108.21-24.55v24.55c28.38,15.24,66.39,24.56,108.21,24.56S8.8,494.57,37.34,479.41Z" transform="translate(230.09 146.04)"/><path class="cls-2" d="M-187.43,299.7c-26.29,16.42-42.41,38.47-42.54,62.63a40,40,0,0,0,.21,5c2.16,24.84,21.26,47.09,50.75,62.93l108.49-62.64-.49-.29Z" transform="translate(230.09 146.04)"/><polygon class="cls-2" points="51.08 576.32 51.15 600.88 159.64 538.25 159.57 513.68 51.08 576.32"/><polygon class="cls-6" points="343.03 1.66 135.71 121.36 136.12 268.43 343.45 148.72 343.03 1.66"/><polygon class="cls-7" points="343.03 1.66 135.71 121.36 135.71 141.46 343.09 21.73 343.03 1.66"/><polygon class="cls-8" points="132.85 119.69 133.26 266.76 136.12 268.43 135.71 121.36 132.85 119.69"/><polygon class="cls-8" points="343.03 1.66 340.17 0 132.85 119.69 135.71 121.36 343.03 1.66"/><polygon class="cls-9" points="251.56 88.86 302.72 136.05 309.19 118.58 315.2 126.98 322.92 87.92 343.45 148.72 136.12 268.43 160.51 151.4 181.83 197.44 199.11 167.18 211.61 171.81 251.56 88.86"/><polygon class="cls-10" points="271.23 178.18 311.19 139.79 343.45 148.72 136.12 268.43 202.62 161.53 271.23 178.18"/><polygon class="cls-9" points="329.73 40.56 329.74 42.92 314.28 51.99 314.27 49.63 329.73 40.56"/><polygon class="cls-9" points="329.73 45.21 329.74 47.57 314.28 56.65 314.27 54.3 329.73 45.21"/><polygon class="cls-9" points="329.73 49.88 329.74 52.23 314.28 61.32 314.27 58.96 329.73 49.88"/><polygon class="cls-9" points="329.73 54.54 329.74 56.9 314.28 65.98 314.27 63.63 329.73 54.54"/><polygon class="cls-9" points="329.73 59.21 329.74 61.56 314.28 70.63 314.27 68.29 329.73 59.21"/><path class="cls-11" d="M102.87-128.45h0a6.53,6.53,0,0,1-3,5.15c-1.64,1-3,.19-3-1.7a6.52,6.52,0,0,1,3-5.14h0C101.53-131.09,102.87-130.33,102.87-128.45Z" transform="translate(230.09 146.04)"/><path class="cls-9" d="M92.39-122.21h0a6.61,6.61,0,0,1-3,5.15c-1.64.94-3,.17-3-1.71h0a6.47,6.47,0,0,1,3-5.13h0C91.05-124.85,92.39-124.1,92.39-122.21Z" transform="translate(230.09 146.04)"/><path class="cls-12" d="M75.44-112.25a6.47,6.47,0,0,1,3-5.13h0c1.66-1,3-.2,3,1.7h0a6.58,6.58,0,0,1-3,5.14C76.76-109.6,75.44-110.36,75.44-112.25Z" transform="translate(230.09 146.04)"/><g id="illustration_2" data-name="illustration "><polygon class="cls-13" points="649.63 143.74 926.76 303.74 926.2 500.31 649.07 340.3 649.63 143.74"/><polygon class="cls-7" points="649.63 143.74 926.76 303.74 926.76 330.59 649.57 170.54 649.63 143.74"/><polygon class="cls-14" points="930.59 301.5 930.03 498.08 926.2 500.31 926.76 303.74 930.59 301.5"/><polygon class="cls-15" points="649.63 143.74 653.47 141.51 930.59 301.5 926.76 303.74 649.63 143.74"/><polygon class="cls-9" points="864.64 428.04 864.6 443.92 850.77 435.94 850.81 420.05 864.64 428.04"/><polygon class="cls-9" points="864.69 407.9 864.65 423.78 850.82 415.79 850.88 399.91 864.69 407.9"/><polygon class="cls-9" points="864.75 387.75 864.71 403.63 850.88 395.65 850.93 379.77 864.75 387.75"/><polygon class="cls-9" points="864.82 367.61 864.76 383.49 850.94 375.5 850.98 359.63 864.82 367.61"/><polygon class="cls-9" points="864.87 347.47 864.82 363.36 851 355.37 851.04 339.5 864.87 347.47"/><polygon class="cls-9" points="864.92 327.63 864.88 343.5 851.05 335.53 851.09 319.65 864.92 327.63"/><polygon class="cls-7" points="864.98 307.48 864.94 323.37 851.11 315.39 851.15 299.51 864.98 307.48"/><polygon class="cls-16" points="886.29 440.83 886.24 456.73 872.42 448.74 872.46 432.85 886.29 440.83"/><polygon class="cls-11" points="886.35 420.69 886.31 436.57 872.48 428.6 872.52 412.71 886.35 420.69"/><polygon class="cls-17" points="886.4 400.55 886.36 416.44 872.53 408.45 872.57 392.58 886.4 400.55"/><polygon class="cls-18" points="886.46 380.42 886.42 396.28 872.59 388.31 872.64 372.43 886.46 380.42"/><polygon class="cls-7" points="886.53 360.28 886.47 376.15 872.65 368.17 872.7 352.29 886.53 360.28"/><polygon class="cls-7" points="886.58 340.13 886.53 356.01 872.71 348.03 872.75 332.15 886.58 340.13"/><polygon class="cls-7" points="886.64 319.99 886.58 335.87 872.76 327.88 872.8 312.01 886.64 319.99"/><polygon class="cls-19" points="907.95 453.33 907.89 469.21 894.08 461.24 894.13 445.36 907.95 453.33"/><polygon class="cls-19" points="908 433.19 907.95 449.08 894.13 441.1 894.19 425.22 908 433.19"/><polygon class="cls-19" points="908.06 413.06 908.02 428.93 894.2 420.95 894.24 405.08 908.06 413.06"/><polygon class="cls-7" points="908.11 392.92 908.07 408.79 894.26 400.81 894.3 384.93 908.11 392.92"/><polygon class="cls-7" points="908.17 372.77 908.13 388.65 894.31 380.68 894.35 364.79 908.17 372.77"/><polygon class="cls-7" points="908.22 352.63 908.18 368.51 894.37 360.54 894.42 344.65 908.22 352.63"/><polygon class="cls-7" points="908.29 332.49 908.24 348.38 894.42 340.39 894.48 324.52 908.29 332.49"/><polygon class="cls-9" points="679.36 317.94 679.32 333.82 665.49 325.84 665.54 309.96 679.36 317.94"/><polygon class="cls-9" points="679.42 297.8 679.38 313.68 665.56 305.7 665.6 289.81 679.42 297.8"/><polygon class="cls-9" points="679.49 277.66 679.43 293.53 665.61 285.55 665.65 269.67 679.49 277.66"/><polygon class="cls-9" points="679.54 257.51 679.49 273.39 665.67 265.42 665.71 249.53 679.54 257.51"/><polygon class="cls-9" points="679.6 237.37 679.55 253.25 665.72 245.26 665.76 229.4 679.6 237.37"/><polygon class="cls-9" points="679.65 217.53 679.61 233.4 665.78 225.43 665.82 209.54 679.65 217.53"/><polygon class="cls-7" points="679.7 197.4 679.66 213.27 665.83 205.29 665.89 189.41 679.7 197.4"/><polygon class="cls-16" points="701.02 330.74 700.98 346.62 687.15 338.63 687.19 322.75 701.02 330.74"/><polygon class="cls-11" points="701.07 310.59 701.03 326.49 687.2 318.5 687.26 302.61 701.07 310.59"/><polygon class="cls-17" points="701.13 290.45 701.09 306.33 687.27 298.35 687.31 282.48 701.13 290.45"/><polygon class="cls-18" points="701.18 270.31 701.14 286.2 687.32 278.21 687.37 262.34 701.18 270.31"/><polygon class="cls-7" points="701.25 250.18 701.2 266.05 687.38 258.07 687.42 242.19 701.25 250.18"/><polygon class="cls-7" points="701.31 230.04 701.26 245.91 687.43 237.93 687.48 222.05 701.31 230.04"/><polygon class="cls-7" points="701.36 209.89 701.32 225.77 687.49 217.79 687.53 201.91 701.36 209.89"/><polygon class="cls-19" points="722.67 343.23 722.62 359.13 708.82 351.14 708.86 335.25 722.67 343.23"/><polygon class="cls-19" points="722.73 323.09 722.69 338.99 708.87 331 708.91 315.12 722.73 323.09"/><polygon class="cls-19" points="722.78 302.96 722.74 318.84 708.93 310.86 708.97 294.98 722.78 302.96"/><polygon class="cls-7" points="722.84 282.82 722.8 298.69 708.98 290.71 709.02 274.84 722.84 282.82"/><polygon class="cls-7" points="722.89 262.68 722.85 278.55 709.03 270.57 709.08 254.7 722.89 262.68"/><polygon class="cls-7" points="722.96 242.54 722.91 258.41 709.09 250.44 709.14 234.55 722.96 242.54"/><polygon class="cls-7" points="723.02 222.39 722.96 238.27 709.16 230.3 709.2 214.41 723.02 222.39"/><path class="cls-7" d="M523,145c0,23.25,16.42,51.72,36.65,63.43h0l.17.1c20.19,11.53,36.59,2.11,36.65-21.12S580.11,135.67,559.82,124h0l-.35-.2C539.37,112.39,523.05,121.8,523,145Zm13.29,7.66c0-14.79,10.46-20.81,23.32-13.53l.23.12h0c13,7.48,23.44,25.62,23.38,40.51s-10.5,20.85-23.4,13.49h-.1c-13-7.55-23.48-25.69-23.43-40.59Z" transform="translate(230.09 146.04)"/><path class="cls-9" d="M559.51,123.78l.35.19h0l.42.28v15.28l-.46-.29h0l-.23-.12c-12.86-7.28-23.26-1.26-23.32,13.53s10.31,32.83,23.16,40.35v15.34C539.22,196.55,522.93,168.27,523,145S539.37,112.39,559.51,123.78Z" transform="translate(230.09 146.04)"/><path class="cls-19" d="M536.27,152.65v.48L523,145h0c.07-23.19,16.42-32.6,36.53-21.2l.35.19h0l.41.27v15.23l-.45-.29h0l-.23-.12C546.73,131.84,536.32,137.86,536.27,152.65Z" transform="translate(230.09 146.04)"/><polygon class="cls-7" points="794.1 373.64 794.1 377.51 819.56 392.48 819.57 388.61 794.1 373.64"/><path class="cls-9" d="M592.77,244.5c-.93-.54-1.7-.11-1.7,1a3.75,3.75,0,0,0,1.68,2.9h0c.93.55,1.69.1,1.69-1A3.69,3.69,0,0,0,592.77,244.5Z" transform="translate(230.09 146.04)"/><polygon class="cls-7" points="756.52 352.12 756.51 356 781.98 370.96 781.99 367.09 756.52 352.12"/><path class="cls-19" d="M555.17,223c-.91-.52-1.68-.11-1.69,1a3.73,3.73,0,0,0,1.68,2.9h0c.94.53,1.7.08,1.7-1A3.69,3.69,0,0,0,555.17,223Z" transform="translate(230.09 146.04)"/><polygon class="cls-7" points="794.1 383.31 794.1 387.19 819.56 402.15 819.57 398.28 794.1 383.31"/><path class="cls-9" d="M592.77,254.17c-.93-.52-1.7-.11-1.7,1a3.74,3.74,0,0,0,1.68,2.9h0c.93.55,1.69.1,1.69-1A3.71,3.71,0,0,0,592.77,254.17Z" transform="translate(230.09 146.04)"/><polygon class="cls-7" points="756.52 361.8 756.51 365.67 781.98 380.63 781.99 376.76 756.52 361.8"/><path class="cls-19" d="M555.17,232.66c-.91-.53-1.68-.12-1.69,1a3.78,3.78,0,0,0,1.68,2.92h0c.94.53,1.7.08,1.7-1A3.67,3.67,0,0,0,555.17,232.66Z" transform="translate(230.09 146.04)"/><polygon class="cls-7" points="794.1 392.99 794.1 396.86 819.56 411.82 819.57 407.95 794.1 392.99"/><path class="cls-9" d="M592.77,263.86c-.93-.54-1.7-.13-1.7.95a3.79,3.79,0,0,0,1.68,2.92h0c.93.53,1.69.08,1.69-1A3.63,3.63,0,0,0,592.77,263.86Z" transform="translate(230.09 146.04)"/><polygon class="cls-7" points="756.52 371.48 756.51 375.35 781.98 390.31 781.99 386.43 756.52 371.48"/><path class="cls-19" d="M555.17,242.34c-.91-.54-1.68-.13-1.69.95a3.76,3.76,0,0,0,1.68,2.92h0c.94.53,1.7.09,1.7-1A3.67,3.67,0,0,0,555.17,242.34Z" transform="translate(230.09 146.04)"/><path class="cls-11" d="M641.8,139.13h0a10.77,10.77,0,0,0,4.9,8.48c2.73,1.56,4.91.3,4.92-2.8a10.82,10.82,0,0,0-4.9-8.47h0C644,134.78,641.81,136,641.8,139.13Z" transform="translate(230.09 146.04)"/><path class="cls-9" d="M659,149.4h0a10.74,10.74,0,0,0,4.9,8.47c2.74,1.58,4.9.3,4.91-2.8h0a10.75,10.75,0,0,0-4.88-8.44h0C661.29,145.05,659.09,146.29,659,149.4Z" transform="translate(230.09 146.04)"/><path class="cls-12" d="M687,165.81a10.73,10.73,0,0,0-4.88-8.44h0c-2.74-1.58-4.91-.33-4.93,2.73h0a10.79,10.79,0,0,0,4.9,8.49c2.74,1.55,4.9.3,4.91-2.82Z" transform="translate(230.09 146.04)"/><polygon class="cls-20" points="397.2 241.95 487.14 294.23 577.67 241.95 487.73 189.69 397.2 241.95"/><polygon class="cls-21" points="397.2 241.95 397.54 630.97 487.49 683.23 487.14 294.23 397.2 241.95"/><polygon class="cls-22" points="487.14 294.23 487.49 683.23 578.02 630.97 577.67 241.95 487.14 294.23"/><polygon class="cls-23" points="487.16 389.61 577.1 441.87 667.64 389.61 577.69 337.33 487.16 389.61"/><polygon class="cls-24" points="487.44 389.61 487.78 683.32 577.73 735.59 577.37 441.87 487.44 389.61"/><polygon class="cls-25" points="577.1 441.87 577.46 735.59 667.98 683.32 667.64 389.61 577.1 441.87"/><polygon class="cls-26" points="577.04 539.7 666.98 591.97 757.5 539.7 667.57 487.44 577.04 539.7"/><polygon class="cls-27" points="577.04 539.7 577.39 735.53 667.34 787.81 666.98 591.97 577.04 539.7"/><polygon class="cls-28" points="666.98 591.97 667.34 787.81 757.86 735.53 757.5 539.7 666.98 591.97"/><polygon class="cls-29" points="666.98 689.8 756.92 742.07 847.44 689.8 757.5 637.54 666.98 689.8"/><polygon class="cls-30" points="666.98 689.8 667.32 787.77 757.27 840.04 756.92 742.07 666.98 689.8"/><polygon class="cls-31" points="756.92 742.07 757.27 840.04 847.8 787.77 847.44 689.8 756.92 742.07"/><path class="cls-32" d="M563.39,543.05v-1a5.57,5.57,0,0,0,1.1-1.37s-2.48-35.8-2.63-35.91c-.5-4.65-1.64-9.28-6.46-11.08a14.79,14.79,0,0,0-9.74,0,20.16,20.16,0,0,0-9,4.53,14.08,14.08,0,0,0-4,8.05c-.59,4.53,3.79,17.54,5.73,23.05a7.28,7.28,0,0,1,0,5c-.88,2.39-3.76,13.68-3.82,16.54-.08,4.1.28,8.21,3.33,11.39,2.83,2.92,25.48,14.63,25.61,14.64,9.82-.74,22.45-9.82,23.25-11.63a12.42,12.42,0,0,1,.1-1.93C585.87,557.19,570.86,548.33,563.39,543.05Z" transform="translate(230.09 146.04)"/><path class="cls-9" d="M578.54,608.5a4.34,4.34,0,0,0,3.38.64c1.53,1.55,4.32,2.86,6,4.2.93.74,2.39,1.72,2.13,3.15-.48,2.53-4.53,1.75-6.06,1s-2.74-2.05-4.24-3c-1-.64-2-1-2.2-2.28A8.61,8.61,0,0,1,578.54,608.5Z" transform="translate(230.09 146.04)"/><path class="cls-7" d="M577.58,611.7c.19,1.24,1.2,1.58,2.23,2.23,1.48.91,2.74,2.23,4.3,3s4.95,1.37,5.93-.39c-.53,2.45-4.52,1.69-6,.91s-2.74-2.05-4.24-3c-1-.64-2-1-2.2-2.28A1.81,1.81,0,0,1,577.58,611.7Z" transform="translate(230.09 146.04)"/><path class="cls-7" d="M584.59,613.49a2.89,2.89,0,0,1,2-1.15.49.49,0,0,1,.54.42A3.84,3.84,0,0,0,585,613.9C584.76,614.19,584.35,613.78,584.59,613.49Z" transform="translate(230.09 146.04)"/><path class="cls-7" d="M583.35,612.71a2.89,2.89,0,0,1,2-1.15.49.49,0,0,1,.54.43,3.83,3.83,0,0,0-2.15,1.13C583.53,613.41,583.12,613,583.35,612.71Z" transform="translate(230.09 146.04)"/><path class="cls-7" d="M582,611.82a2.93,2.93,0,0,1,2-1.15.51.51,0,0,1,.55.43,3.79,3.79,0,0,0-2.15,1.13C582.14,612.52,581.73,612.11,582,611.82Z" transform="translate(230.09 146.04)"/><path class="cls-9" d="M568.06,614.72a4.25,4.25,0,0,0,3.36.64c1.54,1.55,4.33,2.86,6,4.2.95.74,2.41,1.73,2.15,3.15-.48,2.53-4.54,1.75-6.07,1s-2.74-2-4.23-2.95c-1-.65-2-1-2.22-2.29A9,9,0,0,1,568.06,614.72Z" transform="translate(230.09 146.04)"/><path class="cls-7" d="M567.1,617.92c.19,1.25,1.21,1.59,2.23,2.23,1.47.92,2.74,2.23,4.3,3s4.94,1.37,5.93-.38c-.53,2.45-4.52,1.68-6,.9s-2.74-2-4.23-2.95c-1-.65-2-1-2.22-2.29A2.27,2.27,0,0,1,567.1,617.92Z" transform="translate(230.09 146.04)"/><path class="cls-7" d="M574.11,619.71a2.84,2.84,0,0,1,2-1.14.48.48,0,0,1,.55.4v0a3.67,3.67,0,0,0-2.13,1.14C574.27,620.41,573.86,620,574.11,619.71Z" transform="translate(230.09 146.04)"/><path class="cls-7" d="M572.83,618.93a2.88,2.88,0,0,1,2-1.14.48.48,0,0,1,.55.42,3.75,3.75,0,0,0-2.15,1.14C573.05,619.63,572.64,619.22,572.83,618.93Z" transform="translate(230.09 146.04)"/><path class="cls-7" d="M571.47,618.05a2.82,2.82,0,0,1,2-1.15.5.5,0,0,1,.55.42,3.85,3.85,0,0,0-2.13,1.14C571.64,618.76,571.23,618.33,571.47,618.05Z" transform="translate(230.09 146.04)"/><path class="cls-33" d="M568.11,615.17a143.51,143.51,0,0,1-2.54-38.3v-.33c-.12-1.48-.12-1.48-7.94-5.61-5.74-3-16.41-8.69-18-10.29-2.28-2.36-2.73-5.57-2.64-9.66a21.7,21.7,0,0,1,1.79-7.77,28.11,28.11,0,0,0,9.78,1.64c.7,0,1.37,0,2.18-.06-.11,2.31-.25,4.7-.25,4.7l-.08,1.37,1.1.78c1.36,1,2.94,2,4.65,3.17,6.32,4.25,16.81,11.3,17.78,15.34l-.6,12.31c-.64,13.22-1.37,29.13-1.9,33C570.55,615.9,568.5,615.86,568.11,615.17Z" transform="translate(230.09 146.04)"/><path class="cls-33" d="M578.66,608.82a145.37,145.37,0,0,1-2.6-38.55,2.65,2.65,0,0,0-2-2.6c-19.49-9-25.5-14.33-26-16.07a14.42,14.42,0,0,1-.67-5.76v-1.19h2.2a36.69,36.69,0,0,0,11.3-1.75l-.08,1.27,1.09.78c1.37.94,2.95,2,4.66,3.16,6.3,4.26,16.81,11.31,17.78,15.35l-.59,12.07c-.64,13.29-1.37,29.6-1.94,33.51A3.25,3.25,0,0,1,578.66,608.82Z" transform="translate(230.09 146.04)"/><path class="cls-34" d="M555.75,502.7a14.15,14.15,0,0,1,3-6.84c5.58,5.48,5.69,19.9,7,29.16,4.11,4.32,11.86,8,14.2,9.07a1,1,0,0,1,.56,1.11,12,12,0,0,1-2,4.59c-5.47-2.38-11.45-2.73-18.33-9.26-.27-.26-.67-.33-.78-.68C557.36,523.9,555.19,507,555.75,502.7Z" transform="translate(230.09 146.04)"/><path class="cls-9" d="M563.39,543.05v-1a5.57,5.57,0,0,0,1.1-1.37s-2.48-35.8-2.63-35.91c-.5-4.65-1.64-9.28-6.46-11.08a14.79,14.79,0,0,0-9.74,0,20.16,20.16,0,0,0-9,4.53,14.08,14.08,0,0,0-4,8.05c-.59,4.53,3.79,17.54,5.73,23.05a7.28,7.28,0,0,1,0,5c-.88,2.39-3.76,13.68-3.82,16.54-.08,4.1.28,8.21,3.33,11.39,2.83,2.92,25.48,14.63,25.61,14.64-.07-6.66,6.55-11.42,12.24-13.8,2.82-1.18,6.51-2.11,9.21-.14a6.14,6.14,0,0,1,1.79,2.31,12.42,12.42,0,0,1,.1-1.93C585.87,557.19,570.86,548.33,563.39,543.05Z" transform="translate(230.09 146.04)"/><path class="cls-34" d="M532.68,506.3a14.11,14.11,0,0,1,3-6.84c5.59,5.47,5.69,19.89,7,29.16A96.81,96.81,0,0,0,556,539.4a11.6,11.6,0,0,1-2.13,5.47c-5.47-2.38-9.93-4.11-16.81-10.69-.28-.26-.67-.32-.78-.68C534.3,527.51,532.12,510.68,532.68,506.3Z" transform="translate(230.09 146.04)"/><polygon class="cls-7" points="815.25 662.53 806.95 690.92 788.74 698.2 795.39 670.55 815.25 662.53"/><path class="cls-33" d="M554.24,540.78c.28-1,1-.74,1.77-.49a4.63,4.63,0,0,0,2.73.23,8,8,0,0,0,1.93-1.3,2.39,2.39,0,0,1,1.22-.34c0,.24-.41,1.68-.41,1.68h4.39a.67.67,0,0,1,.8.5.68.68,0,0,1-.16.61h.26c.82-.19,1.17,1.06.36,1.26l-.67.09c.53.21.67,1.08,0,1.22h-.21a.45.45,0,0,1-.28,0h-.13a.71.71,0,0,1-.58.84h0c-2,.24-4.81,1-6.58-.59a10.84,10.84,0,0,1-3.61-1C554,543,553.93,541.91,554.24,540.78Z" transform="translate(230.09 146.04)"/><path class="cls-33" d="M574.2,538.44h.28a.67.67,0,0,1,.38-1.22c.42,0,4.53-.86,4.53-.86l.49-1.68c0-.1.71.32.74.35a2.74,2.74,0,0,1,1.23,2.05,4.35,4.35,0,0,1-1.18,3.18,4.08,4.08,0,0,1-2.73,1.2l-1.37.1a.74.74,0,0,1-.77-.69v0h-.23a.76.76,0,0,1-.3,0h-.21c-.69,0-.75-.88-.28-1.19h-.67C573.27,539.74,573.34,538.44,574.2,538.44Z" transform="translate(230.09 146.04)"/><path class="cls-35" d="M562.41,505.21a4.47,4.47,0,0,1-.48-2.85h0a6.58,6.58,0,0,0-.48-3.25c-.68-1.81-1.93-3.27-2.73-5a12.82,12.82,0,0,1-.87-8.12h0a14.66,14.66,0,0,0-3.4,3.27A5.74,5.74,0,0,0,553,492.9V493c-.88.56-1.71.9-1.77,2.35-.08,2.29,2.26,3.41,3,5.31a17.08,17.08,0,0,1,.71,5.17,17.29,17.29,0,0,0,2.22,7.94,6.18,6.18,0,0,0,4.55,2.73c1.85.15,4.11-.65,4.57-2.64.59-2.36-1.19-4.43-2.39-6.26C563.48,506.77,562.89,506,562.41,505.21Z" transform="translate(230.09 146.04)"/><path class="cls-33" d="M553.43,492.68v6.08c0,3.07-6.15,2.1-10.13-3v-9.67C543.27,485.63,553.43,492.2,553.43,492.68Z" transform="translate(230.09 146.04)"/><path class="cls-33" d="M541.48,468.6a9.37,9.37,0,0,1,6.84-2,12.38,12.38,0,0,1,6.39,3,14.15,14.15,0,0,1,4,5.47,13.42,13.42,0,0,1,.7,6.7c-1,8.68-5.48,11.93-7,12.51a9.38,9.38,0,0,1-7.54-3.94,26.09,26.09,0,0,0-4.88-5.65,4,4,0,0,1-.42-.4C536.55,481.1,535.68,473.66,541.48,468.6Z" transform="translate(230.09 146.04)"/><path class="cls-36" d="M553.39,466.51a14.74,14.74,0,0,0-13.95.09,13.75,13.75,0,0,0-5.27,5.78,22.17,22.17,0,0,0-1.53,3.7c-.83,2.49-1.19,5.06-1.87,7.58a28,28,0,0,1-3.36,7.87c-1.36,2.23-3.07,4.57-3.21,7.32A8.16,8.16,0,0,0,526,504a5.25,5.25,0,0,1,1,5.23c-.67,1.68-1.88,3.08-2.54,4.79a10.7,10.7,0,0,0-.59,5.79,9.35,9.35,0,0,0,5.25,6.84,4.84,4.84,0,0,0,2.37.46,5.46,5.46,0,0,0,3-1.57c-1.08-6.23-3.36-21.75,1.65-21.7,3.17,0,4.56,6.38,4.67,8.21.28,4.38-3.47,12.58,1.47,14.9a6.07,6.07,0,0,0,7-1.62c1.76-2.73.77-6.13-1-8.49s-4.1-3.64-3.35-7.19c.37-1.87,1.2-3.62,1.56-5.47a8,8,0,0,0-.22-4.39,16.29,16.29,0,0,0-2.19-3.15,9.51,9.51,0,0,0,.89-4.76,14.67,14.67,0,0,0-.86-4c-.1-.26-.44-1.56-.75-1.64-1.09-.31-2.39-1.3-1.78-2.52s2.38-.54,2.73.59l.15.07c3.44-2,6.84-4.21,7.84-8.32a.66.66,0,0,0,0-.28c3,.73,8.09,1.16,7,6.64C561.64,477.15,559.15,469.64,553.39,466.51Z" transform="translate(230.09 146.04)"/><path class="cls-37" d="M370.94,253.57c12.62-7.35,12.57-19.25-.15-26.58s-33.25-7.34-45.87,0h0c-12.63,7.33-12.55,19.22.15,26.55s33.24,7.36,45.87,0Z" transform="translate(230.09 146.04)"/><path class="cls-34" d="M337,111s-.89,21.89-2,24c-2.65,4.86-9.57,12.47-9.82,13.42-.56,2.74,1.93,5.8,4.54,5.47,1.66-.19,14.22-7.78,14.22-7.78C344.56,141.89,337.2,110.83,337,111Z" transform="translate(230.09 146.04)"/><path class="cls-9" d="M363.08,217.51c-1.36,2.32-4,2.27-4.1,2.46-1.27,2.74-8.21,11.82-7.16,13.56,1.84,3.09,6.85.12,8.42-1.65s2.65-4,4.1-5.92c1-1.37,2.22-2.26,1.79-4.1C365.92,220.83,363.41,217.33,363.08,217.51Z" transform="translate(230.09 146.04)"/><path class="cls-7" d="M365.89,221.23c.34,1.74-.81,2.67-1.85,4-1.49,1.9-2.56,4.25-4.18,6s-5.81,4.25-8,2.35c1.89,2.94,6.74,0,8.36-1.73s2.65-4,4.1-5.92c1-1.37,2.22-2.26,1.79-4.1A3.41,3.41,0,0,0,365.89,221.23Z" transform="translate(230.09 146.04)"/><path class="cls-7" d="M357.78,227.49a4,4,0,0,0-3.19-.53.69.69,0,0,0-.51.82,5.3,5.3,0,0,1,3.35.45C357.89,228.53,358.23,227.79,357.78,227.49Z" transform="translate(230.09 146.04)"/><path class="cls-7" d="M358.93,225.72a3.94,3.94,0,0,0-3.18-.55.71.71,0,0,0-.52.82,5.38,5.38,0,0,1,3.37.45C359.05,226.7,359.42,226,358.93,225.72Z" transform="translate(230.09 146.04)"/><path class="cls-7" d="M360.05,224a4.05,4.05,0,0,0-3.18-.54.7.7,0,0,0-.52.82,5.38,5.38,0,0,1,3.37.45C360.17,225,360.5,224.21,360.05,224Z" transform="translate(230.09 146.04)"/><path class="cls-38" d="M359,220c-2.86-3.59-13.17-15.47-24-30.73a4.59,4.59,0,0,1-.87-2.58c-.13-7.57,4.1-30.22,6.45-39.79a55,55,0,0,0,10.83,3c-.65,3.75-8.21,36.28-7.08,37.42,7.62,7.67,14,19.9,18.81,30.25C363,218.16,361.44,219.57,359,220Z" transform="translate(230.09 146.04)"/><path class="cls-9" d="M354.42,238.44c-2.09,1.71-4.55.75-4.7.9-2.14,2.15-11.77,8.28-11.4,10.25.67,3.55,6.34,2.46,8.48,1.37s3.89-2.89,5.91-4.11c1.37-.89,2.86-1.37,3.08-3.19C355.93,242.54,354.79,238.44,354.42,238.44Z" transform="translate(230.09 146.04)"/><path class="cls-7" d="M355.76,243c-.27,1.73-1.66,2.21-3.1,3.1-2.07,1.29-3.87,3.13-6,4.22s-6.91,2-8.3-.54c.75,3.41,6.33,2.34,8.45,1.27s3.89-2.88,5.91-4.1c1.37-.89,2.86-1.37,3.08-3.19A2.43,2.43,0,0,0,355.76,243Z" transform="translate(230.09 146.04)"/><path class="cls-7" d="M346,246.09a4,4,0,0,0-2.8-1.62.72.72,0,0,0-.77.6,5.23,5.23,0,0,1,3,1.59C345.74,247.06,346.31,246.48,346,246.09Z" transform="translate(230.09 146.04)"/><path class="cls-7" d="M347.69,244.76a4,4,0,0,0-2.73-1.6.71.71,0,0,0-.77.59,5.26,5.26,0,0,1,2.91,1.53C347.46,245.74,348,245.17,347.69,244.76Z" transform="translate(230.09 146.04)"/><path class="cls-7" d="M349.35,243.51a4,4,0,0,0-2.74-1.61.7.7,0,0,0-.76.6,5.26,5.26,0,0,1,3,1.59C349.12,244.48,349.69,243.91,349.35,243.51Z" transform="translate(230.09 146.04)"/><path class="cls-33" d="M349.72,239.4c.5-7.73-4.6-44.12-4.6-44.12-1.37-5.13,5.38-23.78,7.22-29.66l.16-.46v-.47c0-.09-.69-8.21-.69-13.55a64.12,64.12,0,0,0,11.78-2.56c.16,1,.34,2,.52,3a47,47,0,0,1,.9,7.1,36.35,36.35,0,0,1-1.37,10.1c-.61,2.29-2.73,7.9-9.27,21.6-.63,1.37-.82,1.71-.6,2.57,4.57,19,1.52,41.25.52,46.05A4.5,4.5,0,0,1,349.72,239.4Z" transform="translate(230.09 146.04)"/><path class="cls-9" d="M367.49,111.65a13.76,13.76,0,0,0-3.87-7.76,19.4,19.4,0,0,0-8.68-4.35,18.76,18.76,0,0,0-9.89-.29,10,10,0,0,0-8,8.57c-.14.11-6.84,70.2-6.84,70.2,2.09,3.77,24.28,9.2,37.76,1.51-.51-2,1.36-23.89-6-40.91a6.62,6.62,0,0,1,0-4.8C363.85,128.51,368.05,116,367.49,111.65Z" transform="translate(230.09 146.04)"/><path class="cls-34" d="M367.53,110.81a12.41,12.41,0,0,0-3.65-6.65c-4.65,5.8-3.59,25.29-3.11,27.08L342.1,141.62c-.39.21,1.12,4.52,3.09,4.34,1.71-.17,19.15-7.91,19.88-8.81C366,136,368.26,114.78,367.53,110.81Z" transform="translate(230.09 146.04)"/><path class="cls-19" d="M343.66,94.07A8.57,8.57,0,0,0,348,100.8h0c0-.15.11-.29.15-.44.93-3.16-4.65-7.31-4.63-7.24A4,4,0,0,1,343.66,94.07Z" transform="translate(230.09 146.04)"/><path class="cls-33" d="M347.52,98.54v5.86c0,2.95,5.92,2,9.75-2.93V92.15C357.31,91.77,347.52,98.08,347.52,98.54Z" transform="translate(230.09 146.04)"/><path class="cls-33" d="M359,75.38a9,9,0,0,0-6.58-1.9,11.8,11.8,0,0,0-6.14,2.86,13.65,13.65,0,0,0-3.83,5.25A12.85,12.85,0,0,0,341.8,88c1,8.35,5.31,11.48,6.7,12a9,9,0,0,0,7.25-3.79,25.25,25.25,0,0,1,4.68-5.47l.41-.37C363.75,87.4,364.6,80.25,359,75.38Z" transform="translate(230.09 146.04)"/><path class="cls-36" d="M367.63,93.75a9,9,0,0,0,.35-2c.14-5.76-.61-12-5.1-16.07a13.52,13.52,0,0,0-15.35-2.32c-5.47,2.94-7.94,10.23-5.69,15.24-1-5.28,3.88-5.69,6.77-6.42a.71.71,0,0,0,0,.29c.9,3.94,4.23,6.1,7.54,8h.11c.28-1.15,2-2,2.65-.65s-.66,2.12-1.71,2.42c-.63.59-.11,2.86-.07,3.61A13.09,13.09,0,0,1,352.91,106a19.93,19.93,0,0,0-3.18,3.74,5.93,5.93,0,0,0,.56,6.93c2.14,2.43,6.51,3.67,9.29,1.65,1.94-1.37,2-3.53,2.55-5.67,1.21-4.81,4.37-4.81,4.77-3.94a4.54,4.54,0,0,1,.88-2.73C370.83,101.45,370.57,97.61,367.63,93.75Z" transform="translate(230.09 146.04)"/><path class="cls-33" d="M343,141.31a21.78,21.78,0,0,1-6.7,2.28c-1.66.1-2.66,2.35-4.44,2.46a.69.69,0,0,0-.5,1.15c.66.71,2.57.28,3.95-1.15v.1a1.38,1.38,0,0,0,.66,1.22.92.92,0,0,0,.29.11.72.72,0,0,0,.08.32,1.26,1.26,0,0,0,.93.77h0a1.25,1.25,0,0,0,1.37,1,1.59,1.59,0,0,0,1-.38,7.08,7.08,0,0,0,3.18-2.32,17,17,0,0,0,1.91-2.24C345.26,143.51,344.63,140.2,343,141.31Z" transform="translate(230.09 146.04)"/><polygon class="cls-39" points="538.66 305.99 560.05 293.56 575.42 302.44 554.02 314.87 538.66 305.99"/><g class="cls-3"><polyline class="cls-7" points="575.42 302.44 560.05 293.56 538.66 305.99 554.02 314.87 575.42 302.44"/></g><path class="cls-40" d="M330.39,155l-.8-.45h0a3.92,3.92,0,0,1-3.47,0,1.08,1.08,0,0,1-.68-1.35,1.09,1.09,0,0,1,.68-.68,3.88,3.88,0,0,1,3.45,0l.79-.45a5.57,5.57,0,0,0-5,0,1.54,1.54,0,0,0-1,2,1.56,1.56,0,0,0,1,1,5.59,5.59,0,0,0,5,0Z" transform="translate(230.09 146.04)"/><path class="cls-41" d="M331,154.47l-.06.08Z" transform="translate(230.09 146.04)"/><path class="cls-41" d="M330.81,154.7l-.08.08Z" transform="translate(230.09 146.04)"/><path class="cls-41" d="M330.93,154.59h0Z" transform="translate(230.09 146.04)"/><path class="cls-41" d="M331.13,154.34v0Z" transform="translate(230.09 146.04)"/><path class="cls-41" d="M330.54,155l-.11.07Z" transform="translate(230.09 146.04)"/><path class="cls-41" d="M330.69,154.81l-.11.08Z" transform="translate(230.09 146.04)"/><path class="cls-41" d="M331.21,154.22Z" transform="translate(230.09 146.04)"/><path class="cls-19" d="M329.54,152.57l.18.1h0l.09.09h.07v.08h0v.09h0a.17.17,0,0,1,0,.1h0a.21.21,0,0,0,0,.11h0a.24.24,0,0,1,0,.12h0v.13h0a1.38,1.38,0,0,1-.67.86l.79.45h0l.11-.07h0l.11-.08h0l.09-.08h.08l.07-.09h0v-.13h0l.06-.13h0V154h0v-.1h0v-.09h0v-.22h0v-.08h0a.14.14,0,0,0,0-.09h0v-.08h0v-.08h0v-.08h0v-.07h-.15l-.12-.08h0l-.79.45Z" transform="translate(230.09 146.04)"/><path class="cls-40" d="M337.05,158.52l-.79-.46h0a3.88,3.88,0,0,1-3.48,0c-1-.56-1-1.46,0-2a3.81,3.81,0,0,1,3.45,0l.79-.46a5.63,5.63,0,0,0-5,0,1.55,1.55,0,0,0-1,2,1.58,1.58,0,0,0,1,1A5.63,5.63,0,0,0,337.05,158.52Z" transform="translate(230.09 146.04)"/><path class="cls-41" d="M337.69,158v0Z" transform="translate(230.09 146.04)"/><path class="cls-41" d="M337.53,158.2l-.1.08Z" transform="translate(230.09 146.04)"/><path class="cls-41" d="M337.6,158.09l-.09.08Z" transform="translate(230.09 146.04)"/><path class="cls-41" d="M337.79,157.85Z" transform="translate(230.09 146.04)"/><path class="cls-41" d="M337.2,158.42l-.11.07Z" transform="translate(230.09 146.04)"/><path class="cls-41" d="M337.34,158.31l-.1.08Z" transform="translate(230.09 146.04)"/><path class="cls-41" d="M337.87,157.72v0Z" transform="translate(230.09 146.04)"/><path class="cls-19" d="M336.16,156.08l.16.11h0l.1.07h0l.07.07h0v.08h0v.1h0a.17.17,0,0,1,0,.1h0v.13h0v.13h0a1.27,1.27,0,0,1-.66.87l.8.45h0l.11-.07h0l.09-.08h0l.1-.08h0l.08-.09h0v-.08h0v-.19h0v-.11h0v-.1h0v-.09h0v-.1h0v-.08h0V157h0V157h0v-.07h0v-.07h0l-.14-.08h0l-.79.46Z" transform="translate(230.09 146.04)"/><polygon class="cls-19" points="546.1 306.7 545.2 306.17 544.29 306.7 545.2 307.22 546.1 306.7"/><polygon class="cls-19" points="546.51 306.94 545.61 307.46 552.9 311.67 553.8 311.14 546.51 306.94"/><polygon class="cls-7" points="546.92 304.16 546.1 303.68 545.29 304.16 546.11 304.64 546.92 304.16"/><polygon class="cls-40" points="547.29 304.38 546.48 304.84 556.78 310.75 557.59 310.29 547.29 304.38"/><polygon class="cls-7" points="548.37 303.26 547.55 302.78 546.74 303.26 547.55 303.72 548.37 303.26"/><polygon class="cls-40" points="548.74 303.46 547.92 303.94 558.22 309.85 559.04 309.37 548.74 303.46"/><polygon class="cls-7" points="549.81 302.41 548.99 301.93 548.18 302.41 549 302.87 549.81 302.41"/><polygon class="cls-40" points="550.18 302.61 549.37 303.09 559.67 309 560.48 308.52 550.18 302.61"/><path class="cls-33" d="M327.2,148.43a9.43,9.43,0,0,0-3.79,1.25,8.32,8.32,0,0,1-1.37,1c-.22.11-.41.25-.64.35a1.71,1.71,0,0,0-1.23,1.75,4.7,4.7,0,0,0-.07,1.54c.18.78,1,.71,1.37.18a1.51,1.51,0,0,0,.35-.93,2.08,2.08,0,0,1,.91-1.64l5.11-3.18A.63.63,0,0,0,327.2,148.43Z" transform="translate(230.09 146.04)"/><path class="cls-42" d="M460.9,410.29c12.63-7.33,12.57-19.23-.15-26.58s-33.24-7.33-45.87,0h0c-12.63,7.35-12.55,19.24.15,26.56s33.24,7.36,45.87,0Z" transform="translate(230.09 146.04)"/><path class="cls-33" d="M466.5,303.13a5.7,5.7,0,0,1,2.23-2.31h0c.71.26,1.36.55,1.36.53,4.45,1.93,4.74,2.49,6.84,6.28h0a16.81,16.81,0,0,0,.87,1.54c.35.48-.55,1.24-1,.64l-.11-.16c.5.91-.56,1.49-1.26.58.18.58-.6.85-1.05,0a6.24,6.24,0,0,0-1.67-2.27l-.85-.48s.85,1.13.78,1.67-.69.89-.95.33c-.08-.18-.19-.34-.27-.51a6.81,6.81,0,0,0-1.27-1.06,4.46,4.46,0,0,1-1.37-1.26A18.13,18.13,0,0,0,466.5,303.13Z" transform="translate(230.09 146.04)"/><path class="cls-19" d="M422.48,389.51c2.28.59,17.41-4.59,18.62-1.37,1.06,2.81-2.8,5.41-4.87,5.91-4.51,1.1-7.85,3.34-9.65,3.73-1.37.28-3.1.46-4.18-.59C421.12,395.9,421.23,391.19,422.48,389.51Z" transform="translate(230.09 146.04)"/><path class="cls-7" d="M426.58,397c1.8-.38,5.14-2.62,9.65-3.72,1.73-.42,4.71-2.31,5-4.57.41,2.59-3.08,4.89-5,5.35-4.51,1.09-7.85,3.34-9.65,3.72-1.37.29-3.1.47-4.18-.59a2.54,2.54,0,0,1-.59-1.08A5.37,5.37,0,0,0,426.58,397Z" transform="translate(230.09 146.04)"/><path class="cls-7" d="M436.26,387.05a4.29,4.29,0,0,1,2.18,2.56c.11.5-.67.72-.78.22a3.48,3.48,0,0,0-2.55-2.49A1.06,1.06,0,0,1,436.26,387.05Z" transform="translate(230.09 146.04)"/><path class="cls-7" d="M434.2,387.35a4.45,4.45,0,0,1,2.21,2.6c.1.51-.67.73-.78.22a3.45,3.45,0,0,0-2.54-2.49A1,1,0,0,1,434.2,387.35Z" transform="translate(230.09 146.04)"/><path class="cls-7" d="M432.16,387.75a4.25,4.25,0,0,1,2.23,2.54c.11.51-.67.73-.78.22a3.5,3.5,0,0,0-2.55-2.49A1,1,0,0,1,432.16,387.75Z" transform="translate(230.09 146.04)"/><path class="cls-33" d="M426,390.29a4.44,4.44,0,0,0,2.83-.91C429,384,430,359.58,433.35,345c1.57-6.84,3.65-23.79,3.68-39.23H422.35c.16,1.37.35,2.74.55,4.26,1.36,10.15,2.85,21.66-.26,34.83-2.56,10.82-.62,38.22-.13,44.6A9.11,9.11,0,0,0,426,390.29Z" transform="translate(230.09 146.04)"/><path class="cls-43" d="M439.59,387.62" transform="translate(230.09 146.04)"/><path class="cls-19" d="M438,398.24c2.27.59,17.4-4.6,18.62-1.37,1.06,2.81-2.81,5.41-4.88,5.91-4.51,1.1-7.85,3.34-9.65,3.72-1.37.29-3.1.48-4.18-.58C436.66,404.63,436.77,399.87,438,398.24Z" transform="translate(230.09 146.04)"/><path class="cls-7" d="M442.12,405.71c1.8-.38,5.14-2.63,9.65-3.72,1.73-.43,4.71-2.31,5-4.57.41,2.59-3.08,4.88-5,5.35-4.51,1.09-7.85,3.34-9.65,3.72-1.37.29-3.1.48-4.18-.59a2.47,2.47,0,0,1-.58-1.08A5.34,5.34,0,0,0,442.12,405.71Z" transform="translate(230.09 146.04)"/><path class="cls-7" d="M451.8,395.76a4.32,4.32,0,0,1,2.18,2.56c.11.51-.67.73-.78.22a3.45,3.45,0,0,0-2.55-2.49A1.08,1.08,0,0,1,451.8,395.76Z" transform="translate(230.09 146.04)"/><path class="cls-7" d="M449.71,396.08a4.43,4.43,0,0,1,2.22,2.6c.09.5-.68.72-.78.22a3.48,3.48,0,0,0-2.55-2.49A1,1,0,0,1,449.71,396.08Z" transform="translate(230.09 146.04)"/><path class="cls-7" d="M447.7,396.48a4.2,4.2,0,0,1,2.23,2.58c.11.51-.67.73-.78.22a3.5,3.5,0,0,0-2.55-2.49A1,1,0,0,1,447.7,396.48Z" transform="translate(230.09 146.04)"/><path class="cls-33" d="M441.5,399.29a4.44,4.44,0,0,0,2.83-.91c.18-5.34,1.14-29.8,4.53-44.36,2.18-9.27,4.82-35,3.16-51.65-4.1,1-10.94,2.73-14.86,3.38a110.1,110.1,0,0,0,1.24,13.32c1.36,10.15,2.87,21.66-.25,34.83-2.57,10.82-.62,38.23-.12,44.6.64.79,2.14.79,3.47.79Z" transform="translate(230.09 146.04)"/><path class="cls-43" d="M455,396.67" transform="translate(230.09 146.04)"/><path class="cls-36" d="M469.71,299.89c-.66-.44-4.1-3.76-6.84-6.62a24.48,24.48,0,0,1-7.17-14.79c-.76-7.51.12-15.28-3.17-21-5.24-9.17-14.44-18.29-26-16.24a7.44,7.44,0,0,0-3.54,1.49,9.8,9.8,0,0,0-3.24,6.53,49.08,49.08,0,0,0,1.5,18.33c2,7.54,3,14.06.56,21.6-1.87,5.86-6.63,29.85-5.22,36,0,0,20.26,11.2,40.27,1.66-.75-11-6-43.77-6.15-45.8-1.51,2.27-.92,11-.28,12.74,1.6,4.24,17,12,17,12A5.27,5.27,0,0,0,469.71,299.89Z" transform="translate(230.09 146.04)"/><path class="cls-33" d="M440.84,218.46a10.48,10.48,0,0,0-7.88-1.08,13.78,13.78,0,0,0-8.85,7.58,12.42,12.42,0,0,0,.08,11.07c-.06.12,6.45,14.6,7.84,16.27a50,50,0,0,0,9.58-2.34c-.67-1.92-1.27-5.86-.42-7.69a6.51,6.51,0,0,0,4.44-.54c3.16-1.94,2.81-8,2.51-11.14A15.91,15.91,0,0,0,440.84,218.46Z" transform="translate(230.09 146.04)"/><path d="M446.48,217.82A15.11,15.11,0,0,0,442,215.5a18,18,0,0,0-11.07,0,16.83,16.83,0,0,0-10.26,9.19c-2,4.86.57,9.92-2.09,14.57a14.34,14.34,0,0,0-.44,13.8,1.07,1.07,0,0,1-.1,1.14,8.69,8.69,0,0,0,1.56,11.6,8.59,8.59,0,0,0,3.89,1.68l.23.1c1.08,6.66,8.5,8.62,14.21,6.5a8.06,8.06,0,0,0,5.33-6.41c.49-3,.41-6.08,1.2-9,.64-2.37,3-5,5.66-4.72a5.06,5.06,0,0,0,.95-3.19c-.1-3.38-2.63-5.73-5.23-7.52a18.18,18.18,0,0,1-3.31-3.85,4.1,4.1,0,0,0-2.15-1.5,2.6,2.6,0,0,1-2-1.82,1.05,1.05,0,0,1,1.71-1.08c.49.43.9.89,1.1,1.08.41.42,1-.17.87-.65-.31-.82-.69-1.65-.92-2.5a2.46,2.46,0,0,1,.68-2.65,1.11,1.11,0,0,1,.47-.24,28.19,28.19,0,0,0,6.65-2C450.43,227.14,449.57,220.2,446.48,217.82Z" transform="translate(230.09 146.04)"/><path class="cls-42" d="M280.41,111c12.63-7.33,12.56-19.23-.15-26.58s-33.24-7.33-45.87,0h0c-12.63,7.35-12.54,19.23.15,26.55s33.25,7.36,45.89,0Z" transform="translate(230.09 146.04)"/><path class="cls-33" d="M265.57-97a5.65,5.65,0,0,0,3.13-.82h0c.12-.77.22-1.51.23-1.52.5-4.89.14-5.47-2.13-9.18h0c-.33-.49-.64-1-.92-1.52-.31-.71-1.36-.14-1.06.56,0,.07.06.12.09.18-.54-.9-1.6-.23-1.15.82-.41-.44-1,.11-.46,1a6.08,6.08,0,0,1,1.17,2.6v1s-.56-1.3-1.08-1.51-1.12.17-.75.67c.12.17.21.33.32.5a6.16,6.16,0,0,1,.3,1.65,4.54,4.54,0,0,0,.39,1.82A17.53,17.53,0,0,1,265.57-97Z" transform="translate(230.09 146.04)"/><path class="cls-44" d="M270.12-99.31c2.18,10.63,6.05,34.67,5.37,35.05a12.77,12.77,0,0,1-9.43,1.47c-.52-.11-2.23-24.63-2-35.71A8.42,8.42,0,0,1,270.12-99.31Z" transform="translate(230.09 146.04)"/><path class="cls-33" d="M231.22,3A5.78,5.78,0,0,0,229,.64h0c-.73.28-1.37.55-1.44.54-4.5,2-4.8,2.53-7,6.36h0c-.27.53-.57,1-.89,1.56s.55,1.26,1,.64l.09-.16c-.52.91.58,1.5,1.29.6-.19.57.59.85,1,0a5.94,5.94,0,0,1,1.7-2.3l.85-.48s-.87,1.12-.78,1.67.68.9.94.34a5.29,5.29,0,0,1,.29-.52,5.92,5.92,0,0,1,1.28-1.06,4.34,4.34,0,0,0,1.37-1.29A18.41,18.41,0,0,1,231.22,3Z" transform="translate(230.09 146.04)"/><path class="cls-19" d="M275.69,90.28c-2.3.59-17.58-4.65-18.81-1.37-1.07,2.85,2.83,5.47,4.93,6,4.55,1.11,7.92,3.38,9.75,3.76,1.37.29,3.13.48,4.21-.6C277.09,96.72,277,92,275.69,90.28Z" transform="translate(230.09 146.04)"/><path class="cls-7" d="M271.56,97.83c-1.83-.4-5.2-2.67-9.75-3.76-1.75-.43-4.76-2.34-5.08-4.63-.4,2.62,3.13,4.94,5.08,5.41,4.55,1.11,7.92,3.38,9.75,3.76,1.37.29,3.13.48,4.21-.6a2.59,2.59,0,0,0,.61-1.08A5.51,5.51,0,0,1,271.56,97.83Z" transform="translate(230.09 146.04)"/><path class="cls-7" d="M261.77,87.77a4.41,4.41,0,0,0-2.19,2.6c-.11.51.67.73.78.22a3.48,3.48,0,0,1,2.57-2.51A1,1,0,0,0,261.77,87.77Z" transform="translate(230.09 146.04)"/><path class="cls-7" d="M263.86,88.09a4.44,4.44,0,0,0-2.23,2.63c-.11.52.67.73.78.21A3.53,3.53,0,0,1,265,88.42,1,1,0,0,0,263.86,88.09Z" transform="translate(230.09 146.04)"/><path class="cls-7" d="M265.92,88.49a4.22,4.22,0,0,0-2.25,2.62c-.11.51.68.73.78.21A3.51,3.51,0,0,1,267,88.81,1,1,0,0,0,265.92,88.49Z" transform="translate(230.09 146.04)"/><path class="cls-33" d="M272.16,91a4.53,4.53,0,0,1-2.86-.92c-.17-5.4-1.15-30.1-4.58-44.82-1.6-6.84-3.69-24-3.72-39.67h14.86L275.3,9.9c-1.37,10.26-2.89,21.89.26,35.2,2.6,10.95.63,38.64.12,45.08A9.32,9.32,0,0,1,272.16,91Z" transform="translate(230.09 146.04)"/><path class="cls-45" d="M258.41,88.38" transform="translate(230.09 146.04)"/><path class="cls-19" d="M260,99.1c-2.3.59-17.58-4.65-18.81-1.37-1.07,2.85,2.83,5.48,4.92,6,4.56,1.11,7.92,3.38,9.76,3.76,1.36.29,3.13.48,4.21-.6C261.38,105.55,261.26,100.78,260,99.1Z" transform="translate(230.09 146.04)"/><path class="cls-7" d="M255.86,106.64c-1.84-.38-5.2-2.65-9.76-3.76-1.75-.43-4.76-2.34-5.07-4.61-.4,2.61,3.12,4.92,5.07,5.47,4.56,1.11,7.92,3.38,9.76,3.76,1.36.29,3.13.48,4.21-.6a2.68,2.68,0,0,0,.6-1.08A5.47,5.47,0,0,1,255.86,106.64Z" transform="translate(230.09 146.04)"/><path class="cls-7" d="M246.06,96.6a4.35,4.35,0,0,0-2.19,2.6c-.11.5.67.72.78.22a3.51,3.51,0,0,1,2.57-2.52A1.06,1.06,0,0,0,246.06,96.6Z" transform="translate(230.09 146.04)"/><path class="cls-7" d="M248.15,96.9a4.56,4.56,0,0,0-2.23,2.64c-.11.51.67.72.78.22a3.51,3.51,0,0,1,2.58-2.52A1.07,1.07,0,0,0,248.15,96.9Z" transform="translate(230.09 146.04)"/><path class="cls-7" d="M250.22,97.31A4.24,4.24,0,0,0,248,99.92c-.11.52.67.74.78.22a3.56,3.56,0,0,1,2.57-2.52A1,1,0,0,0,250.22,97.31Z" transform="translate(230.09 146.04)"/><path class="cls-33" d="M256.54,100.16a4.55,4.55,0,0,1-2.86-.94c-.18-5.39-1.15-30.09-4.57-44.8-2.19-9.38-4.87-35.34-3.2-52.22,4.1,1.06,11.14,2.74,15,3.41a108.61,108.61,0,0,1-1.25,13.47c-1.36,10.26-2.9,21.89.26,35.2,2.59,11,.62,38.64.11,45.07-.64.81-2.16.81-3.51.81Z" transform="translate(230.09 146.04)"/><path class="cls-45" d="M242.79,97.53" transform="translate(230.09 146.04)"/><path class="cls-36" d="M228-.3c.66-.44,4.11-3.8,7-6.69a24.73,24.73,0,0,0,7.25-14.95c.77-7.58-.12-15.42,3.2-21.25,5.29-9.28,14.58-18.5,26.25-16.42a7.52,7.52,0,0,1,3.59,1.52,9.85,9.85,0,0,1,3.27,6.58A49.93,49.93,0,0,1,277-33c-2,7.62-3,14.21-.57,21.88,1.89,5.93,6.7,30.17,5.28,36.38,0,0-20.52,11.33-40.7,1.68.76-11.15,6-44.21,6.22-46.28,1.51,2.29.93,11.14.28,12.88C245.87-2.16,230.29,5.7,230.29,5.7A5.37,5.37,0,0,1,228-.3Z" transform="translate(230.09 146.04)"/><path class="cls-33" d="M257.14-82.58a10.64,10.64,0,0,1,8-1.09A13.89,13.89,0,0,1,274.05-76,12.61,12.61,0,0,1,274-64.83c0,.12-6.51,14.75-7.92,16.41a48.85,48.85,0,0,1-9.7-2.35c.68-1.94,1.28-5.92.42-7.77a6.47,6.47,0,0,1-4.47-.55c-3.2-1.95-2.85-8.12-2.55-11.26A16.14,16.14,0,0,1,257.14-82.58Z" transform="translate(230.09 146.04)"/><path d="M251.45-83.22A15.21,15.21,0,0,1,256-85.59a18.24,18.24,0,0,1,11.18,0,17,17,0,0,1,10.35,9.38c2.07,4.89-.56,10,2.14,14.7a14.62,14.62,0,0,1,.42,13.94,1.07,1.07,0,0,0,.11,1.14,8.44,8.44,0,0,1-1.84,11.79,8.43,8.43,0,0,1-3.74,1.53,1.12,1.12,0,0,0-.25.11c-1.08,6.72-8.58,8.7-14.36,6.56a8.12,8.12,0,0,1-5.38-6.46c-.51-3-.41-6.16-1.22-9.13-.65-2.38-3-5-5.72-4.76a5,5,0,0,1-.93-3.19c.09-3.42,2.64-5.8,5.27-7.62a17.67,17.67,0,0,0,3.44-3.88A4.1,4.1,0,0,1,257.61-63a2.62,2.62,0,0,0,1.94-1.84,1.06,1.06,0,0,0-.75-1.31,1.06,1.06,0,0,0-1,.23c-.49.43-.91.89-1.11,1.08-.42.42-1-.17-.87-.66.3-.82.68-1.67.93-2.52a2.47,2.47,0,0,0-.7-2.73,1,1,0,0,0-.46-.25,28.45,28.45,0,0,1-6.74-2C247.46-73.81,248.32-80.82,251.45-83.22Z" transform="translate(230.09 146.04)"/></g><path class="cls-46" d="M-179.13,454.74h0V430.18c-29.5-15.82-48.59-38.07-50.76-62.93-.12-1.53-.2-3.06-.2-4.61v49.2c0,1.54.08,3.08.2,4.6,2.17,24.85,21.26,47.08,50.76,62.93Z" transform="translate(230.09 146.04)"/><polygon class="cls-47" points="42.25 470.6 42.31 495.15 159.43 563.23 159.65 538.25 42.25 470.6"/><path class="cls-48" d="M-183.25,321.78q-2.34,1.38-4.6,2.74l117.41,67.65L47,324.39C17.9,306.1-23.79,294.65-70.18,294.65-114.27,294.69-154.25,305.05-183.25,321.78Z" transform="translate(230.09 146.04)"/><polygon class="cls-49" points="159.65 538.25 159.72 562.82 318.89 562.82 318.82 538.25 159.65 538.25"/><g class="cls-4"><path class="cls-50" d="M88.73,392.21l.09,24.62c.15-1.67.24-3.34.24-5L89,387.19a49.19,49.19,0,0,1-.26,5" transform="translate(230.09 146.04)"/></g><path class="cls-51" d="M47,324.43C73.18,340.92,89.13,363,89,387.19a49.19,49.19,0,0,1-.26,5C86.44,415.75,68.94,437,41.86,452.59q-2.36,1.37-4.81,2.66l-107.49-63Z" transform="translate(230.09 146.04)"/><polygon class="cls-52" points="159.65 538.25 159.72 562.82 267.21 625.86 267.14 601.3 159.65 538.25"/><g class="cls-5"><path class="cls-53" d="M37.05,455.25v24.62c1.64-.87,3.24-1.75,4.81-2.67,27.08-15.62,44.58-36.82,46.89-60.37l-.08-24.62c-2.3,23.54-19.8,44.75-46.87,60.38-1.58.91-3.18,1.8-4.82,2.66" transform="translate(230.09 146.04)"/></g><path class="cls-7" d="M-70.44,392.21l-108.7,62.52c28.38,15.24,66.39,24.55,108.21,24.55S8.8,470,37.34,454.84Z" transform="translate(230.09 146.04)"/><path class="cls-54" d="M37.34,454.84C8.8,470-29.22,479.28-70.93,479.28s-79.83-9.31-108.21-24.55v24.55c28.38,15.24,66.39,24.56,108.21,24.56S8.8,494.57,37.34,479.41Z" transform="translate(230.09 146.04)"/><path class="cls-55" d="M-187.43,299.7c-26.29,16.42-42.41,38.47-42.54,62.63a40,40,0,0,0,.21,5c2.16,24.84,21.26,47.09,50.75,62.93l108.49-62.64-.49-.29Z" transform="translate(230.09 146.04)"/><polygon class="cls-56" points="51.08 576.32 51.15 600.88 159.64 538.25 159.57 513.68 51.08 576.32"/></g></svg>