<svg xmlns="http://www.w3.org/2000/svg" xmlns:xlink="http://www.w3.org/1999/xlink" viewBox="0 0 242.46 191.07"><defs><style>.cls-1,.cls-11,.cls-13{fill:none;}.cls-2{fill:#efa739;}.cls-3{fill:#e20944;}.cls-4{fill:#f4b289;}.cls-5{clip-path:url(#clip-path);}.cls-6{fill:#fbaa59;}.cls-7{fill:#f47820;}.cls-8{fill:#080000;}.cls-9{fill:#fff;}.cls-10{fill:#f9ddeb;}.cls-11{stroke:#ee6147;stroke-width:0.62px;}.cls-11,.cls-13{stroke-linecap:round;stroke-linejoin:round;}.cls-12{fill:#ff6494;}.cls-13{stroke:#b2d6f7;stroke-width:1.25px;}</style><clipPath id="clip-path"><path class="cls-1" d="M76.13,59.94c-1.68-1.1-3.62,3.89-3.62,3.89s1.5-6.36,0-7-3.7,3.84-3.7,3.84.75-6-1-7S64.66,61,64.66,61s-.22-5.47-2.44-5.21S60,65,60,65,57.31,60.67,56,62.38c-1.09,1.37,1.17,6.21,2.08,8-.08.33-5.87,23.47-9.73,25-5.22,2.08-21.91-8.35-21.91-8.35-21.9,10.08,1.74,25,1.74,25s27.12,3.82,32.68-1,10.78-37.2,10.78-37.2l-.13,0C72.64,71.69,78.19,61.29,76.13,59.94Z"/></clipPath></defs><title>Asset 2</title><g id="Layer_2" data-name="Layer 2"><g id="OBJECTS"><path class="cls-2" d="M237.18,175.87l1.9,14.86s-2.28.76-11.43,0-33.65,0-33.65,0l5.08-27.43Z"/><path class="cls-3" d="M25.72,159S2.07,172.25,2.07,179.9c0,11.4,30.6,10.83,30.6,10.83L57,145.13H26.41Z"/><path class="cls-4" d="M76.13,59.94c-1.68-1.1-3.62,3.89-3.62,3.89s1.5-6.36,0-7-3.7,3.84-3.7,3.84.75-6-1-7S64.66,61,64.66,61s-.22-5.47-2.44-5.21-1.43,8.86-1.43,8.86-3.48-4-4.82-2.25c-1.09,1.37,1.17,6.21,2.08,8-.08.33-5.87,23.47-9.73,25-5.22,2.08-21.91-8.35-21.91-8.35-21.9,10.08,1.74,25,1.74,25s27.12,3.82,32.68-1,10.78-37.2,10.78-37.2l-.13,0C72.64,71.69,78.19,61.29,76.13,59.94Z"/><g class="cls-5"><path class="cls-6" d="M40,90.19l.7,26.77S6.94,96.8,9.72,87.41,40,90.19,40,90.19Z"/></g><path class="cls-7" d="M34.06,99.58c2.61,3.82,4.87,15.65,5.74,21.56s2.6,30.25,2.6,30.25L2.07,179.9l-1.21-32s-4.93-47.52,8.86-60.5S31.45,95.75,34.06,99.58Z"/><path class="cls-4" d="M36.41,71.87l4.54-.8a17.91,17.91,0,0,0,0-2.43l3.5-2.24-5.19-5c-2.36-5.89-6.72-9.69-12.41-8.15C20.31,55,14.49,63.2,16.5,70.6s11.08,11.23,17.62,9.46A8.62,8.62,0,0,0,40,75.13Z"/><ellipse class="cls-8" cx="36.45" cy="64.05" rx="0.7" ry="1.51" transform="translate(-17.71 14.07) rotate(-17.66)"/><path class="cls-4" d="M29.19,80.11s-.69,6.14-.69,8.23.58,6.49.58,6.49-3.83-6-8-7.65c-5.23-2-7.42-3-7.42-3s4.75-9.5,4.75-10.19S29.19,80.11,29.19,80.11Z"/><path class="cls-8" d="M34.38,47l6.29-2.28s-3.42,8.11-5.53,9.92-9.08,1.15-8.38,8.8c.32,3.53-3.13,8.64-3.13,8.64l-5.28,3.85S12.16,64,11.85,60.52C11.7,59,13.19,53.3,17.37,50.9,22.54,47.93,30.9,48.23,34.38,47Z"/><ellipse class="cls-4" cx="24.98" cy="66.6" rx="2.9" ry="4.29" transform="translate(-19.03 10.72) rotate(-17.66)"/><path class="cls-9" d="M64.42,104.45c-1.15,3.11-2.36,5.53-3.59,6.6s-4.1,1.89-7.41,2.21L24,190.73H194l20.86-86.28Z"/><polygon class="cls-10" points="60.14 124.61 44.84 146.87 97.69 146.87 107.77 125.94 60.14 124.61"/><path class="cls-3" d="M107.77,43.83c3.71-3.24,16.43-8.34,26.06-8.23S163.4,40.82,165.49,45c.61,1.23,6.38,16.44,7.65,24,.31,1.88-17,3.86-16.69,5.91,2.84,17.76,19,31.06,19,31.06l-88.78-1.16S104.06,47.08,107.77,43.83Z"/><polygon class="cls-4" points="97.81 69.33 114.26 77.44 104.53 104.79 87.84 103.64 97.81 69.33"/><rect class="cls-10" x="169.23" y="111.4" width="23.94" height="45.9"/><polygon class="cls-4" points="128.63 26.91 128.87 36.41 132.81 44.64 143.47 37.11 141.85 25.87 128.63 26.91"/><path class="cls-4" d="M144,19.41c0,7.66-7.75,13.74-14.52,13.74s-10-6.08-10-13.74,3.24-14,10-14S144,11.74,144,19.41Z"/><path class="cls-8" d="M123.32,9.13c-.61,2.44.65,6-3.87,7.48s-5.35-5-5.35-5,3.08,2.24,2.8-.84S114.38-2.88,123,.75s15.36-1.4,19.55,1.67,6.15,9.5,5,12-4.75,10-4.75,10S139,20.58,139,18.63s-3.07,1.95-5,.83.93-9.49-2.43-11.54c-1.92-1.18-4.84,2.23-4.84,2.23S124.44,4.66,123.32,9.13Z"/><path class="cls-4" d="M142.32,17.79c0,1.69-1.38,5-3.08,5s-3.07-3.34-3.07-5a3.08,3.08,0,1,1,6.15,0Z"/><ellipse class="cls-8" cx="122.76" cy="18.63" rx="0.84" ry="1.4"/><ellipse class="cls-8" cx="130.3" cy="18.63" rx="0.84" ry="1.4"/><polyline class="cls-11" points="126.11 18.35 125.28 25.05 127.51 25.05"/><path class="cls-9" d="M124.44,27l5.58-.56s-1.39,3.35-3.35,3.07S124.44,27,124.44,27Z"/><path class="cls-4" d="M202.91,72.18s-19.88,34-30.58,34S155.06,74.1,155.06,74.1l17.69-4.39,2.88,12.21,15.76-17.69s2.47-8,4.39-8.5.55,4.39.55,4.39,5.21-6.58,6.58-6-.55,5.21-.55,5.21,2.74-4.11,4.66-3.56-1.64,5.48-1.64,5.48,4.38-3.29,5.21-1.37S207,66.15,207,66.15s2.74-1.92,3.29.27S202.91,72.18,202.91,72.18Z"/><path class="cls-4" d="M212.34,71.1c-6.7,0-9.93,6.21-10,13.76l-1.9,5.85,2.65.2a14.41,14.41,0,0,0,1,2.77c2-.29,4.47-.85,5.36-1.92a15.8,15.8,0,0,1-3.7,4.33,8.61,8.61,0,0,0,6.57,2.77c6.78,0,14.53-6.07,14.53-13.74S219.12,71.1,212.34,71.1Z"/><rect class="cls-6" x="74.05" y="74.2" width="57.37" height="40.68"/><rect class="cls-6" x="99.77" y="110.07" width="57.37" height="4.81"/><circle class="cls-9" cx="100.47" cy="94.02" r="5.79"/><ellipse class="cls-8" cx="206.76" cy="85.32" rx="0.7" ry="1.51"/><path class="cls-12" d="M208.32,121.65c-2.61,3.83-4.35,11.3-5.21,17.22s.16,30.53.16,30.53l35.81,21.33s9.81-69.31-4-82.29S210.93,117.83,208.32,121.65Z"/><path class="cls-4" d="M215.68,98.18s.93,6,.93,8.12-2.78,6.26-2.78,6.26,6.54-5.36,9.44-6.2c5.39-1.57,7-1.45,7-1.45s-5.79-12.52-5.79-13.22S215.68,98.18,215.68,98.18Z"/><path class="cls-8" d="M225.88,59.13c-7.64-1.66-10.75,6.19-8.76,10.86a14.12,14.12,0,0,0-7.58,0c-7.21,2.29-11.46,13.08-6.61,12.52,10-1.16,10.78-3.48,10.78-3.48s5,15,10.78,12.63c1.16-.46,4.17-4.17,3.71-12.28-.13-2.19-1.87-4.47-4.38-6.3C231.32,71.73,235.74,61.27,225.88,59.13Z"/><ellipse class="cls-4" cx="218.46" cy="84.28" rx="2.9" ry="4.29"/><path class="cls-4" d="M18.76,95.75c8.59-2.11,16.11,36.63,16.11,36.63l28.05-8.11,5.56,12.51S35,156.72,26.06,154.17C18,151.86,4.16,99.35,18.76,95.75Z"/><line class="cls-13" x1="63.61" y1="115.92" x2="80.65" y2="132.26"/><path class="cls-6" d="M14.24,129.83l19.12-5.91S28.84,89.84,16,93,14.24,129.83,14.24,129.83Z"/><path class="cls-4" d="M62.92,124.27s3.82-5.92,8-4.18a14.38,14.38,0,0,1,7.65,7.3c1.39,2.79-3.83,9-10.09,9.39S62.92,124.27,62.92,124.27Z"/><path class="cls-12" d="M224.26,110.47c-8.59-2.11-16.23,39.64-16.23,39.64L180,142l-5.56,12.52s33.5,19.94,42.42,17.39C224.93,169.59,238.86,114.06,224.26,110.47Z"/><path class="cls-4" d="M175.46,151.73s-5.22-2.88-7-5.91c-2.78-4.87-.7-13.21.69-11.13s6.26,5.22,6.26,5.22.7-4.87,2.09-3.48S180,142,180,142Z"/><path class="cls-11" d="M63.61,65.16s5.57-1.74,9.39,1"/><path class="cls-11" d="M197.83,62.38s4.86,4.52,5.91,5.91"/></g></g></svg>