<svg id="OBJECTS" xmlns="http://www.w3.org/2000/svg" viewBox="0 0 419.74 271.66"><defs><style>.cls-1{fill:#f2f2f2;}</style></defs><title>footer-map</title><path class="cls-1" d="M98.94,171.1a12.23,12.23,0,0,0-5.56-.72c-1.65,1.56-4.74,2-7,2.16a33.72,33.72,0,0,0-8.06-5.87c-1.94-1-4.2-2-4.8-4.12-1-3.34-6.68-4.69-10.08-3.92-4.3-1.17-9.21.33-12.67,3.15-1.52,1.24.19,4.33,1.51,5.79s2.95,3.1,2.65,5a11.56,11.56,0,0,1-5.54.78,9.18,9.18,0,0,0-3.14.06c-1,.31-1.88,1.4-1.49,2.38-.69,1.2-1.52,1.83-.72,3,.63.88,1.69,1.6,1.68,2.68a2.42,2.42,0,0,1-1.5,1.94,23.59,23.59,0,0,0-2.35,1c-2.27,1.44-2.29,4.68-2,7.36,1.47,1.8,1.7,4.9,1,7.11a4.12,4.12,0,0,0-.4,2.57c.35.95,1.47,1.33,2.45,1.58,2.1.54,4.56,1,6.23-.37,4.4-3.64,11.22-1.75,16.79-.5,1.92.43,3.95,1.14,5.07,2.76,1.5,2.16.86,5.16-.37,7.48s-3,4.38-3.79,6.89a19,19,0,0,0-.31,7.33c.26,3,.57,6.2,2.33,8.68A16.7,16.7,0,0,1,71.64,245c-.12,2.55-1,5.06-.78,7.6.42,4.61,4.4,8.06,8.47,10.28a19.71,19.71,0,0,1,9.37,10.89c.74,2.31,1,4.77,1.61,7.11a20.23,20.23,0,0,0,6.85,10.36c2.4,1.91,6.35,2.59,9.36,3.14,1.57.28,3.26.51,4.44,1.58.54.49.93,1.13,1.46,1.65,2.52,2.49,7.16,1.47,9.71,3.93a23.64,23.64,0,0,1,1.69,2.16,7.71,7.71,0,0,0,6.54,2.76c-.57,1.87,1.68,4.07,1,5.9-.56,1.48-2.24,2.13-3.4,3.2-2,1.86-2.33,5-1.46,7.63A20.09,20.09,0,0,0,131,330c3.41,3.78,7.5,5.61,11.19,9.11,3.43,3.23,4.21,8.47,3.45,13.12s-2.79,9-4.24,13.46c-2.72,8.37-3.38,17.57-.78,26s8.68,15.9,16.84,19.21a2.66,2.66,0,0,0,2.67-1,2.41,2.41,0,0,0,.34-2.71c-1.47-2.71-4.09-5-6-7.44a4,4,0,0,1-1.16-2.59c.09-1.09,1-1.87,1.71-2.71a7,7,0,0,0,1.57-4.59c0-1.55-.95-3.06-.9-4.61a4,4,0,0,1,2.36-3.69,20.56,20.56,0,0,0,2.06-.49c2.12-.93,1.78-4.17,3.32-5.92a8.1,8.1,0,0,1,2.73-1.67c4.11-2,7.49-5.89,7.87-10.43.3-3.64-1-8.05,1.74-10.43,2.53-2.19,6.43-.74,9.74-1.27,1.34-.22,2.24-1.47,2.87-2.68a6.32,6.32,0,0,0,.47-4c-.28-1.66-1-3.27-.83-4.94.22-2.35,2.06-4.15,3.48-6a20,20,0,0,0,3.51-7.51c.71-3.1-1.28-6.77-4.06-8.31s-6.11-1.59-9.3-1.69-6.55-.33-9.15-2.16c-2.38-1.69-3.72-4.44-5.61-6.67-3.17-3.75-7.79-5.92-12.26-8-1.68-.78-3.57-1.57-5.34-1a16.91,16.91,0,0,1-2,.8c-2,.38-3.56-1.48-5.33-2.44-3.67-2-8.94.89-9.26,5-1.9.66-5.41.09-6.49-1.6-.77-1.22-1.08-2.92-2.42-3.48-.71-.29-1.6-.18-2.18-.69-1-.85-.21-2.38,0-3.64.27-2-1.24-3.95-3.08-4.83a15,15,0,0,0-6-1,14.09,14.09,0,0,1-6-1.07c-3.55-1.78-5-6.6-3.45-10.26a10.22,10.22,0,0,1,9.61-5.79c3.9.11,8,2.95,8,6.85,0,1,1.59,1.1,2.45.61a3.59,3.59,0,0,0,1.52-2.44c.21-1,.24-2,.53-2.92a5.52,5.52,0,0,1,5.18-3.76c2.38,0,4.06-2.35,5.75-4a6.81,6.81,0,0,0,2-6.5c-.36-1.24-1.19-2.48-.78-3.7a3.68,3.68,0,0,1,2.24-1.9,19,19,0,0,1,8.17-1.46c2.43.1,3.68-1.43,4.92-3.52.89-1.51,1.29-3.42,2.72-4.44,2.13-1.54,5.08-.18,7.71-.36a6.72,6.72,0,0,0,5.73-8.23,18.81,18.81,0,0,0-2.74-4.72,20.16,20.16,0,0,1-2.84-6.94c-.46-2.26-.59-4.76-2.08-6.52-2.33.11-5.16,0-7.24,1.11-.41-2.37-.86-4.85-2.33-6.77s-4.28-3-6.36-1.79-2.47,4-2.09,6.31,1.34,4.57,1.27,6.93-1.7,5-4.05,4.89a4.86,4.86,0,0,1-3.19-1.65c-1.24-1.25-2.22-2.85-3.81-3.6a19.12,19.12,0,0,0-3.93-.86,8.49,8.49,0,1,1,4.57-16.32c5.27-1.93,7.41-8.58,5.31-13.79s-7.76-8.43-13.36-8.68a24.28,24.28,0,0,1-4.91-.33c-4.5-1.14-6.86-6.09-10.77-8.58C107.75,170.61,101.79,172.18,98.94,171.1Z" transform="translate(-39.71 -139.26)"/><path class="cls-1" d="M169.89,155c-1.73,2.64.2,6.24,2.73,8.15s5.67,3,7.66,5.49c3.21,3.94,2.3,9.77.54,14.53s-4.23,9.59-3.62,14.63a16.52,16.52,0,0,0,2.51,6.67c1.23,2,2.9,3.86,5.15,4.41,2.87.69,5.77-1,7.95-3s4.06-4.41,6.7-5.7c3.82-1.87,8.72-1.18,12-3.82,4.11-3.28,3.5-9.52,4.63-14.66,1.9-8.62,9.36-15,12.28-23.31a14.44,14.44,0,0,0,.92-5.07c-.13-5.58-4.82-10.21-10.09-12.07-6.49-2.29-13-.85-19.71-1.16-3.63-.16-7.63-1.69-11.14-.22-5.41,2.27-3.82,7.6-7.36,10.77C178,153.41,172.35,151.26,169.89,155Z" transform="translate(-39.71 -139.26)"/><path class="cls-1" d="M316,188.81c-3.1-3-8.16-.09-11.38,2.79L295,200.22c-2.4,2.15-5,4.4-8.17,4.93s-7-1.48-7.15-4.71c2.18-2.05,6.52,1,8.51-1.24,1.76-2-.85-4.82-3.14-6.14-4.21-2.43-8.55-4.91-13.35-5.56s-10.26.95-12.76,5.11c-2.14,3.56-1.74,8.21-3.86,11.78-1.32,2.24-3.51,3.84-5,6s-2.15,5.32-.31,7.15c1.49,1.49,4,1.49,5.49,3,1.13,1.16,1.52,3.08,3,3.71,1.7.73,3.62-.91,4-2.71s-.17-3.65-.46-5.48c-.89-5.45,1.85-12.15,7.31-12.92,1.25,0,1.66,1.82,1.1,2.93s-1.64,1.89-2.23,3a4.08,4.08,0,0,0,2.45,5.61c2.37.62,6.32.12,6,2.55s-5.1.88-6.64,3c-.91,1.23-.11,3-.13,4.48,0,3-3.35,4.95-6.34,5.16s-6-.67-9-.4-6.24,2.38-6.1,5.38a78,78,0,0,1-12.84,4.69c.19,3.25,6.31,3.55,6.28,6.8,0,1.95-2.42,3-4.37,2.82s-3.9-.92-5.79-.42c-3.26.86-4.4,5.44-2.59,8.28s5.51,4,8.86,3.71a5,5,0,0,0,3.63-1.52c.81-1,.87-2.39,1.21-3.63a8.17,8.17,0,0,1,5.94-5.71c1.59-.37,3.53-.39,4.39-1.78a12.94,12.94,0,0,1,6.6,9.9c1.16,1.51,3.77-.44,3.51-2.32s-1.92-3.21-3.25-4.58-2.43-3.49-1.39-5.09a18.48,18.48,0,0,1,12.59,13.53,3.53,3.53,0,0,0,2.11-5.18c.67-1.51,3.13-.64,3.84.85s.65,3.33,1.66,4.63c2.93,3.78,10.77-.83,13.17,3.31,1.68,2.89-2.11,6.27-5.46,6.16s-6.4-2-9.73-2.34c-3.68-.37-7.25,1.21-10.92,1.64s-8.2-1-9-4.62a8.7,8.7,0,0,0-.64-2.9c-.73-1.21-2.38-1.49-3.78-1.33-6.11.69-12.31,7-17.35,3.48-3.23,6.28-11.11,8.64-15.51,14.16-4.79,6-4.39,15.28.26,21.39s12.86,9,20.48,8c1.75-.22,3.59-.61,5.21.06s2.64,2.23,4,3.33,3.57,1.66,4.69.33a10.88,10.88,0,0,0,.92,9.79c2,3.09,5.69,5.54,5.62,9.22,0,1.9-1.15,3.6-1.67,5.43-2.37,8.4,7.55,15.25,9.12,23.83.42,2.31.42,5.09,2.37,6.39a6.2,6.2,0,0,0,3.1.8c5.53.36,12.49-1.29,13.64-6.71a25.27,25.27,0,0,0,.14-4.69,13.4,13.4,0,0,1,7.2-11.3,12.29,12.29,0,0,0,3.28-1.9c2-2,1.56-5.29.53-7.9s-2.51-5.23-2.15-8c.57-4.46,5.36-6.82,9-9.47a25.77,25.77,0,0,0,10.15-17c-5,1.58-11.2,2.93-15-.69a15.06,15.06,0,0,1-2.94-4.6q-3.56-7.44-7.12-14.87a2.73,2.73,0,0,1-.37-2.08c.69-1.83,3.45-.3,4.52,1.35a159.47,159.47,0,0,1,10.21,18.4,40.8,40.8,0,0,0,17-7.39c1.59-1.18,3.17-2.6,3.71-4.52s-.45-4.36-2.41-4.7a8.41,8.41,0,0,0-2.29.14c-4.62.48-8.63-3-11.65-6.56,2.07-2.32,5.83-1,8.65.32a64.7,64.7,0,0,0,15.91,4.94,13.6,13.6,0,0,1,4,1.07,10.71,10.71,0,0,1,2.32,1.75,47.43,47.43,0,0,1,13.38,21.71c2.41.54,4.11-2.44,4.3-4.91s-.1-5.32,1.68-7c1.4-1.35,3.69-1.54,4.92-3,1.54-1.9.74-5.11,2.54-6.77,2.26-2.08,5.92.46,7.12,3.29s1.65,6.3,4.19,8l4.11-.59a31.57,31.57,0,0,0,6.72,19.28c2.34-1.23,1.28-4.79-.18-7s-2.9-5.49-.82-7.13c2.89,0,4.23,4,7,4.7s5.28-2.65,4.78-5.47-2.94-4.91-5.45-6.31c-2.25-2.46,1-6.4,4.29-7s6.89.38,9.88-1.11c3.57-1.8,4.77-6.52,3.95-10.43s-3.13-7.32-5-10.84c-1.62-3-2.42-7.7.73-9a7.62,7.62,0,0,1,2.7-.38c11.91-.5,21.77-13.12,19.38-24.8a11.85,11.85,0,0,0-2.87-6c-2.83-2.89-7.64-3.57-9.76-7-2.59-4.22.62-9.82,4.76-12.53s9.21-3.89,13.08-7c1,0,1.58-1,1.77-2.05a9.7,9.7,0,0,0-.05-1.94,4.13,4.13,0,0,1,7.62-2.24c1.17,1.85.7,4.3-.15,6.32s-2.06,4-2.28,6.14,1,4.74,3.2,5c2.66.3,4.38-2.86,4.55-5.54s-.34-5.59,1.1-7.86c2.18-3.44,8.22-4.24,8.37-8.32.13-3.29-4-5.22-4.76-8.44a12.64,12.64,0,0,1,.12-4,15,15,0,0,0-19.66-15.68c-1.54.5-3,1.25-4.56,1.66a22.06,22.06,0,0,1-7.12.29l-12.79-.88c-3.81-.26-7.85-.48-11.24,1.3-4.94,2.6-7.74,9.08-13.29,9.75-3.91.48-7.39-2.23-11.06-3.68a18.41,18.41,0,0,0-18,2.78c-1.86-.95-1.29-3.71-1.94-5.69s-2.9-3.31-5.07-3.5a16.36,16.36,0,0,0-6.38,1.14c-4.46,1.46-9.64,3.94-10.05,8.61-.12,1.31.18,2.71-.38,3.91-.78,1.71-2.92,2.27-4.24,3.6-1.59,1.59-1.84,4-1.9,6.28s-.09,4.64-1.38,6.47S317.62,190.38,316,188.81Z" transform="translate(-39.71 -139.26)"/><path class="cls-1" d="M399.4,317.78a9.64,9.64,0,0,0,4.39,3.07c2,.86,4.47,1.53,6.29.3,1.24-.84,5.39-6.57,5.67-7.81.56-2.4-.24-2.26-2.63-2.74C409.24,309.81,395,311.32,399.4,317.78Z" transform="translate(-39.71 -139.26)"/><path class="cls-1" d="M385.31,317a32.64,32.64,0,0,0,28.44,16.56c.8-.82-.38-2.07-1.43-2.51-2.91-1.23-6-1.84-9-2.89s-5.93-2.62-7.69-5.24a32.3,32.3,0,0,1-1.85-3.49c-1.75-3.37-8.59-11.86-12.86-9.83C382,311.91,384,314.49,385.31,317Z" transform="translate(-39.71 -139.26)"/><path class="cls-1" d="M415.43,340.49c-1.48,1.66-2.86,3.68-5,4.19-1.28.31-2.64,0-3.92.32-3.75.87-4.63,5.92-3.77,9.68s2.61,7.71,1.21,11.3a6.16,6.16,0,0,0-.68,2.21,3.1,3.1,0,0,0,1.4,2.31c3.43,2.57,8.3.72,12.07-1.32s8.35-4.25,12.11-2.2c4,2.2,4.41,7.77,6.9,11.64,2.18,3.39,7,5.43,10.4,3.26a11.72,11.72,0,0,0,2.85-2.94l5.12-6.69c2.25-2.95,4.59-6.09,5-9.78.84-7.12-5.47-12.84-11.17-17.2a17.33,17.33,0,0,0-1.79-6.59c-2.32-4-7.06-4.38-5.77,1.23-3.72.12-6.72-5.39-10.85-5.92C424.51,333.34,418.63,336.91,415.43,340.49Z" transform="translate(-39.71 -139.26)"/></svg>