<svg id="cd68bca6-bc92-410b-b8ea-e7f670dd6faa" data-name="Layer 1" x="0" y="0"  xmlns="http://www.w3.org/2000/svg" viewBox="0 0 146.47 149.57"><defs><style>.e7837401-2e8a-4b69-8855-38a61f3b037a{fill:#e20144;}.fec4744b-d71a-4c2b-aca2-ebb661a2a94a{fill:#fff;}</style></defs><title>icon</title><path class="e7837401-2e8a-4b69-8855-38a61f3b037a" d="M63.34,150.39a50.1,50.1,0,0,0,6.37-.17c11.36-1,25.62-4.35,39-13.49,29.55-20.17,43.33-60.78,36.5-104.25a40.79,40.79,0,0,0-6.72-17.12C133.57,8.29,125,.85,110.52.85,90.47.85,64.43,11.36,54,16,49.91,17.89.49,37.93.49,58.55c0,10.35,8.64,14.36,15.42,35.56C22.53,114.8,20.54,148.76,63.34,150.39Z" transform="translate(-0.49 -0.85)"/><path class="fec4744b-d71a-4c2b-aca2-ebb661a2a94a" d="M61.65,93.21a9.83,9.83,0,0,0-2.22-6.79q-2.22-2.51-7.82-4.92-11.46-4-17.19-9.07T28.69,58.22a18.41,18.41,0,0,1,6.67-14.71q6.66-5.68,17-5.68t17.06,6.34a20.65,20.65,0,0,1,6.36,16l-.1.3H61.76a12.62,12.62,0,0,0-2.53-8.17,8.61,8.61,0,0,0-7.12-3.13,8.63,8.63,0,0,0-6.68,2.6A9.26,9.26,0,0,0,43,58.28a7.62,7.62,0,0,0,2.67,6Q48.39,66.6,55,69.48q10.45,3.54,15.73,9T76,93.1q0,9.54-6.36,15t-16.91,5.4a28.34,28.34,0,0,1-18.2-6.14q-7.7-6.14-7.44-17.59l.1-.3h14q0,6.81,2.88,9.79t8.68,3q4.55,0,6.74-2.42A9.42,9.42,0,0,0,61.65,93.21Z" transform="translate(-0.49 -0.85)"/><path class="fec4744b-d71a-4c2b-aca2-ebb661a2a94a" d="M95.82,99.77c1.47,1.61,3.71,2.42,6.74,2.42q5.81,0,8.69-3t2.87-9.79h14l.11.3q.24,11.46-7.45,17.59a28.32,28.32,0,0,1-18.2,6.14q-10.55,0-16.91-5.4t-6.36-15q0-9.22,5.28-14.66t15.72-9q6.61-2.88,9.29-5.22a7.62,7.62,0,0,0,2.67-6,9.25,9.25,0,0,0-2.39-6.54,9.78,9.78,0,0,0-13.81.53,12.61,12.61,0,0,0-2.52,8.17H79.6l-.1-.3a20.58,20.58,0,0,1,6.36-16q6.56-6.35,17.06-6.34,10.35,0,17,5.68a18.44,18.44,0,0,1,6.66,14.71q0,9.15-5.73,14.21T103.67,81.5q-5.6,2.41-7.82,4.92a9.83,9.83,0,0,0-2.22,6.79A9.42,9.42,0,0,0,95.82,99.77Z" transform="translate(-0.49 -0.85)"/></svg>