<svg id="c8bf556e-d6a6-4853-8e92-8170af3759a7" data-name="Layer 1" xmlns="http://www.w3.org/2000/svg" viewBox="0 0 146.47 149.57"><defs><style>.a5a9fef0-7934-457f-b487-6c3a25e18c57{fill:#fff;}.\37 264bbbf-f902-442e-b768-2decab446d02{fill:#e20144;}</style></defs><title>icon-light</title><path class="a5a9fef0-7934-457f-b487-6c3a25e18c57" d="M63.34,149.88a46.66,46.66,0,0,0,6.37-.17c11.36-1,25.62-4.34,39-13.49,29.55-20.16,43.33-60.77,36.5-104.25a40.79,40.79,0,0,0-6.72-17.12C133.57,7.79,125,.35,110.52.35c-20,0-46.09,10.5-56.51,15.19C49.91,17.38.49,37.43.49,58.05.49,68.39,9.13,72.4,15.91,93.6,22.53,114.29,20.54,148.26,63.34,149.88Z" transform="translate(-0.49 -0.35)"/><path class="7264bbbf-f902-442e-b768-2decab446d02" d="M61.65,92.7a9.85,9.85,0,0,0-2.22-6.79C58,84.25,55.35,82.6,51.61,81q-11.46-4-17.19-9.06T28.69,57.72A18.42,18.42,0,0,1,35.36,43q6.66-5.67,17-5.68t17.06,6.34a20.66,20.66,0,0,1,6.36,16l-.1.3H61.76a12.67,12.67,0,0,0-2.53-8.18,8.63,8.63,0,0,0-7.12-3.13,8.63,8.63,0,0,0-6.68,2.6A9.28,9.28,0,0,0,43,57.77a7.62,7.62,0,0,0,2.67,6Q48.39,66.09,55,69q10.45,3.52,15.73,9T76,92.6q0,9.54-6.36,14.94t-16.91,5.4a28.33,28.33,0,0,1-18.2-6.13q-7.7-6.14-7.44-17.6l.1-.3h14q0,6.81,2.88,9.79t8.68,3q4.55,0,6.74-2.43A9.4,9.4,0,0,0,61.65,92.7Z" transform="translate(-0.49 -0.35)"/><path class="7264bbbf-f902-442e-b768-2decab446d02" d="M95.82,99.26c1.47,1.62,3.71,2.43,6.74,2.43q5.81,0,8.69-3t2.87-9.79h14l.11.3q.24,11.46-7.45,17.6a28.32,28.32,0,0,1-18.2,6.13q-10.55,0-16.91-5.4T79.29,92.6q0-9.24,5.28-14.67t15.72-9q6.61-2.88,9.29-5.23a7.62,7.62,0,0,0,2.67-6,9.27,9.27,0,0,0-2.39-6.54,9.78,9.78,0,0,0-13.81.53,12.66,12.66,0,0,0-2.52,8.18H79.6l-.1-.3a20.59,20.59,0,0,1,6.36-16q6.56-6.33,17.06-6.34,10.35,0,17,5.68a18.44,18.44,0,0,1,6.66,14.72q0,9.14-5.73,14.21T103.67,81c-3.73,1.61-6.34,3.26-7.82,4.92a9.85,9.85,0,0,0-2.22,6.79A9.4,9.4,0,0,0,95.82,99.26Z" transform="translate(-0.49 -0.35)"/></svg>