<?xml version="1.0" encoding="utf-8"?>
<!-- Generator: Adobe Illustrator 22.1.0, SVG Export Plug-In . SVG Version: 6.00 Build 0)  -->
<svg version="1.1" id="Layer_1" xmlns="http://www.w3.org/2000/svg" xmlns:xlink="http://www.w3.org/1999/xlink" x="0px" y="0px"
	 viewBox="0 0 463 98.2" width="463" height="98.2" style="enable-background:new 0 0 463 98.2;" xml:space="preserve">
<style type="text/css">
	.st0{fill:#E20144;}
	.st1{fill:#FFFFFF;}
	.st2{fill:#1A171B;}
</style>
<g>
	<path class="st0" d="M41.3,98.2c1.4,0.1,2.8,0,4.2-0.1c7.5-0.7,16.8-2.9,25.6-8.9c19.4-13.3,28.5-39.9,24-68.5
		c-0.6-4-2.1-7.9-4.4-11.2C87.4,4.9,81.8,0,72.3,0C59.1,0,42,6.9,35.2,9.9C32.5,11.2,0,24.3,0,37.9c0,6.8,5.7,9.4,10.1,23.4
		C14.5,74.8,13.2,97.2,41.3,98.2z"/>
	<path class="st1" d="M40.2,60.7c0.1-1.6-0.4-3.2-1.5-4.5c-1-1.1-2.7-2.2-5.1-3.2c-5-1.8-8.8-3.7-11.3-6c-2.5-2.2-3.8-5.3-3.8-9.3
		c-0.1-3.7,1.5-7.3,4.4-9.7c2.9-2.5,6.6-3.7,11.2-3.7s8.3,1.4,11.2,4.2c2.9,2.7,4.4,6.6,4.2,10.5l-0.1,0.2h-9.1
		c0.1-1.9-0.5-3.8-1.7-5.4c-1.1-1.4-2.9-2.2-4.7-2.1c-1.6-0.1-3.2,0.5-4.4,1.7c-1.1,1.2-1.6,2.7-1.6,4.3c0,1.5,0.6,3,1.8,3.9
		c1.2,1,3.2,2.2,6.1,3.4c4.6,1.6,8,3.5,10.3,5.9s3.5,5.6,3.5,9.6c0,4.2-1.4,7.5-4.2,9.9c-2.8,2.4-6.5,3.6-11.1,3.5
		c-4.3,0.1-8.6-1.3-12-4c-3.4-2.7-5-6.5-4.9-11.6l0.1-0.2h9.2c0,3,0.6,5.1,1.9,6.4c1.3,1.3,3.2,2,5.7,2c2,0,3.5-0.5,4.4-1.6
		C39.8,63.8,40.3,62.2,40.2,60.7z"/>
	<path class="st1" d="M62.6,65c1,1.1,2.4,1.6,4.4,1.6c2.5,0,4.4-0.7,5.7-2c1.3-1.3,1.9-3.5,1.9-6.4h9.2l0.1,0.2
		c0.1,5-1.5,8.9-4.9,11.6c-3.4,2.7-7.6,4.1-12,4c-4.6,0-8.3-1.2-11.1-3.5c-2.8-2.4-4.2-5.7-4.2-9.9c0-4,1.2-7.2,3.5-9.6
		S61,46.6,65.6,45c2.9-1.3,4.9-2.4,6.1-3.4c1.2-1,1.8-2.4,1.8-3.9c0.1-1.6-0.5-3.1-1.6-4.3c-2.6-2.4-6.7-2.3-9.1,0.3
		c-1.2,1.5-1.7,3.4-1.7,5.4H52l-0.1-0.2c-0.2-3.9,1.3-7.8,4.2-10.5c2.9-2.8,6.6-4.2,11.2-4.2c4.5,0,8.3,1.2,11.2,3.7
		c2.9,2.4,4.5,5.9,4.4,9.7c0,4-1.3,7.1-3.8,9.3c-2.5,2.2-6.3,4.2-11.3,6.1c-2.5,1.1-4.2,2.1-5.1,3.2c-1,1.3-1.5,2.8-1.5,4.5
		C61.1,62.2,61.6,63.8,62.6,65z"/>
</g>
<g>
	<g>
		<path class="st0" d="M131.6,59.9c0.1-1.5-0.4-3-1.4-4.1c-1.4-1.3-3-2.3-4.7-3c-4.6-1.6-8.1-3.5-10.4-5.5s-3.5-4.9-3.5-8.6
			c-0.1-3.4,1.4-6.7,4-8.9c2.9-2.4,6.6-3.6,10.3-3.4c3.9-0.2,7.6,1.2,10.4,3.9c2.6,2.5,4,6,3.9,9.7l-0.1,0.2h-8.4
			c0.1-1.8-0.4-3.6-1.5-5c-2.2-2.4-6-2.5-8.4-0.3c0,0,0,0,0,0c-1,1.1-1.5,2.5-1.4,4c0,1.4,0.6,2.7,1.6,3.6c1.7,1.3,3.6,2.4,5.6,3.2
			c4.2,1.4,7.4,3.2,9.5,5.4c2.2,2.4,3.4,5.6,3.2,8.9c0.2,3.5-1.2,6.8-3.9,9.1c-2.6,2.2-6,3.3-10.3,3.3c-4,0.1-7.9-1.2-11-3.7
			c-3.1-2.5-4.6-6-4.5-10.7l0.1-0.2h8.5c0,2.8,0.6,4.7,1.8,5.9c1.4,1.3,3.3,2,5.3,1.8c1.5,0.1,3-0.4,4.1-1.5
			C131.3,62.8,131.7,61.4,131.6,59.9z"/>
		<path class="st0" d="M173.7,57.2l0.1,0.2c0,4.9-1.1,8.6-3.5,11.1s-5.9,3.7-10.5,3.7c-4.6,0-8.3-1.4-11.1-4.2
			c-2.8-2.8-4.1-6.8-4.1-12V42.6c0-5.2,1.3-9.2,4-12c2.7-2.8,6.2-4.3,10.7-4.3c4.7,0,8.3,1.3,10.7,3.8c2.4,2.5,3.7,6.3,3.8,11.2
			l-0.1,0.2h-8.4c0.1-2.9-0.3-5-1.2-6.3c-0.9-1.3-2.5-1.9-4.8-1.9c-1.8-0.1-3.5,0.8-4.5,2.3c-1,1.5-1.6,3.8-1.6,6.9v13.4
			c0,3.1,0.6,5.5,1.7,7c1.1,1.5,3,2.4,4.9,2.3c2.1,0,3.6-0.6,4.4-1.8c0.8-1.2,1.2-3.3,1.1-6.2L173.7,57.2z"/>
		<path class="st0" d="M209.1,55.5c0,5.2-1.4,9.3-4.3,12.2c-2.8,2.9-6.6,4.4-11.3,4.4c-4.7,0-8.5-1.5-11.3-4.4
			c-2.8-2.9-4.2-7-4.2-12.2V43.1c0-5.2,1.4-9.3,4.2-12.3c2.8-3,6.6-4.5,11.3-4.5c4.2-0.2,8.3,1.4,11.3,4.5c2.8,3,4.3,7.1,4.3,12.3
			V55.5z M200.4,43c0-3.2-0.6-5.6-1.8-7.2c-1.2-1.6-3.1-2.6-5.2-2.4c-2-0.1-3.9,0.8-5.1,2.4c-1.1,1.6-1.7,4-1.7,7.2v12.6
			c0,3.2,0.6,5.7,1.8,7.3c1.2,1.6,3.1,2.6,5.1,2.4c2,0.1,3.9-0.8,5.1-2.4c1.2-1.6,1.8-4,1.8-7.3L200.4,43z"/>
		<path class="st0" d="M223.4,55.5v16h-8.7V27h15.5c4.4,0,7.9,1.3,10.5,3.9c2.6,2.8,4,6.5,3.9,10.3c0.2,3.8-1.2,7.6-3.9,10.3
			c-2.6,2.6-6.1,3.9-10.5,3.9L223.4,55.5z M223.4,48.5h6.8c1.7,0.1,3.3-0.7,4.3-2c1-1.5,1.5-3.4,1.5-5.2c0.1-1.9-0.4-3.7-1.5-5.3
			c-1-1.4-2.6-2.2-4.3-2.1h-6.8V48.5z"/>
		<path class="st0" d="M273.8,52h-15v12.6h17.6v6.9h-26.3V27h26.2v7h-17.5V45h15L273.8,52z"/>
	</g>
	<g>
		<path class="st2" d="M285.4,71.5V26.7h6v39.6h22.1v5.3H285.4z"/>
		<path class="st2" d="M321.5,71.5V26.7h5.9v44.9H321.5z"/>
		<path class="st2" d="M337.9,71.5V26.7h6.1l23.6,35.2V26.7h5.7v44.9h-6.1l-23.6-35.3v35.3H337.9z"/>
		<path class="st2" d="M383,71.5V26.7h5.9v22.3l22.3-22.3h8.1l-18.8,18.2l19.6,26.7h-7.8l-16-22.7l-7.4,7.2v15.5H383z"/>
		<path class="st2" d="M423,57.1l5.6-0.5c0.2,2,0.8,3.9,1.9,5.5c1.1,1.6,2.7,2.8,4.5,3.5c2.2,0.9,4.5,1.4,6.9,1.3c2,0,4.1-0.3,6-1
			c1.5-0.5,2.9-1.5,3.9-2.8c0.8-1.1,1.3-2.5,1.3-3.8c0-1.3-0.4-2.6-1.2-3.7c-1.1-1.2-2.5-2.1-4-2.7c-2.6-0.9-5.3-1.6-8-2.2
			c-3-0.6-5.9-1.5-8.7-2.8c-1.9-0.9-3.6-2.4-4.8-4.2c-1.1-1.7-1.6-3.6-1.6-5.6c0-2.3,0.7-4.5,1.9-6.3c1.4-2,3.3-3.6,5.6-4.5
			c2.6-1,5.4-1.6,8.2-1.5c3-0.1,6,0.4,8.8,1.5c2.4,0.9,4.4,2.6,5.9,4.7c1.4,2.1,2.1,4.6,2.2,7.1l-5.7,0.4c-0.1-2.5-1.2-4.8-3.1-6.4
			c-1.8-1.5-4.4-2.2-7.8-2.2c-3.6,0-6.2,0.7-7.9,2c-1.5,1.1-2.5,2.9-2.5,4.8c-0.1,1.5,0.6,3,1.8,4c1.1,1.1,4.1,2.1,9,3.2
			c3.4,0.7,6.7,1.6,9.9,2.9c2.3,1,4.3,2.5,5.8,4.5c1.3,1.9,1.9,4.1,1.9,6.4c0,2.4-0.7,4.7-2,6.7c-1.4,2.2-3.5,3.9-5.9,4.9
			c-2.7,1.2-5.7,1.8-8.6,1.8c-3.5,0.1-7-0.5-10.2-1.8c-2.6-1.1-4.9-3-6.5-5.3C424,62.8,423.1,60,423,57.1z"/>
	</g>
</g>
</svg>
