<svg xmlns="http://www.w3.org/2000/svg" width="101.88" height="56.28" viewBox="0 0 101.88 56.28">
  <metadata><?xpacket begin="﻿" id="W5M0MpCehiHzreSzNTczkc9d"?>
<x:xmpmeta xmlns:x="adobe:ns:meta/" x:xmptk="Adobe XMP Core 5.6-c142 79.160924, 2017/07/13-01:06:39        ">
   <rdf:RDF xmlns:rdf="http://www.w3.org/1999/02/22-rdf-syntax-ns#">
      <rdf:Description rdf:about=""/>
   </rdf:RDF>
</x:xmpmeta>
                                                                                                    
                                                                                                    
                                                                                                    
                                                                                                    
                                                                                                    
                                                                                                    
                                                                                                    
                                                                                                    
                                                                                                    
                                                                                                    
                                                                                                    
                                                                                                    
                                                                                                    
                                                                                                    
                                                                                                    
                                                                                                    
                                                                                                    
                                                                                                    
                                                                                                    
                                                                                                    
                           
<?xpacket end="w"?></metadata>
<defs>
    <style>
      .cls-1 {
        fill: #fff4f6;
        fill-rule: evenodd;
      }
    </style>
  </defs>
  <path id="Rounded_Rectangle_666" data-name="Rounded Rectangle 666" class="cls-1" d="M1064.3,3405.6c21.23-12.52,38.01-9.35,57.26-8.12,0.15,0.01.31,0.03,0.46,0.05s0.3,0.04.45,0.07a9.085,9.085,0,0,1,.9.22,11.087,11.087,0,0,1,1.77.71,12.932,12.932,0,0,1,3.21,2.31,13.564,13.564,0,0,1,3.93,7.61,211.17,211.17,0,0,1,2.37,22.15c0.25,5.71-4.71,8.84-10.47,8.4-22.69-2.37-45.24.43-82.54,12.5a25.041,25.041,0,0,1-3.52.82,12.906,12.906,0,0,1-1.4.15,8.99,8.99,0,0,1-1.17-.01c-1.4-.1-2.18-0.56-2.53-1.25a2.248,2.248,0,0,1-.19-0.57,3.522,3.522,0,0,1-.06-0.66,7.128,7.128,0,0,1,.25-1.58,22.231,22.231,0,0,1,1.86-4.42c3.96-8.34,6.4-16.99,10.9-23.26,3.65-4.99,13.08-11.5,18.52-15.12h0Z" transform="translate(-1032.78 -3396.22)"/>
</svg>
