<svg id="Capa_1" data-name="Capa 1" xmlns="http://www.w3.org/2000/svg" viewBox="0 0 58.99 60"><title>route</title><path d="M21,29a11.31,11.31,0,0,0-8.53-4A11.29,11.29,0,0,0,4,29a14.62,14.62,0,0,0,0,18.9l8.52,9.63L21,47.88A14.64,14.64,0,0,0,21,29Zm-1.5,17.57-7,7.94-7-7.94a12.6,12.6,0,0,1,0-16.25,9.36,9.36,0,0,1,7-3.3,9.33,9.33,0,0,1,7,3.3A12.57,12.57,0,0,1,19.52,46.55Z" transform="translate(-0.51)"/><path d="M48.75,24.51l6.46-7.29A11,11,0,0,0,55.21,3,8.45,8.45,0,0,0,42.28,3a11,11,0,0,0,0,14.21Zm-5-20.18a6.45,6.45,0,0,1,9.93,0,8.93,8.93,0,0,1,0,11.56l-5,5.6-5-5.6A8.93,8.93,0,0,1,43.78,4.33Z" transform="translate(-0.51)"/><path d="M52.6,54.52a1,1,0,0,0-1.19.75,3.57,3.57,0,0,1-.66,1.39,1,1,0,0,0,.16,1.41,1.05,1.05,0,0,0,.62.21,1,1,0,0,0,.79-.38,5.61,5.61,0,0,0,1-2.19A1,1,0,0,0,52.6,54.52Z" transform="translate(-0.51)"/><path d="M32,31a3.56,3.56,0,0,1-1.26-.23A1,1,0,1,0,30,32.64,5.45,5.45,0,0,0,32,33h.36a1,1,0,0,0,0-2Z" transform="translate(-0.51)"/><path d="M29.62,24.68a1,1,0,0,0,.53-.15A3.41,3.41,0,0,1,31.6,24a1,1,0,0,0,.89-1.1A1,1,0,0,0,31.38,22a5.37,5.37,0,0,0-2.29.8,1,1,0,0,0-.32,1.38A1,1,0,0,0,29.62,24.68Z" transform="translate(-0.51)"/><path d="M18.06,58h-2a1,1,0,1,0,0,2h2a1,1,0,1,0,0-2Z" transform="translate(-0.51)"/><path d="M36,40h-.25a1,1,0,0,0,0,2h2a1,1,0,0,0,0-2Z" transform="translate(-0.51)"/><path d="M35.49,24h2a1,1,0,0,0,0-2h-2a1,1,0,0,0,0,2Z" transform="translate(-0.51)"/><path d="M47.78,40a1,1,0,0,0,0,2h2a1,1,0,0,0,0-2Z" transform="translate(-0.51)"/><path d="M51.35,32a1,1,0,0,0-1-1h-2a1,1,0,1,0,0,2h2A1,1,0,0,0,51.35,32Z" transform="translate(-0.51)"/><path d="M41.78,42h2a1,1,0,0,0,0-2h-2a1,1,0,0,0,0,2Z" transform="translate(-0.51)"/><path d="M43.49,24a1,1,0,1,0,0-2h-2a1,1,0,0,0,0,2Z" transform="translate(-0.51)"/><path d="M36.35,31a1,1,0,1,0,0,2h2a1,1,0,0,0,0-2Z" transform="translate(-0.51)"/><path d="M45.35,32a1,1,0,0,0-1-1h-2a1,1,0,1,0,0,2h2A1,1,0,0,0,45.35,32Z" transform="translate(-0.51)"/><path d="M59.43,35.63a1,1,0,0,0-1.15-.83A1,1,0,0,0,57.45,36a3.31,3.31,0,0,1,0,.55,3.64,3.64,0,0,1-.14,1A1,1,0,0,0,58,38.73a.9.9,0,0,0,.28,0,1,1,0,0,0,1-.72,5.36,5.36,0,0,0,.22-1.54A6.51,6.51,0,0,0,59.43,35.63Z" transform="translate(-0.51)"/><path d="M42.06,58h-2a1,1,0,0,0,0,2h2a1,1,0,0,0,0-2Z" transform="translate(-0.51)"/><path d="M36.06,58h-2a1,1,0,0,0,0,2h2a1,1,0,0,0,0-2Z" transform="translate(-0.51)"/><path d="M47.06,50a1,1,0,0,0-1-1h-2a1,1,0,0,0,0,2h2A1,1,0,0,0,47.06,50Z" transform="translate(-0.51)"/><path d="M41.06,50a1,1,0,0,0-1-1h-2a1,1,0,0,0,0,2h2A1,1,0,0,0,41.06,50Z" transform="translate(-0.51)"/><path d="M48,58H46.06a1,1,0,0,0,0,2h2l0-1v1a1,1,0,0,0,1-1A1,1,0,0,0,48,58Z" transform="translate(-0.51)"/><path d="M51.53,52.72a1,1,0,0,0,.79-1.62,5.67,5.67,0,0,0-1.88-1.53A1,1,0,0,0,49.1,50a1,1,0,0,0,.45,1.34,3.52,3.52,0,0,1,1.19,1A1,1,0,0,0,51.53,52.72Z" transform="translate(-0.51)"/><path d="M55.35,39.73A3.51,3.51,0,0,1,54,40h-.21a1,1,0,0,0,0,2H54a5.37,5.37,0,0,0,2.13-.43,1,1,0,0,0-.77-1.84Z" transform="translate(-0.51)"/><path d="M28,29.85a1,1,0,0,0,.64-1.26,3.37,3.37,0,0,1-.18-1.09,3.15,3.15,0,0,1,0-.44,1,1,0,0,0-.87-1.12,1,1,0,0,0-1.11.87,5.09,5.09,0,0,0-.05.69,5.26,5.26,0,0,0,.28,1.72,1,1,0,0,0,.95.69A.85.85,0,0,0,28,29.85Z" transform="translate(-0.51)"/><path d="M24.06,58h-2a1,1,0,0,0,0,2h2a1,1,0,1,0,0-2Z" transform="translate(-0.51)"/><path d="M34.12,50.59a1,1,0,0,0,.42-1.9,3.64,3.64,0,0,1-1.23-.94A1,1,0,0,0,31.78,49a5.43,5.43,0,0,0,1.93,1.46A1,1,0,0,0,34.12,50.59Z" transform="translate(-0.51)"/><path d="M56.75,31.74A5.34,5.34,0,0,0,54.43,31a1,1,0,1,0-.16,2,3.47,3.47,0,0,1,1.47.46,1,1,0,0,0,1.37-.37A1,1,0,0,0,56.75,31.74Z" transform="translate(-0.51)"/><path d="M30.06,58h-2a1,1,0,0,0,0,2h2a1,1,0,1,0,0-2Z" transform="translate(-0.51)"/><path d="M32.56,44.84a3.36,3.36,0,0,1,.61-1.41A1,1,0,0,0,33,42a1,1,0,0,0-1.4.21,5.53,5.53,0,0,0-1,2.22,1,1,0,0,0,.79,1.17.65.65,0,0,0,.19,0A1,1,0,0,0,32.56,44.84Z" transform="translate(-0.51)"/><path d="M49,15a5.5,5.5,0,1,0-5.5-5.5A5.5,5.5,0,0,0,49,15Zm0-9a3.5,3.5,0,1,1-3.5,3.5A3.5,3.5,0,0,1,49,6Z" transform="translate(-0.51)"/><path d="M12.49,31a6,6,0,1,0,6,6A6,6,0,0,0,12.49,31Zm0,10a4,4,0,1,1,4-4A4,4,0,0,1,12.49,41Z" transform="translate(-0.51)"/></svg>