<svg id="Layer_1" data-name="Layer 1" xmlns="http://www.w3.org/2000/svg" xmlns:xlink="http://www.w3.org/1999/xlink" viewBox="0 0 76 57.01"><defs><style>.cls-1{fill:url(#linear-gradient);}</style><linearGradient id="linear-gradient" y1="28.5" x2="76" y2="28.5" gradientUnits="userSpaceOnUse"><stop offset="0" stop-color="#ff6396"/><stop offset="1" stop-color="#ef165d"/></linearGradient></defs><title>ser-1</title><path id="Ellipse_571_copy_3" data-name="Ellipse 571 copy 3" class="cls-1" d="M34.94.77c4.15.76,8.63,1.33,13.26,1.73A126.85,126.85,0,0,1,61.81,4.08c4.24.88,8,2.38,10.48,5.13s3.85,6.65,3.7,11.28c-.42,9.62-6.06,19.39-12.83,26-6.93,6.72-15,10.26-24,10.52A25,25,0,0,1,27.9,54.76a17,17,0,0,1-6.16-5.22,46.41,46.41,0,0,0-6.33-6.74c-2.87-2.59-7-5.59-10.75-9.85C.84,28.88-.76,23.88.33,19.12S5,9.82,9.3,6.52A32.25,32.25,0,0,1,22.78.37c4.27-.78,7.69-.18,12.16.4Z" transform="translate(0 0)"/></svg>