<svg id="OBJECTS" xmlns="http://www.w3.org/2000/svg" xmlns:xlink="http://www.w3.org/1999/xlink" viewBox="0 0 120.31 201.27"><defs><style>.cls-1{fill:#002856;}.cls-2{fill:#efebe9;}.cls-3{fill:#00425a;}.cls-4{fill:#37474f;}.cls-5{fill:#b0bec5;}.cls-6{fill:#9e9d98;}.cls-7{fill:#d3c0be;}.cls-8{fill:#c5c4bb;}.cls-9{fill:#c0afae;}.cls-10{fill:#d6d5ca;}.cls-11{fill:#4d4d4f;}.cls-12{fill:url(#Degradado_sin_nombre_35);}.cls-13{fill:url(#Degradado_sin_nombre_35-2);}.cls-14{fill:url(#Degradado_sin_nombre_35-3);}.cls-15{fill:url(#Degradado_sin_nombre_35-4);}.cls-16{fill:#fff;opacity:0.6;}.cls-17{fill:#f44584;}.cls-18{fill:url(#linear-gradient);}.cls-19{fill:url(#linear-gradient-2);}.cls-20{stroke:#fff;stroke-miterlimit:10;}.cls-21{fill:#005077;opacity:0.1;}.cls-22{fill:#777;}.cls-23{fill:#212121;}.cls-24{fill:#8e8e8e;}.cls-25{fill:#333;}.cls-26{fill:#ff6396;}.cls-27{fill:url(#Degradado_sin_nombre_11);}.cls-28{fill:#e20944;}.cls-29{fill:url(#linear-gradient-3);}.cls-30{fill:url(#linear-gradient-4);}.cls-31{fill:#cccbc4;}</style><linearGradient id="Degradado_sin_nombre_35" x1="192.83" y1="247.71" x2="189.6" y2="253.31" gradientUnits="userSpaceOnUse"><stop offset="0" stop-color="#008da7"/><stop offset="1" stop-color="#62afbd"/></linearGradient><linearGradient id="Degradado_sin_nombre_35-2" x1="190.66" y1="254.59" x2="187.39" y2="260.26" xlink:href="#Degradado_sin_nombre_35"/><linearGradient id="Degradado_sin_nombre_35-3" x1="194.77" y1="241.47" x2="191.91" y2="246.43" xlink:href="#Degradado_sin_nombre_35"/><linearGradient id="Degradado_sin_nombre_35-4" x1="198.24" y1="232.49" x2="194.16" y2="239.56" xlink:href="#Degradado_sin_nombre_35"/><linearGradient id="linear-gradient" x1="142.15" y1="249.75" x2="162.41" y2="249.75" gradientUnits="userSpaceOnUse"><stop offset="0" stop-color="#fddedc"/><stop offset="1" stop-color="#fdbcb8"/></linearGradient><linearGradient id="linear-gradient-2" x1="159.12" y1="252.28" x2="171.31" y2="252.28" xlink:href="#linear-gradient"/><linearGradient id="Degradado_sin_nombre_11" x1="117.11" y1="199.42" x2="139.44" y2="199.42" gradientUnits="userSpaceOnUse"><stop offset="0" stop-color="#fae8dc"/><stop offset="1" stop-color="#fab9ab" stop-opacity="0.97"/></linearGradient><linearGradient id="linear-gradient-3" x1="130.31" y1="251.73" x2="150.57" y2="251.73" xlink:href="#linear-gradient"/><linearGradient id="linear-gradient-4" x1="146.46" y1="249.46" x2="159.63" y2="249.46" xlink:href="#linear-gradient"/></defs><title>subscribe-2</title><polygon class="cls-1" points="48.7 188.06 50.41 188.22 56.85 89.69 55.15 89.52 48.7 188.06"/><polygon class="cls-1" points="111.52 188.14 109.82 188.31 103.54 89.69 105.24 89.52 111.52 188.14"/><rect class="cls-2" x="138.66" y="259.8" width="76.28" height="2.34" transform="translate(256.99 348.41) rotate(180)"/><rect class="cls-3" x="145.65" y="262.13" width="62.3" height="2.34" transform="translate(256.99 353.08) rotate(180)"/><polygon class="cls-3" points="41.69 193.81 43.78 193.99 51.49 89.7 49.4 89.52 41.69 193.81"/><polygon class="cls-3" points="118.7 192.8 116.61 192.98 108.89 89.7 110.98 89.52 118.7 192.8"/><path class="cls-4" d="M96.61,359.62v1.27c0,1.8,6.43,3.26,14.36,3.26s14.36-1.46,14.36-3.26v-1.27c0-1.8-6.43-3.27-14.36-3.27S96.61,357.82,96.61,359.62Z" transform="translate(-96.61 -173.52)"/><path class="cls-2" d="M96.61,359.62c0-1.8,6.43-3.27,14.36-3.27,1.43,0,2.81,0,4.11.14l-6.35,6.35C101.86,362.6,96.61,361.25,96.61,359.62Z" transform="translate(-96.61 -173.52)"/><path class="cls-5" d="M125.33,359.62c0,1.8-6.43,3.26-14.36,3.26-.76,0-1.51,0-2.24,0l6.35-6.35C121,356.89,125.33,358.14,125.33,359.62Z" transform="translate(-96.61 -173.52)"/><path class="cls-4" d="M111.16,358.62h0a.74.74,0,0,0,.74-.74V295h-1.48v62.92A.74.74,0,0,0,111.16,358.62Z" transform="translate(-96.61 -173.52)"/><path class="cls-4" d="M98.23,337.88c0-2.88,6.47-4.38,12.86-4.38S124,335,124,337.88s-6.47,4.39-12.87,4.39S98.23,340.77,98.23,337.88Zm1.36,0c0,1.24,4.48,3,11.5,3s11.51-1.79,11.51-3-4.48-3-11.51-3S99.59,336.65,99.59,337.88Z" transform="translate(-96.61 -173.52)"/><path class="cls-6" d="M125.33,294.41v4.53c0,1.81-6.43,3.27-14.36,3.27s-14.36-1.46-14.36-3.27v-4.53Z" transform="translate(-96.61 -173.52)"/><ellipse class="cls-2" cx="14.36" cy="120.89" rx="14.36" ry="3.26"/><path class="cls-7" d="M216.25,231.15a3.39,3.39,0,0,1,.57,2.84L211.1,257.5H189.9Z" transform="translate(-96.61 -173.52)"/><path class="cls-8" d="M155.3,257.5h33.1l-1.93,1.94h-33.1A1.94,1.94,0,0,1,155.3,257.5Z" transform="translate(-96.61 -173.52)"/><path class="cls-9" d="M211.1,257.5a1.94,1.94,0,0,1-1.93,1.94h-22.7l1.93-1.94Z" transform="translate(-96.61 -173.52)"/><path class="cls-2" d="M153.37,259.44h17.42a1.93,1.93,0,0,0,1.93-1.94H155.3A1.94,1.94,0,0,0,153.37,259.44Z" transform="translate(-96.61 -173.52)"/><path class="cls-10" d="M172.72,257.5l6.12-25.13a3.43,3.43,0,0,1,3.34-2.62h31.31a3.41,3.41,0,0,1,2.76,1.4L189.9,257.5Z" transform="translate(-96.61 -173.52)"/><path class="cls-11" d="M171.1,257.5h38.38l6-24.79a2.4,2.4,0,0,0-2.33-3H180.56a3.42,3.42,0,0,0-3.33,2.62Z" transform="translate(-96.61 -173.52)"/><path class="cls-12" d="M192.4,250.94c-6.65,0-5.82-5.82-9.14-9.15-2.94-2.1-5.25-2.29-7.24-1.64l-2.42,10.06a16.58,16.58,0,0,1,2.17-.1c3.33.83,6.66,5,9.15,4.15,8.88-1.18,16.92-1.52,23.82,2.59l1.69-7.05C204.74,249.2,198.33,250.94,192.4,250.94Z" transform="translate(-96.61 -173.52)"/><path class="cls-13" d="M184.92,254.26c-2.49.83-5.82-3.32-9.15-4.15a16.58,16.58,0,0,0-2.17.1l-1.76,7.29h36.74l.16-.65C201.84,252.74,193.8,253.08,184.92,254.26Z" transform="translate(-96.61 -173.52)"/><path class="cls-14" d="M209.87,244.28c-10,3.33-16.63,1.67-22.45-5.82-2.16-2.87-6.8-2-10.7-1.2l-.7,2.89c2-.65,4.3-.46,7.24,1.64,3.32,3.33,2.49,9.15,9.14,9.15,5.93,0,12.34-1.74,18-1.14l1.37-5.66A3.71,3.71,0,0,0,209.87,244.28Z" transform="translate(-96.61 -173.52)"/><path class="cls-15" d="M212.17,230.67H180.89a3.3,3.3,0,0,0-3.19,2.53l-1,4.06c3.9-.82,8.54-1.67,10.7,1.2,5.82,7.49,12.47,9.15,22.45,5.82a3.71,3.71,0,0,1,1.93-.14l2.57-10.65A2.29,2.29,0,0,0,212.17,230.67Z" transform="translate(-96.61 -173.52)"/><path class="cls-16" d="M180.56,236h-1.17a.29.29,0,0,1-.29-.37l.53-2.08a.29.29,0,0,1,.29-.22h1.17a.3.3,0,0,1,.29.37l-.53,2.08A.3.3,0,0,1,180.56,236Z" transform="translate(-96.61 -173.52)"/><path class="cls-16" d="M179.77,240H178.6a.31.31,0,0,1-.29-.38l.53-2.07a.31.31,0,0,1,.29-.23h1.17a.29.29,0,0,1,.29.37l-.53,2.08A.3.3,0,0,1,179.77,240Z" transform="translate(-96.61 -173.52)"/><path class="cls-16" d="M178.82,244h-1.17a.29.29,0,0,1-.29-.37l.53-2.08a.3.3,0,0,1,.29-.23h1.17a.31.31,0,0,1,.29.38l-.53,2.07A.3.3,0,0,1,178.82,244Z" transform="translate(-96.61 -173.52)"/><path class="cls-16" d="M184.06,236h-1.17a.3.3,0,0,1-.29-.37l.53-2.08a.3.3,0,0,1,.29-.22h1.17a.29.29,0,0,1,.29.37l-.53,2.08A.29.29,0,0,1,184.06,236Z" transform="translate(-96.61 -173.52)"/><path class="cls-17" d="M142.37,246.27l-10-.23c-.26-8.92,1.6-18.45-.1-27.26-.62-3.19-2.73-6.92-5.9-8.27-4.63-2-6.84,1.79-7.61,5.83a18.38,18.38,0,0,0-.25,5.24c.27,2.41,2.87,27.73,4.14,34.38l19.75-2.73A29.46,29.46,0,0,1,142.37,246.27Z" transform="translate(-96.61 -173.52)"/><path class="cls-18" d="M160.92,246.69l-18.55-.42a29.46,29.46,0,0,0,0,7l20-2.78Z" transform="translate(-96.61 -173.52)"/><path class="cls-19" d="M166.26,251.26l.42-.61a6.87,6.87,0,0,1,3.7,2.41c.46.57,1.25-.25.8-.81a7.83,7.83,0,0,0-4.8-2.83L161,246.7l-1.84,3,1,3.29.78.48a.72.72,0,0,0,.24.16l.08,0,2.41,1.49a8.5,8.5,0,0,1,1.89,2.46c.33.66,1.31.07,1-.57a9.23,9.23,0,0,0-2.22-2.82l.34-.49a8.29,8.29,0,0,1,4,2.75c.46.57,1.25-.25.8-.81a9.32,9.32,0,0,0-4.1-2.93l.29-.42a8.27,8.27,0,0,1,4.76,3c.46.57,1.25-.25.8-.82A9.28,9.28,0,0,0,166.26,251.26Z" transform="translate(-96.61 -173.52)"/><path class="cls-20" d="M124.42,205.15c1.33-.37,2.36-1.45,3.66-1.91,2.12-.76,4.44.28,6.69.13a6.37,6.37,0,0,0,5.16-9.42,23,23,0,0,0,3.38-4.26,7.77,7.77,0,0,0,1-5.24,4.73,4.73,0,0,0-3.52-3.75,5.69,5.69,0,0,0-1.87-3.84,9.92,9.92,0,0,0-3.81-2.11,14,14,0,0,0-12.3,1.62,11,11,0,0,0-4.38,11.29,5.5,5.5,0,0,0-2.55,9,3.2,3.2,0,0,0-2,3.66,5.26,5.26,0,0,0,2.8,3.41,15.87,15.87,0,0,0,4.35,1.31A7.42,7.42,0,0,0,124.42,205.15Z" transform="translate(-96.61 -173.52)"/><path class="cls-21" d="M102.42,367.39c12.48-1.11,25-1.63,37.55-1.92.21-2.05,2.58-4,5.55-3.92,16.53.5,52.94-1.5,69.21.55,2.49.31,2.27,3.09-.15,3.54-12.13,2.24-43.83,2.31-56.3,2.8.77,2.39-.42,5.18-4.31,5.36-17.27.78-34.65,1.3-51.85.76C97.1,374.4,97.46,367.82,102.42,367.39Z" transform="translate(-96.61 -173.52)"/><path class="cls-22" d="M131.18,269.58l-20.05-8.85,0,1.33a75.1,75.1,0,0,0,2.43,22c1.93,7.31,6,13.83,8,21.11,1.17,4.27,2,8.66,2.77,13,1.94,10.51,3.52,21.1,5,31.68.69,4.88,1.36,9.75,2,14.64l3.66-.09,4.16-30.73a110.05,110.05,0,0,0-2.24-41.3Z" transform="translate(-96.61 -173.52)"/><polygon class="cls-23" points="34.55 191.99 38.21 191.9 42.85 194.17 48.65 194.64 49.53 195.92 33.31 196.69 34.55 191.99"/><path class="cls-24" d="M120.71,271.6l-18.55-11.67-.92,5a60.6,60.6,0,0,0,2.25,30.83l1.49,4.36c3.1,9,2,65.42,2,65.42l3.63.45,8.59-29.8A110,110,0,0,0,123,295Z" transform="translate(-96.61 -173.52)"/><polygon class="cls-25" points="10.12 192.99 13.75 193.43 18.01 196.35 23.68 197.67 24.37 199.06 8.21 197.46 10.12 192.99"/><path class="cls-26" d="M120.88,204.64a14.57,14.57,0,0,0-9.87,5.07A33.93,33.93,0,0,0,105.6,219c-4.92,11.32-7.54,59-5.22,62.61l33.15-3c.71-4.43-4.83-38.85-3.34-52,.69-6.09,1.68-12.86-2.34-17.78Z" transform="translate(-96.61 -173.52)"/><path class="cls-27" d="M137.23,186.37a3.1,3.1,0,0,1,1.23,3.19c-.17,1.2-.71,2.32-1,3.51a3.46,3.46,0,0,0,.83,3.37c.45.38,1.12.69,1.11,1.28,0,.78-1.12.9-1.81,1.27-1.06.57-1.24,2-1.32,3.2s-.32,2.63-1.42,3.12c-1.42.64-2.85-.78-4.34-1.19a4.6,4.6,0,0,0-4,1.1c-1.1.91-4,6.2-4.81,7.41-2.51-.3-4.62-3.94-4.63-7.68l7.41-8.74a2.28,2.28,0,0,1-2.14-1.25,2.12,2.12,0,0,1,.3-2.44c.61-.63,3.13-1.38,3.08,1.51a10.11,10.11,0,0,0,2.49-3.92C129.89,185,137.23,186.37,137.23,186.37Z" transform="translate(-96.61 -173.52)"/><path class="cls-28" d="M150.31,242.46H156a1.12,1.12,0,0,1,1.12,1.12v9.48a2.12,2.12,0,0,1-2.12,2.12h-3.65a2.12,2.12,0,0,1-2.12-2.12v-9.48a1.13,1.13,0,0,1,1.13-1.13Z" transform="translate(-114.82 -161.34) rotate(-4.3)"/><path class="cls-17" d="M130.53,248.26l-10-.23c-.26-8.92,1.6-18.45-.1-27.27-.62-3.18-2.73-6.91-5.9-8.26-4.63-2-6.84,1.78-7.61,5.83a18.36,18.36,0,0,0-.25,5.24c.27,2.41,2.87,27.73,4.14,34.38l19.75-2.74A29.38,29.38,0,0,1,130.53,248.26Z" transform="translate(-96.61 -173.52)"/><path class="cls-29" d="M149.08,248.67l-18.55-.41a29.38,29.38,0,0,0,0,7l20-2.78Z" transform="translate(-96.61 -173.52)"/><path class="cls-30" d="M159.11,247.86c.73.06.67-1.08-.05-1.14a9.31,9.31,0,0,0-5.65,1.4l-.16-.73a6.89,6.89,0,0,1,4.29-1c.73,0,.67-1.08,0-1.14a7.82,7.82,0,0,0-5.34,1.58l-5.69,2.1.9,3.36,3.1,1.51.88-.25a.45.45,0,0,0,.27-.06l.09,0,2.74-.75a8.32,8.32,0,0,1,3.08.31c.71.2.95-.91.25-1.11a9.07,9.07,0,0,0-3.57-.31l-.13-.58a8.27,8.27,0,0,1,4.71-1c.74,0,.68-1.08,0-1.14a9.28,9.28,0,0,0-4.94,1l-.11-.5A8.28,8.28,0,0,1,159.11,247.86Z" transform="translate(-96.61 -173.52)"/><path class="cls-31" d="M153.37,236.05a2.82,2.82,0,0,0-2.42-2.92.67.67,0,0,0-.35,1.29c.75.24,1.56.61,1.41,1.65,0,.34-.77,1-1,1.32a3,3,0,0,0-.52,2.06c.15,1.07,1.24,2.71,2.47,2a.21.21,0,0,0,.07-.29,1.16,1.16,0,0,0-.33-.4,1.85,1.85,0,0,1-.39-2.89C152.79,237.23,153.24,236.9,153.37,236.05Z" transform="translate(-96.61 -173.52)"/></svg>