<svg xmlns="http://www.w3.org/2000/svg" viewBox="0 0 450 459.54"><defs><style>.\30 1b6e5a8-922c-42ed-b64a-a221209a481a{isolation:isolate;}.\35 0f6be8f-42fb-49b2-9cf5-d9416df0bf1f{fill:#e20144;}.e666a191-dc65-4ec5-b68d-274787279e72{fill:#fff;}</style></defs><title>totop</title><g id="99bda667-603d-448a-940a-dcbe7f54b007" data-name="Layer 1" class="01b6e5a8-922c-42ed-b64a-a221209a481a"><path class="50f6be8f-42fb-49b2-9cf5-d9416df0bf1f" d="M219.11,464a152.36,152.36,0,0,0,19.58-.53c34.9-3.17,78.71-13.36,119.87-41.45,90.79-62,133.13-186.72,112.16-320.3a125.6,125.6,0,0,0-20.66-52.59c-15.17-21.71-41.67-44.57-86-44.57-61.59,0-141.6,32.27-173.6,46.67C177.86,56.91,26,118.5,26,181.85c0,31.78,26.54,44.09,47.38,109.23C93.72,354.65,87.62,459,219.11,464Z" transform="translate(-26 -4.57)"/><path class="e666a191-dc65-4ec5-b68d-274787279e72" d="M267.44,177.32a22,22,0,0,0-30.93,0l-71.74,71.73c-8.34,8.34-9.25,22.14-1.21,30.79a22,22,0,0,0,31.7.76l46.1-46a15.09,15.09,0,0,1,21.38,0l45.95,46a21.83,21.83,0,0,0,31.7-.76c8-8.65,7.28-22.45-1.22-30.79Z" transform="translate(-26 -4.57)"/></g></svg>