<svg id="Layer_1" data-name="Layer 1" xmlns="http://www.w3.org/2000/svg" xmlns:xlink="http://www.w3.org/1999/xlink" viewBox="0 0 59.93 171.54"><defs><style>.cls-1{fill:none;}.cls-2{fill:#dfe81f;}.cls-3{fill:#d1d10d;}.cls-4{fill:#ecedef;}.cls-5{fill:#bf0246;}.cls-6{fill:#e20944;}.cls-7{fill:#fff;}.cls-8{fill:#ffb48c;}.cls-9{fill:#ffc8ab;}.cls-10{fill:#ff4480;}.cls-11{fill:#76a9da;}.cls-12{clip-path:url(#clip-path);}.cls-13{fill:#6648d9;}.cls-14{fill:#1c3577;}</style><clipPath id="clip-path" transform="translate(0 -0.01)"><polygon class="cls-1" points="42.86 29.18 35.77 25.05 30.68 27.99 37.77 32.11 42.86 29.18"/></clipPath></defs><title>aasd</title><g id="Layer_2" data-name="Layer 2"><g id="OBJECTS"><polygon class="cls-2" points="59.93 56.87 30.12 74.2 0.12 56.87 29.92 39.55 59.93 56.87"/><polygon class="cls-3" points="59.84 56.87 59.72 154.21 29.91 171.54 30.03 74.2 59.84 56.87"/><polygon class="cls-3" points="30.12 74.2 30 171.54 0 154.21 0.12 56.87 30.12 74.2"/><path class="cls-4" d="M22.19,60.2c-4.19-2.43-4.16-6.38,0-8.81a16.76,16.76,0,0,1,15.2,0h0c4.19,2.44,4.16,6.38,0,8.8a16.76,16.76,0,0,1-15.2,0Z" transform="translate(0 -0.01)"/><path class="cls-5" d="M33.43,13s.3,7.25.67,7.94c.9,1.56,3.2,4.06,3.26,4.4a1.54,1.54,0,0,1-1.23,1.79,1.24,1.24,0,0,1-.27,0,46.81,46.81,0,0,1-4.71-2.59C30.93,23.19,33.37,12.89,33.43,13Z" transform="translate(0 -0.01)"/><path class="cls-6" d="M24.79,48.25a2,2,0,0,0,1.36.82c.42.91,2.72,3.91,2.38,4.49-.61,1-2.25,0-2.8-.55a16.3,16.3,0,0,1-1.36-2c-.35-.44-.74-.75-.6-1.34A4,4,0,0,1,24.79,48.25Z" transform="translate(0 -0.01)"/><path class="cls-7" d="M23.86,49.48c-.11.58.27.89.62,1.33.49.63.84,1.41,1.38,2s1.92,1.41,2.65.78c-.63,1-2.24,0-2.78-.57a19.47,19.47,0,0,1-1.36-2c-.35-.44-.74-.75-.6-1.34A.72.72,0,0,1,23.86,49.48Z" transform="translate(0 -0.01)"/><path class="cls-7" d="M26.55,51.57a1.36,1.36,0,0,1,1.06-.18.24.24,0,0,1,.17.28,1.74,1.74,0,0,0-1.12.15C26.51,51.9,26.4,51.66,26.55,51.57Z" transform="translate(0 -0.01)"/><path class="cls-7" d="M26.17,51a1.26,1.26,0,0,1,1-.18.21.21,0,0,1,.17.26h0a1.7,1.7,0,0,0-1.11.15C26.13,51.3,26,51.05,26.17,51Z" transform="translate(0 -0.01)"/><path class="cls-7" d="M25.8,50.39a1.26,1.26,0,0,1,1.05-.18.21.21,0,0,1,.17.26h0a1.7,1.7,0,0,0-1.11.15C25.76,50.72,25.65,50.47,25.8,50.39Z" transform="translate(0 -0.01)"/><path class="cls-8" d="M26.15,49.07c1-1.2,4.37-5.13,8-10.19a1.48,1.48,0,0,0,.29-.86c0-2.51-1.39-10-2.14-13.18a17.88,17.88,0,0,1-3.59,1c.21,1.24,2.71,12,2.35,12.4-2.53,2.55-4.63,6.6-6.24,10C24.81,48.47,25.34,48.93,26.15,49.07Z" transform="translate(0 -0.01)"/><path class="cls-6" d="M27.66,55.2a2,2,0,0,0,1.56.3c.71.71,3.9,2.74,3.78,3.4-.22,1.17-2.1.81-2.81.45s-1.29-1-2-1.37c-.48-.29-1-.45-1-1A4.1,4.1,0,0,1,27.66,55.2Z" transform="translate(0 -0.01)"/><path class="cls-7" d="M27.22,56.68c.09.58.55.74,1,1,.68.42,1.28,1,2,1.39s2.29.66,2.75-.18c-.25,1.13-2.1.78-2.8.42s-1.29-1-2-1.37c-.48-.29-1-.45-1-1A.75.75,0,0,1,27.22,56.68Z" transform="translate(0 -0.01)"/><path class="cls-7" d="M30.46,57.72a1.29,1.29,0,0,1,.93-.53.22.22,0,0,1,.25.19h0a1.85,1.85,0,0,0-1,.53C30.54,58,30.35,57.85,30.46,57.72Z" transform="translate(0 -0.01)"/><path class="cls-7" d="M29.89,57.28a1.33,1.33,0,0,1,.93-.53.24.24,0,0,1,.25.2,1.77,1.77,0,0,0-1,.52C30,57.6,29.78,57.41,29.89,57.28Z" transform="translate(0 -0.01)"/><path class="cls-7" d="M29.34,56.86a1.35,1.35,0,0,1,.93-.53.24.24,0,0,1,.25.2,1.77,1.77,0,0,0-1,.52C29.42,57.19,29.23,57,29.34,56.86Z" transform="translate(0 -0.01)"/><path class="cls-9" d="M29.22,55.5c-.16-2.56,1.52-14.62,1.52-14.62.47-1.7-1.78-7.88-2.39-9.83l-.05-.15v-.16s.22-2.71.22-4.49a20.88,20.88,0,0,1-3.9-.85c-.05.34-.11.67-.17,1a13.26,13.26,0,0,0-.3,2.35,12.23,12.23,0,0,0,.44,3.35,55,55,0,0,0,3.08,7.15c.2.44.27.57.19.86-1.51,6.29-.5,13.67-.17,15.26A1.5,1.5,0,0,0,29.22,55.5Z" transform="translate(0 -0.01)"/><path class="cls-6" d="M23.33,13.17a4.55,4.55,0,0,1,1.29-2.58,6.5,6.5,0,0,1,2.87-1.44,6.09,6.09,0,0,1,3.28-.09,3.31,3.31,0,0,1,2.64,2.83c.05,0,2.26,23.27,2.26,23.27-.69,1.25-8,3.05-12.52.5.18-.68-.46-7.91,2-13.55a2.21,2.21,0,0,0,0-1.6C24.54,18.75,23.14,14.61,23.33,13.17Z" transform="translate(0 -0.01)"/><path class="cls-5" d="M23.32,12.89a4,4,0,0,1,1.21-2.21c1.54,1.93,1.19,8.38,1,9l6.19,3.45c.12.07-.37,1.5-1,1.43a49.47,49.47,0,0,1-6.58-2.91A39.65,39.65,0,0,1,23.32,12.89Z" transform="translate(0 -0.01)"/><path class="cls-10" d="M31.23,7.34a2.85,2.85,0,0,1-1.42,2.23h0a.88.88,0,0,1,0-.15C29.45,8.42,31.3,7,31.3,7S31.24,7.24,31.23,7.34Z" transform="translate(0 -0.01)"/><path class="cls-9" d="M30,8.82v1.94c0,1-2,.67-3.23-1V6.7A21.66,21.66,0,0,1,30,8.82Z" transform="translate(0 -0.01)"/><path class="cls-9" d="M26.14,1.14A3,3,0,0,1,28.32.51a4,4,0,0,1,2,1A4.62,4.62,0,0,1,31.63,3.2a4.45,4.45,0,0,1,.22,2.14c-.33,2.76-1.76,3.8-2.22,4a3,3,0,0,1-2.4-1.26,9,9,0,0,0-1.56-1.81l-.13-.12A3.57,3.57,0,0,1,26.14,1.14Z" transform="translate(0 -0.01)"/><path d="M23.28,7.23a2.48,2.48,0,0,1-.12-.66c-.05-1.91.2-4,1.69-5.32A4.49,4.49,0,0,1,29.94.48a4.14,4.14,0,0,1,1.88,5.05c.34-1.75-1.28-1.89-2.24-2.13a.17.17,0,0,1,0,.1,4.48,4.48,0,0,1-2.5,2.65h0c-.09-.38-.67-.66-.88-.22s.22.7.57.8,0,1,0,1.2a4.39,4.39,0,0,0,1.4,3.36,6.16,6.16,0,0,1,1,1.23,2,2,0,0,1-.18,2.3,2.45,2.45,0,0,1-3.08.55c-.64-.47-.66-1.18-.84-1.88-.41-1.6-1.46-1.6-1.59-1.31a1.47,1.47,0,0,0-.29-.9A3.17,3.17,0,0,1,23.28,7.23Z" transform="translate(0 -0.01)"/><path class="cls-9" d="M31.46,23a7.21,7.21,0,0,0,2.22.76c.55,0,.88.78,1.47.81a.23.23,0,0,1,.23.23.34.34,0,0,1-.06.15c-.22.24-.86.09-1.31-.38h0a.47.47,0,0,1-.22.4H33.7a.17.17,0,0,1,0,.1.43.43,0,0,1-.31.26h0a.41.41,0,0,1-.43.32.51.51,0,0,1-.34-.13,2.31,2.31,0,0,1-1-.77,6.41,6.41,0,0,1-.64-.74C30.7,23.72,30.91,22.63,31.46,23Z" transform="translate(0 -0.01)"/><polygon class="cls-11" points="42.86 29.17 35.77 25.04 30.68 27.98 37.77 32.1 42.86 29.17"/><g class="cls-12"><polyline class="cls-7" points="30.68 27.98 35.77 25.04 42.86 29.17 37.77 32.1 30.68 27.98"/></g><path class="cls-1" d="M35.67,27.1h0v-.05h.06a1.21,1.21,0,0,1,1.14,0,.34.34,0,0,1,.21.45.34.34,0,0,1-.21.21,1.23,1.23,0,0,1-1.15,0h0A.44.44,0,0,1,35.67,27.1Z" transform="translate(0 -0.01)"/><path class="cls-13" d="M35.63,27.54l.26-.16h0a1.23,1.23,0,0,0,1.15,0,.34.34,0,0,0,.21-.45.34.34,0,0,0-.21-.21,1.21,1.21,0,0,0-1.14,0l-.26-.15a1.8,1.8,0,0,1,1.66,0,.5.5,0,0,1,.4.6.51.51,0,0,1-.4.4,1.91,1.91,0,0,1-1.68,0Z" transform="translate(0 -0.01)"/><path class="cls-14" d="M35.41,27.36Z" transform="translate(0 -0.01)"/><path class="cls-14" d="M35.49,27.43Z" transform="translate(0 -0.01)"/><path class="cls-14" d="M35.45,27.39Z" transform="translate(0 -0.01)"/><path class="cls-14" d="M35.38,27.31Z" transform="translate(0 -0.01)"/><path class="cls-14" d="M35.58,27.5Z" transform="translate(0 -0.01)"/><path class="cls-14" d="M35.53,27.47Z" transform="translate(0 -0.01)"/><path class="cls-14" d="M35.36,27.27Z" transform="translate(0 -0.01)"/><path class="cls-10" d="M35.91,26.73h-.06v.05h0a.44.44,0,0,0,.22.28l-.26.16h0l.26.15Z" transform="translate(0 -0.01)"/><path class="cls-1" d="M33.46,28.26h0a1.27,1.27,0,0,1,1.14,0c.32.18.32.48,0,.67a1.29,1.29,0,0,1-1.15,0h0a.46.46,0,0,1-.06-.65Z" transform="translate(0 -0.01)"/><path class="cls-13" d="M33.42,28.7l.26-.15h0a1.29,1.29,0,0,0,1.15,0c.32-.19.32-.49,0-.67a1.27,1.27,0,0,0-1.14,0l-.26-.15a1.82,1.82,0,0,1,1.67,0c.46.26.45.7,0,1a1.89,1.89,0,0,1-1.67,0Z" transform="translate(0 -0.01)"/><path class="cls-14" d="M33.21,28.52Z" transform="translate(0 -0.01)"/><path class="cls-14" d="M33.28,28.59Z" transform="translate(0 -0.01)"/><path class="cls-14" d="M33.24,28.56Z" transform="translate(0 -0.01)"/><path class="cls-14" d="M33.18,28.48Z" transform="translate(0 -0.01)"/><path class="cls-14" d="M33.37,28.67Z" transform="translate(0 -0.01)"/><path class="cls-14" d="M33.32,28.63Z" transform="translate(0 -0.01)"/><path class="cls-14" d="M33.15,28.44Z" transform="translate(0 -0.01)"/><path class="cls-10" d="M33.7,27.89h-.05a.46.46,0,0,0,.22.29l-.26.15h0v0h0l.26.15Z" transform="translate(0 -0.01)"/><polygon class="cls-10" points="40.39 29.4 40.69 29.22 40.99 29.4 40.69 29.57 40.39 29.4"/><polygon class="cls-10" points="40.26 29.47 40.56 29.65 38.14 31.04 37.84 30.87 40.26 29.47"/><polygon class="cls-7" points="40.12 28.56 40.39 28.4 40.66 28.56 40.39 28.71 40.12 28.56"/><polygon class="cls-13" points="40 28.63 40.27 28.78 36.85 30.74 36.59 30.58 40 28.63"/><polygon class="cls-7" points="39.64 28.25 39.91 28.1 40.18 28.25 39.91 28.41 39.64 28.25"/><polygon class="cls-13" points="39.52 28.32 39.79 28.48 36.38 30.44 36.11 30.28 39.52 28.32"/><polygon class="cls-7" points="39.16 27.97 39.44 27.82 39.7 27.97 39.43 28.13 39.16 27.97"/><polygon class="cls-13" points="39.04 28.04 39.31 28.2 35.9 30.16 35.63 30 39.04 28.04"/><path class="cls-9" d="M36.68,25.36a2.93,2.93,0,0,1,1.26.41,3.72,3.72,0,0,0,.45.33l.21.11a.59.59,0,0,1,.41.58,2.18,2.18,0,0,1,0,.51c-.07.26-.33.24-.47.06a.59.59,0,0,1-.12-.31.63.63,0,0,0-.3-.54l-1.69-1.05a.19.19,0,0,1,.23-.11Z" transform="translate(0 -0.01)"/></g></g></svg>