<svg xmlns="http://www.w3.org/2000/svg" viewBox="0 0 59.93 214.63"><defs><style>.cls-1{isolation:isolate;}.cls-2{fill:#ef6054;}.cls-3{fill:#ce372c;}.cls-4{fill:#e05445;}.cls-5{fill:#d9d8e1;mix-blend-mode:multiply;}.cls-6{fill:#ffc8ab;}.cls-7{fill:#ef6d21;}.cls-8{fill:#fff;}.cls-9{fill:none;stroke:#162a63;stroke-miterlimit:10;stroke-width:0.38px;}</style></defs><title>asdad</title><g class="cls-1"><g id="OBJECTS"><g class="cls-1"><polygon class="cls-2" points="0 68.38 29.81 85.7 59.81 68.38 30 51.06 0 68.38"/><polygon class="cls-3" points="0 68.38 0.12 197.31 29.92 214.63 29.81 85.7 0 68.38"/><polygon class="cls-4" points="29.81 85.7 29.92 214.63 59.93 197.31 59.81 68.38 29.81 85.7"/></g><path class="cls-5" d="M265.87,101.6c4.19-2.44,4.17-6.38-.05-8.81a16.76,16.76,0,0,0-15.2,0h0c-4.19,2.43-4.16,6.37,0,8.8s11,2.44,15.2,0Z" transform="translate(-228.32 -28.22)"/><path class="cls-6" d="M261,32.66a1.93,1.93,0,0,0,1.05-.28h0c0-.25.07-.5.08-.5a3.55,3.55,0,0,0-.71-3.05h0a5.19,5.19,0,0,1-.31-.5c-.1-.24-.45,0-.35.18l0,.06c-.18-.3-.53-.08-.38.27-.13-.14-.34,0-.15.32a2.16,2.16,0,0,1,.39.86v.32s-.19-.43-.36-.49-.37,0-.25.22a1.4,1.4,0,0,1,.1.16,2.18,2.18,0,0,1,.11.55,1.43,1.43,0,0,0,.14.61A5.57,5.57,0,0,1,261,32.66Z" transform="translate(-228.32 -28.22)"/><path class="cls-7" d="M262.47,31.9c.72,3.52,2,11.49,1.77,11.61a4.21,4.21,0,0,1-3.12.49,99.48,99.48,0,0,1-.67-11.83A2.76,2.76,0,0,1,262.47,31.9Z" transform="translate(-228.32 -28.22)"/><path class="cls-6" d="M249.57,65.8a1.8,1.8,0,0,0-.75-.77h0c-.24.08-.47.18-.47.17A3.52,3.52,0,0,0,246,67.3h0c-.11.17-.17.36-.29.52s.18.42.33.21a.1.1,0,0,0,0,0c-.17.3.19.5.42.2-.06.19.2.28.35,0a2,2,0,0,1,.56-.76l.29-.16s-.29.37-.26.56.22.29.31.11l.09-.17a2.24,2.24,0,0,1,.43-.36,1.54,1.54,0,0,0,.46-.42A5.52,5.52,0,0,1,249.57,65.8Z" transform="translate(-228.32 -28.22)"/><path class="cls-7" d="M264.31,94.73c-.76.2-5.83-1.54-6.23-.47s.94,1.82,1.63,2a34.37,34.37,0,0,1,3.23,1.24,1.51,1.51,0,0,0,1.4-.2A2.73,2.73,0,0,0,264.31,94.73Z" transform="translate(-228.32 -28.22)"/><path class="cls-8" d="M262.94,97.23c-.6-.13-1.72-.88-3.23-1.25-.58-.14-1.58-.77-1.68-1.53-.14.87,1,1.64,1.68,1.8a34.37,34.37,0,0,1,3.23,1.24,1.51,1.51,0,0,0,1.4-.2.87.87,0,0,0,.2-.36A1.8,1.8,0,0,1,262.94,97.23Z" transform="translate(-228.32 -28.22)"/><path class="cls-8" d="M259.7,93.9a1.43,1.43,0,0,0-.73.86c0,.17.22.24.26.07a1.15,1.15,0,0,1,.85-.83A.34.34,0,0,0,259.7,93.9Z" transform="translate(-228.32 -28.22)"/><path class="cls-8" d="M260.39,94a1.49,1.49,0,0,0-.74.88c0,.17.22.24.26.07a1.18,1.18,0,0,1,.85-.84A.34.34,0,0,0,260.39,94Z" transform="translate(-228.32 -28.22)"/><path class="cls-8" d="M261.07,94.14a1.37,1.37,0,0,0-.74.87c0,.16.22.24.26.07a1.18,1.18,0,0,1,.85-.84A.34.34,0,0,0,261.07,94.14Z" transform="translate(-228.32 -28.22)"/><path class="cls-6" d="M263.14,95a1.49,1.49,0,0,1-.95-.31c-.06-1.79-.38-10-1.51-14.85a70.94,70.94,0,0,1-1.24-13.14h4.92c-.05.47-.12.94-.18,1.43-.45,3.4-1,7.25.09,11.66.85,3.63.2,12.81,0,14.94A3.15,3.15,0,0,1,263.14,95Z" transform="translate(-228.32 -28.22)"/><path class="cls-9" d="M258.58,94.1" transform="translate(-228.32 -28.22)"/><path class="cls-7" d="M259.11,97.65c-.77.2-5.83-1.54-6.24-.46s.94,1.81,1.63,2c1.51.36,2.63,1.12,3.24,1.25a1.55,1.55,0,0,0,1.39-.2A2.72,2.72,0,0,0,259.11,97.65Z" transform="translate(-228.32 -28.22)"/><path class="cls-8" d="M257.74,100.15c-.61-.12-1.73-.88-3.24-1.24-.58-.14-1.58-.78-1.68-1.53-.13.86,1,1.63,1.68,1.79,1.51.36,2.63,1.12,3.24,1.25a1.55,1.55,0,0,0,1.39-.2.83.83,0,0,0,.2-.36A1.8,1.8,0,0,1,257.74,100.15Z" transform="translate(-228.32 -28.22)"/><path class="cls-8" d="M254.49,96.83a1.47,1.47,0,0,0-.73.86c0,.16.23.24.26.07a1.19,1.19,0,0,1,.86-.84A.37.37,0,0,0,254.49,96.83Z" transform="translate(-228.32 -28.22)"/><path class="cls-8" d="M255.18,96.93a1.5,1.5,0,0,0-.74.87c0,.17.23.24.26.07a1.16,1.16,0,0,1,.86-.83A.35.35,0,0,0,255.18,96.93Z" transform="translate(-228.32 -28.22)"/><path class="cls-8" d="M255.87,97.06a1.41,1.41,0,0,0-.75.87c0,.17.22.24.26.07a1.15,1.15,0,0,1,.85-.83A.31.31,0,0,0,255.87,97.06Z" transform="translate(-228.32 -28.22)"/><path class="cls-6" d="M258,98a1.49,1.49,0,0,1-.94-.3c-.06-1.79-.38-10-1.52-14.85a69.67,69.67,0,0,1-1.06-17.31c1.36.35,3.69.92,5,1.13a37.07,37.07,0,0,1-.42,4.46c-.44,3.41-1,7.26.09,11.67.86,3.63.21,12.8,0,14.94-.21.26-.72.26-1.17.26Z" transform="translate(-228.32 -28.22)"/><path class="cls-9" d="M253.41,97.13" transform="translate(-228.32 -28.22)"/><path class="cls-7" d="M248.5,64.71c.21-.14,1.35-1.26,2.31-2.21a8.26,8.26,0,0,0,2.4-5c.25-2.51,0-5.11,1.06-7,1.75-3.08,4.83-6.13,8.7-5.44a2.47,2.47,0,0,1,1.19.5,3.31,3.31,0,0,1,1.08,2.18,16.44,16.44,0,0,1-.5,6.14,12.25,12.25,0,0,0-.19,7.24c.63,2,2.22,10,1.75,12.05,0,0-6.78,3.75-13.49.56.25-3.7,2-14.66,2.06-15.34.51.76.31,3.69.1,4.27-.54,1.42-5.71,4-5.71,4A1.77,1.77,0,0,1,248.5,64.71Z" transform="translate(-228.32 -28.22)"/><path class="cls-6" d="M258.16,37.44a3.55,3.55,0,0,1,2.64-.36,4.58,4.58,0,0,1,3,2.54,4.17,4.17,0,0,1,0,3.71,56.29,56.29,0,0,1-2.63,5.44A16.37,16.37,0,0,1,257.9,48a4.36,4.36,0,0,0,.14-2.57,2.19,2.19,0,0,1-1.48-.18c-1.06-.65-.94-2.7-.84-3.74A5.33,5.33,0,0,1,258.16,37.44Z" transform="translate(-228.32 -28.22)"/><path d="M256.28,37.23a4.77,4.77,0,0,1,1.5-.78,6.07,6.07,0,0,1,3.7,0,5.67,5.67,0,0,1,3.44,3.08c.68,1.63-.19,3.32.7,4.88a4.82,4.82,0,0,1,.14,4.62.35.35,0,0,0,0,.38,2.91,2.91,0,0,1-.55,3.86,2.86,2.86,0,0,1-1.29.56.19.19,0,0,0-.08,0c-.36,2.23-2.85,2.89-4.76,2.18a2.69,2.69,0,0,1-1.79-2.15,28.05,28.05,0,0,0-.4-3A2,2,0,0,0,255,49.31a1.65,1.65,0,0,1-.32-1.06,3.34,3.34,0,0,1,1.75-2.52,6.12,6.12,0,0,0,1.11-1.29,1.3,1.3,0,0,1,.72-.5.88.88,0,0,0,.67-.62.35.35,0,0,0-.57-.36,4.15,4.15,0,0,0-.37.37c-.14.14-.35-.06-.29-.22s.22-.56.3-.84a.81.81,0,0,0-.23-.89.36.36,0,0,0-.15-.08,9.15,9.15,0,0,1-2.23-.67C255,40.35,255.24,38,256.28,37.23Z" transform="translate(-228.32 -28.22)"/></g></g></svg>